<?xml version="1.0" encoding="UTF-8"?>
<svg width="875px" height="740px" viewBox="0 0 875 740" version="1.1" xmlns="http://www.w3.org/2000/svg" xmlns:xlink="http://www.w3.org/1999/xlink">
    <!-- Generator: Sketch 50.2 (55047) - http://www.bohemiancoding.com/sketch -->
    <title>Group 49</title>
    <desc>Created with Sketch.</desc>
    <defs></defs>
    <g id="1.-Design-👀" stroke="none" stroke-width="1" fill="none" fill-rule="evenodd">
        <g id="7.-Ivnz.-Audit" transform="translate(-842.000000, -974.000000)" fill-rule="nonzero" stroke-width="2">
            <g id="Group-7" transform="translate(842.000000, 838.000000)">
                <g id="Group-49" transform="translate(0.000000, 137.000000)">
                    <path d="M369.51939,724.679023 C551.741143,769.964593 740.285137,689.394451 810.993837,536.085152 L846.089289,459.991839 C896.113702,351.529829 876.278754,226.12724 794.093408,131.367147 C711.018238,35.5810816 565.971295,1.78922037 444.180775,49.8607656 L174.303517,156.383152 C48.4832636,206.045261 -20.4922071,326.75131 7.45362649,448.276688 C35.26417,569.213742 137.931991,667.125151 271.891446,700.416623 L369.51939,724.679023 Z" id="Path-7" stroke="#F4EEE8" fill="#FFFBF7"></path>
                    <path d="M73.5,394.794927 L73.5,305.400301 C73.5,182.413974 143.628544,70.2178188 254.11482,16.4410953 C365.243547,-37.6483271 498.924676,-8.39652726 577.375552,87.1762715 L745.052563,291.448832 C820.964653,383.928755 823.149649,516.598111 750.324186,611.53298 C678.300086,705.423195 561.543047,753.479936 444.37798,737.459241 L362.452787,726.257109 C196.905504,703.620819 73.5,562.060468 73.5,394.794927 Z" id="Path-7" stroke="#E0E5EF" fill="#F6F9FF" transform="translate(438.500000, 365.000000) rotate(-90.000000) translate(-438.500000, -365.000000) "></path>
                </g>
            </g>
        </g>
    </g>
</svg>