<?xml version="1.0" encoding="UTF-8"?>
<svg width="71px" height="74px" viewBox="0 0 71 74" version="1.1" xmlns="http://www.w3.org/2000/svg" xmlns:xlink="http://www.w3.org/1999/xlink">
    <!-- Generator: Sketch 50.2 (55047) - http://www.bohemiancoding.com/sketch -->
    <title>Group 327 Copy</title>
    <desc>Created with Sketch.</desc>
    <defs>
        <path d="M16,52.4297676 L16,43.7328679 C16,31.7679457 -7.33772232,9.25323925 3.40820313,4.02148438 C14.2166136,-1.24069192 74.3698463,-0.158304725 82,9.13964844 L81.3153862,42.3755769 C88.6986169,51.3726346 88.9111303,64.279586 81.8281057,73.5154771 C74.823022,82.6497374 63.4672004,87.3250145 52.0716939,85.7664155 L44.1036273,84.6765982 C28.0024532,82.4743903 16,68.7024644 16,52.4297676 Z" id="path-1"></path>
    </defs>
    <g id="1.-Design-👀" stroke="none" stroke-width="1" fill="none" fill-rule="evenodd">
        <g id="7.-Ivnz.-Audit" transform="translate(-710.000000, -3534.000000)">
            <g id="Group-44" transform="translate(0.000000, 1894.000000)">
                <g id="Group-26" transform="translate(0.000000, 864.000000)">
                    <g id="Group-17">
                        <g id="Group-8" transform="translate(650.000000, 106.000000)">
                            <g id="Group-48">
                                <g id="Group-9" transform="translate(0.000000, 582.000000)">
                                    <g id="Group-2">
                                        <g id="Group-10">
                                            <g id="Group-33">
                                                <g id="Group-327-Copy" transform="translate(44.000000, 75.000000)">
                                                    <mask id="mask-2" fill="white">
                                                        <use xlink:href="#path-1"></use>
                                                    </mask>
                                                    <g id="Mask" fill-rule="nonzero"></g>
                                                    <g mask="url(#mask-2)" id="Group-86">
                                                        <g transform="translate(16.000000, 13.000000)">
                                                            <g>
                                                                <path d="M2.68030304e-13,39.4297676 L0,30.7328679 C-2.40939447e-13,22.1284028 3.52742919,14.0668246 9.50540546,8.27146511 C11.8400925,6.0080987 14.548556,4.0903936 17.5666468,2.62100771 C28.3750573,-2.64116859 41.3769205,0.204639722 49.0070742,9.50259288 L65.3153862,29.3755769 C72.6986169,38.3726346 72.9111303,51.279586 65.8281057,60.5154771 C58.823022,69.6497374 47.4672004,74.3250145 36.0716939,72.7664155 L28.1036273,71.6765982 C12.0024532,69.4743903 7.03579548e-13,55.7024644 2.68030304e-13,39.4297676 Z" id="Path-7" fill="#F78200" fill-rule="nonzero"></path>
                                                                <g id="Group-84" transform="translate(0.000000, 2.000000)">
                                                                    <rect id="Rectangle-15" stroke="#000000" stroke-width="2" fill="#FFFBF7" x="1" y="8" width="56" height="64" rx="6"></rect>
                                                                    <rect id="Rectangle-10" fill="#B09981" opacity="0.699999988" style="mix-blend-mode: multiply;" x="8" y="18" width="31" height="8" rx="2"></rect>
                                                                    <rect id="Rectangle-10" stroke="#000000" stroke-width="2" fill="#FFFFFF" x="11" y="17" width="29" height="6" rx="2"></rect>
                                                                    <rect id="Rectangle-10" fill="#B09981" opacity="0.699999988" style="mix-blend-mode: multiply;" x="8" y="29" width="21" height="8" rx="2"></rect>
                                                                    <rect id="Rectangle-10" stroke="#000000" stroke-width="2" fill="#FFFFFF" x="11" y="28" width="19" height="6" rx="2"></rect>
                                                                    <g id="Group-83" transform="translate(42.000000, 0.000000)">
                                                                        <rect id="Rectangle-52" fill="#B09981" opacity="0.699999988" style="mix-blend-mode: multiply;" x="0" y="2" width="20" height="20" rx="10"></rect>
                                                                        <rect id="Rectangle-52" stroke="#222222" stroke-width="2" fill="#3B7EFF" x="3" y="1" width="18" height="18" rx="9"></rect>
                                                                        <polyline id="Path-30" stroke="#FFFFFF" stroke-width="2" stroke-linecap="round" stroke-linejoin="round" points="9 9.58142975 11.2292851 11.8107149 15.04 8"></polyline>
                                                                    </g>
                                                                    <rect id="Rectangle-8" fill="#E8DBCE" x="10" y="43" width="38" height="2" rx="1"></rect>
                                                                    <rect id="Rectangle-8" fill="#E8DBCE" x="10" y="50" width="38" height="2" rx="1"></rect>
                                                                    <rect id="Rectangle-8" fill="#E8DBCE" x="10" y="57" width="38" height="2" rx="1"></rect>
                                                                </g>
                                                            </g>
                                                        </g>
                                                    </g>
                                                </g>
                                            </g>
                                        </g>
                                    </g>
                                </g>
                            </g>
                        </g>
                    </g>
                </g>
            </g>
        </g>
    </g>
</svg>