<?xml version="1.0" encoding="UTF-8"?>
<svg width="41px" height="326px" viewBox="0 0 41 326" version="1.1" xmlns="http://www.w3.org/2000/svg" xmlns:xlink="http://www.w3.org/1999/xlink">
    <!-- Generator: Sketch 50.2 (55047) - http://www.bohemiancoding.com/sketch -->
    <title>Group 16</title>
    <desc>Created with Sketch.</desc>
    <defs></defs>
    <g id="1.-Design-👀" stroke="none" stroke-width="1" fill="none" fill-rule="evenodd">
        <g id="1.2.-M-Ivnz.-Main.-Hamburger-overlay.-Active-item" transform="translate(-279.000000, -111.000000)" fill-rule="nonzero">
            <g id="Group-15">
                <g id="Rectangle-6-+-Rectangle-6-+-Oval-10-Mask">
                    <g id="Group-16" transform="translate(280.000000, -44.000000)">
                        <path d="M303.402265,776.001038 L205.774321,752.019396 C71.4608538,719.026204 -31.498971,621.972548 -59.3968794,502.059427 C-87.4570076,381.449039 -18.2067696,261.664495 108.060433,212.402691 L377.937691,107.112955 C500.118701,59.4453352 645.616747,92.9500437 728.972919,187.947944 C811.411848,281.900497 831.313073,406.266136 781.121418,513.831468 L746.025965,589.044248 C675.108136,741.027675 486.073099,820.872888 303.402265,776.001038 Z" id="Path-7" fill="#3C7FFF" transform="translate(371.421203, 437.013102) rotate(-90.000000) translate(-371.421203, -437.013102) "></path>
                        <path d="M283.402265,776.001038 L185.774321,752.019396 C51.4608538,719.026204 -51.498971,621.972548 -79.3968794,502.059427 C-107.457008,381.449039 -38.2067696,261.664495 88.0604332,212.402691 L357.937691,107.112955 C480.118701,59.4453352 625.616747,92.9500437 708.972919,187.947944 C791.411848,281.900497 811.313073,406.266136 761.121418,513.831468 L726.025965,589.044248 C655.108136,741.027675 466.073099,820.872888 283.402265,776.001038 Z" id="Path-7-Copy" stroke="#BCBFC6" stroke-width="2" opacity="0.100000001" stroke-linecap="round" stroke-linejoin="round" transform="translate(351.421203, 437.013102) rotate(-90.000000) translate(-351.421203, -437.013102) "></path>
                    </g>
                </g>
            </g>
        </g>
    </g>
</svg>