<?xml version="1.0" encoding="UTF-8"?>
<svg width="80px" height="74px" viewBox="0 0 80 74" version="1.1" xmlns="http://www.w3.org/2000/svg" xmlns:xlink="http://www.w3.org/1999/xlink">
    <!-- Generator: Sketch 50.2 (55047) - http://www.bohemiancoding.com/sketch -->
    <title>Group 279</title>
    <desc>Created with Sketch.</desc>
    <defs></defs>
    <g id="2.-Graphics" stroke="none" stroke-width="1" fill="none" fill-rule="evenodd">
        <g id="0.-Graphics" transform="translate(-379.000000, -880.000000)">
            <g id="Group" transform="translate(105.000000, 91.000000)">
                <g id="Group-349" transform="translate(0.000000, 612.000000)">
                    <g id="Group-279" transform="translate(274.000000, 177.000000)">
                        <g id="Group-274">
                            <g id="Group-264" transform="translate(0.000000, 11.000000)" stroke="#000000" stroke-width="2">
                                <rect id="Rectangle-34" fill="#EEDAC7" x="1" y="4" width="78" height="58" rx="6"></rect>
                                <rect id="Rectangle-34" fill="#FFFBF7" x="1" y="1" width="78" height="53" rx="6"></rect>
                            </g>
                            <g id="Group-271" transform="translate(4.000000, 22.000000)">
                                <g id="Group-266">
                                    <ellipse id="Oval-16" fill-opacity="0.699999988" fill="#B09981" style="mix-blend-mode: multiply;" cx="10.5" cy="16.5" rx="10.5" ry="4.5"></ellipse>
                                    <path d="M12.513397,10.0320241 C15.6798158,10.0320241 18.3051185,11.8912696 20.3893051,15.6097605 L20.3892879,15.6097702 C20.9293403,16.5733018 20.5860424,17.7921975 19.6225108,18.3322498 C19.4907302,18.4061118 19.3510053,18.4648051 19.2060094,18.5072067 C16.2629518,19.3678536 14.0264376,19.7981771 12.4964668,19.7981771 C10.9936701,19.7981771 8.77534802,19.3830039 5.84150067,18.5526576 L5.84150393,18.5526461 C4.778688,18.2518447 4.16095315,17.1464145 4.46175451,16.0835986 C4.51753321,15.8865167 4.60325525,15.6991727 4.71592164,15.5281206 C7.12932145,11.8640563 9.72847989,10.0320241 12.513397,10.0320241 Z" id="Path-18" stroke="#000000" stroke-width="2" fill="#3C7FFF"></path>
                                    <ellipse id="Oval-13" stroke="#000000" stroke-width="2" fill="#F78200" cx="12.5" cy="5.55555556" rx="4.1" ry="4.55555556"></ellipse>
                                    <path d="M13.792221,3.36144492 C13.4804243,3.0041976 13.0171826,2.77777778 12.5,2.77777778 C11.9689353,2.77777778 11.494746,3.01651582 11.1830006,3.39049346" id="Oval-10-Copy" stroke="#FFFFFF" stroke-width="2" stroke-linecap="round" stroke-linejoin="round"></path>
                                    <path d="M14.5587364,13.0556042 C15.7062081,13.6866488 16.7185791,14.7448465 17.5958496,16.2301975" id="Path-29" stroke="#FFFFFF" stroke-width="2" stroke-linecap="round" stroke-linejoin="round"></path>
                                </g>
                                <g id="Group-265" transform="translate(47.000000, 0.000000)">
                                    <ellipse id="Oval-16" fill-opacity="0.699999988" fill="#B09981" style="mix-blend-mode: multiply;" cx="10.5" cy="16.5" rx="10.5" ry="4.5"></ellipse>
                                    <path d="M12.513397,10.0320241 C15.6798158,10.0320241 18.3051185,11.8912696 20.3893051,15.6097605 L20.3892879,15.6097702 C20.9293403,16.5733018 20.5860424,17.7921975 19.6225108,18.3322498 C19.4907302,18.4061118 19.3510053,18.4648051 19.2060094,18.5072067 C16.2629518,19.3678536 14.0264376,19.7981771 12.4964668,19.7981771 C10.9936701,19.7981771 8.77534802,19.3830039 5.84150067,18.5526576 L5.84150393,18.5526461 C4.778688,18.2518447 4.16095315,17.1464145 4.46175451,16.0835986 C4.51753321,15.8865167 4.60325525,15.6991727 4.71592164,15.5281206 C7.12932145,11.8640563 9.72847989,10.0320241 12.513397,10.0320241 Z" id="Path-18" stroke="#000000" stroke-width="2" fill="#F78200"></path>
                                    <ellipse id="Oval-13" stroke="#000000" stroke-width="2" fill="#3C7FFF" cx="12.5" cy="5.55555556" rx="4.1" ry="4.55555556"></ellipse>
                                    <path d="M13.792221,3.36144492 C13.4804243,3.0041976 13.0171826,2.77777778 12.5,2.77777778 C11.9689353,2.77777778 11.494746,3.01651582 11.1830006,3.39049346" id="Oval-10-Copy" stroke="#FFFFFF" stroke-width="2" stroke-linecap="round" stroke-linejoin="round"></path>
                                    <path d="M14.5587364,13.0556042 C15.7062081,13.6866488 16.7185791,14.7448465 17.5958496,16.2301975" id="Path-29" stroke="#FFFFFF" stroke-width="2" stroke-linecap="round" stroke-linejoin="round"></path>
                                </g>
                            </g>
                            <g id="Group-267" transform="translate(28.000000, 0.000000)">
                                <g id="Group-266"></g>
                                <g id="Group-265" transform="translate(0.000000, 42.000000)">
                                    <ellipse id="Oval-16" fill-opacity="0.699999988" fill="#B09981" style="mix-blend-mode: multiply;" cx="10.5" cy="16.5" rx="10.5" ry="4.5"></ellipse>
                                    <path d="M12.513397,10.0320241 C15.6798158,10.0320241 18.3051185,11.8912696 20.3893051,15.6097605 L20.3892879,15.6097702 C20.9293403,16.5733018 20.5860424,17.7921975 19.6225108,18.3322498 C19.4907302,18.4061118 19.3510053,18.4648051 19.2060094,18.5072067 C16.2629518,19.3678536 14.0264376,19.7981771 12.4964668,19.7981771 C10.9936701,19.7981771 8.77534802,19.3830039 5.84150067,18.5526576 L5.84150393,18.5526461 C4.778688,18.2518447 4.16095315,17.1464145 4.46175451,16.0835986 C4.51753321,15.8865167 4.60325525,15.6991727 4.71592164,15.5281206 C7.12932145,11.8640563 9.72847989,10.0320241 12.513397,10.0320241 Z" id="Path-18" stroke="#000000" stroke-width="2" fill="#F78200"></path>
                                    <ellipse id="Oval-13" stroke="#000000" stroke-width="2" fill="#F78200" cx="12.5" cy="5.55555556" rx="4.1" ry="4.55555556"></ellipse>
                                    <path d="M13.792221,3.36144492 C13.4804243,3.0041976 13.0171826,2.77777778 12.5,2.77777778 C11.9689353,2.77777778 11.494746,3.01651582 11.1830006,3.39049346" id="Oval-10-Copy" stroke="#FFFFFF" stroke-width="2" stroke-linecap="round" stroke-linejoin="round"></path>
                                    <path d="M14.5587364,13.0556042 C15.7062081,13.6866488 16.7185791,14.7448465 17.5958496,16.2301975" id="Path-29" stroke="#FFFFFF" stroke-width="2" stroke-linecap="round" stroke-linejoin="round"></path>
                                </g>
                            </g>
                            <g id="Group-269" transform="translate(28.000000, 0.000000)">
                                <path d="M3.8997766,13 L17.1002234,13 C19.4790552,13.8249778 21,15.0863669 21,16.5 C21,18.9852814 16.2989899,21 10.5,21 C4.70101013,21 0,18.9852814 0,16.5 C0,15.0863669 1.52094476,13.8249778 3.8997766,13 Z" id="Combined-Shape" fill-opacity="0.699999988" fill="#B09981" style="mix-blend-mode: multiply;"></path>
                                <g id="Group-270" transform="translate(4.000000, 0.000000)" stroke-width="2">
                                    <path d="M8.51339696,10.0320241 C11.6798158,10.0320241 14.3051185,11.8912696 16.3893051,15.6097605 L16.3892879,15.6097702 C16.9293403,16.5733018 16.5860424,17.7921975 15.6225108,18.3322498 C15.4907302,18.4061118 15.3510053,18.4648051 15.2060094,18.5072067 C12.2629518,19.3678536 10.0264376,19.7981771 8.49646683,19.7981771 C6.99367007,19.7981771 4.77534802,19.3830039 1.84150067,18.5526576 L1.84150393,18.5526461 C0.778688002,18.2518447 0.160953146,17.1464145 0.461754512,16.0835986 C0.517533207,15.8865167 0.603255248,15.6991727 0.715921644,15.5281206 C3.12932145,11.8640563 5.72847989,10.0320241 8.51339696,10.0320241 Z" id="Path-18" stroke="#000000" fill="#3C7FFF"></path>
                                    <ellipse id="Oval-13" stroke="#000000" fill="#3C7FFF" cx="8.5" cy="5.55555556" rx="4.1" ry="4.55555556"></ellipse>
                                    <path d="M9.79222098,3.36144492 C9.48042429,3.0041976 9.01718257,2.77777778 8.5,2.77777778 C7.96893526,2.77777778 7.49474597,3.01651582 7.18300058,3.39049346" id="Oval-10-Copy" stroke="#FFFFFF" stroke-linecap="round" stroke-linejoin="round"></path>
                                    <path d="M10.5587364,13.0556042 C11.7062081,13.6866488 12.7185791,14.7448465 13.5958496,16.2301975" id="Path-29" stroke="#FFFFFF" stroke-linecap="round" stroke-linejoin="round"></path>
                                </g>
                            </g>
                            <g id="Group-268" transform="translate(23.000000, 23.000000)"></g>
                            <g id="Group-272" transform="translate(32.000000, 25.000000)">
                                <g id="Group-273">
                                    <ellipse id="Oval-10" fill="#B09981" cx="3.75" cy="12" rx="3.75" ry="1"></ellipse>
                                    <path d="M2,7.62591323 L6.91875458,12.0128906 L8.99022046,12.0128906 L15.0272563,4.19544173 L15.0272563,1 L12.2086384,1 L7.90567307,7.52102891 L4.79769052,4.98046875 L2,4.98046875 L2,7.62591323 Z" id="Path-23" stroke="#000000" stroke-width="2" fill="#EEDAC7"></path>
                                </g>
                            </g>
                        </g>
                        <g id="Group-277" transform="translate(47.000000, 0.000000)"></g>
                        <g id="Group-278" transform="translate(55.000000, 0.000000)" fill="#FFFFFF" stroke="#000000" stroke-width="2">
                            <circle id="Oval-18" cx="3" cy="3" r="2"></circle>
                            <circle id="Oval-18" cx="11" cy="3" r="2"></circle>
                        </g>
                    </g>
                </g>
            </g>
        </g>
    </g>
</svg>