<?xml version="1.0" encoding="UTF-8"?>
<svg width="80px" height="68px" viewBox="0 0 80 68" version="1.1" xmlns="http://www.w3.org/2000/svg" xmlns:xlink="http://www.w3.org/1999/xlink">
    <!-- Generator: Sketch 50.2 (55047) - http://www.bohemiancoding.com/sketch -->
    <title>Group 276</title>
    <desc>Created with Sketch.</desc>
    <defs></defs>
    <g id="2.-Graphics" stroke="none" stroke-width="1" fill="none" fill-rule="evenodd">
        <g id="0.-Graphics" transform="translate(-115.000000, -886.000000)">
            <g id="Group" transform="translate(105.000000, 91.000000)">
                <g id="Group-349" transform="translate(0.000000, 612.000000)">
                    <g id="Group-276" transform="translate(10.000000, 180.000000)">
                        <g id="Group-260">
                            <g id="Group-256">
                                <g id="Group-255">
                                    <rect id="Rectangle-34" stroke="#000000" stroke-width="2" fill="#EEDAC7" x="1" y="12" width="78" height="58" rx="6"></rect>
                                    <rect id="Rectangle-34" stroke="#000000" stroke-width="2" fill="#FFFBF7" x="1" y="9" width="78" height="53" rx="6"></rect>
                                    <g id="Group-238" transform="translate(4.000000, 23.000000)">
                                        <ellipse id="Oval-16" fill="#B09981" style="mix-blend-mode: multiply;" cx="10.5" cy="16.5" rx="10.5" ry="4.5"></ellipse>
                                        <path d="M12.513397,10.0320241 C15.6798158,10.0320241 18.3051185,11.8912696 20.3893051,15.6097605 L20.3892879,15.6097702 C20.9293403,16.5733018 20.5860424,17.7921975 19.6225108,18.3322498 C19.4907302,18.4061118 19.3510053,18.4648051 19.2060094,18.5072067 C16.2629518,19.3678536 14.0264376,19.7981771 12.4964668,19.7981771 C10.9936701,19.7981771 8.77534802,19.3830039 5.84150067,18.5526576 L5.84150393,18.5526461 C4.778688,18.2518447 4.16095315,17.1464145 4.46175451,16.0835986 C4.51753321,15.8865167 4.60325525,15.6991727 4.71592164,15.5281206 C7.12932145,11.8640563 9.72847989,10.0320241 12.513397,10.0320241 Z" id="Path-18" stroke="#000000" stroke-width="2" fill="#3C7FFF"></path>
                                        <ellipse id="Oval-13" stroke="#000000" stroke-width="2" fill="#3C7FFF" cx="12.5" cy="5.55555556" rx="4.1" ry="4.55555556"></ellipse>
                                        <path d="M13.792221,3.36144492 C13.4804243,3.0041976 13.0171826,2.77777778 12.5,2.77777778 C11.9689353,2.77777778 11.494746,3.01651582 11.1830006,3.39049346" id="Oval-10-Copy" stroke="#FFFFFF" stroke-width="2" stroke-linecap="round" stroke-linejoin="round"></path>
                                        <path d="M14.5587364,13.0556042 C15.7062081,13.6866488 16.7185791,14.7448465 17.5958496,16.2301975" id="Path-29" stroke="#FFFFFF" stroke-width="2" stroke-linecap="round" stroke-linejoin="round"></path>
                                    </g>
                                    <g id="Group-238" transform="translate(50.000000, 23.000000)">
                                        <ellipse id="Oval-16" fill="#B09981" style="mix-blend-mode: multiply;" cx="10.5" cy="16.5" rx="10.5" ry="4.5"></ellipse>
                                        <path d="M12.513397,10.0320241 C15.6798158,10.0320241 18.3051185,11.8912696 20.3893051,15.6097605 L20.3892879,15.6097702 C20.9293403,16.5733018 20.5860424,17.7921975 19.6225108,18.3322498 C19.4907302,18.4061118 19.3510053,18.4648051 19.2060094,18.5072067 C16.2629518,19.3678536 14.0264376,19.7981771 12.4964668,19.7981771 C10.9936701,19.7981771 8.77534802,19.3830039 5.84150067,18.5526576 L5.84150393,18.5526461 C4.778688,18.2518447 4.16095315,17.1464145 4.46175451,16.0835986 C4.51753321,15.8865167 4.60325525,15.6991727 4.71592164,15.5281206 C7.12932145,11.8640563 9.72847989,10.0320241 12.513397,10.0320241 Z" id="Path-18" stroke="#000000" stroke-width="2" fill="#F78200"></path>
                                        <ellipse id="Oval-13" stroke="#000000" stroke-width="2" fill="#F78200" cx="12.5" cy="5.55555556" rx="4.1" ry="4.55555556"></ellipse>
                                        <path d="M13.792221,3.36144492 C13.4804243,3.0041976 13.0171826,2.77777778 12.5,2.77777778 C11.9689353,2.77777778 11.494746,3.01651582 11.1830006,3.39049346" id="Oval-10-Copy" stroke="#FFFFFF" stroke-width="2" stroke-linecap="round" stroke-linejoin="round"></path>
                                        <path d="M14.5587364,13.0556042 C15.7062081,13.6866488 16.7185791,14.7448465 17.5958496,16.2301975" id="Path-29" stroke="#FFFFFF" stroke-width="2" stroke-linecap="round" stroke-linejoin="round"></path>
                                    </g>
                                    <g id="Group-237" transform="translate(26.000000, 18.000000)" stroke="#E7DACD" stroke-linecap="round" stroke-linejoin="round" stroke-width="2">
                                        <g id="Group-252" transform="translate(0.000000, 28.000000)">
                                            <path d="M2,3 C5.9671224,5.10139974 10.1306152,6.15209961 14.4904785,6.15209961 C18.8503418,6.15209961 23.0138346,5.10139974 26.980957,3" id="Path-35"></path>
                                            <polyline id="Path-36" points="1.43017578 6.77294922 0.624755859 1.80615234 5.33398437 0.715820312"></polyline>
                                        </g>
                                        <g id="Group-252" transform="translate(13.500000, 3.500000) scale(-1, -1) translate(-13.500000, -3.500000) ">
                                            <path d="M2,3 C5.9671224,5.10139974 10.1306152,6.15209961 14.4904785,6.15209961 C18.8503418,6.15209961 23.0138346,5.10139974 26.980957,3" id="Path-35"></path>
                                            <polyline id="Path-36" points="1.43017578 6.77294922 0.624755859 1.80615234 5.33398437 0.715820312"></polyline>
                                        </g>
                                    </g>
                                    <g id="Group-253" transform="translate(4.000000, 0.000000)"></g>
                                    <g id="Group-254" transform="translate(22.000000, 3.000000)" fill="#FFFFFF" stroke-width="2">
                                        <g id="Group-258">
                                            <rect id="Rectangle-66" stroke="#000000" x="6" y="1" width="22" height="10" rx="5"></rect>
                                            <rect id="Rectangle-66" stroke="#222222" x="1" y="14" width="6" height="6" rx="3"></rect>
                                        </g>
                                    </g>
                                    <g id="Group-254" transform="translate(65.000000, 0.000000)"></g>
                                </g>
                            </g>
                            <g id="Group-259" transform="translate(66.000000, 3.000000)" stroke-width="2">
                                <g id="Group-254">
                                    <rect id="Rectangle-66" stroke="#000000" fill="#3C7FFF" x="1" y="1" width="6" height="17" rx="3"></rect>
                                    <path d="M1.47265625,6.19335938 C2.60371488,6.84570312 3.43704822,7.171875 3.97265625,7.171875 C4.50826428,7.171875 5.34159762,6.84570312 6.47265625,6.19335938" id="Path-37" stroke="#000000" opacity="0.400000006" stroke-linecap="round" stroke-linejoin="round"></path>
                                    <path d="M1.47265625,12.1933594 C2.60371488,12.8457031 3.43704822,13.171875 3.97265625,13.171875 C4.50826428,13.171875 5.34159762,12.8457031 6.47265625,12.1933594" id="Path-37" stroke="#000000" opacity="0.400000006" stroke-linecap="round" stroke-linejoin="round"></path>
                                    <path d="M3,4 L3,8.2749538" id="Path-38" stroke="#FFFFFF" stroke-linecap="round" stroke-linejoin="round"></path>
                                </g>
                            </g>
                        </g>
                    </g>
                </g>
            </g>
        </g>
    </g>
</svg>