<?xml version="1.0" encoding="UTF-8"?>
<svg width="185px" height="35px" viewBox="0 0 185 35" version="1.1" xmlns="http://www.w3.org/2000/svg" xmlns:xlink="http://www.w3.org/1999/xlink">
    <!-- Generator: Sketch 50.2 (55047) - http://www.bohemiancoding.com/sketch -->
    <title>Group 2</title>
    <desc>Created with Sketch.</desc>
    <defs></defs>
    <g id="1.-Design-👀" stroke="none" stroke-width="1" fill="none" fill-rule="evenodd">
        <g id="2.-Ivnz.-About-us" transform="translate(-1305.000000, -8358.000000)">
            <g id="Group-83" transform="translate(389.000000, 5219.000000)">
                <g id="Group-17" transform="translate(0.000000, 2518.000000)">
                    <g id="Group-63" transform="translate(0.000000, 473.000000)">
                        <g id="Group-2" transform="translate(916.000000, 148.000000)">
                            <g id="Group">
                                <g id="bananastreet" fill-rule="nonzero">
                                    <circle id="Oval" fill="#FF2255" cx="17.5" cy="17.5" r="17.5"></circle>
                                    <g id="premium" transform="translate(8.750000, 8.750000)" fill="#FFFFFF">
                                        <g id="Layer_2">
                                            <g id="Layer_1-2">
                                                <path d="M16.0416667,14.5833333 C15.2362514,14.5833333 14.5833333,13.9304152 14.5833333,13.125 L14.5833333,8.75 C14.5833333,5.52833896 11.971661,2.91666667 8.75,2.91666667 C5.52833896,2.91666667 2.91666667,5.52833896 2.91666667,8.75 L2.91666667,13.125 C2.91666667,13.9304152 2.2637486,14.5833333 1.45833333,14.5833333 C0.652918073,14.5833333 9.8634922e-17,13.9304152 0,13.125 L0,8.75 C-5.91809532e-16,3.91750844 3.91750844,8.87714298e-16 8.75,0 C13.5824915,-8.87714298e-16 17.5,3.91750844 17.5,8.75 L17.5,13.125 C17.5,13.9304152 16.8470819,14.5833333 16.0416667,14.5833333 Z M3.64583333,11.6663859 C3.64583333,10.8611257 4.2931362,10.2083333 5.10416667,10.2083333 C5.90958193,10.2083333 6.5625,10.8554201 6.5625,11.6663859 L6.5625,16.0419474 C6.5625,16.8472076 5.91519713,17.5 5.10416667,17.5 C4.2987514,17.5 3.64583333,16.8529132 3.64583333,16.0419474 L3.64583333,11.6663859 Z M10.9375,11.6663859 C10.9375,10.8611257 11.5848029,10.2083333 12.3958333,10.2083333 C13.2012485,10.2083333 13.8541667,10.8554201 13.8541667,11.6663859 L13.8541667,16.0419474 C13.8541667,16.8472076 13.2068638,17.5 12.3958333,17.5 C11.5904181,17.5 10.9375,16.8529132 10.9375,16.0419474 L10.9375,11.6663859 Z" id="Combined-Shape"></path>
                                            </g>
                                        </g>
                                    </g>
                                </g>
                                <path d="M56.4098313,14.9505495 C56.4098313,15.2362652 56.3687681,15.5192294 56.2866404,15.7994505 C56.2045127,16.0796717 56.075848,16.3406581 55.9006423,16.5824176 C55.7254366,16.824177 55.4954826,17.0329662 55.2107733,17.2087912 C54.9260641,17.3846163 54.581133,17.5109886 54.1759699,17.5879121 L54.1759699,17.6868132 C54.5373316,17.7197804 54.8767875,17.8021971 55.1943479,17.9340659 C55.5119082,18.0659347 55.7884005,18.2499988 56.0238332,18.4862637 C56.2592658,18.7225287 56.4454191,19.0082401 56.5822985,19.3434066 C56.719178,19.6785731 56.7876167,20.0714263 56.7876167,20.521978 C56.7876167,21.1263766 56.6480017,21.642855 56.3687677,22.0714286 C56.0895336,22.5000021 55.7254397,22.851647 55.2764751,23.1263736 C54.8275105,23.4011003 54.3128515,23.6043949 53.7324827,23.7362637 C53.1521138,23.8681325 52.5608034,23.9340659 51.9585339,23.9340659 L51.1783249,23.9340659 C50.8552894,23.9340659 50.5103584,23.9258243 50.1435215,23.9093407 C49.7766845,23.8928571 49.404378,23.868132 49.0265907,23.8351648 C48.6488035,23.8021976 48.30661,23.7527476 48,23.6868132 L48,12.3131868 C48.2299575,12.2802196 48.4900245,12.2472529 48.780209,12.2142857 C49.0703934,12.1813185 49.3824739,12.1538463 49.7164597,12.1318681 C50.0504456,12.10989 50.3926391,12.0934066 50.7430504,12.0824176 C51.0934618,12.0714285 51.443868,12.0659341 51.7942794,12.0659341 C52.3636979,12.0659341 52.9221576,12.1071424 53.4696754,12.1895604 C54.0171932,12.2719784 54.5099519,12.4203286 54.9479661,12.6346154 C55.3859803,12.8489022 55.739124,13.1428553 56.0074077,13.5164835 C56.2756914,13.8901118 56.4098313,14.368129 56.4098313,14.9505495 Z M51.925683,21.956044 C52.2322929,21.956044 52.5252106,21.9285717 52.8044446,21.8736264 C53.0836787,21.818681 53.330058,21.7280226 53.54359,21.6016484 C53.7571219,21.4752741 53.9268499,21.315935 54.052779,21.1236264 C54.1787081,20.9313177 54.2416717,20.6923091 54.2416717,20.4065934 C54.2416717,20.0549433 54.1650203,19.7747263 54.0117153,19.5659341 C53.8584104,19.3571418 53.6585694,19.20055 53.4121863,19.0961538 C53.1658033,18.9917577 52.8920485,18.9258243 52.5909138,18.8983516 C52.289779,18.870879 51.9859112,18.8571429 51.6793012,18.8571429 L50.3324141,18.8571429 L50.3324141,21.8571429 C50.3981163,21.879121 50.4939305,21.8956043 50.6198596,21.9065934 C50.7457886,21.9175825 50.8854036,21.9258241 51.0387086,21.9313187 C51.1920136,21.9368132 51.3480538,21.9423077 51.5068339,21.9478022 C51.6656141,21.9532967 51.8052291,21.956044 51.925683,21.956044 Z M51.1536867,17.043956 C51.3179421,17.043956 51.512308,17.0412088 51.7367903,17.0357143 C51.9612726,17.0302198 52.1501634,17.0164836 52.3034684,16.9945055 C52.7633833,16.8516476 53.1521151,16.6565946 53.4696754,16.4093407 C53.7872358,16.1620867 53.9460135,15.824178 53.9460135,15.3956044 C53.9460135,15.1098887 53.8857875,14.8791218 53.7653336,14.7032967 C53.6448796,14.5274716 53.4833643,14.3901104 53.2807827,14.2912088 C53.0782012,14.1923072 52.8509847,14.1263738 52.5991265,14.0934066 C52.3472683,14.0604394 52.0899388,14.043956 51.8271303,14.043956 C51.5095699,14.043956 51.2193899,14.0494505 50.9565813,14.0604396 C50.6937728,14.0714286 50.4857191,14.087912 50.3324141,14.1098901 L50.3324141,17.043956 L51.1536867,17.043956 Z M65.877931,21.3131868 L62.0015244,21.3131868 L61.0652736,23.7692308 L58.6343068,23.7692308 L63.1348805,12.1483516 L64.9252548,12.1483516 L69.442254,23.7692308 L66.8634581,23.7692308 L65.877931,21.3131868 Z M62.6749679,19.3846154 L65.3030402,19.3846154 L64.4160658,16.978022 L64.0218549,15.1483516 L63.9397277,15.1483516 L63.5455168,16.9945055 L62.6749679,19.3846154 Z M74.7875653,17.7527473 L73.8020382,16.021978 L73.7199109,16.021978 L73.9827182,17.7692308 L73.9827182,23.7692308 L71.6831549,23.7692308 L71.6831549,12.1483516 L73.4406783,12.1483516 L78.1876338,18.2967033 L79.1238846,19.978022 L79.2224373,19.978022 L78.95963,18.2802198 L78.95963,12.2307692 L81.2591933,12.2307692 L81.2591933,23.8516484 L79.5016699,23.8516484 L74.7875653,17.7527473 Z M90.7437184,21.3131868 L86.8673118,21.3131868 L85.9310611,23.7692308 L83.5000942,23.7692308 L88.000668,12.1483516 L89.7910422,12.1483516 L94.3080414,23.7692308 L91.7292455,23.7692308 L90.7437184,21.3131868 Z M87.5407553,19.3846154 L90.1688276,19.3846154 L89.2818532,16.978022 L88.8876424,15.1483516 L88.8055151,15.1483516 L88.4113043,16.9945055 L87.5407553,19.3846154 Z M99.6533527,17.7527473 L98.6678256,16.021978 L98.5856984,16.021978 L98.8485056,17.7692308 L98.8485056,23.7692308 L96.5489424,23.7692308 L96.5489424,12.1483516 L98.3064657,12.1483516 L103.053421,18.2967033 L103.989672,19.978022 L104.088225,19.978022 L103.825417,18.2802198 L103.825417,12.2307692 L106.124981,12.2307692 L106.124981,23.8516484 L104.367457,23.8516484 L99.6533527,17.7527473 Z M115.609506,21.3131868 L111.733099,21.3131868 L110.796849,23.7692308 L108.365882,23.7692308 L112.866455,12.1483516 L114.65683,12.1483516 L119.173829,23.7692308 L116.595033,23.7692308 L115.609506,21.3131868 Z M112.406543,19.3846154 L115.034615,19.3846154 L114.147641,16.978022 L113.75343,15.1483516 L113.671303,15.1483516 L113.277092,16.9945055 L112.406543,19.3846154 Z M126.802278,20.6043956 C126.802278,20.2637346 126.659925,19.9945065 126.375216,19.7967033 C126.090507,19.5989001 125.737363,19.4175832 125.315775,19.2527473 C124.894186,19.0879113 124.437015,18.9230777 123.944249,18.7582418 C123.451483,18.5934058 122.994313,18.3736277 122.572724,18.0989011 C122.151135,17.8241745 121.797992,17.4780241 121.513283,17.0604396 C121.228573,16.6428551 121.086221,16.0989045 121.086221,15.4285714 C121.086221,14.85714 121.18751,14.3543978 121.390092,13.9203297 C121.592673,13.4862616 121.877378,13.1291223 122.244215,12.8489011 C122.611052,12.5686799 123.054535,12.3571436 123.574677,12.2142857 C124.094819,12.0714279 124.666966,12 125.291136,12 C126.01386,12 126.700984,12.0631862 127.352531,12.1895604 C128.004077,12.3159347 128.537899,12.4945043 128.954012,12.7252747 L128.182016,14.7692308 C128.050612,14.6923073 127.883621,14.6126378 127.68104,14.5302198 C127.478458,14.4478018 127.245766,14.3763739 126.982958,14.3159341 C126.720149,14.2554942 126.44092,14.2060441 126.14526,14.1675824 C125.8496,14.1291207 125.54847,14.1098901 125.24186,14.1098901 C124.694342,14.1098901 124.270022,14.206043 123.968888,14.3983516 C123.667753,14.5906603 123.517188,14.8571412 123.517188,15.1978022 C123.517188,15.5384632 123.65954,15.8104385 123.944249,16.0137363 C124.228959,16.217034 124.582102,16.4038453 125.003691,16.5741758 C125.42528,16.7445063 125.88245,16.9148343 126.375216,17.0851648 C126.867982,17.2554954 127.325153,17.4752734 127.746741,17.7445055 C128.16833,18.0137376 128.521474,18.3516463 128.806183,18.7582418 C129.090892,19.1648372 129.233245,19.68681 129.233245,20.3241758 C129.233245,20.9615416 129.123743,21.5109867 128.904736,21.9725275 C128.685729,22.4340682 128.376386,22.8159326 127.976698,23.1181319 C127.57701,23.4203312 127.097939,23.6428564 126.539471,23.7857143 C125.981003,23.9285721 125.367792,24 124.69982,24 C124.250856,24 123.826536,23.975275 123.426848,23.9258242 C123.02716,23.8763734 122.657591,23.8159344 122.31813,23.7445055 C121.978669,23.6730766 121.680276,23.5961543 121.422943,23.5137363 C121.165609,23.4313183 120.960293,23.3516487 120.806988,23.2747253 L121.611835,21.2142857 C121.732289,21.2802201 121.89928,21.351648 122.112812,21.4285714 C122.326343,21.5054949 122.56451,21.57967 122.827319,21.6510989 C123.090127,21.7225278 123.372095,21.7802196 123.673229,21.8241758 C123.974364,21.8681321 124.278232,21.8901099 124.584842,21.8901099 C125.307565,21.8901099 125.857813,21.7857153 126.2356,21.5769231 C126.613387,21.3681308 126.802278,21.0439582 126.802278,20.6043956 Z M140.88593,14.3736264 L137.239479,14.3736264 L137.239479,23.7692308 L134.808512,23.7692308 L134.808512,14.3736264 L131.162062,14.3736264 L131.162062,12.2307692 L140.88593,12.2307692 L140.88593,14.3736264 Z M143.323936,12.3461538 C143.586744,12.3021976 143.874187,12.2609892 144.186272,12.2225275 C144.498357,12.1840657 144.813175,12.1538463 145.130736,12.1318681 C145.448296,12.10989 145.757639,12.0934066 146.058774,12.0824176 C146.359908,12.0714285 146.636401,12.0659341 146.888259,12.0659341 C147.468628,12.0659341 148.040775,12.1153841 148.604719,12.2142857 C149.168662,12.3131873 149.672371,12.4835153 150.11586,12.7252747 C150.55935,12.9670342 150.917968,13.2994484 151.191727,13.7225275 C151.465486,14.1456065 151.602364,14.675821 151.602364,15.3131868 C151.602364,16.2582465 151.369672,17.0357112 150.904282,17.6456044 C150.438892,18.2554976 149.795568,18.6703286 148.974291,18.8901099 L149.84484,19.4010989 L152.719294,23.7692308 L149.894117,23.7692308 L147.036088,19.3021978 L145.754903,19.1043956 L145.754903,23.7692308 L143.323936,23.7692308 L143.323936,12.3461538 Z M147.052513,14.2087912 C146.800655,14.2087912 146.557014,14.2115384 146.321581,14.217033 C146.086148,14.2225275 145.897257,14.2417581 145.754903,14.2747253 L145.754903,17.456044 L146.789706,17.456044 C147.479579,17.456044 148.024351,17.3241771 148.424039,17.0604396 C148.823727,16.796702 149.023568,16.3406626 149.023568,15.6923077 C149.023568,15.2087888 148.85384,14.8406606 148.514379,14.5879121 C148.174918,14.3351636 147.687634,14.2087912 147.052513,14.2087912 Z M155.206577,12.2307692 L162.614456,12.2307692 L162.614456,14.3736264 L157.637544,14.3736264 L157.637544,16.8791209 L162.154543,16.8791209 L162.154543,19.021978 L157.637544,19.021978 L157.637544,21.6263736 L162.696583,21.6263736 L162.696583,23.7692308 L155.206577,23.7692308 L155.206577,12.2307692 Z M165.676629,12.2307692 L173.084508,12.2307692 L173.084508,14.3736264 L168.107596,14.3736264 L168.107596,16.8791209 L172.624595,16.8791209 L172.624595,19.021978 L168.107596,19.021978 L168.107596,21.6263736 L173.166635,21.6263736 L173.166635,23.7692308 L165.676629,23.7692308 L165.676629,12.2307692 Z M185,14.3736264 L181.35355,14.3736264 L181.35355,23.7692308 L178.922583,23.7692308 L178.922583,14.3736264 L175.276133,14.3736264 L175.276133,12.2307692 L185,12.2307692 L185,14.3736264 Z" id="BANANASTREET" fill="#000000"></path>
                            </g>
                        </g>
                    </g>
                </g>
            </g>
        </g>
    </g>
</svg>