<?xml version="1.0" encoding="UTF-8"?>
<svg width="42px" height="41px" viewBox="0 0 42 41" version="1.1" xmlns="http://www.w3.org/2000/svg" xmlns:xlink="http://www.w3.org/1999/xlink">
    <!-- Generator: Sketch 50.2 (55047) - http://www.bohemiancoding.com/sketch -->
    <title>Group 77</title>
    <desc>Created with Sketch.</desc>
    <defs></defs>
    <g id="0.-UI-kit-" stroke="none" stroke-width="1" fill="none" fill-rule="evenodd">
        <g id="0.-Cuts.-Desktop" transform="translate(-1357.000000, -4370.000000)">
            <g id="Group-27" transform="translate(320.000000, 3890.000000)">
                <g id="Group-85" transform="translate(0.000000, 401.000000)">
                    <g id="Group-21">
                        <g id="Group-31">
                            <g id="Group-86" transform="translate(390.000000, 60.000000)">
                                <g id="Group-81" transform="translate(528.000000, 20.000000)">
                                    <g id="Group-77" transform="translate(120.000000, 0.000000)">
                                        <path d="M23,39 C15.0409132,41.6847189 5.95414355,37.9239442 3,29 L1,25 C-1.12810098,18.0187913 -0.0150243968,10.2193506 4,5 C7.42004869,-0.297747534 13.7503247,-1.26315435 20,1 L32,7 C37.6684921,10.5701287 40.9428892,17.3821644 40,25 C39.4295147,26.0525847 38.8263755,27.8385941 38,30 C35.8628004,33.6377486 32.2288441,36.7771055 28,38 L23,39 Z" id="Mask" fill="#3B5998" fill-rule="nonzero"></path>
                                        <path d="M20.9754571,28.0832512 L20.9754571,21.1094063 L22.9708717,21.1094063 L23.7009241,18.6648692 L20.9719387,18.6648692 L20.9754571,16.6210631 C20.9754571,15.9467982 21.0395212,15.5855117 22.0079604,15.5855117 L23.4589919,15.5855117 L23.4589919,13 L21.3878281,13 C18.9000273,13 17.9669381,14.2541093 17.9669381,16.3631268 L17.9669381,18.585378 L16,18.585378 L16,21.1094063 L17.9669381,21.1094063 L17.9669381,28.0832512 L20.9754571,28.0832512 Z" id="Shape" fill="#FFFBF7"></path>
                                    </g>
                                </g>
                            </g>
                        </g>
                    </g>
                </g>
            </g>
        </g>
    </g>
</svg>