<svg xmlns="http://www.w3.org/2000/svg" xmlns:xlink="http://www.w3.org/1999/xlink" viewBox="0 0 875 730"><defs><filter id="a" x="-0.2" y="-0.3" width="100.5" height="100.6" name="filter-2"><feGaussianBlur result="shadowBlurInner1" stdDeviation="1.5" in="SourceAlpha"/><feOffset result="shadowOffsetInner1" dy="1" in="shadowBlurInner1"/><feComposite result="shadowInnerInner1" operator="arithmetic" k2="-1" k3="1" in="shadowOffsetInner1" in2="SourceAlpha"/><feColorMatrix values="0 0 0 0 0 0 0 0 0 0 0 0 0 0 0 0 0 0 0.5 0" in="shadowInnerInner1"/></filter></defs><title>Монтажная область 1</title><g style="filter:url(#a)"><path d="M369.28,717.57l-97.63-24c-134.31-33-237.27-130.05-265.17-250C-21.58,323,47.67,203.23,173.94,154L443.81,48.68C566,1,711.49,34.52,794.85,129.51c82.44,94,102.34,218.32,52.15,325.89l-35.1,75.21C741,682.59,552,762.44,369.28,717.57Z"/></g><path d="M369.52,716.6C551.74,761.36,740.29,681.72,811,530.19L846.09,455c50-107.2,30.19-231.14-52-324.8C711,35.5,566,2.09,444.18,49.61L174.3,154.9C48.48,204-20.49,323.29,7.45,443.4,35.26,562.93,137.93,659.71,271.89,692.61Z" style="fill:none;stroke:#f78200;stroke-width:2px"/><path d="M468.29,730H378.9a321.34,321.34,0,0,1-289-180.61,267,267,0,0,1,70.74-323.27L365,58.45A257.52,257.52,0,0,1,685,53.18,329.35,329.35,0,0,1,811,359.12l-11.2,81.93C777.12,606.59,635.56,730,468.29,730Z" style="fill:#193162"/></svg>