<?xml version="1.0" encoding="UTF-8"?>
<svg width="92px" height="27px" viewBox="0 0 92 27" version="1.1" xmlns="http://www.w3.org/2000/svg" xmlns:xlink="http://www.w3.org/1999/xlink">
    <!-- Generator: Sketch 50.2 (55047) - http://www.bohemiancoding.com/sketch -->
    <title>Logo without sign</title>
    <desc>Created with Sketch.</desc>
    <defs></defs>
    <g id="Blocks" stroke="none" stroke-width="1" fill="none" fill-rule="evenodd">
        <g id="1.1.-M-Ivnz.-Main.-Hamburger-overlay" transform="translate(-96.000000, -20.000000)" fill="#FFFFFF">
            <g id="Logo-without-sign" transform="translate(96.000000, 20.000000)">
                <path d="M8.29831204,17.3943467 L8.29831204,25.5787752 C8.29831204,26.0115326 8.25275863,26.3304064 8.00980714,26.5733579 C7.79722458,26.7859405 7.53908861,26.899824 7.21262254,26.899824 C6.72671955,26.899824 6.42303018,26.5961346 5.97508836,25.928018 L2.12582559,20.2490268 L2.12582559,25.4724839 C2.12582559,25.9659792 2.11064112,26.1406005 1.98157314,26.3987365 C1.82213622,26.6948336 1.48048568,26.899824 1.0629128,26.899824 C0.645339912,26.899824 0.30368937,26.6948336 0.144252451,26.3987365 C0.0151844685,26.1406005 0,25.9659792 0,25.4724839 L0,17.2880554 C0,16.8552981 0.0531456398,16.5364242 0.288504902,16.2934727 C0.501087461,16.0808902 0.76681566,15.9670066 1.0856895,15.9670066 C1.57918472,15.9670066 1.87528186,16.270696 2.33081592,16.9388126 L6.17248645,22.6178039 L6.17248645,17.3943467 C6.17248645,16.9008515 6.18767092,16.7262301 6.3167389,16.4680941 C6.47617582,16.171997 6.81782636,15.9670066 7.23539924,15.9670066 C7.65297213,15.9670066 7.99462267,16.171997 8.15405959,16.4680941 C8.28312757,16.7262301 8.29831204,16.9008515 8.29831204,17.3943467 Z M13.2332625,17.3943467 L13.2332625,25.4724839 C13.2332625,25.9659792 13.218078,26.1406005 13.08901,26.3987365 C12.9295731,26.6948336 12.5879226,26.899824 12.1703497,26.899824 C11.7527768,26.899824 11.4111263,26.6948336 11.2516893,26.3987365 C11.1226214,26.1406005 11.1074369,25.9659792 11.1074369,25.4724839 L11.1074369,17.3943467 C11.1074369,16.9008515 11.1226214,16.7262301 11.2516893,16.4680941 C11.4111263,16.171997 11.7527768,15.9670066 12.1703497,15.9670066 C12.5879226,15.9670066 12.9295731,16.171997 13.08901,16.4680941 C13.218078,16.7262301 13.2332625,16.9008515 13.2332625,17.3943467 Z M20.0890492,17.9106186 L16.8699419,17.9106186 C16.4220001,17.9106186 16.2473787,17.8954341 16.0423883,17.7891429 C15.7766602,17.6524827 15.5944465,17.341201 15.5944465,16.9691816 C15.5944465,16.5971621 15.7766602,16.2858805 16.0423883,16.1492203 C16.2473787,16.042929 16.4220001,16.0277445 16.8699419,16.0277445 L21.2278843,16.0277445 C21.6682339,16.0277445 22.0782146,16.042929 22.381904,16.3466184 C22.6020787,16.5667932 22.70837,16.8401136 22.70837,17.1513952 C22.70837,17.4171234 22.6172632,17.6372982 22.351535,18.0624633 L18.008777,24.956212 L21.4404669,24.956212 C21.8884087,24.956212 22.0630301,24.9713965 22.2680204,25.0776878 C22.5337486,25.214348 22.7159623,25.5256296 22.7159623,25.8976491 C22.7159623,26.2696685 22.5337486,26.5809501 22.2680204,26.7176104 C22.0630301,26.8239016 21.8884087,26.8390861 21.4404669,26.8390861 L16.8699419,26.8390861 C16.4295923,26.8390861 16.0196116,26.8239016 15.7159223,26.5202123 C15.4957475,26.3000375 15.3894562,26.026717 15.3894562,25.7154354 C15.3894562,25.4497072 15.4881552,25.214348 15.7462912,24.8043673 L20.0890492,17.9106186 Z M29.7008163,16.9388126 L32.8212246,25.214348 C33.0262149,25.7609888 33.1476907,26.1633773 32.768079,26.5733579 C32.5706809,26.7859405 32.2897682,26.899824 32.0088555,26.899824 C31.7734963,26.899824 31.5836904,26.8314939 31.4242535,26.7024259 C31.2420399,26.5505812 31.1585253,26.3911443 30.9763117,25.9052413 L30.6194767,24.9258431 L26.3981944,24.9258431 L26.0413594,25.9052413 C25.8591458,26.3911443 25.7756312,26.5505812 25.5934176,26.7024259 C25.4339807,26.8314939 25.2441748,26.899824 25.0088155,26.899824 C24.7279029,26.899824 24.4469902,26.7859405 24.2495921,26.5733579 C23.8699804,26.1633773 23.9914562,25.7609888 24.1964465,25.214348 L27.3168548,16.9388126 C27.4686994,16.5440165 27.582583,16.3693951 27.7496121,16.2251426 C27.9546024,16.042929 28.1823695,15.9670066 28.5088355,15.9670066 C28.8353016,15.9670066 29.0630686,16.042929 29.268059,16.2251426 C29.4350881,16.3693951 29.5489716,16.5440165 29.7008163,16.9388126 Z M28.5088355,19.2240751 L27.0587188,23.1492603 L29.9589523,23.1492603 L28.5088355,19.2240751 Z M39.7984862,24.7891829 C39.2973988,24.7891829 39.046855,24.5690081 38.7811269,24.0451439 L37.0197285,20.5754928 L37.0197285,25.4724839 C37.0197285,25.9659792 37.004544,26.1406005 36.8754761,26.3987365 C36.7160391,26.6948336 36.3743886,26.899824 35.9568157,26.899824 C35.5392428,26.899824 35.1975923,26.6948336 35.0381554,26.3987365 C34.9090874,26.1406005 34.8939029,25.9659792 34.8939029,25.4724839 L34.8939029,17.2804632 C34.8939029,16.8173369 34.9546408,16.5136475 35.2127768,16.2555115 C35.4025826,16.0657057 35.6379419,15.9670066 35.9264468,15.9670066 C36.1769905,15.9670066 36.3667964,16.0125601 36.5566022,16.141628 C36.7691848,16.2782883 36.9589906,16.5364242 37.0956508,16.7945602 L39.7984862,21.942095 L42.5013216,16.7945602 C42.6379819,16.5364242 42.8277877,16.2782883 43.0403703,16.141628 C43.2301761,16.0125601 43.419982,15.9670066 43.6705257,15.9670066 C43.9590306,15.9670066 44.1943899,16.0657057 44.3841957,16.2555115 C44.6423317,16.5136475 44.7030696,16.8173369 44.7030696,17.2804632 L44.7030696,25.4724839 C44.7030696,25.9659792 44.6878851,26.1406005 44.5588171,26.3987365 C44.3993802,26.6948336 44.0577297,26.899824 43.6401568,26.899824 C43.2225839,26.899824 42.8809333,26.6948336 42.7214964,26.3987365 C42.5924284,26.1406005 42.577244,25.9659792 42.577244,25.4724839 L42.577244,20.5754928 L40.8158456,24.0451439 C40.5501174,24.5690081 40.2995737,24.7891829 39.7984862,24.7891829 Z M51.1488744,26.9301929 C49.8961557,26.9301929 48.9774954,26.5278045 48.2486409,25.7913578 C47.1781359,24.7208527 47.1401747,23.498503 47.1401747,21.4334153 C47.1401747,19.3683276 47.1781359,18.1459779 48.2486409,17.0754728 C48.9774954,16.3390261 49.8961557,15.9366377 51.1488744,15.9366377 C52.401593,15.9366377 53.3202534,16.3390261 54.0491079,17.0754728 C55.1196129,18.1459779 55.1575741,19.3683276 55.1575741,21.4334153 C55.1575741,23.498503 55.1196129,24.7208527 54.0491079,25.7913578 C53.3202534,26.5278045 52.401593,26.9301929 51.1488744,26.9301929 Z M51.1488744,17.8195118 C50.5718646,17.8195118 50.0935538,18.0472788 49.7898645,18.3965216 C49.387476,18.8520557 49.2660003,19.3683276 49.2660003,21.4334153 C49.2660003,23.498503 49.387476,24.0071827 49.7898645,24.4627168 C50.0935538,24.8043673 50.5718646,25.0473188 51.1488744,25.0473188 C51.7258842,25.0473188 52.2041949,24.8043673 52.5078843,24.4627168 C52.9102727,24.0071827 53.0317485,23.498503 53.0317485,21.4334153 C53.0317485,19.3683276 52.9102727,18.8520557 52.5078843,18.3965216 C52.2041949,18.0472788 51.7258842,17.8195118 51.1488744,17.8195118 Z M59.4016314,25.8596879 L56.6456504,17.6145215 C56.5013979,17.1817641 56.4634367,16.9919583 56.5013979,16.7490068 C56.5773202,16.2023659 57.1467378,15.9670066 57.5111651,15.9670066 C57.7541166,15.9670066 57.9742913,16.0505212 58.1337283,16.2099581 C58.3159419,16.3921718 58.3918642,16.5516087 58.5361167,16.984366 L60.5480588,23.1568525 L62.5600008,16.984366 C62.7042533,16.5516087 62.7801756,16.3921718 62.9623893,16.2099581 C63.1218262,16.0505212 63.342001,15.9670066 63.5849525,15.9670066 C63.9493797,15.9670066 64.5187973,16.2023659 64.5947196,16.7490068 C64.6326808,16.9919583 64.5947196,17.1817641 64.4504672,17.6145215 L61.6868939,25.8596879 C61.5426414,26.284853 61.4211657,26.4898433 61.2617288,26.641688 C61.0567385,26.8239016 60.8365637,26.899824 60.5480588,26.899824 C60.2519616,26.899824 60.0317868,26.8239016 59.8267965,26.641688 C59.6673596,26.4898433 59.5458838,26.284853 59.4016314,25.8596879 Z" id="NIZAMOV"></path>
                <path d="M2.63503528,1.45770898 L2.63503528,9.53584622 C2.63503528,10.0293414 2.61985081,10.2039628 2.49078283,10.4620988 C2.33134591,10.7581959 1.98969537,10.9631863 1.57212249,10.9631863 C1.1545496,10.9631863 0.812899061,10.7581959 0.653462141,10.4620988 C0.524394159,10.2039628 0.509209691,10.0293414 0.509209691,9.53584622 L0.509209691,1.45770898 C0.509209691,0.96421375 0.524394159,0.789592362 0.653462141,0.531456398 C0.812899061,0.235359262 1.1545496,0.030368937 1.57212249,0.030368937 C1.98969537,0.030368937 2.33134591,0.235359262 2.49078283,0.531456398 C2.61985081,0.789592362 2.63503528,0.96421375 2.63503528,1.45770898 Z M7.38777312,9.92305017 L4.63179208,1.67788377 C4.48753963,1.24512642 4.44957846,1.05532056 4.48753963,0.812369065 C4.56346197,0.265728199 5.13287954,0.030368937 5.49730679,0.030368937 C5.74025828,0.030368937 5.96043308,0.113883514 6.11987,0.273320433 C6.30208362,0.455534055 6.37800596,0.614970975 6.52225841,1.04772833 L8.53420049,7.22021478 L10.5461426,1.04772833 C10.690395,0.614970975 10.7663174,0.455534055 10.948531,0.273320433 C11.1079679,0.113883514 11.3281427,0.030368937 11.5710942,0.030368937 C11.9355214,0.030368937 12.504939,0.265728199 12.5808613,0.812369065 C12.6188225,1.05532056 12.5808613,1.24512642 12.4366089,1.67788377 L9.67303563,9.92305017 C9.52878318,10.3482153 9.40730743,10.5532056 9.24787051,10.7050503 C9.04288018,10.8872639 8.82270539,10.9631863 8.53420049,10.9631863 C8.23810335,10.9631863 8.01792856,10.8872639 7.81293823,10.7050503 C7.65350131,10.5532056 7.53202557,10.3482153 7.38777312,9.92305017 Z M18.609094,1.00217492 L21.7295022,9.27771026 C21.9344926,9.82435112 22.0559683,10.2267395 21.6763566,10.6367202 C21.4789585,10.8493027 21.1980458,10.9631863 20.9171332,10.9631863 C20.6817739,10.9631863 20.4919681,10.8948562 20.3325311,10.7657882 C20.1503175,10.6139435 20.0668029,10.4545066 19.8845893,9.96860358 L19.5277543,8.98920536 L15.3064721,8.98920536 L14.9496371,9.96860358 C14.7674234,10.4545066 14.6839089,10.6139435 14.5016952,10.7657882 C14.3422583,10.8948562 14.1524525,10.9631863 13.9170932,10.9631863 C13.6361805,10.9631863 13.3552679,10.8493027 13.1578698,10.6367202 C12.7782581,10.2267395 12.8997338,9.82435112 13.1047241,9.27771026 L16.2251324,1.00217492 C16.3769771,0.60737874 16.4908606,0.432757352 16.6578898,0.288504902 C16.8628801,0.10629128 17.0906471,0.030368937 17.4171132,0.030368937 C17.7435793,0.030368937 17.9713463,0.10629128 18.1763366,0.288504902 C18.3433658,0.432757352 18.4572493,0.60737874 18.609094,1.00217492 Z M17.4171132,3.28743743 L15.9669964,7.21262254 L18.8672299,7.21262254 L17.4171132,3.28743743 Z M27.4540452,6.49136029 L26.1633654,6.30155443 C25.2371128,6.16489421 24.5689962,5.88398155 24.0679088,5.39807855 C23.5440446,4.88939886 23.2935009,4.18332107 23.2935009,3.2798452 C23.2935009,1.35900993 24.7208409,0 27.0592491,0 C28.0690162,0 28.7675018,0.182213622 29.5039485,0.523864164 C30.0126282,0.759223425 30.3694632,1.1312429 30.3694632,1.57918472 C30.3694632,1.79176728 30.2859486,2.03471878 30.1265117,2.23211687 C29.974667,2.40673826 29.7696767,2.52062177 29.4963563,2.52062177 C29.2458125,2.52062177 28.9573076,2.40673826 28.7067639,2.27767028 C28.1297541,1.97398091 27.6286666,1.85250516 26.9985112,1.85250516 C25.8824528,1.85250516 25.3358119,2.46747613 25.3358119,3.15836945 C25.3358119,3.49242776 25.4193265,3.77334042 25.6470935,3.98592298 C25.8748605,4.19091331 26.1481809,4.32757352 26.6492684,4.40349587 L27.9171715,4.58570949 C28.904162,4.72996194 29.5343174,4.99569014 29.9898515,5.42844749 C30.5668613,5.96749612 30.8249972,6.74949625 30.8249972,7.71371 C30.8249972,9.80157442 29.0787834,10.9935552 26.8087053,10.9935552 C25.631909,10.9935552 24.9486079,10.8341183 24.1210544,10.4393221 C23.4301611,10.112856 23.0429571,9.80916666 23.0429571,9.20178792 C23.0429571,8.97402089 23.1492484,8.69310822 23.331462,8.5108946 C23.5060834,8.33627321 23.7034815,8.27553534 23.9236563,8.27553534 C24.1666078,8.27553534 24.3791904,8.35145768 24.7815788,8.56404024 C25.53321,8.95883642 26.0267052,9.12586557 26.831482,9.12586557 C28.0766084,9.12586557 28.7523173,8.62477811 28.7523173,7.76685564 C28.7523173,7.39483616 28.646026,7.07596232 28.4258512,6.86337977 C28.2360454,6.68116614 27.9627249,6.56728263 27.4540452,6.49136029 Z M36.6710161,9.11068111 C37.4150551,9.11068111 37.9237348,8.7538461 38.2653853,7.99462267 C38.4096377,7.68334107 38.5766669,7.41002063 38.7892495,7.24299148 C38.9259097,7.1367002 39.1536767,7.06077786 39.3966282,7.06077786 C39.6699486,7.06077786 39.9280846,7.14429243 40.1330749,7.34928276 C40.330473,7.54668085 40.4139876,7.78204011 40.4139876,8.15405959 C40.4139876,8.57922471 40.1938128,9.34604037 39.487735,10.0217492 C38.8120262,10.6822736 38.0072493,10.9935552 36.7165695,10.9935552 C35.5094043,10.9935552 34.5679672,10.5911668 33.8391127,9.85472006 C32.7686077,8.78421503 32.7306465,7.56186532 32.7306465,5.4967776 C32.7306465,3.43168988 32.7686077,2.20934017 33.8391127,1.13883514 C34.5679672,0.402388415 35.5094043,0 36.7165695,0 C38.0072493,0 38.8120262,0.311281604 39.487735,0.971805985 C40.1938128,1.64751483 40.4139876,2.41433049 40.4139876,2.83949561 C40.4139876,3.21151509 40.330473,3.44687435 40.1330749,3.64427244 C39.9280846,3.84926277 39.6699486,3.93277734 39.3966282,3.93277734 C39.1536767,3.93277734 38.9259097,3.856855 38.7892495,3.75056372 C38.5766669,3.58353457 38.4096377,3.31021413 38.2653853,2.99893253 C37.9237348,2.2397091 37.4150551,1.8828741 36.6710161,1.8828741 C36.116783,1.8828741 35.6992101,2.11064112 35.3879285,2.4598839 C34.9399867,2.97615583 34.8564721,3.5683501 34.8564721,5.4967776 C34.8564721,7.4252051 34.9399867,8.01739937 35.3879285,8.5336713 C35.6992101,8.88291408 36.116783,9.11068111 36.6710161,9.11068111 Z M44.8934042,6.37747677 L44.8934042,9.53584622 C44.8934042,10.0293414 44.8782197,10.2039628 44.7491518,10.4620988 C44.5897148,10.7581959 44.2480643,10.9631863 43.8304914,10.9631863 C43.4129185,10.9631863 43.071268,10.7581959 42.9118311,10.4620988 C42.7827631,10.2039628 42.7675786,10.0293414 42.7675786,9.53584622 L42.7675786,1.45770898 C42.7675786,0.96421375 42.7827631,0.789592362 42.9118311,0.531456398 C43.071268,0.235359262 43.4129185,0.030368937 43.8304914,0.030368937 C44.2480643,0.030368937 44.5897148,0.235359262 44.7491518,0.531456398 C44.8782197,0.789592362 44.8934042,0.96421375 44.8934042,1.45770898 L44.8934042,4.49460268 L48.5528611,4.49460268 L48.5528611,1.45770898 C48.5528611,0.96421375 48.5680456,0.789592362 48.6971136,0.531456398 C48.8565505,0.235359262 49.198201,0.030368937 49.6157739,0.030368937 C50.0333468,0.030368937 50.3749973,0.235359262 50.5344343,0.531456398 C50.6635022,0.789592362 50.6786867,0.96421375 50.6786867,1.45770898 L50.6786867,9.53584622 C50.6786867,10.0293414 50.6635022,10.2039628 50.5344343,10.4620988 C50.3749973,10.7581959 50.0333468,10.9631863 49.6157739,10.9631863 C49.198201,10.9631863 48.8565505,10.7581959 48.6971136,10.4620988 C48.5680456,10.2039628 48.5528611,10.0293414 48.5528611,9.53584622 L48.5528611,6.37747677 L44.8934042,6.37747677 Z M54.7784915,10.9024484 C54.4672099,10.9024484 54.0800059,10.9024484 53.7839088,10.6063513 C53.4878116,10.3102541 53.4878116,9.92305017 53.4878116,9.61176857 L53.4878116,1.38178663 C53.4878116,1.07050503 53.4878116,0.683301083 53.7839088,0.387203947 C54.0800059,0.0911068111 54.4672099,0.0911068111 54.7784915,0.0911068111 L59.4097544,0.0911068111 C59.8576962,0.0911068111 60.0323176,0.10629128 60.2373079,0.212582559 C60.5030361,0.349242776 60.6852497,0.66052438 60.6852497,1.03254386 C60.6852497,1.40456334 60.5030361,1.71584494 60.2373079,1.85250516 C60.0323176,1.95879644 59.8576962,1.97398091 59.4097544,1.97398091 L55.6136372,1.97398091 L55.6136372,4.50978715 L58.6808999,4.50978715 C59.1288417,4.50978715 59.3034631,4.52497162 59.5084534,4.6312629 C59.7741816,4.76792311 59.9563952,5.07920472 59.9563952,5.45122419 C59.9563952,5.82324367 59.7741816,6.13452528 59.5084534,6.27118549 C59.3034631,6.37747677 59.1288417,6.39266124 58.6808999,6.39266124 L55.6136372,6.39266124 L55.6136372,9.01957429 L59.4097544,9.01957429 C59.8576962,9.01957429 60.0323176,9.03475876 60.2373079,9.14105004 C60.5030361,9.27771026 60.6852497,9.58899186 60.6852497,9.96101134 C60.6852497,10.3330308 60.5030361,10.6443124 60.2373079,10.7809726 C60.0323176,10.8872639 59.8576962,10.9024484 59.4097544,10.9024484 L54.7784915,10.9024484 Z M71.2536382,1.45770898 L71.2536382,9.6421375 C71.2536382,10.0748949 71.2080848,10.3937687 70.9651333,10.6367202 C70.7525508,10.8493027 70.4944148,10.9631863 70.1679487,10.9631863 C69.6820457,10.9631863 69.3783564,10.6594969 68.9304146,9.99138028 L65.0811518,4.31238906 L65.0811518,9.53584622 C65.0811518,10.0293414 65.0659673,10.2039628 64.9368993,10.4620988 C64.7774624,10.7581959 64.4358119,10.9631863 64.018239,10.9631863 C63.6006661,10.9631863 63.2590156,10.7581959 63.0995786,10.4620988 C62.9705107,10.2039628 62.9553262,10.0293414 62.9553262,9.53584622 L62.9553262,1.3514177 C62.9553262,0.918660345 63.0084718,0.599786506 63.2438311,0.35683501 C63.4564137,0.144252451 63.7221419,0.030368937 64.0410157,0.030368937 C64.5345109,0.030368937 64.8306081,0.334058307 65.2861421,1.00217492 L69.1278126,6.68116614 L69.1278126,1.45770898 C69.1278126,0.96421375 69.1429971,0.789592362 69.2720651,0.531456398 C69.431502,0.235359262 69.7731526,0.030368937 70.1907254,0.030368937 C70.6082983,0.030368937 70.9499489,0.235359262 71.1093858,0.531456398 C71.2384538,0.789592362 71.2536382,0.96421375 71.2536382,1.45770898 Z M82.0725702,9.91545794 C82.0877547,10.2495162 81.8979488,10.598759 81.5487061,10.7961571 C81.3664924,10.9024484 81.1766866,10.9631863 80.9868807,10.9631863 C80.4174632,10.9631863 80.1972884,10.5759823 79.9239679,10.0976716 L77.5703753,5.98268059 L76.1885887,7.65297213 L76.1885887,9.53584622 C76.1885887,10.0293414 76.1734042,10.2039628 76.0443362,10.4620988 C75.8848993,10.7581959 75.5432488,10.9631863 75.1256759,10.9631863 C74.708103,10.9631863 74.3664525,10.7581959 74.2070155,10.4620988 C74.0779476,10.2039628 74.0627631,10.0293414 74.0627631,9.53584622 L74.0627631,1.45770898 C74.0627631,0.96421375 74.0779476,0.789592362 74.2070155,0.531456398 C74.3664525,0.235359262 74.708103,0.030368937 75.1256759,0.030368937 C75.5432488,0.030368937 75.8848993,0.235359262 76.0443362,0.531456398 C76.1734042,0.789592362 76.1885887,0.96421375 76.1885887,1.45770898 L76.1885887,4.72996194 L79.5595407,0.668116614 C79.9391524,0.212582559 80.1441427,0.030368937 80.5237544,0.030368937 C80.7742982,0.030368937 80.9792885,0.113883514 81.1690944,0.273320433 C81.3892691,0.455534055 81.5487061,0.698485551 81.5487061,1.02495162 C81.5487061,1.32104876 81.4348225,1.51085462 81.0779875,1.93601973 L79.0584532,4.38071916 L81.7309197,9.0651277 C81.9738712,9.49029282 82.0573858,9.66491421 82.0725702,9.91545794 Z M87.5162006,10.9935552 C86.2634819,10.9935552 85.3448216,10.5911668 84.6159671,9.85472006 C83.5454621,8.78421503 83.5075009,7.56186532 83.5075009,5.4967776 C83.5075009,3.43168988 83.5454621,2.20934017 84.6159671,1.13883514 C85.3448216,0.402388415 86.2634819,0 87.5162006,0 C88.7689192,0 89.6875796,0.402388415 90.4164341,1.13883514 C91.4869391,2.20934017 91.5249003,3.43168988 91.5249003,5.4967776 C91.5249003,7.56186532 91.4869391,8.78421503 90.4164341,9.85472006 C89.6875796,10.5911668 88.7689192,10.9935552 87.5162006,10.9935552 Z M87.5162006,1.8828741 C86.9391908,1.8828741 86.46088,2.11064112 86.1571906,2.4598839 C85.7548022,2.91541795 85.6333265,3.43168988 85.6333265,5.4967776 C85.6333265,7.56186532 85.7548022,8.07054501 86.1571906,8.52607907 C86.46088,8.86772961 86.9391908,9.11068111 87.5162006,9.11068111 C88.0932104,9.11068111 88.5715211,8.86772961 88.8752105,8.52607907 C89.2775989,8.07054501 89.3990747,7.56186532 89.3990747,5.4967776 C89.3990747,3.43168988 89.2775989,2.91541795 88.8752105,2.4598839 C88.5715211,2.11064112 88.0932104,1.8828741 87.5162006,1.8828741 Z" id="IVASCHENKO"></path>
            </g>
        </g>
    </g>
</svg>