<?xml version="1.0" encoding="UTF-8"?>
<svg width="152px" height="36px" viewBox="0 0 152 36" version="1.1" xmlns="http://www.w3.org/2000/svg" xmlns:xlink="http://www.w3.org/1999/xlink">
    <!-- Generator: Sketch 50.2 (55047) - http://www.bohemiancoding.com/sketch -->
    <title>Ivnz logo v2</title>
    <desc>Created with Sketch.</desc>
    <defs></defs>
    <g id="Ivnz-logo-v2" stroke="none" stroke-width="1" fill="none" fill-rule="evenodd">
        <g id="Ivnz-Sign">
            <path d="M17.7869308,9.04435962 C17.1138782,6.00674843 14.9059071,3.54636577 12.0184761,2.5186703 C14.1133376,1.52192969 16.4533523,0.965517241 18.9166667,0.965517241 C27.3408957,0.965517241 34.3181365,7.47159299 34.9532965,15.8350237 C34.960712,15.9326671 34.9645394,16.03055 34.9647709,16.1284744 L34.9999888,31.9905545 C35.0052116,34.1996874 33.2185895,35.9947772 31.0094566,36 C28.8003238,36.0052228 27.0052339,34.2186006 27.0000112,32.0094678 L26.9651751,16.3089157 C26.5834067,12.1700939 23.1028502,8.96551724 18.9166667,8.96551724 C18.5336665,8.96551724 18.1564774,8.99237519 17.7869308,9.04435962 Z" id="Combined-Shape" fill="#3C7FFF" fill-rule="nonzero"></path>
            <path d="M2.83333333,17.555356 C4.44410311,19.071193 6.61358431,20 9,20 C9.62822314,20 10.2414126,19.9356333 10.8333333,19.8131351 L10.8333333,32 C10.8333333,34.209139 9.04247233,36 6.83333333,36 C4.62419433,36 2.83333333,34.209139 2.83333333,32 L2.83333333,17.555356 Z" id="Combined-Shape" fill="#F78200" fill-rule="nonzero"></path>
            <g id="Group" transform="translate(0.000000, 2.000000)">
                <path d="M9,13 C11.209139,13 13,11.209139 13,9 C13,6.790861 11.209139,5 9,5 C6.790861,5 5,6.790861 5,9 C5,11.209139 6.790861,13 9,13 Z M9,18 C4.02943725,18 0,13.9705627 0,9 C0,4.02943725 4.02943725,0 9,0 C13.9705627,0 18,4.02943725 18,9 C18,13.9705627 13.9705627,18 9,18 Z" id="Oval-3" fill="#FFFFFF" fill-rule="nonzero" transform="translate(9.000000, 9.000000) rotate(-360.000000) translate(-9.000000, -9.000000) "></path>
                <circle id="Oval-3" fill="#F78200" transform="translate(9.000000, 9.000000) rotate(-360.000000) translate(-9.000000, -9.000000) " cx="9" cy="9" r="4.5"></circle>
            </g>
        </g>
        <path d="M58.6930018,24.2681035 L58.6930018,33.431105 C58.6930018,33.9156051 58.6420017,34.2726052 58.3700017,34.5446052 C58.1320017,34.7826053 57.8430016,34.9101053 57.4775016,34.9101053 C56.9335015,34.9101053 56.5935014,34.5701052 56.0920013,33.8221051 L51.7825006,27.4641041 L51.7825006,33.312105 C51.7825006,33.8646051 51.7655006,34.0601051 51.6210006,34.3491052 C51.4425006,34.6806052 51.0600005,34.9101053 50.5925004,34.9101053 C50.1250003,34.9101053 49.7425003,34.6806052 49.5640003,34.3491052 C49.4195002,34.0601051 49.4025002,33.8646051 49.4025002,33.312105 L49.4025002,24.1491035 C49.4025002,23.6646034 49.4620002,23.3076034 49.7255003,23.0356033 C49.9635003,22.7976033 50.2610004,22.6701033 50.6180004,22.6701033 C51.1705005,22.6701033 51.5020006,23.0101033 52.0120007,23.7581034 L56.3130014,30.1161045 L56.3130014,24.2681035 C56.3130014,23.7156034 56.3300014,23.5201034 56.4745014,23.2311034 C56.6530014,22.8996033 57.0355015,22.6701033 57.5030016,22.6701033 C57.9705016,22.6701033 58.3530017,22.8996033 58.5315017,23.2311034 C58.6760017,23.5201034 58.6930018,23.7156034 58.6930018,24.2681035 Z M64.2180006,24.2681035 L64.2180006,33.312105 C64.2180006,33.8646051 64.2010006,34.0601051 64.0565006,34.3491052 C63.8780006,34.6806052 63.4955005,34.9101053 63.0280004,34.9101053 C62.5605003,34.9101053 62.1780003,34.6806052 61.9995003,34.3491052 C61.8550002,34.0601051 61.8380002,33.8646051 61.8380002,33.312105 L61.8380002,24.2681035 C61.8380002,23.7156034 61.8550002,23.5201034 61.9995003,23.2311034 C62.1780003,22.8996033 62.5605003,22.6701033 63.0280004,22.6701033 C63.4955005,22.6701033 63.8780006,22.8996033 64.0565006,23.2311034 C64.2010006,23.5201034 64.2180006,23.7156034 64.2180006,24.2681035 Z M71.893501,24.8461036 L68.2895004,24.8461036 C67.7880003,24.8461036 67.5925003,24.8291036 67.3630002,24.7101036 C67.0655002,24.5571036 66.8615001,24.2086035 66.8615001,23.7921035 C66.8615001,23.3756034 67.0655002,23.0271033 67.3630002,22.8741033 C67.5925003,22.7551033 67.7880003,22.7381033 68.2895004,22.7381033 L73.1685012,22.7381033 C73.6615013,22.7381033 74.1205013,22.7551033 74.4605014,23.0951033 C74.7070014,23.3416034 74.8260015,23.6476034 74.8260015,23.9961035 C74.8260015,24.2936035 74.7240014,24.5401036 74.4265014,25.0161037 L69.5645006,32.7341049 L73.4065012,32.7341049 C73.9080013,32.7341049 74.1035013,32.7511049 74.3330014,32.8701049 C74.6305014,33.023105 74.8345015,33.371605 74.8345015,33.7881051 C74.8345015,34.2046052 74.6305014,34.5531052 74.3330014,34.7061052 C74.1035013,34.8251053 73.9080013,34.8421053 73.4065012,34.8421053 L68.2895004,34.8421053 C67.7965003,34.8421053 67.3375002,34.8251053 66.9975002,34.4851052 C66.7510001,34.2386052 66.6320001,33.9326051 66.6320001,33.5841051 C66.6320001,33.286605 66.7425001,33.023105 67.0315002,32.5641049 L71.893501,24.8461036 Z M82.6545011,23.7581034 L86.1480017,33.023105 C86.3775017,33.6351051 86.5135017,34.0856051 86.0885017,34.5446052 C85.8675016,34.7826053 85.5530016,34.9101053 85.2385015,34.9101053 C84.9750015,34.9101053 84.7625015,34.8336053 84.5840014,34.6891052 C84.3800014,34.5191052 84.2865014,34.3406052 84.0825013,33.7966051 L83.6830013,32.7001049 L78.9570005,32.7001049 L78.5575004,33.7966051 C78.3535004,34.3406052 78.2600004,34.5191052 78.0560004,34.6891052 C77.8775003,34.8336053 77.6650003,34.9101053 77.4015002,34.9101053 C77.0870002,34.9101053 76.7725001,34.7826053 76.5515001,34.5446052 C76.1265,34.0856051 76.2625001,33.6351051 76.4920001,33.023105 L79.9855007,23.7581034 C80.1555007,23.3161034 80.2830007,23.1206033 80.4700007,22.9591033 C80.6995008,22.7551033 80.9545008,22.6701033 81.3200009,22.6701033 C81.6855009,22.6701033 81.940501,22.7551033 82.170001,22.9591033 C82.3570011,23.1206033 82.4845011,23.3161034 82.6545011,23.7581034 Z M81.3200009,26.3166039 L79.6965006,30.7111046 L82.9435012,30.7111046 L81.3200009,26.3166039 Z M93.9595011,32.5471049 C93.398501,32.5471049 93.118001,32.3006048 92.8205009,31.7141048 L90.8485006,27.8296041 L90.8485006,33.312105 C90.8485006,33.8646051 90.8315006,34.0601051 90.6870006,34.3491052 C90.5085006,34.6806052 90.1260005,34.9101053 89.6585004,34.9101053 C89.1910003,34.9101053 88.8085003,34.6806052 88.6300003,34.3491052 C88.4855002,34.0601051 88.4685002,33.8646051 88.4685002,33.312105 L88.4685002,24.1406035 C88.4685002,23.6221034 88.5365002,23.2821034 88.8255003,22.9931033 C89.0380003,22.7806033 89.3015004,22.6701033 89.6245004,22.6701033 C89.9050005,22.6701033 90.1175005,22.7211033 90.3300005,22.8656033 C90.5680006,23.0186033 90.7805006,23.3076034 90.9335006,23.5966034 L93.9595011,29.3596044 L96.9855016,23.5966034 C97.1385017,23.3076034 97.3510017,23.0186033 97.5890017,22.8656033 C97.8015018,22.7211033 98.0140018,22.6701033 98.2945018,22.6701033 C98.6175019,22.6701033 98.8810019,22.7806033 99.093502,22.9931033 C99.382502,23.2821034 99.450502,23.6221034 99.450502,24.1406035 L99.450502,33.312105 C99.450502,33.8646051 99.433502,34.0601051 99.289002,34.3491052 C99.110502,34.6806052 98.7280019,34.9101053 98.2605018,34.9101053 C97.7930018,34.9101053 97.4105017,34.6806052 97.2320017,34.3491052 C97.0875016,34.0601051 97.0705016,33.8646051 97.0705016,33.312105 L97.0705016,27.8296041 L95.0985013,31.7141048 C94.8010013,32.3006048 94.5205012,32.5471049 93.9595011,32.5471049 Z M106.667001,34.9441053 C105.264501,34.9441053 104.236,34.4936052 103.42,33.6691051 C102.2215,32.4706049 102.179,31.1021047 102.179,28.7901043 C102.179,26.4781039 102.2215,25.1096037 103.42,23.9111035 C104.236,23.0866033 105.264501,22.6361033 106.667001,22.6361033 C108.069501,22.6361033 109.098001,23.0866033 109.914001,23.9111035 C111.112502,25.1096037 111.155002,26.4781039 111.155002,28.7901043 C111.155002,31.1021047 111.112502,32.4706049 109.914001,33.6691051 C109.098001,34.4936052 108.069501,34.9441053 106.667001,34.9441053 Z M106.667001,24.7441036 C106.021001,24.7441036 105.485501,24.9991036 105.145501,25.3901037 C104.695001,25.9001038 104.559001,26.4781039 104.559001,28.7901043 C104.559001,31.1021047 104.695001,31.6716047 105.145501,32.1816048 C105.485501,32.5641049 106.021001,32.8361049 106.667001,32.8361049 C107.313001,32.8361049 107.848501,32.5641049 108.188501,32.1816048 C108.639001,31.6716047 108.775001,31.1021047 108.775001,28.7901043 C108.775001,26.4781039 108.639001,25.9001038 108.188501,25.3901037 C107.848501,24.9991036 107.313001,24.7441036 106.667001,24.7441036 Z M115.906501,33.7456051 L112.821,24.5146036 C112.6595,24.0301035 112.617,23.8176035 112.6595,23.5456034 C112.7445,22.9336033 113.382,22.6701033 113.79,22.6701033 C114.062,22.6701033 114.3085,22.7636033 114.487,22.9421033 C114.691,23.1461033 114.776,23.3246034 114.9375,23.8091035 L117.190001,30.7196046 L119.442501,23.8091035 C119.604001,23.3246034 119.689001,23.1461033 119.893001,22.9421033 C120.071501,22.7636033 120.318001,22.6701033 120.590001,22.6701033 C120.998001,22.6701033 121.635502,22.9336033 121.720502,23.5456034 C121.763002,23.8176035 121.720502,24.0301035 121.559002,24.5146036 L118.465001,33.7456051 C118.303501,34.2216052 118.167501,34.4511052 117.989001,34.6211052 C117.759501,34.8251053 117.513001,34.9101053 117.190001,34.9101053 C116.858501,34.9101053 116.612001,34.8251053 116.382501,34.6211052 C116.204001,34.4511052 116.068001,34.2216052 115.906501,33.7456051 Z" id="NIZAMOV" fill="#FFFFFF"></path>
        <path d="M52.3525941,6.42599827 L52.3525941,15.4699997 C52.3525941,16.0224998 52.3355941,16.2179999 52.1910941,16.5069999 C52.012594,16.8385 51.630094,17.068 51.1625939,17.068 C50.6950938,17.068 50.3125937,16.8385 50.1340937,16.5069999 C49.9895937,16.2179999 49.9725937,16.0224998 49.9725937,15.4699997 L49.9725937,6.42599827 C49.9725937,5.87349818 49.9895937,5.67799814 50.1340937,5.3889981 C50.3125937,5.05749804 50.6950938,4.827998 51.1625939,4.827998 C51.630094,4.827998 52.012594,5.05749804 52.1910941,5.3889981 C52.3355941,5.67799814 52.3525941,5.87349818 52.3525941,6.42599827 Z M57.673594,15.9034998 L54.5880935,6.67249831 C54.4265935,6.18799823 54.3840935,5.97549819 54.4265935,5.70349815 C54.5115935,5.09149805 55.1490936,4.827998 55.5570937,4.827998 C55.8290937,4.827998 56.0755938,4.92149802 56.2540938,5.09999805 C56.4580938,5.30399808 56.5430939,5.48249811 56.7045939,5.96699819 L58.9570943,12.8774993 L61.2095946,5.96699819 C61.3710947,5.48249811 61.4560947,5.30399808 61.6600947,5.09999805 C61.8385947,4.92149802 62.0850948,4.827998 62.3570948,4.827998 C62.7650949,4.827998 63.402595,5.09149805 63.487595,5.70349815 C63.530095,5.97549819 63.487595,6.18799823 63.326095,6.67249831 L60.2320945,15.9034998 C60.0705944,16.3794999 59.9345944,16.6089999 59.7560944,16.779 C59.5265943,16.983 59.2800943,17.068 58.9570943,17.068 C58.6255942,17.068 58.3790942,16.983 58.1495941,16.779 C57.9710941,16.6089999 57.8350941,16.3794999 57.673594,15.9034998 Z M70.2365946,5.91599818 L73.7300951,15.1809997 C73.9595952,15.7929998 74.0955952,16.2434999 73.6705951,16.7025 C73.4495951,16.9405 73.135095,17.068 72.820595,17.068 C72.5570949,17.068 72.3445949,16.9915 72.1660949,16.847 C71.9620948,16.6769999 71.8685948,16.4984999 71.6645948,15.9544998 L71.2650947,14.8579996 L66.539094,14.8579996 L66.1395939,15.9544998 C65.9355939,16.4984999 65.8420938,16.6769999 65.6380938,16.847 C65.4595938,16.9915 65.2470937,17.068 64.9835937,17.068 C64.6690937,17.068 64.3545936,16.9405 64.1335936,16.7025 C63.7085935,16.2434999 63.8445935,15.7929998 64.0740936,15.1809997 L67.5675941,5.91599818 C67.7375942,5.47399811 67.8650942,5.27849808 68.0520942,5.11699805 C68.2815942,4.91299802 68.5365943,4.827998 68.9020943,4.827998 C69.2675944,4.827998 69.5225944,4.91299802 69.7520945,5.11699805 C69.9390945,5.27849808 70.0665945,5.47399811 70.2365946,5.91599818 Z M68.9020943,8.4744986 L67.2785941,12.8689993 L70.5255946,12.8689993 L68.9020943,8.4744986 Z M80.1390944,12.0614992 L78.6940941,11.8489992 C77.657094,11.6959991 76.9090938,11.3814991 76.3480937,10.837499 C75.7615936,10.2679989 75.4810936,9.47749877 75.4810936,8.4659986 C75.4810936,6.31549825 77.0790939,4.793998 79.6970943,4.793998 C80.8275945,4.793998 81.6095946,4.99799803 82.4340947,5.3804981 C83.0035948,5.64399814 83.4030949,6.06049821 83.4030949,6.56199829 C83.4030949,6.79999833 83.3095949,7.07199837 83.1310948,7.29299841 C82.9610948,7.48849844 82.7315948,7.61599846 82.4255947,7.61599846 C82.1450947,7.61599846 81.8220946,7.48849844 81.5415946,7.34399842 C80.8955945,7.00399836 80.3345944,6.86799834 79.6290943,6.86799834 C78.3795941,6.86799834 77.767594,7.55649845 77.767594,8.32999858 C77.767594,8.70399864 77.861094,9.01849869 78.116094,9.25649873 C78.3710941,9.48599877 78.6770941,9.63899879 79.2380942,9.72399881 L80.6575944,9.92799884 C81.7625946,10.0894989 82.4680947,10.3869989 82.9780948,10.871499 C83.6240949,11.4749991 83.913095,12.3504992 83.913095,13.4299994 C83.913095,15.7674998 81.9580947,17.102 79.4165942,17.102 C78.099094,17.102 77.3340939,16.9235 76.4075937,16.4814999 C75.6340936,16.1159999 75.2005935,15.7759998 75.2005935,15.0959997 C75.2005935,14.8409996 75.3195936,14.5264996 75.5235936,14.3224996 C75.7190936,14.1269995 75.9400937,14.0589995 76.1865937,14.0589995 C76.4585938,14.0589995 76.6965938,14.1439995 77.1470939,14.3819996 C77.988594,14.8239996 78.5410941,15.0109997 79.4420942,15.0109997 C80.8360945,15.0109997 81.5925946,14.4499996 81.5925946,13.4894994 C81.5925946,13.0729994 81.4735946,12.7159993 81.2270945,12.4779993 C81.0145945,12.2739992 80.7085945,12.1464992 80.1390944,12.0614992 Z M90.4580943,14.9939997 C91.2910945,14.9939997 91.8605946,14.5944996 92.2430946,13.7444995 C92.4045947,13.3959994 92.5915947,13.0899994 92.8295947,12.9029993 C92.9825948,12.7839993 93.2375948,12.6989993 93.5095948,12.6989993 C93.8155949,12.6989993 94.1045949,12.7924993 94.334095,13.0219993 C94.555095,13.2429994 94.648595,13.5064994 94.648595,13.9229995 C94.648595,14.3989996 94.402095,15.2574997 93.6115949,16.0139998 C92.8550947,16.7535 91.9540946,17.102 90.5090944,17.102 C89.1575941,17.102 88.103594,16.6514999 87.2875938,15.8269998 C86.0890936,14.6284996 86.0465936,13.2599994 86.0465936,10.947999 C86.0465936,8.63599863 86.0890936,7.2674984 87.2875938,6.06899821 C88.103594,5.24449807 89.1575941,4.793998 90.5090944,4.793998 C91.9540946,4.793998 92.8550947,5.14249806 93.6115949,5.88199818 C94.402095,6.6384983 94.648595,7.49699844 94.648595,7.97299852 C94.648595,8.38949859 94.555095,8.65299863 94.334095,8.87399867 C94.1045949,9.10349871 93.8155949,9.19699872 93.5095948,9.19699872 C93.2375948,9.19699872 92.9825948,9.11199871 92.8295947,8.99299869 C92.5915947,8.80599866 92.4045947,8.49999861 92.2430946,8.15149855 C91.8605946,7.30149841 91.2910945,6.90199834 90.4580943,6.90199834 C89.8375942,6.90199834 89.3700942,7.15699839 89.0215941,7.54799845 C88.520094,8.12599855 88.426594,8.78899865 88.426594,10.947999 C88.426594,13.1069994 88.520094,13.7699995 89.0215941,14.3479996 C89.3700942,14.7389996 89.8375942,14.9939997 90.4580943,14.9939997 Z M99.6635941,11.9339992 L99.6635941,15.4699997 C99.6635941,16.0224998 99.6465941,16.2179999 99.5020941,16.5069999 C99.323594,16.8385 98.941094,17.068 98.4735939,17.068 C98.0060938,17.068 97.6235937,16.8385 97.4450937,16.5069999 C97.3005937,16.2179999 97.2835937,16.0224998 97.2835937,15.4699997 L97.2835937,6.42599827 C97.2835937,5.87349818 97.3005937,5.67799814 97.4450937,5.3889981 C97.6235937,5.05749804 98.0060938,4.827998 98.4735939,4.827998 C98.941094,4.827998 99.323594,5.05749804 99.5020941,5.3889981 C99.6465941,5.67799814 99.6635941,5.87349818 99.6635941,6.42599827 L99.6635941,9.82599882 L103.760595,9.82599882 L103.760595,6.42599827 C103.760595,5.87349818 103.777595,5.67799814 103.922095,5.3889981 C104.100595,5.05749804 104.483095,4.827998 104.950595,4.827998 C105.418095,4.827998 105.800595,5.05749804 105.979095,5.3889981 C106.123595,5.67799814 106.140595,5.87349818 106.140595,6.42599827 L106.140595,15.4699997 C106.140595,16.0224998 106.123595,16.2179999 105.979095,16.5069999 C105.800595,16.8385 105.418095,17.068 104.950595,17.068 C104.483095,17.068 104.100595,16.8385 103.922095,16.5069999 C103.777595,16.2179999 103.760595,16.0224998 103.760595,15.4699997 L103.760595,11.9339992 L99.6635941,11.9339992 Z M110.730594,17 C110.382094,17 109.948594,17 109.617094,16.6684999 C109.285594,16.3369999 109.285594,15.9034998 109.285594,15.5549998 L109.285594,6.34099825 C109.285594,5.9924982 109.285594,5.55899812 109.617094,5.22749807 C109.948594,4.89599802 110.382094,4.89599802 110.730594,4.89599802 L115.915595,4.89599802 C116.417095,4.89599802 116.612595,4.91299802 116.842095,5.03199804 C117.139595,5.18499806 117.343595,5.53349812 117.343595,5.94999819 C117.343595,6.36649826 117.139595,6.71499831 116.842095,6.86799834 C116.612595,6.98699836 116.417095,7.00399836 115.915595,7.00399836 L111.665594,7.00399836 L111.665594,9.84299883 L115.099595,9.84299883 C115.601095,9.84299883 115.796595,9.85999883 116.026095,9.97899885 C116.323595,10.1319989 116.527595,10.4804989 116.527595,10.896999 C116.527595,11.3134991 116.323595,11.6619991 116.026095,11.8149992 C115.796595,11.9339992 115.601095,11.9509992 115.099595,11.9509992 L111.665594,11.9509992 L111.665594,14.8919997 L115.915595,14.8919997 C116.417095,14.8919997 116.612595,14.9089997 116.842095,15.0279997 C117.139595,15.1809997 117.343595,15.5294998 117.343595,15.9459998 C117.343595,16.3624999 117.139595,16.711 116.842095,16.864 C116.612595,16.983 116.417095,17 115.915595,17 L110.730594,17 Z M129.175595,6.42599827 L129.175595,15.5889998 C129.175595,16.0734998 129.124595,16.4304999 128.852595,16.7025 C128.614595,16.9405 128.325595,17.068 127.960095,17.068 C127.416095,17.068 127.076095,16.728 126.574595,15.9799998 L122.265094,9.62199879 L122.265094,15.4699997 C122.265094,16.0224998 122.248094,16.2179999 122.103594,16.5069999 C121.925094,16.8385 121.542594,17.068 121.075094,17.068 C120.607594,17.068 120.225094,16.8385 120.046594,16.5069999 C119.902094,16.2179999 119.885094,16.0224998 119.885094,15.4699997 L119.885094,6.30699825 C119.885094,5.82249817 119.944594,5.46549811 120.208094,5.19349806 C120.446094,4.95549803 120.743594,4.827998 121.100594,4.827998 C121.653094,4.827998 121.984594,5.16799806 122.494594,5.91599818 L126.795595,12.2739992 L126.795595,6.42599827 C126.795595,5.87349818 126.812595,5.67799814 126.957095,5.3889981 C127.135595,5.05749804 127.518095,4.827998 127.985595,4.827998 C128.453095,4.827998 128.835595,5.05749804 129.014095,5.3889981 C129.158595,5.67799814 129.175595,5.87349818 129.175595,6.42599827 Z M141.288095,15.8949998 C141.305095,16.2689999 141.092595,16.6599999 140.701595,16.881 C140.497595,17 140.285095,17.068 140.072595,17.068 C139.435095,17.068 139.188595,16.6344999 138.882595,16.0989999 L136.247594,11.4919991 L134.700594,13.3619994 L134.700594,15.4699997 C134.700594,16.0224998 134.683594,16.2179999 134.539094,16.5069999 C134.360594,16.8385 133.978094,17.068 133.510594,17.068 C133.043094,17.068 132.660594,16.8385 132.482094,16.5069999 C132.337594,16.2179999 132.320594,16.0224998 132.320594,15.4699997 L132.320594,6.42599827 C132.320594,5.87349818 132.337594,5.67799814 132.482094,5.3889981 C132.660594,5.05749804 133.043094,4.827998 133.510594,4.827998 C133.978094,4.827998 134.360594,5.05749804 134.539094,5.3889981 C134.683594,5.67799814 134.700594,5.87349818 134.700594,6.42599827 L134.700594,10.0894989 L138.474595,5.54199812 C138.899595,5.03199804 139.129095,4.827998 139.554095,4.827998 C139.834595,4.827998 140.064095,4.92149802 140.276595,5.09999805 C140.523095,5.30399808 140.701595,5.57599813 140.701595,5.94149819 C140.701595,6.27299824 140.574095,6.48549828 140.174595,6.96149835 L137.913595,9.6984988 L140.905595,14.9429997 C141.177595,15.4189997 141.271095,15.6144998 141.288095,15.8949998 Z M147.382594,17.102 C145.980094,17.102 144.951594,16.6514999 144.135594,15.8269998 C142.937094,14.6284996 142.894594,13.2599994 142.894594,10.947999 C142.894594,8.63599863 142.937094,7.2674984 144.135594,6.06899821 C144.951594,5.24449807 145.980094,4.793998 147.382594,4.793998 C148.785095,4.793998 149.813595,5.24449807 150.629595,6.06899821 C151.828095,7.2674984 151.870595,8.63599863 151.870595,10.947999 C151.870595,13.2599994 151.828095,14.6284996 150.629595,15.8269998 C149.813595,16.6514999 148.785095,17.102 147.382594,17.102 Z M147.382594,6.90199834 C146.736594,6.90199834 146.201094,7.15699839 145.861094,7.54799845 C145.410594,8.05799853 145.274594,8.63599863 145.274594,10.947999 C145.274594,13.2599994 145.410594,13.8294995 145.861094,14.3394996 C146.201094,14.7219996 146.736594,14.9939997 147.382594,14.9939997 C148.028594,14.9939997 148.564095,14.7219996 148.904095,14.3394996 C149.354595,13.8294995 149.490595,13.2599994 149.490595,10.947999 C149.490595,8.63599863 149.354595,8.05799853 148.904095,7.54799845 C148.564095,7.15699839 148.028594,6.90199834 147.382594,6.90199834 Z" id="IVASCHENKO" fill="#FFFFFF"></path>
    </g>
</svg>