<?xml version="1.0" encoding="UTF-8"?>
<svg width="30px" height="30px" viewBox="0 0 30 30" version="1.1" xmlns="http://www.w3.org/2000/svg" xmlns:xlink="http://www.w3.org/1999/xlink">
    <!-- Generator: Sketch 50.2 (55047) - http://www.bohemiancoding.com/sketch -->
    <title>Group 22</title>
    <desc>Created with Sketch.</desc>
    <defs></defs>
    <g id="2.-Graphics" stroke="none" stroke-width="1" fill="none" fill-rule="evenodd">
        <g id="0.-Graphics" transform="translate(-733.000000, -2207.000000)">
            <g id="Group-5" transform="translate(115.000000, 2118.000000)">
                <g id="Group-353" transform="translate(592.000000, 0.000000)">
                    <g id="Group-352">
                        <g id="Group-346">
                            <g id="Group-345" transform="translate(26.000000, 37.000000)">
                                <g id="Group-22" transform="translate(0.000000, 52.000000)">
                                    <g id="Group-13">
                                        <g id="Group-20" transform="translate(0.000000, 10.000000)" fill="#3C507E" stroke="#000000" stroke-width="2">
                                            <path d="M2,1 C1.44771525,1 1,1.44771525 1,2 L1,18 C1,18.5522847 1.44771525,19 2,19 L28,19 C28.5522847,19 29,18.5522847 29,18 L29,2 C29,1.44771525 28.5522847,1 28,1 L2,1 Z" id="Rectangle-17-Copy-2"></path>
                                        </g>
                                        <rect id="Rectangle-29-Copy-2" fill="#FFFFFF" x="4" y="14" width="22" height="2" rx="1"></rect>
                                        <g id="Group-19" transform="translate(22.000000, 0.000000)" fill="#50A643" stroke="#000000" stroke-width="2">
                                            <rect id="Rectangle-23" x="1" y="1" width="6" height="6" rx="3"></rect>
                                        </g>
                                    </g>
                                    <polyline id="Path-2" stroke="#000000" stroke-width="2" points="1.39160156 18.6298828 15.2050781 23.1162109 29.0185547 18.6298828"></polyline>
                                </g>
                            </g>
                        </g>
                    </g>
                </g>
            </g>
        </g>
    </g>
</svg>