<?xml version="1.0" encoding="UTF-8"?>
<svg width="48px" height="46px" viewBox="0 0 48 46" version="1.1" xmlns="http://www.w3.org/2000/svg" xmlns:xlink="http://www.w3.org/1999/xlink">
    <!-- Generator: Sketch 50.2 (55047) - http://www.bohemiancoding.com/sketch -->
    <title>Group 300</title>
    <desc>Created with Sketch.</desc>
    <defs></defs>
    <g id="3.-Symbols" stroke="none" stroke-width="1" fill="none" fill-rule="evenodd">
        <g id="Footer" transform="translate(-981.000000, -31.000000)">
            <g id="Group-7">
                <g id="Group-6" transform="translate(639.000000, 31.000000)">
                    <g id="Group-300" transform="translate(342.000000, 0.000000)">
                        <rect id="Rectangle-25-Copy" fill="#000000" x="0" y="43" width="48" height="2" rx="1"></rect>
                        <path d="M4,44.0087229 L44,44.0087229 L44,18 C44,17.4477153 43.5522847,17 43,17 L5,17 C4.44771525,17 4,17.4477153 4,18 L4,44.0087229 Z" id="Rectangle-17-Copy-2" stroke="#000000" stroke-width="2" fill="#3C507E"></path>
                        <path d="M43.5108223,25.0018351 L44,26.95077 L24.8059369,31.8745297 C24.4848974,31.9568844 24.1484236,31.9581641 23.8267669,31.8782535 L4,26.9526051 L4.47464111,25 L23.8190453,29.805813 C24.1407019,29.8857235 24.4771757,29.8844439 24.7982152,29.8020892 L43.5108223,25.0018351 Z" id="Path-40-Copy" fill="#000000" fill-rule="nonzero"></path>
                        <rect id="Rectangle-29-Copy" fill="#FFFFFF" x="7" y="20" width="24" height="2" rx="1"></rect>
                        <rect id="Rectangle-29-Copy-2" fill="#FFFFFF" x="7" y="20" width="24" height="2" rx="1"></rect>
                        <path d="M21.6967773,31.2099609 L20.7454215,31.8903074 C19.7838364,32.5779692 18.5673197,32.8050621 17.4224027,32.510631 L5,29.31604 L5,27 L21.6967773,31.2099609 Z" id="Path-41-Copy" fill="#1F2637" opacity="0.400000006" style="mix-blend-mode: multiply;"></path>
                        <path d="M44.0449219,16 L44.0449219,18 C44.0449219,20.209139 42.2540609,22 40.0449219,22 L30,22 C27.790861,22 26,20.209139 26,18 L26,16 L44.0449219,16 Z" id="Combined-Shape" fill="#1F2637" opacity="0.400000006" style="mix-blend-mode: multiply;"></path>
                        <rect id="Rectangle-23" stroke="#000000" stroke-width="2" fill="#50A643" x="29" y="1" width="18" height="18" rx="4"></rect>
                        <text id="1" font-family="TTRounds-Bold, TT Rounds" font-size="12" font-weight="bold" fill="#FFFFFF">
                            <tspan x="35" y="14">1</tspan>
                        </text>
                    </g>
                </g>
            </g>
        </g>
    </g>
</svg>