<?xml version="1.0" encoding="UTF-8"?>
<svg width="88px" height="70px" viewBox="0 0 88 70" version="1.1" xmlns="http://www.w3.org/2000/svg" xmlns:xlink="http://www.w3.org/1999/xlink">
    <!-- Generator: Sketch 50.2 (55047) - http://www.bohemiancoding.com/sketch -->
    <title>Group 216</title>
    <desc>Created with Sketch.</desc>
    <defs></defs>
    <g id="2.-Graphics" stroke="none" stroke-width="1" fill="none" fill-rule="evenodd">
        <g id="0.-Graphics" transform="translate(-112.000000, -295.000000)">
            <g id="Group" transform="translate(105.000000, 91.000000)">
                <g id="Group-214" transform="translate(5.000000, 0.000000)">
                    <g id="Group-216" transform="translate(2.000000, 204.000000)">
                        <rect id="Rectangle-34" stroke="#000000" stroke-width="2" fill="#EEDAC7" x="6" y="11" width="78" height="58" rx="6"></rect>
                        <rect id="Rectangle-34" stroke="#000000" stroke-width="2" fill="#FFFBF7" x="6" y="8" width="78" height="53" rx="6"></rect>
                        <rect id="Rectangle-47" fill="#B09981" opacity="0.200000003" x="7" y="24" width="76" height="2"></rect>
                        <rect id="Rectangle-47" fill="#B09981" opacity="0.200000003" x="7" y="43" width="76" height="2"></rect>
                        <path d="M2.20171751,61.901992 C1.33857261,62.4957822 1.08752292,63.6592621 1.62901947,64.5561386 C1.64569062,64.5837509 1.6631691,64.6108676 1.68143231,64.6374537 C2.19660653,65.3874033 3.22219198,65.5777263 3.97214152,65.062552 L85.7803181,8.8648196 C85.8106724,8.84396782 85.840325,8.82211238 85.8692266,8.79928952 C86.5892133,8.2307339 86.7119724,7.18616395 86.1434168,6.46617724 C85.4781416,5.62371034 84.2734106,5.44175745 83.3890058,6.05017312 L2.20171751,61.901992 Z" id="Path-28" stroke="#000000" stroke-width="2" fill="#F78200"></path>
                        <ellipse id="Oval-16" fill="#B09981" style="mix-blend-mode: multiply;" cx="18.5" cy="51.5" rx="10.5" ry="4.5"></ellipse>
                        <path d="M20.513397,45.0320241 C23.6798158,45.0320241 26.3051185,46.8912696 28.3893051,50.6097605 L28.3892879,50.6097702 C28.9293403,51.5733018 28.5860424,52.7921975 27.6225108,53.3322498 C27.4907302,53.4061118 27.3510053,53.4648051 27.2060094,53.5072067 C24.2629518,54.3678536 22.0264376,54.7981771 20.4964668,54.7981771 C18.9936701,54.7981771 16.775348,54.3830039 13.8415007,53.5526576 L13.8415039,53.5526461 C12.778688,53.2518447 12.1609531,52.1464145 12.4617545,51.0835986 C12.5175332,50.8865167 12.6032552,50.6991727 12.7159216,50.5281206 C15.1293214,46.8640563 17.7284799,45.0320241 20.513397,45.0320241 Z" id="Path-18" stroke="#000000" stroke-width="2" fill="#3C7FFF"></path>
                        <ellipse id="Oval-13" stroke="#000000" stroke-width="2" fill="#3C7FFF" cx="20.5" cy="40.5555556" rx="4.1" ry="4.55555556"></ellipse>
                        <path d="M21.792221,38.3614449 C21.4804243,38.0041976 21.0171826,37.7777778 20.5,37.7777778 C19.9689353,37.7777778 19.494746,38.0165158 19.1830006,38.3904935" id="Oval-10-Copy" stroke="#FFFFFF" stroke-width="2" stroke-linecap="round" stroke-linejoin="round"></path>
                        <path d="M22.5587364,48.0556042 C23.7062081,48.6866488 24.7185791,49.7448465 25.5958496,51.2301975" id="Path-29" stroke="#FFFFFF" stroke-width="2" stroke-linecap="round" stroke-linejoin="round"></path>
                        <ellipse id="Oval-16" fill="#B09981" style="mix-blend-mode: multiply;" cx="43.5" cy="35.5" rx="10.5" ry="4.5"></ellipse>
                        <path d="M45.513397,29.0320241 C48.6798158,29.0320241 51.3051185,30.8912696 53.3893051,34.6097605 L53.3892879,34.6097702 C53.9293403,35.5733018 53.5860424,36.7921975 52.6225108,37.3322498 C52.4907302,37.4061118 52.3510053,37.4648051 52.2060094,37.5072067 C49.2629518,38.3678536 47.0264376,38.7981771 45.4964668,38.7981771 C43.9936701,38.7981771 41.775348,38.3830039 38.8415007,37.5526576 L38.8415039,37.5526461 C37.778688,37.2518447 37.1609531,36.1464145 37.4617545,35.0835986 C37.5175332,34.8865167 37.6032552,34.6991727 37.7159216,34.5281206 C40.1293214,30.8640563 42.7284799,29.0320241 45.513397,29.0320241 Z" id="Path-18" stroke="#000000" stroke-width="2" fill="#3C7FFF"></path>
                        <ellipse id="Oval-13" stroke="#000000" stroke-width="2" fill="#3C7FFF" cx="45.5" cy="24.5555556" rx="4.1" ry="4.55555556"></ellipse>
                        <path d="M46.792221,22.3614449 C46.4804243,22.0041976 46.0171826,21.7777778 45.5,21.7777778 C44.9689353,21.7777778 44.494746,22.0165158 44.1830006,22.3904935" id="Oval-10-Copy" stroke="#FFFFFF" stroke-width="2" stroke-linecap="round" stroke-linejoin="round"></path>
                        <path d="M47.5587364,32.0556042 C48.7062081,32.6866488 49.7185791,33.7448465 50.5958496,35.2301975" id="Path-29" stroke="#FFFFFF" stroke-width="2" stroke-linecap="round" stroke-linejoin="round"></path>
                        <ellipse id="Oval-16" fill="#B09981" style="mix-blend-mode: multiply;" cx="68.5" cy="16.5" rx="10.5" ry="4.5"></ellipse>
                        <path d="M70.513397,10.0320241 C73.6798158,10.0320241 76.3051185,11.8912696 78.3893051,15.6097605 L78.3892879,15.6097702 C78.9293403,16.5733018 78.5860424,17.7921975 77.6225108,18.3322498 C77.4907302,18.4061118 77.3510053,18.4648051 77.2060094,18.5072067 C74.2629518,19.3678536 72.0264376,19.7981771 70.4964668,19.7981771 C68.9936701,19.7981771 66.775348,19.3830039 63.8415007,18.5526576 L63.8415039,18.5526461 C62.778688,18.2518447 62.1609531,17.1464145 62.4617545,16.0835986 C62.5175332,15.8865167 62.6032552,15.6991727 62.7159216,15.5281206 C65.1293214,11.8640563 67.7284799,10.0320241 70.513397,10.0320241 Z" id="Path-18" stroke="#000000" stroke-width="2" fill="#3C7FFF"></path>
                        <ellipse id="Oval-13" stroke="#000000" stroke-width="2" fill="#3C7FFF" cx="70.5" cy="5.55555556" rx="4.1" ry="4.55555556"></ellipse>
                        <path d="M71.792221,3.36144492 C71.4804243,3.0041976 71.0171826,2.77777778 70.5,2.77777778 C69.9689353,2.77777778 69.494746,3.01651582 69.1830006,3.39049346" id="Oval-10-Copy" stroke="#FFFFFF" stroke-width="2" stroke-linecap="round" stroke-linejoin="round"></path>
                        <path d="M72.5587364,13.0556042 C73.7062081,13.6866488 74.7185791,14.7448465 75.5958496,16.2301975" id="Path-29" stroke="#FFFFFF" stroke-width="2" stroke-linecap="round" stroke-linejoin="round"></path>
                    </g>
                </g>
            </g>
        </g>
    </g>
</svg>