<?xml version="1.0" encoding="UTF-8"?>
<svg width="42px" height="41px" viewBox="0 0 42 41" version="1.1" xmlns="http://www.w3.org/2000/svg" xmlns:xlink="http://www.w3.org/1999/xlink">
    <!-- Generator: Sketch 50.2 (55047) - http://www.bohemiancoding.com/sketch -->
    <title>Mask</title>
    <desc>Created with Sketch.</desc>
    <defs></defs>
    <g id="1.-Design-👀" stroke="none" stroke-width="1" fill="none" fill-rule="evenodd">
        <g id="6.-Ivnz.-Blog" transform="translate(-919.000000, -2950.000000)" fill-rule="nonzero" stroke="#F78200" stroke-width="2">
            <g id="Group-58" transform="translate(330.000000, 2001.000000)">
                <g id="Group-55" transform="translate(0.000000, 7.000000)">
                    <g id="Group-52" transform="translate(60.000000, 913.000000)">
                        <g id="Group-51" transform="translate(250.000000, 30.000000)">
                            <g id="Group-64" transform="translate(280.000000, 0.000000)">
                                <path d="M37.0958094,29.5644995 C37.3421808,28.9162075 38.0143431,27.1117308 38.1622972,26.7260359 C38.5068177,25.8279204 38.7725725,25.1977841 39.0289686,24.6978087 C39.8343153,17.6831211 36.8820334,11.2565623 31.5527864,7.89442719 L19.6054173,1.92074264 C13.4023266,-0.306563731 7.80505379,0.949620137 4.79261376,5.60972406 C1.02292614,10.5101479 -0.085649977,17.9216471 1.93243126,24.6287945 L3.89442719,28.5527864 L3.94933565,28.6857361 C6.62058603,36.7551101 14.9059746,40.6748773 22.6803788,38.0524546 L22.8038839,38.0194193 L27.7222028,37.0393603 C31.5099106,35.9440333 34.9835873,33.1191491 37.0958094,29.5644995 Z" id="Mask"></path>
                            </g>
                        </g>
                    </g>
                </g>
            </g>
        </g>
    </g>
</svg>