<?xml version="1.0" encoding="UTF-8"?>
<svg width="42px" height="41px" viewBox="0 0 42 41" version="1.1" xmlns="http://www.w3.org/2000/svg" xmlns:xlink="http://www.w3.org/1999/xlink">
    <!-- Generator: Sketch 50.2 (55047) - http://www.bohemiancoding.com/sketch -->
    <title>Mask</title>
    <desc>Created with Sketch.</desc>
    <defs></defs>
    <g id="1.-Design-👀" stroke="none" stroke-width="1" fill="none" fill-rule="evenodd">
        <g id="6.-Ivnz.-Blog" transform="translate(-1239.000000, -2950.000000)" fill-rule="nonzero" stroke="#3C7FFF" stroke-width="2">
            <g id="Group-58" transform="translate(330.000000, 2001.000000)">
                <g id="Group-55" transform="translate(0.000000, 7.000000)">
                    <g id="Group-52" transform="translate(60.000000, 913.000000)">
                        <g id="Group-51" transform="translate(250.000000, 30.000000)">
                            <path d="M637.095809,29.5644995 C637.342181,28.9162075 638.014343,27.1117308 638.162297,26.7260359 C638.506818,25.8279204 638.772572,25.1977841 639.028969,24.6978087 C639.834315,17.6831211 636.882033,11.2565623 631.552786,7.89442719 L619.605417,1.92074264 C613.402327,-0.306563731 607.805054,0.949620137 604.792614,5.60972406 C601.022926,10.5101479 599.91435,17.9216471 601.932431,24.6287945 L603.894427,28.5527864 L603.949336,28.6857361 C606.620586,36.7551101 614.905975,40.6748773 622.680379,38.0524546 L622.803884,38.0194193 L627.722203,37.0393603 C631.509911,35.9440333 634.983587,33.1191491 637.095809,29.5644995 Z" id="Mask"></path>
                        </g>
                    </g>
                </g>
            </g>
        </g>
    </g>
</svg>