<?xml version="1.0" encoding="UTF-8"?>
<svg width="143px" height="39px" viewBox="0 0 143 39" version="1.1" xmlns="http://www.w3.org/2000/svg" xmlns:xlink="http://www.w3.org/1999/xlink">
    <!-- Generator: Sketch 50.2 (55047) - http://www.bohemiancoding.com/sketch -->
    <title>Group 105</title>
    <desc>Created with Sketch.</desc>
    <defs></defs>
    <g id="1.-Design-👀" stroke="none" stroke-width="1" fill="none" fill-rule="evenodd">
        <g id="2.-Ivnz.-About-us" transform="translate(-1035.000000, -8973.000000)" fill="#FFFFFF" fill-rule="nonzero">
            <g id="Group-84" transform="translate(0.000000, 8747.000000)">
                <g id="Group-76">
                    <g id="Group-14">
                        <g id="Group-11">
                            <g id="Group-75">
                                <g id="Group-105" transform="translate(1035.000000, 226.000000)">
                                    <polygon id="Star" points="20.1666666 29.7509643 7.70298124 39 12.5033334 24.090228 0 14.8966745 15.4304663 14.9309644 20.1666666 0 24.9028671 14.9309644 40.3333333 14.8966745 27.8299999 24.090228 32.6303521 39"></polygon>
                                    <path d="M63.4198617,25.6524064 C63.4198617,24.9489398 63.1685605,24.4089336 62.6659503,24.0323721 C62.1633401,23.6558104 61.2586556,23.2585646 59.9518693,22.8406225 C58.6450829,22.4226806 57.6105593,22.0109518 56.8482673,21.605424 C54.7708122,20.4964293 53.7321002,19.0026196 53.7321002,17.1239496 C53.7321002,16.1473723 54.0106259,15.276328 54.5676853,14.5107907 C55.1247448,13.7452534 55.9247206,13.1473156 56.9676367,12.7169595 C58.0105526,12.2866034 59.1811978,12.0714286 60.4796072,12.0714286 C61.7863936,12.0714286 62.9507562,12.3052243 63.9727301,12.7728228 C64.9947039,13.2404212 65.7883972,13.9004286 66.3538335,14.7528648 C66.9192699,15.6053009 67.2019839,16.5735876 67.2019839,17.657754 L63.4324269,17.657754 C63.4324269,16.8301462 63.1685605,16.1866906 62.6408199,15.7273682 C62.1130794,15.2680458 61.3717406,15.0383881 60.4167813,15.0383881 C59.4953295,15.0383881 58.7791207,15.230804 58.2681338,15.6156417 C57.7571469,16.0004794 57.5016572,16.5073816 57.5016572,17.1363636 C57.5016572,17.7239652 57.8011247,18.2163845 58.4000684,18.6136364 C58.9990119,19.0108882 59.8806606,19.3833061 61.0450408,19.7309015 C63.1895106,20.3681596 64.751767,21.1585132 65.7318567,22.1019862 C66.7119463,23.0454593 67.2019839,24.2206449 67.2019839,25.6275783 C67.2019839,27.1917572 66.6030492,28.4186675 65.4051617,29.308346 C64.2072743,30.1980246 62.5947577,30.6428571 60.5675636,30.6428571 C59.1602552,30.6428571 57.8786187,30.3883716 56.7226154,29.8793926 C55.5666122,29.3704137 54.6849635,28.6731647 54.077643,27.7876241 C53.4703224,26.9020836 53.1666667,25.8758653 53.1666667,24.7089381 L56.9487889,24.7089381 C56.9487889,26.7034732 58.155035,27.7007257 60.5675636,27.7007257 C61.463885,27.7007257 62.1633401,27.5207238 62.6659503,27.1607144 C63.1685605,26.8007048 63.4198617,26.2979405 63.4198617,25.6524064 Z M76.0804881,24.026165 L76.0804881,30.394576 L72.3109311,30.394576 L72.3109311,12.3197097 L79.447959,12.3197097 C80.8217601,12.3197097 82.0301003,12.5679884 83.0730164,13.0645531 C84.1159323,13.5611178 84.9180024,14.266643 85.4792502,15.1811497 C86.0404982,16.0956565 86.3211179,17.1363578 86.3211179,18.303285 C86.3211179,20.0743659 85.707524,21.4709333 84.4803177,22.4930291 C83.2531112,23.5151247 81.5547334,24.026165 79.3851331,24.026165 L76.0804881,24.026165 Z M76.0804881,21.0095493 L79.447959,21.0095493 C80.4448025,21.0095493 81.2049888,20.7778225 81.7285411,20.3143621 C82.2520932,19.8509017 82.5138654,19.1888253 82.5138654,18.3281131 C82.5138654,17.4425725 82.2499991,16.7267025 81.7222584,16.1804813 C81.1945178,15.6342601 80.4657441,15.3528776 79.5359153,15.3363254 L76.0804881,15.3363254 L76.0804881,21.0095493 Z M99.5597432,26.6703591 L92.9504533,26.6703591 L91.6939343,30.394576 L87.6856387,30.394576 L94.4959717,12.3197097 L97.9890945,12.3197097 L104.837123,30.394576 L100.828827,30.394576 L99.5597432,26.6703591 Z M93.9682337,23.6537433 L98.5419628,23.6537433 L96.2425331,16.8880825 L93.9682337,23.6537433 Z M115.87684,23.7778839 L112.87376,23.7778839 L112.87376,30.394576 L109.104203,30.394576 L109.104203,12.3197097 L115.90197,12.3197097 C118.063194,12.3197097 119.730159,12.7955771 120.902916,13.7473262 C122.075673,14.6990753 122.662043,16.043918 122.662043,17.7818946 C122.662043,19.0150303 122.391894,20.0433178 121.851588,20.8667875 C121.311282,21.6902575 120.492459,22.3461269 119.395093,22.8344156 L123.353128,30.2207792 L123.353128,30.394576 L119.307137,30.394576 L115.87684,23.7778839 Z M112.87376,20.7612681 L115.914535,20.7612681 C116.861118,20.7612681 117.59408,20.5233344 118.113444,20.0474598 C118.632808,19.5715854 118.892486,18.9157159 118.892486,18.0798319 C118.892486,17.2273958 118.647467,16.5570434 118.157422,16.0687548 C117.667377,15.5804661 116.915567,15.3363254 115.90197,15.3363254 L112.87376,15.3363254 L112.87376,20.7612681 Z M133.814846,23.144767 L131.854676,25.2303285 L131.854676,30.394576 L128.085119,30.394576 L128.085119,12.3197097 L131.854676,12.3197097 L131.854676,20.512987 L133.513282,18.2660428 L138.174967,12.3197097 L142.811522,12.3197097 L136.315319,20.3516043 L143,30.394576 L138.514227,30.394576 L133.814846,23.144767 Z" id="Shape"></path>
                                </g>
                            </g>
                        </g>
                    </g>
                </g>
            </g>
        </g>
    </g>
</svg>