<?xml version="1.0" encoding="utf-8"?>
<!-- Generator: Adobe Illustrator 22.0.1, SVG Export Plug-In . SVG Version: 6.00 Build 0)  -->
<svg version="1.1" id="Слой_1" xmlns:sketch="http://www.bohemiancoding.com/sketch/ns"
	 xmlns="http://www.w3.org/2000/svg" xmlns:xlink="http://www.w3.org/1999/xlink" x="0px" y="0px" viewBox="0 0 151 31"
	 style="enable-background:new 0 0 151 31;" xml:space="preserve" width="151px" height="31px" >
<style type="text/css">
	.st0{fill:#FFFFFF;}
</style>
<g id="Page-1">
	<g id="meduza">
		<path id="Imported-Layers" class="st0" d="M16.4,13.5v15.3l7.2,2.2V13.5h4.6v15.3l7.1,2.2l4.7-6.2h-4.6V9.7l-7.1-2.4l-4.7,5.4V9.7
			l-7.1-2.4l-4.7,5.4V9.7L4.7,7.3L0,13.5h4.6v15.3l7.2,2.2V13.5H16.4L16.4,13.5z M93.4,24.8V9.5l-7.2-2.2v21.3l7.1,2.4l4.7-5.4v2.9
			l7.1,2.4l4.7-6.2h-4.6V9.5l-7.2-2.2v17.5H93.4L93.4,24.8z M146.4,10.3l-7-3.1l-8.3,3.9l8.3,3.1L128,19.6v8.8l7.2,2.5l4.2-5.4v3
			l7.2,2.4l4.4-6.2h-4.6V10.3L146.4,10.3z M49.3,31l8.2-3.2l-8.2-3v-4.3L60,15.3l-6.1-8l-11.8,5.6V28L49.3,31L49.3,31z M126.4,24.3
			l-8.7-2.6l8.2-10.3l-10.2-4.2l-5.4,6.7l8.8,2.6l-8.3,10.2L121,31L126.4,24.3L126.4,24.3z M135.1,24.8v-6.1l4.2-2v8.1H135.1
			L135.1,24.8z M49.3,11.3l3.6,4.9l-3.6,1.7V11.3L49.3,11.3z M61.9,28l7.2,3l11.8-4.6V8.1L61.9,0v7.1l11.8,4.6v14.7l-4.6-1.7V11.9
			l-7.2,2.2V28z"/>
	</g>
</g>
</svg>
