<?xml version="1.0" encoding="UTF-8"?>
<svg width="52px" height="54px" viewBox="0 0 52 54" version="1.1" xmlns="http://www.w3.org/2000/svg" xmlns:xlink="http://www.w3.org/1999/xlink">
    <!-- Generator: Sketch 50.2 (55047) - http://www.bohemiancoding.com/sketch -->
    <title>»</title>
    <desc>Created with Sketch.</desc>
    <defs></defs>
    <g id="1.-Design-👀" stroke="none" stroke-width="1" fill="none" fill-rule="evenodd" fill-opacity="0.5">
        <g id="2.-Ivnz.-About-us" transform="translate(-561.000000, -5337.000000)" fill="#3C7FFF" stroke="#3C7FFF" stroke-width="2">
            <g id="Group-83" transform="translate(389.000000, 5219.000000)">
                <g id="Group-82" transform="translate(1.000000, 0.000000)">
                    <g id="Group-81">
                        <g id="Group-2" transform="translate(171.000000, 0.000000)">
                            <g id="Group">
                                <path d="M1.98188423,165.285639 C1.95081327,165.334175 1.9072938,165.404032 1.85465202,165.491768 C1.72858837,165.701875 1.60230812,165.929179 1.48533628,166.163123 C1.33885987,166.456076 1.21846414,166.736999 1.13334239,166.992364 C1.04453451,167.258788 1,167.48146 1,167.636364 C1,169.447715 1.73410293,170.181818 3.54545455,170.181818 C5.22155676,170.181818 6.23844444,169.583649 7.53062463,168.147896 L24.0810277,149.824275 L24.0871265,149.817682 C24.2307418,149.663808 24.3686002,149.51769 24.6484538,149.221727 C26.6631207,147.088139 27.3636364,146.001691 27.3636364,144.590909 C27.3636364,143.180127 26.6631207,142.09368 24.6484538,139.960091 C24.3686002,139.664128 24.2307418,139.51801 24.0760792,139.352104 L7.52943313,121.032601 C6.23844444,119.598169 5.22155676,119 3.54545455,119 C1.73410293,119 1,119.734103 1,121.545455 C1,121.700358 1.04453451,121.92303 1.13334239,122.189454 C1.21846414,122.444819 1.33885987,122.725743 1.48533628,123.018695 C1.60230812,123.252639 1.72858837,123.479944 1.85465202,123.69005 C1.9072938,123.777786 1.95081327,123.847643 1.98188423,123.896179 L19.3181818,143.862811 L19.3181818,145.319007 L1.98188423,165.285639 Z M25.6182479,165.285639 C25.5871769,165.334175 25.5436574,165.404032 25.4910157,165.491768 C25.364952,165.701875 25.2386718,165.929179 25.1216999,166.163123 C24.9752235,166.456076 24.8548278,166.736999 24.769706,166.992364 C24.6808981,167.258788 24.6363636,167.48146 24.6363636,167.636364 C24.6363636,169.447715 25.3704666,170.181818 27.1818182,170.181818 C28.8579204,170.181818 29.8748081,169.583649 31.1669883,168.147896 L47.7173913,149.824275 L47.7234902,149.817682 C47.8671054,149.663808 48.0049638,149.51769 48.2848175,149.221727 C50.2994844,147.088139 51,146.001691 51,144.590909 C51,143.180127 50.2994844,142.09368 48.2848175,139.960091 C48.0049638,139.664128 47.8671054,139.51801 47.7124428,139.352104 L31.1657968,121.032601 C29.8748081,119.598169 28.8579204,119 27.1818182,119 C25.3704666,119 24.6363636,119.734103 24.6363636,121.545455 C24.6363636,121.700358 24.6808981,121.92303 24.769706,122.189454 C24.8548278,122.444819 24.9752235,122.725743 25.1216999,123.018695 C25.2386718,123.252639 25.364952,123.479944 25.4910157,123.69005 C25.5436574,123.777786 25.5871769,123.847643 25.6182479,123.896179 L42.9545455,143.862811 L42.9545455,145.319007 L25.6182479,165.285639 Z" id="»" transform="translate(26.000000, 144.590909) scale(-1, 1) translate(-26.000000, -144.590909) "></path>
                            </g>
                        </g>
                    </g>
                </g>
            </g>
        </g>
    </g>
</svg>