<?xml version="1.0" encoding="UTF-8"?><!DOCTYPE svg PUBLIC "-//W3C//DTD SVG 1.1//EN" "http://www.w3.org/Graphics/SVG/1.1/DTD/svg11.dtd"><svg xmlns="http://www.w3.org/2000/svg"><symbol id="ico_mail" viewBox="0 0 27.7 17"><g><path d="M24.3 17h-21c-1.7 0-3-1.3-3-3V3c0-1.7 1.3-3 3-3h21c1.7 0 3 1.3 3 3v11c0 1.7-1.3 3-3 3zM3.3 2c-.6 0-1 .4-1 1v11c0 .6.4 1 1 1h21c.6 0 1-.4 1-1V3c0-.6-.4-1-1-1h-21z"/><path d="M14.2 11.1L0 5.9l.7-1.8 13.5 4.8L27 4.1l.7 1.8z"/></g></symbol><symbol id="ico_phone" viewBox="0 0 19 24"><path d="M9.1 5.1c.3.4.1 1-.4 1.4L8 7c-.5.2-1.1 0-1.5-.5-.6-.7-1.7-.3-1.8.5-.2 2.5.2 4.8 1.4 6.8 1.2 2.1 2.9 3.6 5.2 4.6.8.4 1.6-.4 1.3-1.3-.2-.6-.1-1.2.4-1.6l.8-.4c.6-.3 1.2-.1 1.4.3l1.5 2.6c.3.5.2 1.1-.4 1.4l-2.6 1.5c-2.3 1.3-6.2-.7-9.3-6.2-3.1-5.5-2.9-9.8-.7-11.2L6.3 2c.5-.3 1.1-.2 1.4.4l1.4 2.7zm2.7 8.9c-.6.5-1 1.1-1.2 1.8-1.2-.8-2.1-1.8-2.8-3-.7-1.2-1.1-2.5-1.2-3.9.7.2 1.5.2 2.2-.1l.1-.1.9-.5.1-.1c1.4-1 1.8-2.7 1-4L9.4 1.5C8.5 0 6.8-.5 5.3.4L2.7 1.9c-3.4 2-3.7 7.6-.1 13.9 3.6 6.3 8.6 8.9 12.1 6.9l2.6-1.5c1.5-.9 2-2.6 1.1-4.1l-1.5-2.6c-.8-1.4-2.5-1.8-4-1.1h-.1l-.9.5-.1.1z"/></symbol></svg>