<?xml version="1.0" encoding="utf-8"?>
<!-- Generator: Adobe Illustrator 22.0.1, SVG Export Plug-In . SVG Version: 6.00 Build 0)  -->
<svg version="1.1" id="Слой_1" xmlns="http://www.w3.org/2000/svg" xmlns:xlink="http://www.w3.org/1999/xlink" x="0px" y="0px"
	 width="768px" height="1366px" viewBox="0 0 768 1366" enable-background="new 0 0 768 1366" xml:space="preserve">
<g id="_x30_.-UI-kit-">
	<g id="_x30_.-Cuts.-Desktop" transform="translate(-880.000000, -4124.000000)">
		<g id="Group-27" transform="translate(320.000000, 3890.000000)">
			<g id="Group-87" transform="translate(388.000000, 220.000000)">
				<g id="Group-73" transform="translate(84.000000, 0.000000)">
					<g id="Group-72" transform="translate(88.000000, 12.000000)">
						<path id="Path" d="M7.1,5.2l0,0.5L6.6,5.6C4.6,5.4,3,4.6,1.6,3.2L0.9,2.5L0.7,3C0.3,4.1,0.6,5.3,1.3,6.1
							c0.4,0.4,0.3,0.5-0.4,0.2C0.7,6.3,0.5,6.2,0.5,6.3c-0.1,0.1,0.2,1,0.4,1.4c0.3,0.5,0.8,1,1.4,1.4l0.5,0.2l-0.6,0
							c-0.6,0-0.6,0-0.5,0.2c0.2,0.7,1,1.4,2,1.7l0.7,0.2l-0.6,0.3c-0.8,0.5-1.8,0.8-2.8,0.8c-0.5,0-0.9,0.1-0.9,0.1
							c0,0.1,1.3,0.7,2,0.9c2.2,0.7,4.9,0.4,6.9-0.8c1.4-0.8,2.8-2.5,3.5-4.1c0.4-0.9,0.7-2.4,0.7-3.2c0-0.5,0-0.6,0.6-1.1
							c0.3-0.3,0.7-0.7,0.7-0.8c0.1-0.2,0.1-0.2-0.4,0c-0.9,0.3-1,0.3-0.6-0.2c0.3-0.3,0.7-1,0.7-1.1c0,0-0.2,0-0.3,0.1
							c-0.2,0.1-0.6,0.3-0.9,0.4l-0.6,0.2l-0.5-0.3c-0.3-0.2-0.7-0.4-0.9-0.5C10.4,2,9.6,2,9.1,2.1C7.8,2.6,7,3.8,7.1,5.2z"/>
					</g>
				</g>
			</g>
		</g>
	</g>
</g>
<g id="_x30_.-UI-kit-_1_">
	<g id="_x30_.-Cuts.-Desktop_1_" transform="translate(-1106.000000, -4124.000000)">
		<g id="Group-27_1_" transform="translate(320.000000, 3890.000000)">
			<g id="Group-87_1_" transform="translate(388.000000, 220.000000)">
				<g id="Group-80" transform="translate(398.000000, 12.000000)">
					<path id="Path_1_" fill="#55ACEE" d="M23.1,5.2l0,0.5l-0.5-0.1c-1.9-0.2-3.6-1.1-5-2.5l-0.7-0.7L16.7,3
						c-0.4,1.1-0.1,2.3,0.7,3.1c0.4,0.4,0.3,0.5-0.4,0.2c-0.3-0.1-0.5-0.1-0.5-0.1c-0.1,0.1,0.2,1,0.4,1.4c0.3,0.5,0.8,1,1.4,1.4
						l0.5,0.2l-0.6,0c-0.6,0-0.6,0-0.5,0.2c0.2,0.7,1,1.4,2,1.7l0.7,0.2l-0.6,0.3c-0.8,0.5-1.8,0.8-2.8,0.8c-0.5,0-0.9,0.1-0.9,0.1
						c0,0.1,1.3,0.7,2,0.9c2.2,0.7,4.9,0.4,6.9-0.8c1.4-0.8,2.8-2.5,3.5-4.1c0.4-0.9,0.7-2.4,0.7-3.2c0-0.5,0-0.6,0.6-1.1
						c0.3-0.3,0.7-0.7,0.7-0.8c0.1-0.2,0.1-0.2-0.4,0c-0.9,0.3-1,0.3-0.6-0.2c0.3-0.3,0.7-1,0.7-1.1c0,0-0.2,0-0.3,0.1
						c-0.2,0.1-0.6,0.3-0.9,0.4l-0.6,0.2l-0.5-0.3c-0.3-0.2-0.7-0.4-0.9-0.5c-0.5-0.1-1.4-0.1-1.8,0C23.8,2.6,23,3.8,23.1,5.2z"/>
				</g>
			</g>
		</g>
	</g>
</g>
<g id="_x30_.-UI-kit-_2_">
	<g id="_x30_.-Cuts.-Desktop_2_" transform="translate(-1237.000000, -4370.000000)">
		<g id="Group-27_2_" transform="translate(320.000000, 3890.000000)">
			<g id="Group-85" transform="translate(0.000000, 401.000000)">
				<g id="Group-21">
					<g id="Group-31">
						<g id="Group-86" transform="translate(390.000000, 60.000000)">
							<g id="Group-81" transform="translate(528.000000, 20.000000)">
								<g id="Group-79">
									<path id="Mask" fill="#55ACEE" d="M55.1,38.1c-8,2.7-17-1.1-20-10l-2-4c-2.1-7-1-14.8,3-20c3.4-5.3,9.8-6.3,16-4l12,6
										c5.7,3.6,8.9,10.4,8,18c-0.6,1.1-1.2,2.8-2,5c-2.1,3.6-5.8,6.8-10,8L55.1,38.1z"/>
									<path id="Path_2_" fill="#F7F7F7" d="M52.1,17.3l0,0.5l-0.5-0.1c-1.9-0.2-3.6-1.1-5-2.5l-0.7-0.7l-0.2,0.5
										c-0.4,1.1-0.1,2.3,0.7,3.1c0.4,0.4,0.3,0.5-0.4,0.2c-0.3-0.1-0.5-0.1-0.5-0.1c-0.1,0.1,0.2,1,0.4,1.4
										c0.3,0.5,0.8,1,1.4,1.4l0.5,0.2l-0.6,0c-0.6,0-0.6,0-0.5,0.2c0.2,0.7,1,1.4,2,1.7l0.7,0.2L48.7,24
										c-0.8,0.5-1.8,0.8-2.8,0.8c-0.5,0-0.9,0.1-0.9,0.1c0,0.1,1.3,0.7,2,0.9c2.2,0.7,4.9,0.4,6.9-0.8c1.4-0.8,2.8-2.5,3.5-4.1
										c0.4-0.9,0.7-2.4,0.7-3.2c0-0.5,0-0.6,0.6-1.1c0.3-0.3,0.7-0.7,0.7-0.8c0.1-0.2,0.1-0.2-0.4,0c-0.9,0.3-1,0.3-0.6-0.2
										c0.3-0.3,0.7-1,0.7-1.1c0,0-0.2,0-0.3,0.1c-0.2,0.1-0.6,0.3-0.9,0.4l-0.6,0.2l-0.5-0.3c-0.3-0.2-0.7-0.4-0.9-0.5
										c-0.5-0.1-1.4-0.1-1.8,0C52.8,14.8,52,16,52.1,17.3z"/>
								</g>
							</g>
						</g>
					</g>
				</g>
			</g>
		</g>
	</g>
</g>
<g id="_x30_.-UI-kit-_3_">
	<g id="_x30_.-Cuts.-Desktop_3_" transform="translate(-925.000000, -4125.000000)">
		<g id="Group-27_3_" transform="translate(320.000000, 3890.000000)">
			<g id="Group-87_2_" transform="translate(388.000000, 220.000000)">
				<g id="Group-73_1_" transform="translate(84.000000, 0.000000)">
					<g id="Group-72_1_" transform="translate(88.000000, 12.000000)">
						<path id="Shape" d="M53.9,53c0,0,0.3,0,0.4-0.2c0.1-0.1,0.1-0.4,0.1-0.4s0-1.3,0.6-1.5c0.6-0.2,1.4,1.2,2.2,1.8
							c0.6,0.4,1.1,0.3,1.1,0.3l2.2,0c0,0,1.1-0.1,0.6-0.9c0-0.1-0.3-0.6-1.6-1.8c-1.4-1.2-1.2-1,0.5-3.2c1-1.3,1.4-2.1,1.3-2.4
							c-0.1-0.3-0.9-0.2-0.9-0.2l-2.4,0c0,0-0.2,0-0.3,0.1c-0.1,0.1-0.2,0.3-0.2,0.3s-0.4,1-0.9,1.9c-1.1,1.8-1.5,1.9-1.7,1.8
							c-0.4-0.3-0.3-1.1-0.3-1.6c0-1.8,0.3-2.5-0.5-2.7c-0.3-0.1-0.5-0.1-1.1-0.1c-0.9,0-1.6,0-2,0.2c-0.3,0.1-0.5,0.4-0.4,0.4
							c0.2,0,0.5,0.1,0.7,0.4c0.2,0.3,0.2,1.1,0.2,1.1s0.1,2.1-0.3,2.3c-0.3,0.2-0.8-0.2-1.7-1.8c-0.5-0.8-0.9-1.8-0.9-1.8
							s-0.1-0.2-0.2-0.3c-0.2-0.1-0.4-0.1-0.4-0.1l-2.3,0c0,0-0.3,0-0.5,0.2c-0.1,0.1,0,0.4,0,0.4s1.8,4.2,3.9,6.3
							c1.9,1.9,4,1.8,4,1.8H53.9z"/>
					</g>
				</g>
			</g>
		</g>
	</g>
</g>
<g id="_x30_.-UI-kit-_4_">
	<g id="_x30_.-Cuts.-Desktop_4_" transform="translate(-1297.000000, -4370.000000)">
		<g id="Group-27_4_" transform="translate(320.000000, 3890.000000)">
			<g id="Group-85_1_" transform="translate(0.000000, 401.000000)">
				<g id="Group-21_1_">
					<g id="Group-31_1_">
						<g id="Group-86_1_" transform="translate(390.000000, 60.000000)">
							<g id="Group-81_1_" transform="translate(528.000000, 20.000000)">
								<g id="Group-78" transform="translate(60.000000, 0.000000)">
									<path id="Mask_1_" fill="#4C6C91" d="M56.1,79.1c-8,2.7-17-1.1-20-10l-2-4c-2.1-7-1-14.8,3-20c3.4-5.3,9.8-6.3,16-4l12,6
										c5.7,3.6,8.9,10.4,8,18c-0.6,1.1-1.2,2.8-2,5c-2.1,3.6-5.8,6.8-10,8L56.1,79.1z"/>
									<path id="Shape_1_" fill="#F7F7F7" d="M54,65.2c0,0,0.3,0,0.4-0.2c0.1-0.1,0.1-0.4,0.1-0.4s0-1.3,0.6-1.5
										c0.6-0.2,1.4,1.2,2.2,1.8c0.6,0.4,1.1,0.3,1.1,0.3l2.2,0c0,0,1.1-0.1,0.6-0.9c0-0.1-0.3-0.6-1.6-1.8
										c-1.4-1.2-1.2-1,0.5-3.2c1-1.3,1.4-2.1,1.3-2.4c-0.1-0.3-0.9-0.2-0.9-0.2l-2.4,0c0,0-0.2,0-0.3,0.1
										c-0.1,0.1-0.2,0.3-0.2,0.3s-0.4,1-0.9,1.9c-1.1,1.8-1.5,1.9-1.7,1.8c-0.4-0.3-0.3-1.1-0.3-1.6c0-1.8,0.3-2.5-0.5-2.7
										c-0.3-0.1-0.5-0.1-1.1-0.1c-0.9,0-1.6,0-2,0.2c-0.3,0.1-0.5,0.4-0.4,0.4c0.2,0,0.5,0.1,0.7,0.4c0.2,0.3,0.2,1.1,0.2,1.1
										s0.1,2.1-0.3,2.3c-0.3,0.2-0.8-0.2-1.7-1.8c-0.5-0.8-0.9-1.8-0.9-1.8s-0.1-0.2-0.2-0.3c-0.2-0.1-0.4-0.1-0.4-0.1l-2.3,0
										c0,0-0.3,0-0.5,0.2c-0.1,0.1,0,0.4,0,0.4s1.8,4.2,3.9,6.3c1.9,1.9,4,1.8,4,1.8H54z"/>
								</g>
							</g>
						</g>
					</g>
				</g>
			</g>
		</g>
	</g>
</g>
<g id="_x30_.-UI-kit-_5_">
	<g id="_x30_.-Cuts.-Desktop_5_" transform="translate(-1151.000000, -4125.000000)">
		<g id="Group-27_5_" transform="translate(320.000000, 3890.000000)">
			<g id="Group-87_3_" transform="translate(388.000000, 220.000000)">
				<g id="Group-80_1_" transform="translate(398.000000, 12.000000)">
					<path id="Shape_2_" fill="#4C6C91" d="M70.9,53c0,0,0.3,0,0.4-0.2c0.1-0.1,0.1-0.4,0.1-0.4s0-1.3,0.6-1.5
						c0.6-0.2,1.4,1.2,2.2,1.8c0.6,0.4,1.1,0.3,1.1,0.3l2.2,0c0,0,1.1-0.1,0.6-0.9c0-0.1-0.3-0.6-1.6-1.8c-1.4-1.2-1.2-1,0.5-3.2
						c1-1.3,1.4-2.1,1.3-2.4c-0.1-0.3-0.9-0.2-0.9-0.2l-2.4,0c0,0-0.2,0-0.3,0.1c-0.1,0.1-0.2,0.3-0.2,0.3s-0.4,1-0.9,1.9
						c-1.1,1.8-1.5,1.9-1.7,1.8c-0.4-0.3-0.3-1.1-0.3-1.6c0-1.8,0.3-2.5-0.5-2.7c-0.3-0.1-0.5-0.1-1.1-0.1c-0.9,0-1.6,0-2,0.2
						c-0.3,0.1-0.5,0.4-0.4,0.4c0.2,0,0.5,0.1,0.7,0.4c0.2,0.3,0.2,1.1,0.2,1.1s0.1,2.1-0.3,2.3c-0.3,0.2-0.8-0.2-1.7-1.8
						c-0.5-0.8-0.9-1.8-0.9-1.8s-0.1-0.2-0.2-0.3c-0.2-0.1-0.4-0.1-0.4-0.1l-2.3,0c0,0-0.3,0-0.5,0.2c-0.1,0.1,0,0.4,0,0.4
						s1.8,4.2,3.9,6.3c1.9,1.9,4,1.8,4,1.8H70.9z"/>
				</g>
			</g>
		</g>
	</g>
</g>
<g id="_x30_.-UI-kit-_6_">
	<g id="_x30_.-Cuts.-Desktop_6_" transform="translate(-1198.000000, -4122.000000)">
		<g id="Group-27_6_" transform="translate(320.000000, 3890.000000)">
			<g id="Group-87_4_" transform="translate(388.000000, 220.000000)">
				<g id="Group-80_2_" transform="translate(398.000000, 12.000000)">
					<path id="Shape_3_" fill="#3B5998" d="M106,100.1v-7h2l0.7-2.4H106l0-2c0-0.7,0.1-1,1-1h1.5V85h-2.1c-2.5,0-3.4,1.3-3.4,3.4
						v2.2h-2v2.5h2v7H106z"/>
				</g>
			</g>
		</g>
	</g>
</g>
<g id="_x30_.-UI-kit-_7_">
	<g id="_x30_.-Cuts.-Desktop_7_" transform="translate(-1357.000000, -4370.000000)">
		<g id="Group-27_7_" transform="translate(320.000000, 3890.000000)">
			<g id="Group-85_2_" transform="translate(0.000000, 401.000000)">
				<g id="Group-21_2_">
					<g id="Group-31_2_">
						<g id="Group-86_2_" transform="translate(390.000000, 60.000000)">
							<g id="Group-81_2_" transform="translate(528.000000, 20.000000)">
								<g id="Group-77" transform="translate(120.000000, 0.000000)">
									<path id="Mask_2_" fill="#3B5998" d="M56.1,123.1c-8,2.7-17-1.1-20-10l-2-4c-2.1-7-1-14.8,3-20c3.4-5.3,9.8-6.3,16-4l12,6
										c5.7,3.6,8.9,10.4,8,18c-0.6,1.1-1.2,2.8-2,5c-2.1,3.6-5.8,6.8-10,8L56.1,123.1z"/>
									<path id="Shape_4_" fill="#FFFBF7" d="M54,112.2v-7h2l0.7-2.4H54l0-2c0-0.7,0.1-1,1-1h1.5v-2.6h-2.1
										c-2.5,0-3.4,1.3-3.4,3.4v2.2h-2v2.5h2v7H54z"/>
								</g>
							</g>
						</g>
					</g>
				</g>
			</g>
		</g>
	</g>
</g>
<g id="_x30_.-UI-kit-_8_">
	<g id="_x30_.-Cuts.-Desktop_8_" transform="translate(-972.000000, -4122.000000)">
		<g id="Group-27_8_" transform="translate(320.000000, 3890.000000)">
			<g id="Group-87_5_" transform="translate(388.000000, 220.000000)">
				<g id="Group-73_2_" transform="translate(84.000000, 0.000000)">
					<g id="Group-72_2_" transform="translate(88.000000, 12.000000)">
						<path id="Shape_5_" d="M97,100.1v-7h2l0.7-2.4H97l0-2c0-0.7,0.1-1,1-1h1.5V85h-2.1c-2.5,0-3.4,1.3-3.4,3.4v2.2h-2v2.5h2v7H97z
							"/>
					</g>
				</g>
			</g>
		</g>
	</g>
</g>
<g id="_x30_.-UI-kit-_9_">
	<g id="_x30_.-Cuts.-Desktop_9_" transform="translate(-1010.000000, -4123.000000)">
		<g id="Group-27_9_" transform="translate(320.000000, 3890.000000)">
			<g id="Group-87_6_" transform="translate(388.000000, 220.000000)">
				<g id="Group-73_3_" transform="translate(84.000000, 0.000000)">
					<g id="Group-72_3_" transform="translate(88.000000, 12.000000)">
						<path id="Combined-Shape" d="M143,130.4c0.3,0-0.1-0.2-0.5,0l-8.2,5.3l-3.8-1c-0.7-0.5-0.7-1,0.5-1.4l13.9-5.3
							c0.5-0.2,1.2,0.2,1,1l-2.4,11c-0.2,1-0.7,1.1-1.4,1l-3.4-2.9l-1.9,1.4c0,0.4-0.2,0.7-0.5,0.5v-3.3L143,130.4z"/>
					</g>
				</g>
			</g>
		</g>
	</g>
</g>
<g id="_x30_.-UI-kit-_10_">
	<g id="_x30_.-Cuts.-Desktop_10_" transform="translate(-1417.000000, -4370.000000)">
		<g id="Group-27_10_" transform="translate(320.000000, 3890.000000)">
			<g id="Group-85_3_" transform="translate(0.000000, 401.000000)">
				<g id="Group-21_3_">
					<g id="Group-31_3_">
						<g id="Group-86_3_" transform="translate(390.000000, 60.000000)">
							<g id="Group-81_3_" transform="translate(528.000000, 20.000000)">
								<g id="Group-74" transform="translate(180.000000, 0.000000)">
									
										<linearGradient id="Mask_4_" gradientUnits="userSpaceOnUse" x1="1.4361" y1="1362.7163" x2="1.1861" y2="1362.1329" gradientTransform="matrix(40.221 0 0 -39.9968 0.9397 54636.4336)">
										<stop  offset="0" style="stop-color:#37AEE2"/>
										<stop  offset="1" style="stop-color:#1E96C8"/>
									</linearGradient>
									<path id="Mask_3_" fill="url(#Mask_4_)" d="M56.1,165.1c-8,2.7-17-1.1-20-10l-2-4c-2.1-7-1-14.8,3-20c3.4-5.3,9.8-6.3,16-4
										l12,6c5.7,3.6,8.9,10.4,8,18c-0.6,1.1-1.2,2.8-2,5c-2.1,3.6-5.8,6.8-10,8L56.1,165.1z"/>
									<path id="Combined-Shape_1_" fill="#F7F7F7" d="M57,142.6c0.3,0-0.1-0.2-0.5,0l-8.2,5.3l-3.8-1c-0.7-0.5-0.7-1,0.5-1.4
										l13.9-5.3c0.5-0.2,1.2,0.2,1,1l-2.4,11c-0.2,1-0.7,1.1-1.4,1l-3.4-2.9l-1.9,1.4c0,0.4-0.2,0.7-0.5,0.5v-3.3L57,142.6z"/>
								</g>
							</g>
						</g>
					</g>
				</g>
			</g>
		</g>
	</g>
</g>
<g id="_x30_.-UI-kit-_11_">
	<g id="_x30_.-Cuts.-Desktop_11_" transform="translate(-1236.000000, -4123.000000)">
		<g id="Group-27_11_" transform="translate(320.000000, 3890.000000)">
			<g id="Group-87_7_" transform="translate(388.000000, 220.000000)">
				<g id="Group-80_3_" transform="translate(398.000000, 12.000000)">
					
						<linearGradient id="Combined-Shape_3_" gradientUnits="userSpaceOnUse" x1="132.6605" y1="1358.1466" x2="132.4105" y2="1357.5632" gradientTransform="matrix(15.8918 0 0 -13 -1950.8237 17786)">
						<stop  offset="0" style="stop-color:#37AEE2"/>
						<stop  offset="1" style="stop-color:#1E96C8"/>
					</linearGradient>
					<path id="Combined-Shape_2_" fill="url(#Combined-Shape_3_)" d="M160,130.4c0.3,0-0.1-0.2-0.5,0l-8.2,5.3l-3.8-1
						c-0.7-0.5-0.7-1,0.5-1.4l13.9-5.3c0.5-0.2,1.2,0.2,1,1l-2.4,11c-0.2,1-0.7,1.1-1.4,1l-3.4-2.9l-1.9,1.4c0,0.4-0.2,0.7-0.5,0.5
						v-3.3L160,130.4z"/>
				</g>
			</g>
		</g>
	</g>
</g>
</svg>
