<?xml version="1.0" encoding="UTF-8"?>
<svg width="124px" height="125px" viewBox="0 0 124 125" version="1.1" xmlns="http://www.w3.org/2000/svg" xmlns:xlink="http://www.w3.org/1999/xlink">
    <!-- Generator: Sketch 50.2 (55047) - http://www.bohemiancoding.com/sketch -->
    <title>Group 423</title>
    <desc>Created with Sketch.</desc>
    <defs></defs>
    <g id="1.-Design-👀" stroke="none" stroke-width="1" fill="none" fill-rule="evenodd">
        <g id="6.-Ivnz.-Blog" transform="translate(-460.000000, -1708.000000)">
            <g id="Group-55" transform="translate(0.000000, 1619.000000)">
                <g id="Group-69">
                    <g id="Group-425" transform="translate(390.000000, 89.000000)">
                        <g id="Group-423" transform="translate(70.000000, 0.000000)">
                            <g id="Group-422">
                                <g id="Group-421" transform="translate(0.000000, 16.000000)">
                                    <path d="M1,98 L123,98 L123,45 C123,42.2385763 120.761424,40 118,40 L6,40 C3.23857625,40 1,42.2385763 1,45 L1,98 Z" id="Rectangle-87" stroke="#000000" stroke-width="2" fill="#CEBCAA"></path>
                                    <path d="M123,32.3797379 L63.6049113,2.26467293 C62.1692977,1.53677443 60.4710511,1.5445146 59.0421322,2.2854689 L1,32.3827454 L1,80.2451535 C1,83.0065772 3.23857625,85.2451535 6,85.2451535 L118,85.2451535 C120.761424,85.2451535 123,83.0065772 123,80.2451535 L123,32.3797379 Z" id="Combined-Shape" stroke="#000000" stroke-width="2" fill="#CEBCAA"></path>
                                    <g id="Group-420" transform="translate(10.000000, 7.000000)">
                                        <path d="M103,56.6634976 L103,2 C103,1.44771525 102.552285,1 102,1 L2,1 C1.44771525,1 1,1.44771525 1,2 L1,56.6687531 L51.1892775,67.461723 L103,56.6634976 Z" id="Combined-Shape" stroke="#000000" stroke-width="2" fill="#FFFBF7"></path>
                                        <g id="Group-417" transform="translate(10.000000, 43.000000)" fill="#E8DBCE">
                                            <rect id="Rectangle-8" x="0" y="0" width="50" height="2" rx="1"></rect>
                                            <rect id="Rectangle-8" x="0" y="7" width="50" height="2" rx="1"></rect>
                                            <rect id="Rectangle-8" x="60" y="7" width="15" height="2" rx="1"></rect>
                                        </g>
                                        <rect id="Rectangle-89" fill="#B09981" opacity="0.699999988" style="mix-blend-mode: multiply;" x="8" y="21" width="50" height="14" rx="2"></rect>
                                        <rect id="Rectangle-89" stroke="#222222" stroke-width="2" fill="#3777F1" x="11" y="20" width="48" height="12" rx="2"></rect>
                                        <g id="Group-419" transform="translate(70.000000, 19.000000)" stroke="#E7DACD" stroke-width="2">
                                            <g id="Group-418">
                                                <rect id="Rectangle-10" fill="#FFFBF7" x="1" y="1" width="22" height="22" rx="2"></rect>
                                                <path d="M0.891210938,23.3191406 L22.8644531,1.06347656" id="Path-4"></path>
                                                <path d="M0.891210938,23.3191406 L22.8644531,1.06347656" id="Path-4" transform="translate(11.877832, 12.191309) scale(1, -1) translate(-11.877832, -12.191309) "></path>
                                            </g>
                                        </g>
                                    </g>
                                    <g id="Path-53" transform="translate(0.000000, 56.000000)" fill="#FFFBF7" stroke="#000000" stroke-width="2">
                                        <path d="M123,1.43376648 L61.9983708,14.0214043 L1,1.23142329 L1,47 C1,49.7614237 3.23857625,52 6,52 L118,52 C120.761424,52 123,49.7614237 123,47 L123,1.43376648 Z" id="Mask"></path>
                                    </g>
                                </g>
                                <rect id="Rectangle-90" fill="#F78200" x="12" y="25" width="100" height="6"></rect>
                                <rect id="Rectangle-91" fill="#000000" x="11" y="30" width="102" height="2"></rect>
                                <polygon id="Path-54" stroke="#000000" stroke-width="2" fill="#EEDAC7" points="8 124 61.942627 87 115.632568 124"></polygon>
                                <text id="Ivnz" font-family="TTRounds-Bold, TT Rounds" font-size="12" font-weight="bold" line-spacing="18" fill="#BFA78F">
                                    <tspan x="48" y="113">IVNZ</tspan>
                                </text>
                                <circle id="Oval-21" stroke="#3C7FFF" stroke-width="2" fill="#FFFFFF" cx="113" cy="7" r="6"></circle>
                            </g>
                        </g>
                    </g>
                </g>
            </g>
        </g>
    </g>
</svg>