<?xml version="1.0" encoding="UTF-8"?>
<svg width="16px" height="13px" viewBox="0 0 16 13" version="1.1" xmlns="http://www.w3.org/2000/svg" xmlns:xlink="http://www.w3.org/1999/xlink">
    <!-- Generator: Sketch 50.2 (55047) - http://www.bohemiancoding.com/sketch -->
    <title>Combined Shape</title>
    <desc>Created with Sketch.</desc>
    <defs></defs>
    <g id="0.-UI-kit-" stroke="none" stroke-width="1" fill="none" fill-rule="evenodd">
        <g id="0.-Cuts.-Desktop" transform="translate(-1010.000000, -4123.000000)" fill="#000000">
            <g id="Group-27" transform="translate(320.000000, 3890.000000)">
                <g id="Group-87" transform="translate(388.000000, 220.000000)">
                    <g id="Group-73" transform="translate(84.000000, 0.000000)">
                        <g id="Group-72" transform="translate(88.000000, 12.000000)">
                            <path d="M142.972335,3.4346033 C143.269101,3.38501428 142.907388,3.26054783 142.491616,3.4346033 L134.319396,8.68578877 L130.473646,7.73102778 C129.780029,7.27292468 129.774437,6.75453726 130.954365,6.29888628 L144.89521,1.04770081 C145.42744,0.850709899 146.046889,1.28229313 145.856648,2.00246181 L143.453054,12.9822133 C143.241711,13.9343309 142.757519,14.1199866 142.010897,13.9369742 L138.645866,11.0726913 L136.72299,12.5048328 C136.72281,12.8762033 136.572537,13.1580393 136.242272,12.9822133 L136.242272,9.64054977 L142.972335,3.4346033 Z" id="Combined-Shape"></path>
                        </g>
                    </g>
                </g>
            </g>
        </g>
    </g>
</svg>