<?xml version="1.0" encoding="UTF-8"?>
<svg width="42px" height="41px" viewBox="0 0 42 41" version="1.1" xmlns="http://www.w3.org/2000/svg" xmlns:xlink="http://www.w3.org/1999/xlink">
    <!-- Generator: Sketch 50.2 (55047) - http://www.bohemiancoding.com/sketch -->
    <title>Group 79</title>
    <desc>Created with Sketch.</desc>
    <defs></defs>
    <g id="0.-UI-kit-" stroke="none" stroke-width="1" fill="none" fill-rule="evenodd">
        <g id="0.-Cuts.-Desktop" transform="translate(-1237.000000, -4370.000000)">
            <g id="Group-27" transform="translate(320.000000, 3890.000000)">
                <g id="Group-85" transform="translate(0.000000, 401.000000)">
                    <g id="Group-21">
                        <g id="Group-31">
                            <g id="Group-86" transform="translate(390.000000, 60.000000)">
                                <g id="Group-81" transform="translate(528.000000, 20.000000)">
                                    <g id="Group-79">
                                        <path d="M23,39 C15.0409132,41.6847189 5.95414355,37.9239442 3,29 L1,25 C-1.12810098,18.0187913 -0.0150243968,10.2193506 4,5 C7.42004869,-0.297747534 13.7503247,-1.26315435 20,1 L32,7 C37.6684921,10.5701287 40.9428892,17.3821644 40,25 C39.4295147,26.0525847 38.8263755,27.8385941 38,30 C35.8628004,33.6377486 32.2288441,36.7771055 28,38 L23,39 Z" id="Mask" fill="#55ACEE" fill-rule="nonzero"></path>
                                        <path d="M20.0507516,18.1921879 L20.0822282,18.7112217 L19.5576187,18.6476666 C17.6480401,18.4040384 15.9797819,17.5778213 14.5633363,16.1902002 L13.8708518,15.5016859 L13.6924845,16.0101273 C13.3147657,17.1435277 13.5560861,18.3404833 14.3430003,19.1455154 C14.7626879,19.5904015 14.6682582,19.6539567 13.9442971,19.3891435 C13.6924845,19.3044033 13.4721485,19.2408481 13.4511642,19.2726257 C13.3777188,19.3467734 13.6295314,20.3106934 13.828883,20.6920243 C14.1016799,21.2216507 14.657766,21.7406846 15.266313,22.0478679 L15.7804303,22.291496 L15.1718833,22.3020885 C14.5843207,22.3020885 14.5633363,22.312681 14.6262894,22.5351241 C14.8361332,23.2236384 15.6650162,23.9545228 16.588329,24.2722986 L17.2388447,24.4947417 L16.6722665,24.8337025 C15.8328913,25.3209588 14.8466254,25.5963645 13.8603596,25.6175496 C13.388211,25.6281421 13,25.6705122 13,25.7022898 C13,25.8082151 14.2800472,26.4013966 15.0249927,26.6344322 C17.2598291,27.3229465 19.9143532,27.0263557 21.9078693,25.8505852 C23.3243149,25.0137755 24.7407605,23.3507487 25.4017685,21.7406846 C25.758503,20.8826898 26.1152374,19.3149958 26.1152374,18.5629263 C26.1152374,18.0756701 26.146714,18.0121149 26.7342766,17.4295259 C27.0805189,17.090565 27.4057768,16.7198266 27.4687299,16.6139013 C27.5736518,16.4126433 27.5631596,16.4126433 27.028058,16.5927163 C26.1362218,16.9104921 26.0103155,16.868122 26.4509875,16.3914582 C26.7762454,16.0524974 27.1644564,15.4381308 27.1644564,15.2580578 C27.1644564,15.2262802 27.0070736,15.2792429 26.8287063,15.3745756 C26.6398469,15.4805009 26.2201593,15.6393888 25.9053936,15.7347215 L25.3388154,15.9147945 L24.8246981,15.5652411 C24.5414089,15.3745756 24.1427057,15.1627251 23.9328619,15.0991699 C23.3977602,14.9508745 22.5793694,14.9720596 22.0967287,15.14154 C20.7852049,15.6182037 19.9563219,16.8469369 20.0507516,18.1921879 Z" id="Path" fill="#F7F7F7"></path>
                                    </g>
                                </g>
                            </g>
                        </g>
                    </g>
                </g>
            </g>
        </g>
    </g>
</svg>