<?xml version="1.0" encoding="UTF-8"?>
<svg width="15px" height="12px" viewBox="0 0 15 12" version="1.1" xmlns="http://www.w3.org/2000/svg" xmlns:xlink="http://www.w3.org/1999/xlink">
    <!-- Generator: Sketch 50.2 (55047) - http://www.bohemiancoding.com/sketch -->
    <title>Path</title>
    <desc>Created with Sketch.</desc>
    <defs></defs>
    <g id="0.-UI-kit-" stroke="none" stroke-width="1" fill="none" fill-rule="evenodd">
        <g id="0.-Cuts.-Desktop" transform="translate(-1106.000000, -4124.000000)" fill="#55ACEE">
            <g id="Group-27" transform="translate(320.000000, 3890.000000)">
                <g id="Group-87" transform="translate(388.000000, 220.000000)">
                    <g id="Group-80" transform="translate(398.000000, 12.000000)">
                        <path d="M7.05075164,5.19218789 L7.08222821,5.71122173 L6.55761871,5.64766657 C4.64804014,5.40403844 2.97978194,4.5778213 1.5633363,3.19020022 L0.870851765,2.50168594 L0.692484536,3.01012726 C0.314765698,4.14352768 0.556086067,5.34048327 1.34300031,6.14551535 C1.76268791,6.5904015 1.6682582,6.65395667 0.944297095,6.38914348 C0.692484536,6.30440326 0.472148547,6.2408481 0.451164167,6.27262568 C0.377718838,6.34677337 0.629531396,7.31069336 0.828883005,7.69202435 C1.10167994,8.22165072 1.65776601,8.74068456 2.26631303,9.04786785 L2.78043033,9.29149598 L2.17188332,9.30208851 C1.58432068,9.30208851 1.5633363,9.31268103 1.62628944,9.53512411 C1.83613324,10.2236384 2.66501624,10.9545228 3.58832896,11.2722986 L4.23884474,11.4947417 L3.67226648,11.8337025 C2.83289128,12.3209588 1.84662543,12.5963645 0.860359575,12.6175496 C0.388211028,12.6281421 0,12.6705122 0,12.7022898 C0,12.8082151 1.28004717,13.4013966 2.02499266,13.6344322 C4.25982912,14.3229465 6.91435317,14.0263557 8.90786926,12.8505852 C10.3243149,12.0137755 11.7407605,10.3507487 12.4017685,8.74068456 C12.758503,7.88268984 13.1152374,6.31499579 13.1152374,5.56292635 C13.1152374,5.07567009 13.146714,5.01211493 13.7342766,4.42952592 C14.0805189,4.09056505 14.4057768,3.71982659 14.4687299,3.61390131 C14.5736518,3.4126433 14.5631596,3.4126433 14.028058,3.59271626 C13.1362218,3.91049208 13.0103155,3.86812197 13.4509875,3.39145824 C13.7762454,3.05249736 14.1644564,2.43813078 14.1644564,2.25805781 C14.1644564,2.22628023 14.0070736,2.27924287 13.8287063,2.37457561 C13.6398469,2.48050089 13.2201593,2.6393888 12.9053936,2.73472154 L12.3388154,2.91479451 L11.8246981,2.56524111 C11.5414089,2.37457561 11.1427057,2.16272507 10.9328619,2.0991699 C10.3977602,1.95087452 9.57936942,1.97205957 9.09672868,2.14154001 C7.78520494,2.61820374 6.95632193,3.84693692 7.05075164,5.19218789 Z" id="Path"></path>
                    </g>
                </g>
            </g>
        </g>
    </g>
</svg>