<?xml version="1.0" encoding="UTF-8"?>
<svg width="17px" height="10px" viewBox="0 0 17 10" version="1.1" xmlns="http://www.w3.org/2000/svg" xmlns:xlink="http://www.w3.org/1999/xlink">
    <!-- Generator: Sketch 50.2 (55047) - http://www.bohemiancoding.com/sketch -->
    <title>Shape</title>
    <desc>Created with Sketch.</desc>
    <defs></defs>
    <g id="0.-UI-kit-" stroke="none" stroke-width="1" fill="none" fill-rule="evenodd">
        <g id="0.-Cuts.-Desktop" transform="translate(-1151.000000, -4125.000000)" fill="#4C6C91">
            <g id="Group-27" transform="translate(320.000000, 3890.000000)">
                <g id="Group-87" transform="translate(388.000000, 220.000000)">
                    <g id="Group-80" transform="translate(398.000000, 12.000000)">
                        <path d="M53.9023157,12.0420484 C53.9023157,12.0420484 54.1949479,12.0101321 54.3448327,11.8521074 C54.4820289,11.7073164 54.4772706,11.4340816 54.4772706,11.4340816 C54.4772706,11.4340816 54.4590307,10.1582076 55.0625351,9.96982349 C55.6573161,9.78455319 56.4210149,11.2036614 57.2315031,11.7493525 C57.843731,12.1619292 58.3084532,12.0716294 58.3084532,12.0716294 L60.4742491,12.0420484 C60.4742491,12.0420484 61.6067121,11.9735451 61.0698231,11.0993496 C61.0254128,11.0277325 60.7565718,10.4524604 59.4599492,9.27077842 C58.1014694,8.03382672 58.2838689,8.23388751 59.9191201,6.09393772 C60.91518,4.79081806 61.3132868,3.9952456 61.1887793,3.65506442 C61.0706161,3.32967373 60.337846,3.41608131 60.337846,3.41608131 L57.900037,3.43087179 C57.900037,3.43087179 57.7192235,3.40673995 57.5851996,3.48536306 C57.4543477,3.56242927 57.3694923,3.74225045 57.3694923,3.74225045 C57.3694923,3.74225045 56.9840742,4.75033883 56.4693904,5.60818702 C55.3837169,7.41729699 54.9499233,7.51304593 54.772282,7.40094961 C54.3591075,7.1386131 54.4622029,6.34848977 54.4622029,5.78722975 C54.4622029,4.03338949 54.733423,3.3024281 53.9348304,3.11326557 C53.6699546,3.05021139 53.4748664,3.00895372 52.7968161,3.0019477 C51.9268498,2.99338479 51.1909074,3.00506149 50.7737677,3.20512227 C50.4962032,3.33823664 50.2820821,3.63560326 50.4129339,3.65272908 C50.5739213,3.67374714 50.9387203,3.74925647 51.1322224,4.00770075 C51.3820304,4.34165435 51.3733069,5.09052001 51.3733069,5.09052001 C51.3733069,5.09052001 51.5168474,7.15496048 51.0378505,7.41106942 C50.7095314,7.58699836 50.2590839,7.22813446 49.2907804,5.58639051 C48.7951296,4.74566815 48.4208141,3.81620288 48.4208141,3.81620288 C48.4208141,3.81620288 48.3486474,3.64260928 48.2193816,3.54919568 C48.0631525,3.43632092 47.8450661,3.40129082 47.8450661,3.40129082 L45.5285924,3.41608131 C45.5285924,3.41608131 45.1804473,3.42542267 45.0527677,3.57410597 C44.9393628,3.70566345 45.0440442,3.97889822 45.0440442,3.97889822 C45.0440442,3.97889822 46.8577297,8.14436614 48.9117067,10.2438367 C50.7951798,12.1681568 52.9332192,12.0420484 52.9332192,12.0420484 L53.9023157,12.0420484 Z" id="Shape"></path>
                    </g>
                </g>
            </g>
        </g>
    </g>
</svg>