<?xml version="1.0" encoding="UTF-8"?>
<svg width="40px" height="40px" viewBox="0 0 40 40" version="1.1" xmlns="http://www.w3.org/2000/svg" xmlns:xlink="http://www.w3.org/1999/xlink">
    <!-- Generator: Sketch 50.2 (55047) - http://www.bohemiancoding.com/sketch -->
    <title>Group 311</title>
    <desc>Created with Sketch.</desc>
    <defs></defs>
    <g id="3.-Symbols" stroke="none" stroke-width="1" fill="none" fill-rule="evenodd">
        <g id="Footer" transform="translate(-1431.000000, -40.000000)">
            <g id="Group-7">
                <g id="Group-6" transform="translate(639.000000, 31.000000)">
                    <g id="Group-2" transform="translate(732.000000, 9.000000)">
                        <g id="Group-313-Copy">
                            <g id="Group-311" transform="translate(60.000000, 0.000000)">
                                <rect id="Rectangle-27" stroke="#1A202F" stroke-width="2" x="1" y="1" width="38" height="38" rx="6"></rect>
                                <path d="M20.882747,25.0378688 C20.882747,25.0378688 21.2076075,25.0024375 21.3739994,24.8270092 C21.5263053,24.666272 21.521023,24.3629453 21.521023,24.3629453 C21.521023,24.3629453 21.5007742,22.9465565 22.1707439,22.7374253 C22.8310294,22.5317507 23.678836,24.1071484 24.5785851,24.7129376 C25.258239,25.1709523 25.774142,25.0707076 25.774142,25.0707076 L28.1784617,25.0378688 C28.1784617,25.0378688 29.4356453,24.9618211 28.8396275,23.9913485 C28.7903262,23.911844 28.4918772,23.273216 27.0524548,21.9613928 C25.5443627,20.588213 25.7468502,20.8103069 27.5621952,18.4346798 C28.6679533,16.9880447 29.1099044,16.1048542 28.9716846,15.7272081 C28.8405079,15.3659814 28.0270362,15.4619052 28.0270362,15.4619052 L25.320746,15.4783246 C25.320746,15.4783246 25.1200192,15.4515351 24.9712349,15.5388171 C24.825972,15.6243708 24.7317713,15.8239961 24.7317713,15.8239961 C24.7317713,15.8239961 24.3039063,16.9431074 23.7325393,17.8954323 C22.5272981,19.9037835 22.0457299,20.0100775 21.8485246,19.8856357 C21.3898463,19.5944075 21.5042958,18.7172662 21.5042958,18.0941934 C21.5042958,16.1471989 21.805386,15.3357352 20.9188426,15.1257398 C20.6247955,15.0557413 20.4082218,15.0099398 19.6554964,15.0021622 C18.6897188,14.9926562 17.8727255,15.0056189 17.4096453,15.2277128 C17.101512,15.3754874 16.8638092,15.7056036 17.009072,15.7246156 C17.1877893,15.7479484 17.5927644,15.8317737 17.8075773,16.118681 C18.0848972,16.4894137 18.075213,17.3207535 18.075213,17.3207535 C18.075213,17.3207535 18.2345619,19.6125553 17.702812,19.8968701 C17.3383344,20.0921744 16.8382782,19.6937881 15.7633334,17.8712353 C15.2130955,16.9379224 14.7975558,15.9060931 14.7975558,15.9060931 C14.7975558,15.9060931 14.7174412,15.7133812 14.5739391,15.6096798 C14.4005041,15.4843739 14.1583994,15.4454859 14.1583994,15.4454859 L11.5868075,15.4619052 C11.5868075,15.4619052 11.2003204,15.4722754 11.0585791,15.6373335 C10.9326846,15.7833797 11.0488949,16.0867064 11.0488949,16.0867064 C11.0488949,16.0867064 13.0623255,20.7109263 15.3425114,23.0416161 C17.4334155,25.1778658 19.8069218,25.0378688 19.8069218,25.0378688 L20.882747,25.0378688 Z" id="Shape" fill="#FFFFFF"></path>
                            </g>
                        </g>
                    </g>
                </g>
            </g>
        </g>
    </g>
</svg>