<?xml version="1.0" standalone="no"?>
<!DOCTYPE svg PUBLIC "-//W3C//DTD SVG 1.1//EN" "http://www.w3.org/Graphics/SVG/1.1/DTD/svg11.dtd" >
<svg xmlns="http://www.w3.org/2000/svg" xmlns:xlink="http://www.w3.org/1999/xlink" version="1.1">
<metadata>
Created by FontForge 20170731 at Fri Jan 29 11:23:23 2016
 By Aleksey,,,
Copyright (c) 2014 by Typetype. Designer Ivan Gladkikh, technical designer Maria Mezeritskaya, Olexa Volochay, Nadyr Rakhimov. All rights reserved.
</metadata>
<defs>
<font id="TTRounds-Bold" horiz-adv-x="620" >
  <font-face 
    font-family="TT Rounds"
    font-weight="700"
    font-stretch="normal"
    units-per-em="1000"
    panose-1="2 0 8 3 2 0 0 2 0 3"
    ascent="800"
    descent="-200"
    x-height="510"
    cap-height="700"
    bbox="-80 -315 1230 1030"
    underline-thickness="50"
    underline-position="-200"
    unicode-range="U+000D-F6D4"
  />
<missing-glyph horiz-adv-x="270" 
 />
    <glyph glyph-name=".notdef" horiz-adv-x="270" 
 />
    <glyph glyph-name=".null" horiz-adv-x="0" 
 />
    <glyph glyph-name=".null" horiz-adv-x="0" 
 />
    <glyph glyph-name="nonmarkingreturn" horiz-adv-x="333" 
 />
    <glyph glyph-name="CR" unicode="&#xd;" horiz-adv-x="0" 
 />
    <glyph glyph-name="space" unicode=" " horiz-adv-x="270" 
 />
    <glyph glyph-name="exclam" unicode="!" horiz-adv-x="282" 
d="M221 630l-20 -350q-4 -70 -60 -70t-60 70l-20 350q-2 40 21.5 65t58.5 25t58.5 -25t21.5 -65zM61 65q0 30 23.5 52.5t56.5 22.5t56.5 -22.5t23.5 -52.5t-23.5 -52.5t-56.5 -22.5t-56.5 22.5t-23.5 52.5z" />
    <glyph glyph-name="quotedbl" unicode="&#x22;" horiz-adv-x="405" 
d="M65 470l-15 170q0 27 17 46t43 19q25 0 42.5 -19t17.5 -46l-15 -170q-2 -19 -14.5 -32t-30.5 -13t-30.5 13t-14.5 32zM250 470l-15 170q0 27 17 46t43 19q25 0 42.5 -19t17.5 -46l-15 -170q-2 -19 -14.5 -32t-30.5 -13t-30.5 13t-14.5 32z" />
    <glyph glyph-name="numbersign" unicode="#" horiz-adv-x="780" 
d="M650 290q22 0 38.5 -16t16.5 -39t-16.5 -39t-38.5 -16h-95l-35 -120q-20 -65 -70 -65q-26 0 -45.5 19.5t-19.5 45.5l5 40l25 80h-150l-35 -120q-20 -65 -70 -65q-26 0 -45.5 19.5t-19.5 45.5l5 40l25 80h-60q-23 0 -39 16t-16 39t16 39t39 16h95l35 120h-65
q-22 0 -38.5 16t-16.5 39t16.5 39t38.5 16h100l35 120q18 65 70 65q26 0 45.5 -19.5t19.5 -45.5l-5 -40l-25 -80h150l35 120q18 65 70 65q26 0 45.5 -19.5t19.5 -45.5l-5 -40l-25 -80h55q23 0 39 -16t16 -39t-16 -39t-39 -16h-90l-35 -120h60zM335 410l-35 -120h150l35 120
h-150z" />
    <glyph glyph-name="dollar" unicode="$" horiz-adv-x="645" 
d="M390 740v-24q91 -15 148 -60t57 -86q0 -26 -19.5 -45.5t-45.5 -19.5q-30 0 -55 25q-20 20 -33 30t-42.5 20t-69.5 10q-67 0 -101 -23.5t-34 -56.5q0 -25 23 -42.5t60 -28.5t82 -21t90 -25.5t82 -37t60 -60t23 -90.5q0 -176 -225 -219v-26q0 -31 -18.5 -50.5t-51.5 -19.5
t-51.5 19.5t-18.5 50.5v25q-99 18 -159.5 66.5t-60.5 93.5q0 26 19.5 45.5t45.5 19.5q30 0 55 -25q22 -22 37 -34.5t49.5 -26.5t73.5 -14q160 0 160 95q0 24 -23 41t-60 27.5t-82 21t-90 26.5t-82 38t-60 60.5t-23 90.5q0 75 53 128.5t147 73.5v28q0 30 20 50t50 20t50 -20
t20 -50z" />
    <glyph glyph-name="percent" unicode="%" horiz-adv-x="885" 
d="M700 600l-405 -560q-30 -45 -65 -45q-26 0 -43 17t-17 43q0 11 4 22.5t8 16.5l3 6l405 560q30 45 65 45q26 0 43 -17t17 -43q0 -11 -3.5 -22.5t-7.5 -16.5zM200 360q-75 0 -122.5 46.5t-47.5 118.5v20q0 72 47.5 118.5t122.5 46.5t122.5 -46.5t47.5 -118.5v-20
q0 -72 -47.5 -118.5t-122.5 -46.5zM130 545v-20q0 -34 19.5 -54.5t50.5 -20.5t50.5 20.5t19.5 54.5v20q0 34 -19.5 54.5t-50.5 20.5t-50.5 -20.5t-19.5 -54.5zM685 -10q-75 0 -122.5 46.5t-47.5 118.5v20q0 72 47.5 118.5t122.5 46.5t122.5 -46.5t47.5 -118.5v-20
q0 -72 -47.5 -118.5t-122.5 -46.5zM615 175v-20q0 -34 19.5 -54.5t50.5 -20.5t50.5 20.5t19.5 54.5v20q0 34 -19.5 54.5t-50.5 20.5t-50.5 -20.5t-19.5 -54.5z" />
    <glyph glyph-name="ampersand" unicode="&#x26;" horiz-adv-x="720" 
d="M595 20l-75 65q-3 -4 -10 -11t-30.5 -25.5t-50.5 -32t-71 -25t-91 -11.5q-110 0 -178.5 58t-68.5 137q0 38 16.5 72t40 55.5t47 37.5t40.5 23l16 7v5q-4 2 -11 6.5t-24 19t-30 30.5t-24 41.5t-11 52.5q0 81 64 138t166 57q98 0 164 -58.5t66 -136.5q0 -32 -15.5 -61
t-37.5 -47t-44 -31.5t-37 -19.5l-16 -6v-5l123 -98l47 43q15 20 45 20q26 0 43 -17t17 -43q0 -9 -5 -20.5t-10 -17.5l-5 -7l-34 -36l74 -59q25 -25 25 -55q0 -26 -19.5 -45.5t-45.5 -19.5q-11 0 -23.5 5t-19.5 10zM280 100q70 0 140 70l-150 125q-4 -1 -11 -4t-25.5 -13
t-32 -22t-25 -31t-11.5 -40q0 -36 30.5 -60.5t84.5 -24.5zM225 525q0 -22 18.5 -47t37.5 -39l19 -14q4 2 10.5 5t22.5 13t28.5 21t23 27.5t10.5 33.5q0 28 -22.5 46.5t-62.5 18.5t-62.5 -18.5t-22.5 -46.5z" />
    <glyph glyph-name="quotesingle" unicode="'" horiz-adv-x="220" 
d="M65 470l-15 170q0 27 17 46t43 19q25 0 42.5 -19t17.5 -46l-15 -170q-2 -19 -14.5 -32t-30.5 -13t-30.5 13t-14.5 32z" />
    <glyph glyph-name="parenleft" unicode="(" horiz-adv-x="390" 
d="M305 -215q-5 3 -14.5 8.5t-36 27t-50.5 46.5t-53.5 68t-50.5 91t-35.5 116.5t-14.5 142.5t14 142t36.5 117t49.5 91t54.5 68.5t50 46t36.5 27.5l14 8q10 5 25 5q26 0 43 -17t17 -43q0 -11 -4 -21t-8 -15l-3 -4q-7 -6 -19.5 -17.5t-43.5 -51.5t-54.5 -83.5t-43 -112.5
t-19.5 -140t18.5 -139t45 -114t53 -82t44.5 -53l19 -17q15 -15 15 -40q0 -26 -17 -43t-43 -17z" />
    <glyph glyph-name="parenright" unicode=")" horiz-adv-x="390" 
d="M85 -215q-10 -5 -25 -5q-26 0 -43 17t-17 43q0 11 3.5 21t7.5 15l4 4q7 6 19.5 17.5t43.5 51.5t54.5 83.5t43 112.5t19.5 140t-18.5 139t-45 114t-53 82t-44.5 53l-19 17q-15 15 -15 40q0 26 17 43t43 17l25 -5q5 -3 14.5 -8.5t36 -27t50.5 -46.5t53.5 -68t50.5 -91
t35.5 -116.5t14.5 -142.5t-14 -142t-36.5 -117t-50 -91t-54.5 -68.5t-49.5 -46t-36.5 -27.5z" />
    <glyph glyph-name="asterisk" unicode="*" horiz-adv-x="490" 
d="M245 420l-65 -105q-15 -25 -45 -25q-22 0 -36 13t-14 32q0 9 3.5 17.5t7.5 13.5l4 4l85 95l-125 30q-16 4 -28 18t-12 32q0 23 14 36.5t36 13.5l25 -5l110 -50l-10 125q0 26 13.5 40.5t36.5 14.5t36.5 -14.5t13.5 -40.5l-10 -125l110 50q10 5 25 5q22 0 36 -13.5
t14 -36.5q0 -18 -12 -32t-28 -18l-125 -30l85 -95q15 -15 15 -35q0 -19 -14 -32t-36 -13q-13 0 -24.5 6t-16.5 12l-4 7z" />
    <glyph glyph-name="plus" unicode="+" horiz-adv-x="550" 
d="M335 535v-135h135q26 0 43 -17t17 -43t-17 -43t-43 -17h-135v-135q0 -26 -17 -43t-43 -17t-43 17t-17 43v135h-135q-26 0 -43 17t-17 43t17 43t43 17h135v135q0 26 17 43t43 17t43 -17t17 -43z" />
    <glyph glyph-name="comma" unicode="," horiz-adv-x="220" 
d="M190 40q0 -62 -45.5 -111t-99.5 -49q-25 0 -25 25q0 9 5 15t10 8l5 2q23 8 39 25t16 35q-30 7 -47.5 27.5t-17.5 46.5q0 31 23.5 53.5t56.5 22.5q35 0 57.5 -26.5t22.5 -73.5z" />
    <glyph glyph-name="hyphen" unicode="-" horiz-adv-x="520" 
d="M440 280h-360q-26 0 -43 17t-17 43t17 43t43 17h360q26 0 43 -17t17 -43t-17 -43t-43 -17z" />
    <glyph glyph-name="period" unicode="." horiz-adv-x="220" 
d="M30 65q0 30 23.5 52.5t56.5 22.5t56.5 -22.5t23.5 -52.5t-23.5 -52.5t-56.5 -22.5t-56.5 22.5t-23.5 52.5z" />
    <glyph glyph-name="slash" unicode="/" horiz-adv-x="515" 
d="M490 630l-355 -640q-25 -35 -60 -35q-26 0 -45.5 19.5t-19.5 45.5q0 11 3.5 23.5t7.5 19.5l4 7l355 640q25 35 60 35q26 0 45.5 -19.5t19.5 -45.5q0 -11 -3.5 -23.5t-7.5 -19.5z" />
    <glyph glyph-name="zero" unicode="0" horiz-adv-x="690" 
d="M345 720q127 0 208.5 -79.5t81.5 -200.5v-180q0 -121 -81.5 -200.5t-208.5 -79.5t-208.5 79.5t-81.5 200.5v180q0 121 81.5 200.5t208.5 79.5zM345 110q67 0 108.5 41t41.5 109v180q0 68 -41.5 109t-108.5 41t-108.5 -41t-41.5 -109v-180q0 -68 41.5 -109t108.5 -41z" />
    <glyph glyph-name="one" unicode="1" horiz-adv-x="455" 
d="M375 635v-570q0 -31 -18.5 -50.5t-51.5 -19.5t-51.5 19.5t-18.5 50.5v435h-5l-110 -100q-20 -19 -45 -19q-22 0 -38.5 18t-16.5 41q0 13 7.5 27t14.5 21l8 7l155 155q32 32 51.5 43.5t48.5 11.5q30 0 50 -20t20 -50z" />
    <glyph glyph-name="two" unicode="2" horiz-adv-x="625" 
d="M235 135v-5h285q26 0 45.5 -19.5t19.5 -45.5t-19.5 -45.5t-45.5 -19.5h-435q-26 0 -45.5 19.5t-19.5 45.5q0 67 55 105l275 195q42 29 63.5 58t21.5 67q0 43 -37 71.5t-103 28.5q-40 0 -69.5 -10t-42.5 -20t-33 -30q-25 -25 -55 -25q-26 0 -45.5 19.5t-19.5 45.5
q0 49 74.5 99.5t190.5 50.5q131 0 208 -66t77 -164q0 -61 -41.5 -114.5t-128.5 -115.5z" />
    <glyph glyph-name="three" unicode="3" horiz-adv-x="640" 
d="M300 110q155 0 155 105q0 47 -35 76t-100 29h-100q-25 0 -40 16t-15 39q0 32 35 65l150 125v5h-240q-26 0 -45.5 19.5t-19.5 45.5t19.5 45.5t45.5 19.5h400q26 0 45.5 -19.5t19.5 -45.5q0 -42 -35 -70l-170 -130v-5q104 0 167 -60t63 -155q0 -105 -77.5 -170t-222.5 -65
q-116 0 -198 58t-82 107q0 26 19.5 45.5t45.5 19.5q30 0 55 -25q22 -22 37 -34.5t49.5 -26.5t73.5 -14z" />
    <glyph glyph-name="four" unicode="4" horiz-adv-x="670" 
d="M35 275l360 395q35 35 85 35q30 0 50 -20t20 -50v-345h40q26 0 45.5 -19.5t19.5 -45.5t-19.5 -45.5t-45.5 -19.5h-40v-95q0 -31 -18.5 -50.5t-51.5 -19.5t-51.5 19.5t-18.5 50.5v95h-330q-26 0 -45.5 19.5t-19.5 45.5q0 30 20 50zM410 505h-5l-185 -210v-5h190v215z" />
    <glyph glyph-name="five" unicode="5" horiz-adv-x="650" 
d="M320 110q69 0 107 31t38 79q0 47 -38 78.5t-107 31.5q-60 0 -105 -15t-75 -15q-28 0 -46.5 19t-18.5 46v265q0 30 20 50t50 20h375q26 0 45.5 -19.5t19.5 -45.5t-19.5 -45.5t-45.5 -19.5h-305v-140h5q50 30 136 30q107 0 180.5 -70.5t73.5 -169.5q0 -101 -79.5 -170.5
t-210.5 -69.5q-116 0 -198 58t-82 107q0 26 19.5 45.5t45.5 19.5q30 0 55 -25q22 -22 37 -34.5t49.5 -26.5t73.5 -14z" />
    <glyph glyph-name="six" unicode="6" horiz-adv-x="670" 
d="M195 440v-25h5q60 35 155 35q128 0 201.5 -65.5t73.5 -169.5t-75 -169.5t-210 -65.5q-127 0 -208.5 79.5t-81.5 200.5v180q0 121 81.5 200.5t208.5 79.5q110 0 185 -53t75 -102q0 -26 -19.5 -45.5t-45.5 -19.5q-30 0 -55 25q-21 21 -34 31.5t-42 22t-64 11.5
q-67 0 -108.5 -41t-41.5 -109zM195 285v-25q0 -68 41.5 -109t108.5 -41q65 0 102.5 29t37.5 76q0 48 -34.5 76.5t-105.5 28.5q-38 0 -75.5 -9t-55.5 -17z" />
    <glyph glyph-name="seven" unicode="7" horiz-adv-x="580" 
d="M551 565l-241 -505q-3 -7 -8.5 -18t-25 -29t-41.5 -18q-26 0 -45.5 19.5t-19.5 45.5q0 9 4 21.5t8 20.5l3 8l220 455v5h-330q-26 0 -45.5 19.5t-19.5 45.5t19.5 45.5t45.5 19.5h430q29 0 47 -19t18 -47q0 -15 -5 -32t-9 -27z" />
    <glyph glyph-name="eight" unicode="8" horiz-adv-x="670" 
d="M335 110q85 0 122.5 29.5t37.5 70.5q0 33 -39.5 61t-120.5 39q-81 -11 -120.5 -39t-39.5 -61q0 -41 37.5 -70.5t122.5 -29.5zM335 440q120 20 120 80q0 29 -30 49.5t-90 20.5t-90 -20.5t-30 -49.5q0 -60 120 -80zM335 -20q-147 0 -226 62.5t-79 157.5q0 39 16.5 72t40 52
t47 32.5t40.5 18.5l16 5v5q-5 1 -13 4t-28.5 15t-36.5 27t-29 41.5t-13 57.5q0 80 69.5 135t195.5 55t195.5 -55t69.5 -135q0 -31 -12.5 -57t-30 -41.5t-35 -26.5t-30.5 -15l-12 -5v-5q7 -2 17.5 -5.5t38 -18t48.5 -32.5t38.5 -51.5t17.5 -72.5q0 -95 -79 -157.5t-226 -62.5
z" />
    <glyph glyph-name="nine" unicode="9" horiz-adv-x="670" 
d="M475 260v25h-5q-60 -35 -155 -35q-128 0 -201.5 65.5t-73.5 169.5t75 169.5t210 65.5q127 0 208.5 -79.5t81.5 -200.5v-180q0 -121 -81.5 -200.5t-208.5 -79.5q-110 0 -185 53t-75 102q0 26 19.5 45.5t45.5 19.5q30 0 55 -25q21 -21 34 -31.5t42 -22t64 -11.5
q67 0 108.5 41t41.5 109zM475 415v25q0 68 -41.5 109t-108.5 41q-65 0 -102.5 -29t-37.5 -76q0 -48 34.5 -76.5t105.5 -28.5q38 0 75.5 9t55.5 17z" />
    <glyph glyph-name="colon" unicode=":" horiz-adv-x="240" 
d="M40 65q0 30 23.5 52.5t56.5 22.5t56.5 -22.5t23.5 -52.5t-23.5 -52.5t-56.5 -22.5t-56.5 22.5t-23.5 52.5zM40 450q0 30 23.5 52.5t56.5 22.5t56.5 -22.5t23.5 -52.5t-23.5 -52.5t-56.5 -22.5t-56.5 22.5t-23.5 52.5z" />
    <glyph glyph-name="semicolon" unicode=";" horiz-adv-x="250" 
d="M44 450q0 30 23.5 52.5t56.5 22.5t56.5 -22.5t23.5 -52.5t-23.5 -52.5t-56.5 -22.5t-56.5 22.5t-23.5 52.5zM210 40q0 -62 -45.5 -111t-99.5 -49q-25 0 -25 25q0 9 5 15t10 8l5 2q23 8 39 25t16 35q-30 7 -47.5 27.5t-17.5 46.5q0 31 23.5 53.5t56.5 22.5
q35 0 57.5 -26.5t22.5 -73.5z" />
    <glyph glyph-name="less" unicode="&#x3c;" horiz-adv-x="590" 
d="M205 260v-10l300 -130q5 -2 12.5 -6.5t20 -21t12.5 -36.5q0 -24 -17 -40t-43 -16q-9 0 -19 2.5t-15 5.5l-6 2l-340 155q-70 31 -70 90t70 90l340 155q20 10 40 10q26 0 43 -16t17 -40q0 -20 -11 -36t-23 -22l-11 -6z" />
    <glyph glyph-name="equal" unicode="=" horiz-adv-x="550" 
d="M460 390h-370q-26 0 -43 17t-17 43t17 43t43 17h370q26 0 43 -17t17 -43t-17 -43t-43 -17zM460 170h-370q-26 0 -43 17t-17 43t17 43t43 17h370q26 0 43 -17t17 -43t-17 -43t-43 -17z" />
    <glyph glyph-name="greater" unicode="&#x3e;" horiz-adv-x="590" 
d="M385 250v10l-300 130q-5 2 -12.5 6.5t-20 21t-12.5 36.5q0 24 17 40t43 16q9 0 19 -2.5t15 -5.5l6 -2l340 -155q70 -31 70 -90t-70 -90l-340 -155q-20 -10 -40 -10q-26 0 -43 16t-17 40q0 20 11 36t23 22l11 6z" />
    <glyph glyph-name="question" unicode="?" horiz-adv-x="580" 
d="M280 720q124 0 197 -63.5t73 -156.5q0 -46 -29 -82t-64 -54.5t-66.5 -43t-35.5 -50.5q-5 -27 -23 -43.5t-47 -16.5q-30 0 -50 20t-20 50q0 37 29.5 69.5t65.5 52.5t65.5 46t29.5 52q0 40 -33 65t-92 25q-37 0 -66 -10t-41.5 -20t-32.5 -30q-25 -25 -55 -25
q-26 0 -45.5 19.5t-19.5 45.5q0 49 73.5 99.5t186.5 50.5zM200 65q0 30 23.5 52.5t56.5 22.5t56.5 -22.5t23.5 -52.5t-23.5 -52.5t-56.5 -22.5t-56.5 22.5t-23.5 52.5z" />
    <glyph glyph-name="at" unicode="@" horiz-adv-x="990" 
d="M705 -105q-90 -35 -210 -35q-190 0 -322.5 129.5t-132.5 310.5q0 185 130.5 312.5t324.5 127.5q97 0 184 -34.5t148 -91.5t97 -131.5t36 -152.5q0 -101 -63 -165.5t-157 -64.5q-45 0 -77.5 12.5t-42.5 25.5l-10 12h-5q-4 -6 -12 -14t-40 -22t-71 -14q-76 0 -126.5 49
t-50.5 121v50q0 72 51 121t129 49q32 0 54.5 -10t28.5 -20l7 -10h5q0 10 13 22.5t37 12.5q26 0 40.5 -14t14.5 -36v-225q23 -25 55 -25q41 0 68 37t27 108q0 119 -98.5 209.5t-241.5 90.5q-139 0 -234.5 -95.5t-95.5 -234.5q0 -141 94 -235.5t236 -94.5q64 0 126.5 12.5
t73.5 12.5q50 0 50 -45q0 -21 -12 -36t-28 -19zM580 270v50q0 38 -24 61.5t-61 23.5t-61 -23.5t-24 -61.5v-50q0 -38 24 -61.5t61 -23.5t61 23.5t24 61.5z" />
    <glyph glyph-name="A" unicode="A" horiz-adv-x="710" 
d="M355 720q38 0 65 -20.5t40 -49.5l230 -540q10 -25 10 -45q0 -29 -20.5 -49.5t-49.5 -20.5q-52 0 -75 60l-45 115h-310l-45 -115q-23 -60 -75 -60q-29 0 -49.5 20.5t-20.5 49.5q0 9 2.5 20t5.5 18l2 7l230 540q13 29 40 49.5t65 20.5zM352 555l-102 -255h210l-102 255h-6z
" />
    <glyph glyph-name="B" unicode="B" horiz-adv-x="710" 
d="M220 570v-145h180q47 0 71 20t24 55q0 32 -24 51t-71 19h-180zM220 305v-175h205q54 0 82 23t28 62q0 42 -27.5 66t-82.5 24h-205zM150 700h250q108 0 174 -54t66 -126q0 -33 -11 -60t-26 -42t-30.5 -25.5t-26.5 -14.5l-11 -3v-5q6 -1 15.5 -3t34.5 -13.5t44.5 -28.5
t35 -50t15.5 -75q0 -79 -71.5 -139.5t-183.5 -60.5h-275q-30 0 -50 20t-20 50v560q0 30 20 50t50 20z" />
    <glyph glyph-name="C" unicode="C" horiz-adv-x="665" 
d="M370 110q39 0 73.5 14t49.5 26.5t37 34.5q25 25 55 25q26 0 45.5 -19.5t19.5 -45.5q0 -49 -82 -107t-198 -58q-137 0 -226 84t-89 206v160q0 122 89 206t226 84q116 0 190.5 -50.5t74.5 -99.5q0 -26 -19.5 -45.5t-45.5 -19.5q-30 0 -55 25q-20 20 -33 30t-42.5 20
t-69.5 10q-78 0 -126.5 -45.5t-48.5 -114.5v-160q0 -69 48.5 -114.5t126.5 -45.5z" />
    <glyph glyph-name="D" unicode="D" horiz-adv-x="720" 
d="M150 700h201q140 0 229.5 -84t89.5 -207v-118q0 -123 -89.5 -207t-229.5 -84h-201q-30 0 -50 20t-20 50v560q0 30 20 50t50 20zM220 130h131q80 0 129.5 45.5t49.5 115.5v118q0 70 -49.5 115.5t-129.5 45.5h-131v-440z" />
    <glyph glyph-name="E" unicode="E" horiz-adv-x="660" 
d="M575 570h-355v-160h265q26 0 43 -17t17 -43t-17 -43t-43 -17h-265v-160h365q26 0 45.5 -19.5t19.5 -45.5t-19.5 -45.5t-45.5 -19.5h-435q-30 0 -50 20t-20 50v560q0 30 20 50t50 20h425q26 0 45.5 -19.5t19.5 -45.5t-19.5 -45.5t-45.5 -19.5z" />
    <glyph glyph-name="F" unicode="F" horiz-adv-x="635" 
d="M570 570h-350v-185h230q26 0 45.5 -19.5t19.5 -45.5q0 -27 -19.5 -46t-45.5 -19h-230v-190q0 -30 -20 -50t-50 -20t-50 20t-20 50v565q0 30 20 50t50 20h420q26 0 45.5 -19.5t19.5 -45.5t-19.5 -45.5t-45.5 -19.5z" />
    <glyph glyph-name="G" unicode="G" horiz-adv-x="705" 
d="M370 -20q-137 0 -226 84t-89 206v160q0 122 89 206t226 84q116 0 190.5 -50.5t74.5 -99.5q0 -26 -19.5 -45.5t-45.5 -19.5q-30 0 -55 25q-20 20 -33 30t-42.5 20t-69.5 10q-78 0 -126.5 -45.5t-48.5 -114.5v-160q0 -69 48.5 -114.5t126.5 -45.5q38 0 73 14t51 28l16 13
v105h-100q-26 0 -45.5 19.5t-19.5 45.5t19.5 45.5t45.5 19.5h170q33 0 51.5 -19.5t18.5 -50.5v-200q0 -22 -33 -56t-101 -64t-146 -30z" />
    <glyph glyph-name="H" unicode="H" horiz-adv-x="755" 
d="M220 295v-230q0 -31 -18.5 -50.5t-51.5 -19.5t-51.5 19.5t-18.5 50.5v570q0 30 20 50t50 20t50 -20t20 -50v-220h315v220q0 30 20 50t50 20t50 -20t20 -50v-570q0 -31 -18.5 -50.5t-51.5 -19.5t-51.5 19.5t-18.5 50.5v230h-315z" />
    <glyph glyph-name="I" unicode="I" horiz-adv-x="300" 
d="M220 635v-570q0 -31 -18.5 -50.5t-51.5 -19.5t-51.5 19.5t-18.5 50.5v570q0 30 20 50t50 20t50 -20t20 -50z" />
    <glyph glyph-name="J" unicode="J" horiz-adv-x="435" 
d="M360 635v-352q0 -137 -81.5 -220t-213.5 -83q-26 0 -45.5 19.5t-19.5 45.5t19.5 45.5t45.5 19.5q69 0 112 46.5t43 126.5v352q0 30 20 50t50 20t50 -20t20 -50z" />
    <glyph glyph-name="K" unicode="K" horiz-adv-x="690" 
d="M630 585l-195 -180l235 -295q20 -25 20 -50q0 -27 -18 -46t-47 -19q-16 0 -29.5 6.5t-19.5 12.5l-6 6l-235 295l-115 -105v-145q0 -31 -18.5 -50.5t-51.5 -19.5t-51.5 19.5t-18.5 50.5v570q0 30 20 50t50 20t50 -20t20 -50v-250l315 295q25 25 55 25q26 0 45.5 -19.5
t19.5 -45.5q0 -13 -6.5 -27t-12.5 -21z" />
    <glyph glyph-name="L" unicode="L" horiz-adv-x="615" 
d="M220 130h330q26 0 45.5 -19.5t19.5 -45.5t-19.5 -45.5t-45.5 -19.5h-400q-30 0 -50 20t-20 50v565q0 30 20 50t50 20t50 -20t20 -50v-505z" />
    <glyph glyph-name="M" unicode="M" horiz-adv-x="965" 
d="M745 720q37 0 63 -22.5t32 -57.5l90 -530q5 -25 5 -50q0 -26 -19.5 -45.5t-45.5 -19.5q-29 0 -47.5 15.5t-22.5 39.5l-75 440h-5l-165 -360q-26 -55 -73 -55q-46 0 -72 55l-165 360h-5l-75 -440q-4 -24 -22.5 -39.5t-47.5 -15.5q-26 0 -45.5 19.5t-19.5 45.5l5 50l90 530
q6 35 32 57.5t63 22.5q31 0 55.5 -19t34.5 -41l170 -385h5l170 385q10 22 34.5 41t55.5 19z" />
    <glyph glyph-name="N" unicode="N" horiz-adv-x="770" 
d="M545 250h5v385q0 31 18.5 50.5t51.5 19.5t51.5 -19.5t18.5 -50.5v-570q0 -30 -20 -50t-50 -20q-44 0 -70 35l-325 420h-5v-385q0 -31 -18.5 -50.5t-51.5 -19.5t-51.5 19.5t-18.5 50.5v570q0 30 20 50t50 20q44 0 70 -35z" />
    <glyph glyph-name="O" unicode="O" horiz-adv-x="740" 
d="M685 430v-160q0 -122 -89 -206t-226 -84t-226 84t-89 206v160q0 122 89 206t226 84t226 -84t89 -206zM370 110q78 0 126.5 45.5t48.5 114.5v160q0 69 -48.5 114.5t-126.5 45.5t-126.5 -45.5t-48.5 -114.5v-160q0 -69 48.5 -114.5t126.5 -45.5z" />
    <glyph glyph-name="P" unicode="P" horiz-adv-x="685" 
d="M515 460q0 50 -34.5 80t-100.5 30h-160v-220h160q66 0 100.5 30t34.5 80zM150 700h230q124 0 202 -70t78 -170t-78 -170t-202 -70h-160v-155q0 -30 -20 -50t-50 -20t-50 20t-20 50v565q0 30 20 50t50 20z" />
    <glyph glyph-name="Q" unicode="Q" horiz-adv-x="735" 
d="M685 430v-160q0 -49 -15 -92.5t-30 -63.5l-15 -19l50 -51q20 -20 20 -45q0 -26 -17 -42.5t-43 -16.5t-50 24l-55 56q-65 -40 -160 -40q-137 0 -226 84t-89 206v160q0 122 89 206t226 84t226 -84t89 -206zM370 110q16 0 31 2.5t22 5.5l7 2l-50 50q-20 20 -20 45
q0 26 17 42.5t43 16.5t50 -24l55 -55q20 30 20 75v160q0 69 -48.5 114.5t-126.5 45.5t-126.5 -45.5t-48.5 -114.5v-160q0 -69 48.5 -114.5t126.5 -45.5z" />
    <glyph glyph-name="R" unicode="R" horiz-adv-x="710" 
d="M150 700h255q114 0 184.5 -64t70.5 -156q0 -41 -13.5 -75.5t-32.5 -54.5t-38 -34.5t-32 -19.5l-14 -6v-5l140 -175q20 -25 20 -50q0 -27 -18 -46t-47 -19q-16 0 -29.5 6.5t-19.5 12.5l-6 6l-191 240h-159v-195q0 -30 -20 -50t-50 -20t-50 20t-20 50v565q0 30 20 50t50 20
zM515 480q0 42 -29 66t-81 24h-185v-180h185q51 0 80.5 25.5t29.5 64.5z" />
    <glyph glyph-name="S" unicode="S" horiz-adv-x="645" 
d="M310 110q160 0 160 95q0 24 -23 41t-60 27.5t-82 21t-90 26.5t-82 38t-60 60.5t-23 90.5q0 87 75.5 148.5t204.5 61.5q116 0 190.5 -50.5t74.5 -99.5q0 -26 -19.5 -45.5t-45.5 -19.5q-30 0 -55 25q-20 20 -33 30t-42.5 20t-69.5 10q-67 0 -101 -23.5t-34 -56.5
q0 -25 23 -42.5t60 -28.5t82 -21t90 -25.5t82 -37t60 -60t23 -90.5q0 -95 -80.5 -160t-224.5 -65q-116 0 -198 58t-82 107q0 26 19.5 45.5t45.5 19.5q30 0 55 -25q22 -22 37 -34.5t49.5 -26.5t73.5 -14z" />
    <glyph glyph-name="T" unicode="T" 
d="M70 700h480q30 0 50 -19t20 -46t-20 -46t-50 -19h-170v-505q0 -31 -19 -50.5t-51 -19.5q-33 0 -51.5 19.5t-18.5 50.5v505h-170q-30 0 -50 19t-20 46t20 46t50 19z" />
    <glyph glyph-name="U" unicode="U" horiz-adv-x="750" 
d="M145 705q30 0 50 -20t20 -50v-380q0 -65 43 -105t117 -40t117 40.5t43 105.5v379q0 30 20 50t50 20t50 -20t20 -50v-379q0 -119 -83.5 -197.5t-216.5 -78.5t-216.5 78.5t-83.5 196.5v380q0 30 20 50t50 20z" />
    <glyph glyph-name="V" unicode="V" horiz-adv-x="675" 
d="M595 705q30 0 50 -20t20 -50q0 -9 -2.5 -20t-4.5 -18l-3 -7l-210 -540q-12 -30 -39.5 -50t-68.5 -20q-40 0 -67.5 20t-39.5 50l-210 540q-10 25 -10 45q0 30 20 50t50 20q50 0 70 -55l185 -500h5l185 500q20 55 70 55z" />
    <glyph glyph-name="W" unicode="W" horiz-adv-x="1055" 
d="M965 705q30 0 50 -20t20 -50q0 -9 -2.5 -21.5t-4.5 -20.5l-3 -8l-155 -515q-28 -90 -110 -90q-43 0 -71 25t-39 65l-120 420h-5l-119 -420q-11 -40 -39.5 -65t-71.5 -25q-82 0 -110 90l-155 515q-10 30 -10 50q0 30 20 50t50 20q25 0 44 -15.5t26 -39.5l142 -480h6
l122 450q24 85 97 85q74 0 98 -85l122 -450h6l142 480q7 24 26 39.5t44 15.5z" />
    <glyph glyph-name="X" unicode="X" horiz-adv-x="665" 
d="M560 705q29 0 49.5 -20t20.5 -50q0 -13 -6 -27t-12 -21l-7 -7l-185 -220l200 -235q30 -30 30 -60q0 -28 -20.5 -49t-49.5 -21q-22 0 -35 7t-30 28l-180 220h-5l-180 -220q-17 -21 -30 -28t-35 -7q-29 0 -49.5 21t-20.5 49q0 13 7.5 28t15.5 23l7 9l200 235l-185 220
q-25 25 -25 55t20.5 50t49.5 20q37 0 65 -35l160 -200h5l160 200q27 35 65 35z" />
    <glyph glyph-name="Y" unicode="Y" horiz-adv-x="650" 
d="M580 705q30 0 50 -20t20 -50q0 -13 -6 -27t-12 -21l-7 -7l-230 -320v-195q0 -30 -20 -50t-50 -20q-33 0 -51.5 19.5t-18.5 50.5v195l-230 320q-25 25 -25 55t20 50t50 20q16 0 31 -8.5t22 -17.5l7 -9l192 -265h6l192 265q25 35 60 35z" />
    <glyph glyph-name="Z" unicode="Z" horiz-adv-x="625" 
d="M90 700h445q26 0 45.5 -19.5t19.5 -45.5q0 -18 -8.5 -36.5t-17.5 -28.5l-9 -10l-341 -424v-6h321q26 0 45.5 -19.5t19.5 -45.5t-19.5 -45.5t-45.5 -19.5h-465q-26 0 -45.5 19.5t-19.5 45.5q0 16 7.5 33.5t15.5 27.5l7 9l355 430v5h-305q-30 0 -50 19t-20 46
q0 26 19.5 45.5t45.5 19.5z" />
    <glyph glyph-name="bracketleft" unicode="[" horiz-adv-x="410" 
d="M220 -80h115q26 0 45.5 -19.5t19.5 -45.5t-19.5 -45.5t-45.5 -19.5h-185q-30 0 -50 20t-20 50v850q0 30 20 50t50 20h185q26 0 45.5 -19.5t19.5 -45.5t-19.5 -45.5t-45.5 -19.5h-115v-730z" />
    <glyph glyph-name="backslash" unicode="\" horiz-adv-x="515" 
d="M380 -10l-355 640q-15 25 -15 50q0 26 19.5 45.5t45.5 19.5q16 0 31 -8.5t22 -17.5l7 -9l355 -640q15 -25 15 -50q0 -26 -19.5 -45.5t-45.5 -19.5q-16 0 -31 8.5t-22 17.5z" />
    <glyph glyph-name="bracketright" unicode="]" horiz-adv-x="410" 
d="M75 -80h115v730h-115q-26 0 -45.5 19.5t-19.5 45.5t19.5 45.5t45.5 19.5h185q30 0 50 -20t20 -50v-850q0 -30 -20 -50t-50 -20h-185q-26 0 -45.5 19.5t-19.5 45.5t19.5 45.5t45.5 19.5z" />
    <glyph glyph-name="asciicircum" unicode="^" horiz-adv-x="510" 
d="M260 570h-10l-115 -140q-25 -30 -55 -30q-26 0 -43 17t-17 43q0 11 3.5 22.5t7.5 17.5l4 5l140 160q18 21 35 30.5t45 9.5t45.5 -9.5t34.5 -30.5l140 -160q15 -20 15 -45q0 -26 -17 -43t-43 -17q-13 0 -27 7.5t-21 14.5l-7 8z" />
    <glyph glyph-name="underscore" unicode="_" horiz-adv-x="500" 
d="M430 -190h-360q-26 0 -43 17t-17 43t17 43t43 17h360q26 0 43 -17t17 -43t-17 -43t-43 -17z" />
    <glyph glyph-name="grave" unicode="`" horiz-adv-x="270" 
d="M230 515q0 -19 -13 -32t-32 -13q-13 0 -24.5 5t-16.5 10l-4 5l-80 100q-20 20 -20 50q0 26 17 43t43 17q38 0 60 -40l60 -110q10 -15 10 -35z" />
    <glyph glyph-name="a" unicode="a" horiz-adv-x="570" 
d="M255 105q58 0 91.5 25.5t33.5 64.5v20h-125q-46 0 -68 -15.5t-22 -39.5t22 -39.5t68 -15.5zM235 -15q-91 0 -148 51t-57 124q0 76 55 120.5t170 44.5h125q0 80 -110 80q-27 0 -49.5 -6.5t-31.5 -12.5l-9 -6q-30 -25 -55 -25q-26 0 -43 17t-17 43q0 40 53 75t152 35
q111 0 175.5 -56t64.5 -145v-264q0 -26 -19.5 -45.5t-45.5 -19.5q-28 0 -46.5 14.5t-18.5 30.5h-5q-5 -6 -14 -15t-45.5 -24.5t-80.5 -15.5z" />
    <glyph glyph-name="b" unicode="b" horiz-adv-x="610" 
d="M320 -15q-111 0 -180.5 65.5t-69.5 164.5v440q0 26 19.5 45.5t45.5 19.5t45.5 -19.5t19.5 -45.5v-185h5q5 6 14 15t45.5 24.5t80.5 15.5q94 0 159.5 -66.5t65.5 -163.5v-80q0 -99 -69.5 -164.5t-180.5 -65.5zM320 405q-56 0 -88 -30.5t-32 -79.5v-80q0 -49 32 -79.5
t88 -30.5t88 30.5t32 79.5v80q0 49 -32 79.5t-88 30.5z" />
    <glyph glyph-name="c" unicode="c" horiz-adv-x="535" 
d="M290 105q70 0 110 40q30 30 60 30q26 0 43 -17t17 -43q0 -40 -65.5 -85t-164.5 -45q-107 0 -178.5 67.5t-71.5 162.5v80q0 95 71.5 162.5t178.5 67.5q99 0 157 -39.5t58 -80.5q0 -26 -17 -43t-43 -17q-11 0 -25 6.5t-22 12.5l-8 6q-40 35 -100 35q-56 0 -88 -30.5
t-32 -79.5v-80q0 -49 32 -79.5t88 -30.5z" />
    <glyph glyph-name="d" unicode="d" horiz-adv-x="610" 
d="M540 655v-595q0 -26 -19.5 -45.5t-45.5 -19.5q-29 0 -47 13t-18 32h-5q-5 -6 -14 -15t-45.5 -24.5t-80.5 -15.5q-94 0 -159.5 66.5t-65.5 163.5v80q0 97 65.5 163.5t159.5 66.5q44 0 79 -13.5t48 -27.5l13 -14h5v185q0 26 19.5 45.5t45.5 19.5t45.5 -19.5t19.5 -45.5z
M290 405q-56 0 -88 -30.5t-32 -79.5v-80q0 -49 32 -79.5t88 -30.5t88 30.5t32 79.5v80q0 49 -32 79.5t-88 30.5z" />
    <glyph glyph-name="e" unicode="e" horiz-adv-x="565" 
d="M465 200h-295q0 -39 33 -67t87 -28q75 0 110 35q25 25 55 25q26 0 43 -17t17 -43q0 -40 -61.5 -80t-163.5 -40q-107 0 -178.5 67.5t-71.5 162.5v80q0 99 69.5 164.5t180.5 65.5q104 0 172 -66t68 -164v-30q0 -27 -18 -46t-47 -19zM170 310h230q0 39 -31.5 67t-79.5 28
q-54 0 -86.5 -28t-32.5 -67z" />
    <glyph glyph-name="f" unicode="f" horiz-adv-x="410" 
d="M20 445q0 26 17 43t43 17h20v25q0 82 55 136t140 54q73 0 109 -23t36 -57q0 -26 -17 -43t-43 -17q-9 0 -17.5 2.5t-12.5 5.5l-5 2q-15 10 -35 10q-34 0 -57 -17.5t-23 -52.5v-25h110q26 0 43 -17t17 -43q0 -29 -16.5 -44.5t-43.5 -15.5h-110v-325q0 -26 -19.5 -45.5
t-45.5 -19.5t-45.5 19.5t-19.5 45.5v325h-20q-26 0 -43 17t-17 43z" />
    <glyph glyph-name="g" unicode="g" horiz-adv-x="605" 
d="M290 130q56 0 88 30.5t32 79.5v55q0 49 -32 79.5t-88 30.5t-88 -30.5t-32 -79.5v-55q0 -49 32 -79.5t88 -30.5zM410 65h-5q-5 -6 -14 -15t-45.5 -24.5t-80.5 -15.5q-94 0 -159.5 66.5t-65.5 163.5v55q0 97 65.5 163.5t159.5 66.5q44 0 79 -13.5t48 -27.5l13 -14h5
q0 16 18.5 30.5t46.5 14.5q26 0 45.5 -19.5t19.5 -45.5v-440q0 -95 -71.5 -162.5t-178.5 -67.5q-99 0 -164.5 45t-65.5 85q0 26 17 43t43 17q30 0 60 -30q40 -40 110 -40q56 0 88 30.5t32 79.5v55z" />
    <glyph glyph-name="h" unicode="h" 
d="M200 655v-185h5q5 6 14 15t44 24.5t77 15.5q91 0 155.5 -66.5t64.5 -163.5v-235q0 -27 -18 -46t-47 -19t-47 19t-18 46v235q0 49 -31.5 79.5t-83.5 30.5q-48 0 -81.5 -31t-33.5 -74v-240q0 -26 -19.5 -45.5t-45.5 -19.5t-45.5 19.5t-19.5 45.5v595q0 26 19.5 45.5
t45.5 19.5t45.5 -19.5t19.5 -45.5z" />
    <glyph glyph-name="i" unicode="i" horiz-adv-x="280" 
d="M205 450v-390q0 -26 -19.5 -45.5t-45.5 -19.5t-45.5 19.5t-19.5 45.5v390q0 26 19.5 45.5t45.5 19.5t45.5 -19.5t19.5 -45.5zM65 650q0 30 21 50t54 20t54 -20t21 -50t-21 -50t-54 -20t-54 20t-21 50z" />
    <glyph glyph-name="j" unicode="j" horiz-adv-x="285" 
d="M210 450v-390q0 -120 -70 -200t-160 -80q-23 0 -41.5 18.5t-18.5 41.5q0 46 45 60q63 20 89 54t26 106v390q0 26 19.5 45.5t45.5 19.5t45.5 -19.5t19.5 -45.5zM70 650q0 30 21 50t54 20t54 -20t21 -50t-21 -50t-54 -20t-54 20t-21 50z" />
    <glyph glyph-name="k" unicode="k" horiz-adv-x="550" 
d="M505 405l-135 -115l145 -180q25 -30 25 -55q0 -26 -17 -43t-43 -17q-13 0 -25.5 6.5t-18.5 12.5l-6 6l-150 190l-80 -70v-80q0 -26 -19.5 -45.5t-45.5 -19.5t-45.5 19.5t-19.5 45.5v595q0 26 19.5 45.5t45.5 19.5t45.5 -19.5t19.5 -45.5v-355l215 190q25 25 55 25
q25 0 42.5 -18.5t17.5 -41.5q0 -13 -6 -25.5t-12 -18.5z" />
    <glyph glyph-name="l" unicode="l" horiz-adv-x="270" 
d="M200 655v-595q0 -26 -19.5 -45.5t-45.5 -19.5t-45.5 19.5t-19.5 45.5v595q0 26 19.5 45.5t45.5 19.5t45.5 -19.5t19.5 -45.5z" />
    <glyph glyph-name="m" unicode="m" horiz-adv-x="895" 
d="M130 515q32 0 48.5 -12.5t16.5 -32.5h5q4 6 13 15t39 24.5t63 15.5q29 0 55.5 -7.5t43 -19t29 -22.5t17.5 -18l6 -8h9q2 3 5 8t16.5 18t30 23t45.5 18t63 8q85 0 142.5 -63.5t57.5 -166.5v-235q0 -27 -18 -46t-47 -19t-47 19t-18 46v235q0 110 -95 110q-43 0 -69 -28
t-26 -82v-235q0 -27 -18 -46t-47 -19t-47 19t-18 46v235q0 55 -25 82.5t-70 27.5q-43 0 -69 -28t-26 -82v-235q0 -26 -19.5 -45.5t-45.5 -19.5t-45.5 19.5t-19.5 45.5v390q0 26 19.5 45.5t45.5 19.5z" />
    <glyph glyph-name="n" unicode="n" horiz-adv-x="615" 
d="M195 470h5q5 6 14 15t44 24.5t77 15.5q91 0 155.5 -66.5t64.5 -163.5v-235q0 -27 -18 -46t-47 -19t-47 19t-18 46v235q0 49 -31.5 79.5t-83.5 30.5q-49 0 -82 -31t-33 -79v-235q0 -26 -19.5 -45.5t-45.5 -19.5t-45.5 19.5t-19.5 45.5v390q0 26 19.5 45.5t45.5 19.5
q28 0 46.5 -14.5t18.5 -30.5z" />
    <glyph glyph-name="o" unicode="o" horiz-adv-x="580" 
d="M290 -15q-111 0 -180.5 65.5t-69.5 164.5v80q0 99 69.5 164.5t180.5 65.5t180.5 -65.5t69.5 -164.5v-80q0 -99 -69.5 -164.5t-180.5 -65.5zM290 405q-56 0 -88 -30.5t-32 -79.5v-80q0 -49 32 -79.5t88 -30.5t88 30.5t32 79.5v80q0 49 -32 79.5t-88 30.5z" />
    <glyph glyph-name="p" unicode="p" horiz-adv-x="605" 
d="M65 -155v605q0 26 19.5 45.5t45.5 19.5q28 0 46.5 -14.5t18.5 -30.5h5q5 6 14 15t45.5 24.5t80.5 15.5q94 0 159.5 -66.5t65.5 -163.5v-80q0 -97 -65.5 -163.5t-159.5 -66.5q-44 0 -79 13.5t-48 27.5l-13 14h-5v-195q0 -26 -19.5 -45.5t-45.5 -19.5t-45.5 19.5
t-19.5 45.5zM315 105q56 0 88 30.5t32 79.5v80q0 49 -32 79.5t-88 30.5t-88 -30.5t-32 -79.5v-80q0 -49 32 -79.5t88 -30.5z" />
    <glyph glyph-name="q" unicode="q" horiz-adv-x="600" 
d="M290 525q111 0 180.5 -65.5t69.5 -164.5v-450q0 -26 -19.5 -45.5t-45.5 -19.5t-45.5 19.5t-19.5 45.5v195h-5q-5 -6 -14 -15t-45.5 -24.5t-80.5 -15.5q-94 0 -159.5 66.5t-65.5 163.5v80q0 99 69.5 164.5t180.5 65.5zM290 105q56 0 88 30.5t32 79.5v80q0 49 -32 79.5
t-88 30.5t-88 -30.5t-32 -79.5v-80q0 -49 32 -79.5t88 -30.5z" />
    <glyph glyph-name="r" unicode="r" horiz-adv-x="455" 
d="M195 295v-235q0 -26 -19.5 -45.5t-45.5 -19.5t-45.5 19.5t-19.5 45.5v390q0 26 19.5 45.5t45.5 19.5q28 0 46.5 -14.5t18.5 -30.5h5q5 6 14 15t44 24.5t77 15.5q57 0 88.5 -23.5t31.5 -56.5q0 -26 -17 -43t-43 -17q-13 0 -35 10t-50 10q-49 0 -82 -31t-33 -79z" />
    <glyph glyph-name="s" unicode="s" horiz-adv-x="510" 
d="M250 105q105 0 105 55q0 19 -32 29t-77.5 17.5t-91 20.5t-77.5 46.5t-32 86.5q0 71 58.5 118t166.5 47q96 0 155.5 -40t59.5 -80q0 -26 -17 -43t-43 -17q-11 0 -25 6.5t-22 12.5l-8 6q-40 35 -100 35q-90 0 -90 -45q0 -19 32 -29t77.5 -17.5t91 -20.5t77.5 -46.5
t32 -86.5q0 -79 -60.5 -127t-179.5 -48q-99 0 -164.5 45t-65.5 85q0 26 17 43t43 17q30 0 60 -30q40 -40 110 -40z" />
    <glyph glyph-name="t" unicode="t" horiz-adv-x="450" 
d="M20 445q0 26 17 43t43 17h20v70q0 26 19.5 45.5t45.5 19.5t45.5 -19.5t19.5 -45.5v-70h110q27 0 43.5 -15.5t16.5 -44.5q0 -26 -17 -43t-43 -17h-110v-210q0 -35 23 -52.5t57 -17.5q9 0 17.5 2.5t12.5 4.5l5 3q15 10 35 10q26 0 43 -17t17 -43q0 -34 -36 -57t-109 -23
q-85 0 -140 54t-55 136v210h-20q-26 0 -43 17t-17 43z" />
    <glyph glyph-name="u" unicode="u" 
d="M425 40h-5q-5 -6 -14 -15t-44 -24.5t-77 -15.5q-91 0 -155.5 66.5t-64.5 163.5v235q0 27 18 46t47 19t47 -19t18 -46v-235q0 -49 31.5 -79.5t83.5 -30.5q49 0 82 31t33 79v235q0 26 19.5 45.5t45.5 19.5t45.5 -19.5t19.5 -45.5v-390q0 -26 -19.5 -45.5t-45.5 -19.5
q-28 0 -46.5 14.5t-18.5 30.5z" />
    <glyph glyph-name="v" unicode="v" horiz-adv-x="530" 
d="M265 -15q-44 0 -68 21.5t-47 78.5l-130 325q-10 25 -10 40q0 26 19.5 45.5t45.5 19.5q50 0 70 -55l117 -320h6l117 320q20 55 70 55q26 0 45.5 -19.5t19.5 -45.5q0 -7 -2.5 -17t-5.5 -17l-2 -6l-130 -325q-23 -57 -47 -78.5t-68 -21.5z" />
    <glyph glyph-name="w" unicode="w" horiz-adv-x="855" 
d="M425 345l-80 -260q-17 -56 -40.5 -78t-64.5 -22t-63.5 21.5t-41.5 78.5l-105 315q-10 32 -10 50q0 26 19.5 45.5t45.5 19.5q50 0 70 -65l90 -290h5l80 260q16 52 38.5 73.5t58.5 21.5t59 -21.5t39 -73.5l80 -260h5l90 290q20 65 70 65q26 0 45.5 -19.5t19.5 -45.5
q0 -18 -10 -50l-105 -315q-19 -57 -41.5 -78.5t-63.5 -21.5t-64.5 22t-40.5 78l-80 260h-5z" />
    <glyph glyph-name="x" unicode="x" horiz-adv-x="515" 
d="M425 515q26 0 43 -17t17 -43q0 -11 -6.5 -25t-12.5 -22l-6 -8l-119 -135l134 -155q30 -30 30 -55q0 -26 -17 -43t-43 -17q-16 0 -31 8.5t-22 16.5l-7 9l-125 146h-5l-125 -146q-25 -34 -60 -34q-26 0 -43 17t-17 43q0 11 7.5 25t14.5 22l8 8l134 155l-119 135
q-25 30 -25 55q0 26 17 43t43 17q13 0 28 -8.5t24 -17.5l8 -9l105 -120h5l105 120q30 35 60 35z" />
    <glyph glyph-name="y" unicode="y" horiz-adv-x="540" 
d="M145 -110l65 140l-190 380q-15 24 -15 45q0 23 18.5 41.5t41.5 18.5q27 0 42 -14t28 -41l135 -285h5l135 295q20 45 65 45q23 0 41.5 -18.5t18.5 -41.5q0 -9 -2.5 -20.5t-4.5 -18.5l-3 -6l-270 -585q-20 -45 -65 -45q-22 0 -41 19t-19 41q0 10 4 22.5t8 19.5z" />
    <glyph glyph-name="z" unicode="z" horiz-adv-x="500" 
d="M40 125l250 260v5h-210q-26 0 -43 16.5t-17 43.5q0 26 17 43t43 17h335q26 0 45.5 -19.5t19.5 -45.5q0 -14 -4.5 -25t-8.5 -16.5t-17 -18.5l-250 -260v-5h230q26 0 43 -16.5t17 -43.5q0 -26 -17 -43t-43 -17h-355q-26 0 -45.5 19.5t-19.5 45.5q0 14 4.5 25t8.5 16.5
t17 18.5z" />
    <glyph glyph-name="braceleft" unicode="{" horiz-adv-x="435" 
d="M360 -210q-101 0 -163 60.5t-62 154.5v146q0 31 -15 50t-35 19q-26 0 -45.5 19.5t-19.5 45.5t19.5 45.5t45.5 19.5q20 0 35 19t15 50v146q0 94 62 154.5t163 60.5q26 0 45.5 -19.5t19.5 -45.5t-19.5 -45.5t-45.5 -19.5q-85 0 -85 -85v-146q0 -31 -10 -55.5t-23.5 -37.5
t-27.5 -22t-24 -12l-10 -2v-10q4 -1 10.5 -3t22.5 -11t28.5 -22t23 -37.5t10.5 -55.5v-146q0 -85 85 -85q26 0 45.5 -19.5t19.5 -45.5t-19.5 -45.5t-45.5 -19.5z" />
    <glyph glyph-name="bar" unicode="|" horiz-adv-x="300" 
d="M220 690v-810q0 -31 -18.5 -50.5t-51.5 -19.5t-51.5 19.5t-18.5 50.5v810q0 30 20 50t50 20t50 -20t20 -50z" />
    <glyph glyph-name="braceright" unicode="}" horiz-adv-x="435" 
d="M75 -210q-26 0 -45.5 19.5t-19.5 45.5t19.5 45.5t45.5 19.5q85 0 85 85v146q0 31 10 55.5t24 37.5t27.5 22t23.5 12l10 2v10q-4 1 -10.5 3t-22.5 11t-28.5 22t-23 37.5t-10.5 55.5v146q0 85 -85 85q-26 0 -45.5 19.5t-19.5 45.5t19.5 45.5t45.5 19.5q101 0 163 -60.5
t62 -154.5v-146q0 -31 15 -50t35 -19q26 0 45.5 -19.5t19.5 -45.5t-19.5 -45.5t-45.5 -19.5q-20 0 -35 -19t-15 -50v-146q0 -94 -62 -154.5t-163 -60.5z" />
    <glyph glyph-name="asciitilde" unicode="~" horiz-adv-x="550" 
d="M190 320q-22 0 -35.5 -13.5t-19.5 -29t-19.5 -29t-35.5 -13.5q-28 0 -44 16.5t-16 43.5q0 57 46 101t109 44q39 0 69 -14t44.5 -31t33.5 -31t38 -14q22 0 35.5 13.5t19.5 29t19.5 29t35.5 13.5q28 0 44 -16.5t16 -43.5q0 -57 -46 -101t-109 -44q-39 0 -69 14t-44.5 31
t-33.5 31t-38 14z" />
    <glyph glyph-name="nbspace" unicode="&#xa0;" horiz-adv-x="270" 
 />
    <glyph glyph-name="exclamdown" unicode="&#xa1;" horiz-adv-x="282" 
d="M61 -115l20 350q4 70 60 70t60 -70l20 -350q2 -40 -21.5 -65t-58.5 -25t-58.5 25t-21.5 65zM221 450q0 -30 -23.5 -52.5t-56.5 -22.5t-56.5 22.5t-23.5 52.5t23.5 52.5t56.5 22.5t56.5 -22.5t23.5 -52.5z" />
    <glyph glyph-name="cent" unicode="&#xa2;" horiz-adv-x="535" 
d="M350 540v-20q75 -14 115 -46.5t40 -68.5q0 -26 -17 -43t-43 -17q-11 0 -25 6.5t-22 12.5l-8 6q-40 35 -100 35q-56 0 -88 -30.5t-32 -79.5v-80q0 -49 32 -79.5t88 -30.5q70 0 110 40q30 30 60 30q26 0 43 -17t17 -43q0 -33 -48 -72t-122 -53v-15q0 -26 -19.5 -45.5
t-45.5 -19.5t-45.5 19.5t-19.5 45.5v19q-75 21 -127.5 81t-52.5 140v80q0 83 50.5 142t129.5 79v24q0 26 19.5 45.5t45.5 19.5t45.5 -19.5t19.5 -45.5z" />
    <glyph glyph-name="sterling" unicode="&#xa3;" horiz-adv-x="605" 
d="M0 65q0 47 35 65q79 39 109.5 76.5t30.5 103.5h-40q-26 0 -43 17t-17 43t17 43t43 17h40v80q0 98 58 154t163 56q80 0 122 -29.5t42 -70.5q0 -24 -16.5 -39.5t-38.5 -15.5q-24 0 -51.5 12.5t-58.5 12.5q-90 0 -90 -80v-80h155q26 0 43 -17t17 -43t-17 -43t-43 -17h-155
q0 -32 -8 -62t-20 -49t-24 -34t-20 -21l-8 -7v-7h305q26 0 45.5 -19.5t19.5 -45.5t-19.5 -45.5t-45.5 -19.5h-465q-26 0 -45.5 19.5t-19.5 45.5z" />
    <glyph glyph-name="currency" unicode="&#xa4;" horiz-adv-x="675" 
d="M165 700h245q110 0 177.5 -60.5t67.5 -149.5t-67.5 -149.5t-177.5 -60.5h-175v-40h275q26 0 45.5 -19.5t19.5 -45.5t-19.5 -45.5t-45.5 -19.5h-275v-45q0 -30 -20 -50t-50 -20t-50 20t-20 50v45h-10q-26 0 -45.5 19.5t-19.5 45.5t19.5 45.5t45.5 19.5h10v40h-10
q-26 0 -45.5 19.5t-19.5 45.5t19.5 45.5t45.5 19.5h10v220q0 30 20 50t50 20zM510 490q0 35 -26.5 57.5t-73.5 22.5h-175v-160h175q47 0 73.5 22.5t26.5 57.5z" />
    <glyph glyph-name="yen" unicode="&#xa5;" horiz-adv-x="650" 
d="M580 705q30 0 50 -20t20 -50q0 -13 -6 -27t-12 -21l-7 -7l-135 -185h50q22 0 36 -13.5t14 -36.5t-14 -36.5t-36 -13.5h-120l-25 -35v-30h145q22 0 36 -14t14 -36t-14 -36t-36 -14h-145v-65q0 -30 -20 -50t-50 -20q-33 0 -51.5 19.5t-18.5 50.5v65h-145q-22 0 -36 14
t-14 36t14 36t36 14h145v30l-25 35h-120q-22 0 -36 13.5t-14 36.5t14 36.5t36 13.5h50l-135 185q-25 25 -25 55t20 50t50 20q16 0 31 -8.5t22 -17.5l7 -9l192 -265h6l192 265q25 35 60 35z" />
    <glyph glyph-name="brokenbar" unicode="&#xa6;" horiz-adv-x="300" 
d="M220 690v-275q0 -31 -18.5 -50.5t-51.5 -19.5t-51.5 19.5t-18.5 50.5v275q0 30 20 50t50 20t50 -20t20 -50zM220 154v-275q0 -31 -18.5 -50.5t-51.5 -19.5t-51.5 19.5t-18.5 50.5v275q0 30 20 50t50 20t50 -20t20 -50z" />
    <glyph glyph-name="section" unicode="&#xa7;" horiz-adv-x="550" 
d="M415 190v-5q4 -1 10 -4t21.5 -13.5t27.5 -23.5t21.5 -34t9.5 -45q0 -69 -64.5 -117t-185.5 -48q-99 0 -162 40t-63 80q0 26 17 43t43 17q11 0 25 -6t22 -12l8 -7q40 -35 110 -35q58 0 86.5 16t28.5 34t-24.5 33.5t-61 26t-79.5 27t-79.5 35.5t-61 53.5t-24.5 79.5
q0 33 23.5 63t47.5 44l24 13v5q-3 1 -8 3t-18 11t-23 20.5t-18 31.5t-8 44q0 64 61 112t164 48q99 0 157 -39.5t58 -80.5q0 -26 -17 -43t-43 -17q-11 0 -25 6t-22 12l-8 7q-40 35 -100 35q-90 0 -90 -45q0 -18 23.5 -32.5t58.5 -24t75.5 -25t75.5 -33.5t58.5 -51.5
t23.5 -78.5q0 -33 -24 -63t-48 -43zM315 235q7 3 17 8.5t26.5 23.5t16.5 38q0 24 -35 45.5t-70 30.5l-35 9q-7 -3 -17 -8.5t-26.5 -23.5t-16.5 -38q0 -24 35 -45.5t70 -30.5z" />
    <glyph glyph-name="dieresis" unicode="&#xa8;" horiz-adv-x="430" 
d="M40 695q0 27 20 46t50 19t50.5 -19t20.5 -46t-20.5 -46t-50.5 -19t-50 19t-20 46zM250 695q0 27 20 46t50 19t50 -19t20 -46t-20 -46t-50 -19t-50 19t-20 46z" />
    <glyph glyph-name="copyright" unicode="&#xa9;" horiz-adv-x="980" 
d="M150 300q0 -140 99 -237.5t241 -97.5t241 97.5t99 237.5q0 139 -99 237t-241 98t-241 -98t-99 -237zM500 190q20 0 37.5 6t24.5 12l8 7q20 20 50 20q19 0 29.5 -11t10.5 -29q0 -34 -43.5 -64.5t-116.5 -30.5q-81 0 -133 48t-52 117v60q0 69 52 117t133 48
q70 0 112.5 -30.5t42.5 -64.5q0 -40 -45 -40q-11 0 -21 3.5t-15 7.5l-4 4q-30 30 -70 30q-37 0 -61 -22t-24 -53v-60q0 -28 24.5 -51.5t60.5 -23.5zM950 300q0 -186 -131.5 -313t-328.5 -127t-328.5 127t-131.5 313q0 185 131.5 312.5t328.5 127.5t328.5 -127.5
t131.5 -312.5z" />
    <glyph glyph-name="ordfeminine" unicode="&#xaa;" horiz-adv-x="415" 
d="M170 435q52 0 78.5 17.5t26.5 42.5v5h-105q-21 0 -33 -9t-12 -21q0 -35 45 -35zM164 355q-58 0 -96 34.5t-38 80.5q0 43 39.5 76.5t100.5 33.5h105q0 20 -20 35t-55 15q-20 0 -37 -6t-25 -12l-7 -5q-16 -17 -36 -17q-40 0 -40 40q0 30 38 55t107 25q79 0 122 -37t43 -93
v-170q0 -22 -13 -36t-32 -14q-18 0 -31.5 11.5t-13.5 23.5h-5q-4 -4 -12.5 -11t-36.5 -18t-57 -11z" />
    <glyph glyph-name="guillemotleft" unicode="&#xab;" horiz-adv-x="565" 
d="M30 247q0 19 9 37.5t17 27.5l9 8l125 130q25 30 55 30q19 0 34.5 -15.5t15.5 -34.5q0 -11 -3.5 -21t-7.5 -15l-4 -4l-125 -140v-5l125 -140q15 -15 15 -40q0 -19 -15.5 -34.5t-34.5 -15.5q-13 0 -27 7.5t-21 15.5l-7 7l-125 130q-35 30 -35 72zM270 247q0 19 9 37.5
t17 27.5l9 8l125 130q25 30 55 30q19 0 34.5 -15.5t15.5 -34.5q0 -11 -3.5 -21t-7.5 -15l-4 -4l-125 -140v-5l125 -140q15 -15 15 -40q0 -19 -15.5 -34.5t-34.5 -15.5q-13 0 -27 7.5t-21 15.5l-7 7l-125 130q-35 30 -35 72z" />
    <glyph glyph-name="logicalnot" unicode="&#xac;" horiz-adv-x="560" 
d="M530 385v-140q0 -27 -18 -46t-47 -19t-47 19t-18 46v85h-320q-26 0 -43 17t-17 43t17 43t43 17h385q26 0 45.5 -19.5t19.5 -45.5z" />
    <glyph glyph-name="uni00AD" unicode="&#xad;" horiz-adv-x="520" 
d="M440 280h-360q-26 0 -43 17t-17 43t17 43t43 17h360q26 0 43 -17t17 -43t-17 -43t-43 -17z" />
    <glyph glyph-name="registered" unicode="&#xae;" horiz-adv-x="980" 
d="M380 480h133q70 0 111 -35t41 -85q0 -32 -17.5 -56t-35.5 -32l-17 -7v-5l60 -70q15 -16 15 -45q0 -40 -40 -40q-29 0 -50 30l-83 105h-67v-85q0 -23 -14 -36.5t-37 -13.5q-22 0 -35.5 14t-13.5 36v275q0 22 14 36t36 14zM515 400h-85v-80h85q22 0 36 12t14 28t-14 28
t-36 12zM150 300q0 -140 99 -237.5t241 -97.5t241 97.5t99 237.5q0 139 -99 237t-241 98t-241 -98t-99 -237zM950 300q0 -186 -131.5 -313t-328.5 -127t-328.5 127t-131.5 313q0 185 131.5 312.5t328.5 127.5t328.5 -127.5t131.5 -312.5z" />
    <glyph glyph-name="macron" unicode="&#xaf;" horiz-adv-x="420" 
d="M330 620h-240q-22 0 -36 14t-14 36t14 36t36 14h240q22 0 36 -14t14 -36t-14 -36t-36 -14z" />
    <glyph glyph-name="degree" unicode="&#xb0;" horiz-adv-x="420" 
d="M120 540q0 -38 24.5 -61.5t65.5 -23.5t65.5 23.5t24.5 61.5t-24.5 61.5t-65.5 23.5t-65.5 -23.5t-24.5 -61.5zM390 540q0 -69 -51 -117t-129 -48t-129 48t-51 117t51 117t129 48t129 -48t51 -117z" />
    <glyph glyph-name="plusminus" unicode="&#xb1;" horiz-adv-x="570" 
d="M345 570v-135h135q26 0 43 -17t17 -43t-17 -43t-43 -17h-135v-140h135q26 0 43 -17t17 -43t-17 -43t-43 -17h-390q-26 0 -43 17t-17 43t17 43t43 17h135v140h-135q-26 0 -43 17t-17 43t17 43t43 17h135v135q0 26 17 43t43 17t43 -17t17 -43z" />
    <glyph glyph-name="twosuperior" unicode="&#xb2;" horiz-adv-x="370" 
d="M25 625q0 27 41.5 56t103.5 29q65 0 107.5 -36.5t42.5 -83.5q0 -28 -15 -46t-55 -44l-85 -55v-5h125q40 0 40 -40t-40 -40h-230q-40 0 -40 40t30 60l140 90q35 20 35 40q0 16 -15 28t-40 12q-39 0 -66.5 -20t-43.5 -20q-15 0 -25 10t-10 25z" />
    <glyph glyph-name="threesuperior" unicode="&#xb3;" horiz-adv-x="360" 
d="M225 470q0 35 -60 35h-45q-30 0 -30 30q0 9 5 17.5t10 13.5l5 4l60 45v5h-110q-40 0 -40 40t40 40h210q40 0 40 -40q0 -28 -20 -40l-75 -50v-5h5q48 0 74 -25t26 -70q0 -48 -41.5 -81.5t-113.5 -33.5q-62 0 -103.5 29t-41.5 56q0 15 10 25t25 10q16 0 43.5 -20t66.5 -20
q60 0 60 35z" />
    <glyph glyph-name="acute" unicode="&#xb4;" horiz-adv-x="270" 
d="M40 635q0 9 2.5 17.5t5.5 13.5l2 4l60 110q22 40 60 40q26 0 43 -17t17 -43q0 -13 -5 -25.5t-10 -18.5l-5 -6l-80 -100q-15 -20 -45 -20q-19 0 -32 13t-13 32z" />
    <glyph glyph-name="mu" unicode="&#xb5;" 
d="M200 20h-5v-175q0 -26 -19.5 -45.5t-45.5 -19.5t-45.5 19.5t-19.5 45.5v605q0 27 18 46t47 19t47 -19t18 -46v-235q0 -49 31.5 -79.5t83.5 -30.5q49 0 82 31t33 79v235q0 26 19.5 45.5t45.5 19.5t45.5 -19.5t19.5 -45.5v-390q0 -26 -19.5 -45.5t-45.5 -19.5
q-28 0 -46.5 14.5t-18.5 30.5h-5q-5 -6 -14 -15t-44 -24.5t-77 -15.5q-24 0 -45.5 8.5t-30.5 17.5z" />
    <glyph glyph-name="paragraph" unicode="&#xb6;" horiz-adv-x="640" 
d="M205 -155v495q-78 0 -131.5 52.5t-53.5 128.5q0 75 53.5 127t131.5 52h355q26 0 43 -17t17 -43t-17 -43t-43 -17h-25v-735q0 -27 -18 -46t-47 -19t-47 19t-18 46v735h-70v-735q0 -27 -18 -46t-47 -19t-47 19t-18 46z" />
    <glyph glyph-name="periodcentered" unicode="&#xb7;" horiz-adv-x="270" 
d="M55 350q0 30 23.5 52.5t56.5 22.5t56.5 -22.5t23.5 -52.5t-23.5 -52.5t-56.5 -22.5t-56.5 22.5t-23.5 52.5z" />
    <glyph glyph-name="cedilla" unicode="&#xb8;" horiz-adv-x="335" 
d="M295 -165q0 -59 -41 -92t-124 -33q-50 0 -70 13.5t-20 41.5q0 15 11 25t29 10q6 0 21 -2.5t29 -2.5q32 0 48.5 12t16.5 28t-16.5 28t-48.5 12h-10q-19 0 -32 13.5t-13 32.5v84h90v-55q59 0 94.5 -32.5t35.5 -82.5z" />
    <glyph glyph-name="onesuperior" unicode="&#xb9;" horiz-adv-x="290" 
d="M184 360q-18 0 -31 13t-13 32v180h-5l-35 -25q-25 -20 -40 -20q-40 0 -40 40q0 11 6 21t12 15l7 4l95 70q20 15 45 15q19 0 32 -13t13 -32v-255q0 -19 -13.5 -32t-32.5 -13z" />
    <glyph glyph-name="ordmasculine" unicode="&#xba;" horiz-adv-x="410" 
d="M205 355q-75 0 -120 44t-45 115v37q0 71 45 115t120 44t120 -44t45 -115v-37q0 -71 -45 -115t-120 -44zM205 630q-34 0 -54.5 -21.5t-20.5 -57.5v-37q0 -36 20.5 -57.5t54.5 -21.5t54.5 21.5t20.5 57.5v37q0 36 -20.5 57.5t-54.5 21.5z" />
    <glyph glyph-name="guillemotright" unicode="&#xbb;" horiz-adv-x="565" 
d="M535 247q0 -19 -8.5 -37t-17.5 -26l-9 -9l-125 -130q-25 -30 -55 -30q-19 0 -34.5 15.5t-15.5 34.5q0 11 4 21t8 14l3 5l125 140v5l-125 140q-15 15 -15 40q0 19 15.5 34.5t34.5 15.5q13 0 27 -7.5t21 -14.5l7 -8l125 -130q35 -30 35 -73zM295 247q0 -19 -8.5 -37
t-17.5 -26l-9 -9l-125 -130q-25 -30 -55 -30q-19 0 -34.5 15.5t-15.5 34.5q0 11 3.5 21t7.5 14l4 5l125 140v5l-125 140q-15 15 -15 40q0 19 15.5 34.5t34.5 15.5q13 0 27 -7.5t21 -14.5l7 -8l125 -130q35 -30 35 -73z" />
    <glyph glyph-name="onequarter" unicode="&#xbc;" horiz-adv-x="885" 
d="M734 0q-18 0 -31 13t-13 32v25h-165q-40 0 -40 40q0 23 20 45l185 175q15 15 42 15q19 0 33.5 -13.5t14.5 -31.5v-150h25q40 0 40 -40t-40 -40h-25v-25q0 -19 -13.5 -32t-32.5 -13zM690 225h-5l-75 -70v-5h80v75zM145 90l410 575q25 40 60 40q26 0 43 -17t17 -43
q0 -11 -5 -23.5t-10 -19.5l-5 -7l-410 -575q-25 -40 -60 -40q-26 0 -43 17t-17 43q0 11 5 23.5t10 19.5zM184 360q-18 0 -31 13t-13 32v180h-5l-35 -25q-25 -20 -40 -20q-40 0 -40 40q0 11 6 21t12 15l7 4l95 70q20 15 45 15q19 0 32 -13t13 -32v-255q0 -19 -13.5 -32
t-32.5 -13z" />
    <glyph glyph-name="onehalf" unicode="&#xbd;" horiz-adv-x="870" 
d="M184 360q-18 0 -31 13t-13 32v180h-5l-35 -25q-25 -20 -40 -20q-40 0 -40 40q0 11 6 21t12 15l7 4l95 70q20 15 45 15q19 0 32 -13t13 -32v-255q0 -19 -13.5 -32t-32.5 -13zM525 265q0 27 41.5 56t103.5 29q65 0 107.5 -36.5t42.5 -83.5q0 -28 -15 -46t-55 -44l-85 -55
v-5h125q40 0 40 -40t-40 -40h-230q-40 0 -40 40t30 60l140 90q35 20 35 40q0 16 -15 28t-40 12q-39 0 -66.5 -20t-43.5 -20q-15 0 -25 10t-10 25zM145 90l410 575q25 40 60 40q26 0 43 -17t17 -43q0 -11 -5 -23.5t-10 -19.5l-5 -7l-410 -575q-25 -40 -60 -40q-26 0 -43 17
t-17 43q0 11 5 23.5t10 19.5z" />
    <glyph glyph-name="threequarters" unicode="&#xbe;" horiz-adv-x="894" 
d="M743 0q-18 0 -31 13t-13 32v25h-165q-40 0 -40 40q0 23 20 45l185 175q15 15 42 15q19 0 33.5 -13.5t14.5 -31.5v-150h25q40 0 40 -40t-40 -40h-25v-25q0 -19 -13.5 -32t-32.5 -13zM699 225h-5l-75 -70v-5h80v75zM154 90l410 575q25 40 60 40q26 0 43 -17t17 -43
q0 -11 -5 -23.5t-10 -19.5l-5 -7l-410 -575q-25 -40 -60 -40q-26 0 -43 17t-17 43q0 11 5 23.5t10 19.5zM235 470q0 35 -60 35h-45q-30 0 -30 30q0 9 5 17.5t10 13.5l5 4l60 45v5h-110q-40 0 -40 40t40 40h210q40 0 40 -40q0 -28 -20 -40l-75 -50v-5h5q48 0 74 -25t26 -70
q0 -48 -41.5 -81.5t-113.5 -33.5q-62 0 -103.5 29t-41.5 56q0 15 10 25t25 10q16 0 43.5 -20t66.5 -20q60 0 60 35z" />
    <glyph glyph-name="questiondown" unicode="&#xbf;" horiz-adv-x="580" 
d="M300 -205q-124 0 -197 63.5t-73 156.5q0 46 29 82t64 54.5t66.5 43t35.5 50.5q5 27 23 43.5t47 16.5q30 0 50 -20t20 -50q0 -37 -29.5 -69.5t-65.5 -52.5t-65.5 -46t-29.5 -52q0 -40 33 -65t92 -25q37 0 66 10t41.5 20t32.5 30q25 25 55 25q26 0 45.5 -19.5t19.5 -45.5
q0 -49 -73.5 -99.5t-186.5 -50.5zM380 450q0 -30 -23.5 -52.5t-56.5 -22.5t-56.5 22.5t-23.5 52.5t23.5 52.5t56.5 22.5t56.5 -22.5t23.5 -52.5z" />
    <glyph glyph-name="Agrave" unicode="&#xc0;" horiz-adv-x="710" 
d="M355 720q38 0 65 -20.5t40 -49.5l230 -540q10 -25 10 -45q0 -29 -20.5 -49.5t-49.5 -20.5q-52 0 -75 60l-45 115h-310l-45 -115q-23 -60 -75 -60q-29 0 -49.5 20.5t-20.5 49.5q0 9 2.5 20t5.5 18l2 7l230 540q13 29 40 49.5t65 20.5zM352 555l-102 -255h210l-102 255h-6z
M397 835q0 -19 -13 -32t-32 -13q-13 0 -24.5 5t-15.5 10l-5 5l-80 100q-20 20 -20 50q0 26 17 43t43 17q38 0 60 -40l60 -110q10 -15 10 -35z" />
    <glyph glyph-name="Aacute" unicode="&#xc1;" horiz-adv-x="710" 
d="M355 720q38 0 65 -20.5t40 -49.5l230 -540q10 -25 10 -45q0 -29 -20.5 -49.5t-49.5 -20.5q-52 0 -75 60l-45 115h-310l-45 -115q-23 -60 -75 -60q-29 0 -49.5 20.5t-20.5 49.5q0 9 2.5 20t5.5 18l2 7l230 540q13 29 40 49.5t65 20.5zM352 555l-102 -255h210l-102 255h-6z
M320 835q0 9 2.5 17.5t5.5 13.5l2 4l60 110q22 40 60 40q26 0 43 -17t17 -43q0 -13 -5 -25.5t-10 -18.5l-5 -6l-80 -100q-15 -20 -45 -20q-19 0 -32 13t-13 32z" />
    <glyph glyph-name="Acircumflex" unicode="&#xc2;" horiz-adv-x="710" 
d="M355 720q38 0 65 -20.5t40 -49.5l230 -540q10 -25 10 -45q0 -29 -20.5 -49.5t-49.5 -20.5q-52 0 -75 60l-45 115h-310l-45 -115q-23 -60 -75 -60q-29 0 -49.5 20.5t-20.5 49.5q0 9 2.5 20t5.5 18l2 7l230 540q13 29 40 49.5t65 20.5zM352 555l-102 -255h210l-102 255h-6z
M359 915h-6l-87 -105q-15 -20 -40 -20q-19 0 -32 13t-13 32q0 7 2.5 14.5t4.5 11.5l3 4l90 115q30 40 75 40t75 -40l90 -115q10 -15 10 -30q0 -19 -13 -32t-32 -13q-11 0 -21 5t-15 10l-4 5z" />
    <glyph glyph-name="Atilde" unicode="&#xc3;" horiz-adv-x="710" 
d="M355 720q38 0 65 -20.5t40 -49.5l230 -540q10 -25 10 -45q0 -29 -20.5 -49.5t-49.5 -20.5q-52 0 -75 60l-45 115h-310l-45 -115q-23 -60 -75 -60q-29 0 -49.5 20.5t-20.5 49.5q0 9 2.5 20t5.5 18l2 7l230 540q13 29 40 49.5t65 20.5zM352 555l-102 -255h210l-102 255h-6z
M291 875q-15 0 -25 -11t-15 -24t-16 -24t-28 -11q-20 0 -33 14t-13 36q0 49 35.5 84.5t84.5 35.5q29 0 51.5 -11.5t33.5 -26t25.5 -26t29.5 -11.5t25 11t15 24t16 24t28 11q20 0 33 -14t13 -36q0 -49 -35.5 -84.5t-84.5 -35.5q-37 0 -62 19t-42.5 37.5t-35.5 18.5z" />
    <glyph glyph-name="Adieresis" unicode="&#xc4;" horiz-adv-x="710" 
d="M355 720q38 0 65 -20.5t40 -49.5l230 -540q10 -25 10 -45q0 -29 -20.5 -49.5t-49.5 -20.5q-52 0 -75 60l-45 115h-310l-45 -115q-23 -60 -75 -60q-29 0 -49.5 20.5t-20.5 49.5q0 9 2.5 20t5.5 18l2 7l230 540q13 29 40 49.5t65 20.5zM352 555l-102 -255h210l-102 255h-6z
M175 875q0 27 20 46t50 19t50.5 -19t20.5 -46t-20.5 -46t-50.5 -19t-50 19t-20 46zM385 875q0 27 20 46t50 19t50 -19t20 -46t-20 -46t-50 -19t-50 19t-20 46z" />
    <glyph glyph-name="Aring" unicode="&#xc5;" horiz-adv-x="710" 
d="M499 785q0 -70 -56 -108q12 -15 17 -27l230 -540q10 -25 10 -45q0 -29 -20.5 -49.5t-49.5 -20.5q-52 0 -75 60l-45 115h-310l-45 -115q-23 -60 -75 -60q-29 0 -49.5 20.5t-20.5 49.5q0 9 2.5 20t5.5 18l2 7l230 540q7 15 15 26q-56 40 -56 109q0 57 41 96t104 39t104 -39
t41 -96zM352 555l-102 -255h210l-102 255h-6zM289 785q0 -26 18.5 -45t43.5 -20h4q26 0 45 19.5t19 45.5t-19.5 45.5t-45.5 19.5t-45.5 -19.5t-19.5 -45.5z" />
    <glyph glyph-name="AE" unicode="&#xc6;" horiz-adv-x="985" 
d="M900 570h-300v-160h210q26 0 43 -17t17 -43t-17 -43t-43 -17h-210v-160h310q26 0 45.5 -19.5t19.5 -45.5t-19.5 -45.5t-45.5 -19.5h-380q-30 0 -50 20t-20 50v100h-260l-45 -115q-23 -60 -75 -60q-29 0 -49.5 20.5t-20.5 49.5q0 9 2.5 20t5.5 18l2 7l220 520
q13 29 40 49.5t65 20.5h555q26 0 45.5 -19.5t19.5 -45.5t-19.5 -45.5t-45.5 -19.5zM360 570l-110 -270h210v270h-100z" />
    <glyph glyph-name="Ccedilla" unicode="&#xc7;" horiz-adv-x="665" 
d="M515 -165q0 -59 -41 -92t-124 -33q-50 0 -70 13.5t-20 41.5q0 15 11 25t29 10q6 0 21 -2.5t29 -2.5q32 0 48.5 12t16.5 28t-16.5 28t-48.5 12h-10q-19 0 -32 13.5t-13 32.5v67q-108 22 -174 100t-66 182v160q0 122 89 206t226 84q116 0 190.5 -50.5t74.5 -99.5
q0 -26 -19.5 -45.5t-45.5 -19.5q-30 0 -55 25q-20 20 -33 30t-42.5 20t-69.5 10q-78 0 -126.5 -45.5t-48.5 -114.5v-160q0 -69 48.5 -114.5t126.5 -45.5q39 0 73.5 14t49.5 26.5t37 34.5q25 25 55 25q26 0 45.5 -19.5t19.5 -45.5q0 -48 -77.5 -104t-187.5 -61v-30
q59 0 94.5 -32.5t35.5 -82.5z" />
    <glyph glyph-name="Egrave" unicode="&#xc8;" horiz-adv-x="660" 
d="M575 570h-355v-160h265q26 0 43 -17t17 -43t-17 -43t-43 -17h-265v-160h365q26 0 45.5 -19.5t19.5 -45.5t-19.5 -45.5t-45.5 -19.5h-435q-30 0 -50 20t-20 50v560q0 30 20 50t50 20h425q26 0 45.5 -19.5t19.5 -45.5t-19.5 -45.5t-45.5 -19.5zM424 835q0 -19 -13 -32
t-32 -13q-13 0 -24.5 5t-16.5 10l-4 5l-80 100q-20 20 -20 50q0 26 17 43t43 17q38 0 60 -40l60 -110q10 -15 10 -35z" />
    <glyph glyph-name="Eacute" unicode="&#xc9;" horiz-adv-x="660" 
d="M575 570h-355v-160h265q26 0 43 -17t17 -43t-17 -43t-43 -17h-265v-160h365q26 0 45.5 -19.5t19.5 -45.5t-19.5 -45.5t-45.5 -19.5h-435q-30 0 -50 20t-20 50v560q0 30 20 50t50 20h425q26 0 45.5 -19.5t19.5 -45.5t-19.5 -45.5t-45.5 -19.5zM305 835q0 9 2.5 17.5
t4.5 13.5l3 4l60 110q22 40 60 40q26 0 43 -17t17 -43q0 -13 -5 -25.5t-10 -18.5l-5 -6l-80 -100q-15 -20 -45 -20q-19 0 -32 13t-13 32z" />
    <glyph glyph-name="Ecircumflex" unicode="&#xca;" horiz-adv-x="660" 
d="M575 570h-355v-160h265q26 0 43 -17t17 -43t-17 -43t-43 -17h-265v-160h365q26 0 45.5 -19.5t19.5 -45.5t-19.5 -45.5t-45.5 -19.5h-435q-30 0 -50 20t-20 50v560q0 30 20 50t50 20h425q26 0 45.5 -19.5t19.5 -45.5t-19.5 -45.5t-45.5 -19.5zM373 905h-6l-87 -105
q-15 -20 -40 -20q-19 0 -32 13t-13 32q0 7 2.5 14.5t4.5 11.5l3 4l90 115q30 40 75 40t75 -40l90 -115q10 -15 10 -30q0 -19 -13 -32t-32 -13q-11 0 -21 5t-15 10l-4 5z" />
    <glyph glyph-name="Edieresis" unicode="&#xcb;" horiz-adv-x="660" 
d="M575 570h-355v-160h265q26 0 43 -17t17 -43t-17 -43t-43 -17h-265v-160h365q26 0 45.5 -19.5t19.5 -45.5t-19.5 -45.5t-45.5 -19.5h-435q-30 0 -50 20t-20 50v560q0 30 20 50t50 20h425q26 0 45.5 -19.5t19.5 -45.5t-19.5 -45.5t-45.5 -19.5zM189 875q0 27 20 46t50 19
t50.5 -19t20.5 -46t-20.5 -46t-50.5 -19t-50 19t-20 46zM399 875q0 27 20 46t50 19t50 -19t20 -46t-20 -46t-50 -19t-50 19t-20 46z" />
    <glyph glyph-name="Igrave" unicode="&#xcc;" horiz-adv-x="305" 
d="M225 635v-570q0 -31 -18.5 -50.5t-51.5 -19.5t-51.5 19.5t-18.5 50.5v570q0 30 20 50t50 20t50 -20t20 -50zM200 835q0 -19 -13 -32t-32 -13q-13 0 -24.5 5t-16.5 10l-4 5l-80 100q-20 20 -20 50q0 26 17 43t43 17q38 0 60 -40l60 -110q10 -15 10 -35z" />
    <glyph glyph-name="Iacute" unicode="&#xcd;" horiz-adv-x="313" 
d="M220 635v-570q0 -31 -18.5 -50.5t-51.5 -19.5t-51.5 19.5t-18.5 50.5v570q0 30 20 50t50 20t50 -20t20 -50zM113 825q0 9 2.5 17.5t4.5 13.5l3 4l60 110q22 40 60 40q26 0 43 -17t17 -43q0 -13 -5 -25.5t-10 -18.5l-5 -6l-80 -100q-15 -20 -45 -20q-19 0 -32 13t-13 32z
" />
    <glyph glyph-name="Icircumflex" unicode="&#xce;" horiz-adv-x="330" 
d="M233 635v-570q0 -31 -18.5 -50.5t-51.5 -19.5t-51.5 19.5t-18.5 50.5v570q0 30 20 50t50 20t50 -20t20 -50zM168 895h-6l-87 -105q-15 -20 -40 -20q-19 0 -32 13t-13 32q0 7 2.5 14.5t5.5 11.5l2 4l90 115q30 40 75 40t75 -40l90 -115q10 -15 10 -30q0 -19 -13 -32
t-32 -13q-11 0 -21 5t-14 10l-5 5z" />
    <glyph glyph-name="Idieresis" unicode="&#xcf;" horiz-adv-x="330" 
d="M239 635v-570q0 -31 -18.5 -50.5t-51.5 -19.5t-51.5 19.5t-18.5 50.5v570q0 30 20 50t50 20t50 -20t20 -50zM-10 855q0 27 20 46t50 19t50.5 -19t20.5 -46t-20.5 -46t-50.5 -19t-50 19t-20 46zM200 855q0 27 20 46t50 19t50 -19t20 -46t-20 -46t-50 -19t-50 19t-20 46z
" />
    <glyph glyph-name="Eth" unicode="&#xd0;" horiz-adv-x="740" 
d="M170 700h201q140 0 229.5 -84t89.5 -207v-118q0 -123 -89.5 -207t-229.5 -84h-201q-30 0 -50 20t-20 50v220h-20q-26 0 -43 17t-17 43t17 43t43 17h20v220q0 30 20 50t50 20zM240 130h131q80 0 129.5 45.5t49.5 115.5v118q0 70 -49.5 115.5t-129.5 45.5h-131v-160h105
q26 0 43 -17t17 -43t-17 -43t-43 -17h-105v-160z" />
    <glyph glyph-name="Ntilde" unicode="&#xd1;" horiz-adv-x="770" 
d="M545 250h5v385q0 31 18.5 50.5t51.5 19.5t51.5 -19.5t18.5 -50.5v-570q0 -30 -20 -50t-50 -20q-44 0 -70 35l-325 420h-5v-385q0 -31 -18.5 -50.5t-51.5 -19.5t-51.5 19.5t-18.5 50.5v570q0 30 20 50t50 20q44 0 70 -35zM320 865q-15 0 -25 -11t-15 -24t-16 -24t-28 -11
q-20 0 -33 14t-13 36q0 49 35.5 84.5t84.5 35.5q29 0 51.5 -11.5t33.5 -26t25.5 -26t29.5 -11.5t25 11t15 24t16 24t28 11q20 0 33 -14t13 -36q0 -49 -35.5 -84.5t-84.5 -35.5q-37 0 -62 19t-42.5 37.5t-35.5 18.5z" />
    <glyph glyph-name="Ograve" unicode="&#xd2;" horiz-adv-x="740" 
d="M685 430v-160q0 -122 -89 -206t-226 -84t-226 84t-89 206v160q0 122 89 206t226 84t226 -84t89 -206zM370 110q78 0 126.5 45.5t48.5 114.5v160q0 69 -48.5 114.5t-126.5 45.5t-126.5 -45.5t-48.5 -114.5v-160q0 -69 48.5 -114.5t126.5 -45.5zM422 845q0 -19 -13 -32
t-32 -13q-13 0 -24.5 5t-16.5 10l-4 5l-80 100q-20 20 -20 50q0 26 17 43t43 17q38 0 60 -40l60 -110q10 -15 10 -35z" />
    <glyph glyph-name="Oacute" unicode="&#xd3;" horiz-adv-x="740" 
d="M685 430v-160q0 -122 -89 -206t-226 -84t-226 84t-89 206v160q0 122 89 206t226 84t226 -84t89 -206zM370 110q78 0 126.5 45.5t48.5 114.5v160q0 69 -48.5 114.5t-126.5 45.5t-126.5 -45.5t-48.5 -114.5v-160q0 -69 48.5 -114.5t126.5 -45.5zM328 835q0 9 2.5 17.5
t5.5 13.5l2 4l60 110q22 40 60 40q26 0 43 -17t17 -43q0 -13 -5 -25.5t-10 -18.5l-5 -6l-80 -100q-15 -20 -45 -20q-19 0 -32 13t-13 32z" />
    <glyph glyph-name="Ocircumflex" unicode="&#xd4;" horiz-adv-x="740" 
d="M685 430v-160q0 -122 -89 -206t-226 -84t-226 84t-89 206v160q0 122 89 206t226 84t226 -84t89 -206zM370 110q78 0 126.5 45.5t48.5 114.5v160q0 69 -48.5 114.5t-126.5 45.5t-126.5 -45.5t-48.5 -114.5v-160q0 -69 48.5 -114.5t126.5 -45.5zM372 905h-6l-87 -105
q-15 -20 -40 -20q-19 0 -32 13t-13 32q0 7 2.5 14.5t5.5 11.5l2 4l90 115q30 40 75 40t75 -40l90 -115q10 -15 10 -30q0 -19 -13 -32t-32 -13q-11 0 -21 5t-14 10l-5 5z" />
    <glyph glyph-name="Otilde" unicode="&#xd5;" horiz-adv-x="740" 
d="M685 430v-160q0 -122 -89 -206t-226 -84t-226 84t-89 206v160q0 122 89 206t226 84t226 -84t89 -206zM370 110q78 0 126.5 45.5t48.5 114.5v160q0 69 -48.5 114.5t-126.5 45.5t-126.5 -45.5t-48.5 -114.5v-160q0 -69 48.5 -114.5t126.5 -45.5zM304 885q-15 0 -25 -11
t-15 -24t-16 -24t-28 -11q-20 0 -33 14t-13 36q0 49 35.5 84.5t84.5 35.5q29 0 51.5 -11.5t33.5 -26t25.5 -26t29.5 -11.5t25 11t15 24t16 24t28 11q20 0 33 -14t13 -36q0 -49 -35.5 -84.5t-84.5 -35.5q-37 0 -62 19t-42.5 37.5t-35.5 18.5z" />
    <glyph glyph-name="Odieresis" unicode="&#xd6;" horiz-adv-x="740" 
d="M685 430v-160q0 -122 -89 -206t-226 -84t-226 84t-89 206v160q0 122 89 206t226 84t226 -84t89 -206zM370 110q78 0 126.5 45.5t48.5 114.5v160q0 69 -48.5 114.5t-126.5 45.5t-126.5 -45.5t-48.5 -114.5v-160q0 -69 48.5 -114.5t126.5 -45.5zM198 885q0 27 20 46t50 19
t50.5 -19t20.5 -46t-20.5 -46t-50.5 -19t-50 19t-20 46zM408 885q0 27 20 46t50 19t50 -19t20 -46t-20 -46t-50 -19t-50 19t-20 46z" />
    <glyph glyph-name="multiply" unicode="&#xd7;" horiz-adv-x="500" 
d="M345 130l-95 95l-95 -95q-15 -20 -45 -20q-26 0 -43 17t-17 43q0 13 5 24.5t10 15.5l5 5l95 95l-95 95q-20 15 -20 45q0 26 17 43t43 17q13 0 24.5 -5t15.5 -10l5 -5l95 -95l95 95q15 20 45 20q26 0 43 -17t17 -43q0 -13 -5 -24.5t-10 -15.5l-5 -5l-95 -95l95 -95
q20 -15 20 -45q0 -26 -17 -43t-43 -17q-13 0 -24.5 5t-15.5 10z" />
    <glyph glyph-name="Oslash" unicode="&#xd8;" horiz-adv-x="740" 
d="M195 270q0 -20 3.5 -39t7.5 -27l4 -9l240 380q-30 15 -80 15q-78 0 -126.5 -45.5t-48.5 -114.5v-160zM370 110q78 0 126.5 45.5t48.5 114.5v160q0 20 -3.5 37.5t-7.5 24.5l-3 8l-241 -375q35 -15 80 -15zM115 50l15 25q-3 3 -8 8.5t-18 24t-23 39.5t-18 54.5t-8 68.5v160
q0 122 89 206t226 84q40 0 77.5 -8.5t54.5 -17.5l18 -9l15 20q15 25 45 25q23 0 36.5 -13.5t13.5 -36.5l-5 -30l-15 -25q3 -3 8 -9t18 -25t23 -40.5t18 -54t8 -66.5v-160q0 -122 -89 -206t-226 -84q-40 0 -77.5 8.5t-54.5 17.5l-18 9l-15 -20q-15 -25 -45 -25
q-23 0 -36.5 13.5t-13.5 36.5z" />
    <glyph glyph-name="Ugrave" unicode="&#xd9;" horiz-adv-x="750" 
d="M145 705q30 0 50 -20t20 -50v-380q0 -65 43 -105t117 -40t117 40.5t43 105.5v379q0 30 20 50t50 20t50 -20t20 -50v-379q0 -119 -83.5 -197.5t-216.5 -78.5t-216.5 78.5t-83.5 196.5v380q0 30 20 50t50 20zM430 815q0 -19 -13 -32t-32 -13q-13 0 -24.5 5t-16.5 10l-4 5
l-80 100q-20 20 -20 50q0 26 17 43t43 17q38 0 60 -40l60 -110q10 -15 10 -35z" />
    <glyph glyph-name="Uacute" unicode="&#xda;" horiz-adv-x="750" 
d="M145 705q30 0 50 -20t20 -50v-380q0 -65 43 -105t117 -40t117 40.5t43 105.5v379q0 30 20 50t50 20t50 -20t20 -50v-379q0 -119 -83.5 -197.5t-216.5 -78.5t-216.5 78.5t-83.5 196.5v380q0 30 20 50t50 20zM323 805q0 9 2.5 17.5t4.5 13.5l3 4l60 110q22 40 60 40
q26 0 43 -17t17 -43q0 -13 -5 -25.5t-10 -18.5l-5 -6l-80 -100q-15 -20 -45 -20q-19 0 -32 13t-13 32z" />
    <glyph glyph-name="Ucircumflex" unicode="&#xdb;" horiz-adv-x="750" 
d="M145 705q30 0 50 -20t20 -50v-380q0 -65 43 -105t117 -40t117 40.5t43 105.5v379q0 30 20 50t50 20t50 -20t20 -50v-379q0 -119 -83.5 -197.5t-216.5 -78.5t-216.5 78.5t-83.5 196.5v380q0 30 20 50t50 20zM378 895h-6l-87 -105q-15 -20 -40 -20q-19 0 -32 13t-13 32
q0 7 2.5 14.5t5.5 11.5l2 4l90 115q30 40 75 40t75 -40l90 -115q10 -15 10 -30q0 -19 -13 -32t-32 -13q-11 0 -21 5t-14 10l-5 5z" />
    <glyph glyph-name="Udieresis" unicode="&#xdc;" horiz-adv-x="750" 
d="M145 705q30 0 50 -20t20 -50v-380q0 -65 43 -105t117 -40t117 40.5t43 105.5v379q0 30 20 50t50 20t50 -20t20 -50v-379q0 -119 -83.5 -197.5t-216.5 -78.5t-216.5 78.5t-83.5 196.5v380q0 30 20 50t50 20zM194 865q0 27 20 46t50 19t50.5 -19t20.5 -46t-20.5 -46
t-50.5 -19t-50 19t-20 46zM404 865q0 27 20 46t50 19t50 -19t20 -46t-20 -46t-50 -19t-50 19t-20 46z" />
    <glyph glyph-name="Yacute" unicode="&#xdd;" horiz-adv-x="650" 
d="M580 705q30 0 50 -20t20 -50q0 -13 -6 -27t-12 -21l-7 -7l-230 -320v-195q0 -30 -20 -50t-50 -20q-33 0 -51.5 19.5t-18.5 50.5v195l-230 320q-25 25 -25 55t20 50t50 20q16 0 31 -8.5t22 -17.5l7 -9l192 -265h6l192 265q25 35 60 35zM284 815q0 9 2.5 17.5t5.5 13.5l2 4
l60 110q22 40 60 40q26 0 43 -17t17 -43q0 -13 -5 -25.5t-10 -18.5l-5 -6l-80 -100q-15 -20 -45 -20q-19 0 -32 13t-13 32z" />
    <glyph glyph-name="Thorn" unicode="&#xde;" horiz-adv-x="690" 
d="M220 645v-50h145q138 0 216.5 -67.5t78.5 -172.5t-78.5 -172.5t-216.5 -67.5h-145v-55q0 -31 -18.5 -50.5t-51.5 -19.5t-51.5 19.5t-18.5 50.5v585q0 30 20 50t50 20t50 -20t20 -50zM365 475h-145v-240h145q73 0 111.5 33t38.5 87t-38.5 87t-111.5 33z" />
    <glyph glyph-name="germandbls" unicode="&#xdf;" horiz-adv-x="625" 
d="M300 370q0 34 32.5 81.5t32.5 73.5q0 31 -24 53t-61 22q-34 0 -57 -22t-23 -53v-465q0 -26 -19.5 -45.5t-45.5 -19.5t-45.5 19.5t-19.5 45.5v465q0 80 60.5 137.5t149.5 57.5q103 0 161.5 -53t58.5 -137q0 -38 -32.5 -88t-32.5 -72q0 -18 12.5 -33t31.5 -24t41 -22
t41 -27.5t31.5 -41.5t12.5 -62q0 -73 -59 -126.5t-148 -53.5q-63 0 -95.5 25t-32.5 65q0 23 14 36.5t37 13.5q13 0 31 -10t42 -10q35 0 55.5 15t20.5 45q0 26 -17.5 44.5t-42.5 31t-50 27t-42.5 41.5t-17.5 66z" />
    <glyph glyph-name="agrave" unicode="&#xe0;" horiz-adv-x="570" 
d="M255 105q58 0 91.5 25.5t33.5 64.5v20h-125q-46 0 -68 -15.5t-22 -39.5t22 -39.5t68 -15.5zM235 -15q-91 0 -148 51t-57 124q0 76 55 120.5t170 44.5h125q0 80 -110 80q-27 0 -49.5 -6.5t-31.5 -12.5l-9 -6q-30 -25 -55 -25q-26 0 -43 17t-17 43q0 40 53 75t152 35
q111 0 175.5 -56t64.5 -145v-264q0 -26 -19.5 -45.5t-45.5 -19.5q-28 0 -46.5 14.5t-18.5 30.5h-5q-5 -6 -14 -15t-45.5 -24.5t-80.5 -15.5zM350 655q0 -19 -13 -32t-32 -13q-13 0 -24.5 5t-16.5 10l-4 5l-80 100q-20 20 -20 50q0 26 17 43t43 17q38 0 60 -40l60 -110
q10 -15 10 -35z" />
    <glyph glyph-name="aacute" unicode="&#xe1;" horiz-adv-x="570" 
d="M255 105q58 0 91.5 25.5t33.5 64.5v20h-125q-46 0 -68 -15.5t-22 -39.5t22 -39.5t68 -15.5zM235 -15q-91 0 -148 51t-57 124q0 76 55 120.5t170 44.5h125q0 80 -110 80q-27 0 -49.5 -6.5t-31.5 -12.5l-9 -6q-30 -25 -55 -25q-26 0 -43 17t-17 43q0 40 53 75t152 35
q111 0 175.5 -56t64.5 -145v-264q0 -26 -19.5 -45.5t-45.5 -19.5q-28 0 -46.5 14.5t-18.5 30.5h-5q-5 -6 -14 -15t-45.5 -24.5t-80.5 -15.5zM240 645q0 9 2.5 17.5t5.5 13.5l2 4l60 110q22 40 60 40q26 0 43 -17t17 -43q0 -13 -5 -25.5t-10 -18.5l-5 -6l-80 -100
q-15 -20 -45 -20q-19 0 -32 13t-13 32z" />
    <glyph glyph-name="acircumflex" unicode="&#xe2;" horiz-adv-x="570" 
d="M255 105q58 0 91.5 25.5t33.5 64.5v20h-125q-46 0 -68 -15.5t-22 -39.5t22 -39.5t68 -15.5zM235 -15q-91 0 -148 51t-57 124q0 76 55 120.5t170 44.5h125q0 80 -110 80q-27 0 -49.5 -6.5t-31.5 -12.5l-9 -6q-30 -25 -55 -25q-26 0 -43 17t-17 43q0 40 53 75t152 35
q111 0 175.5 -56t64.5 -145v-264q0 -26 -19.5 -45.5t-45.5 -19.5q-28 0 -46.5 14.5t-18.5 30.5h-5q-5 -6 -14 -15t-45.5 -24.5t-80.5 -15.5zM290 715h-6l-87 -105q-15 -20 -40 -20q-19 0 -32 13t-13 32q0 7 2.5 14.5t5.5 11.5l2 4l90 115q30 40 75 40t75 -40l90 -115
q10 -15 10 -30q0 -19 -13 -32t-32 -13q-11 0 -21 5t-14 10l-5 5z" />
    <glyph glyph-name="atilde" unicode="&#xe3;" horiz-adv-x="570" 
d="M255 105q58 0 91.5 25.5t33.5 64.5v20h-125q-46 0 -68 -15.5t-22 -39.5t22 -39.5t68 -15.5zM235 -15q-91 0 -148 51t-57 124q0 76 55 120.5t170 44.5h125q0 80 -110 80q-27 0 -49.5 -6.5t-31.5 -12.5l-9 -6q-30 -25 -55 -25q-26 0 -43 17t-17 43q0 40 53 75t152 35
q111 0 175.5 -56t64.5 -145v-264q0 -26 -19.5 -45.5t-45.5 -19.5q-28 0 -46.5 14.5t-18.5 30.5h-5q-5 -6 -14 -15t-45.5 -24.5t-80.5 -15.5zM222 675q-15 0 -25 -11t-15 -24t-16 -24t-28 -11q-20 0 -33 14t-13 36q0 49 35.5 84.5t84.5 35.5q29 0 51.5 -11.5t33.5 -26
t25.5 -26t29.5 -11.5t25 11t15 24t16 24t28 11q20 0 33 -14t13 -36q0 -49 -35.5 -84.5t-84.5 -35.5q-37 0 -62 19t-42.5 37.5t-35.5 18.5z" />
    <glyph glyph-name="adieresis" unicode="&#xe4;" horiz-adv-x="570" 
d="M255 105q58 0 91.5 25.5t33.5 64.5v20h-125q-46 0 -68 -15.5t-22 -39.5t22 -39.5t68 -15.5zM235 -15q-91 0 -148 51t-57 124q0 76 55 120.5t170 44.5h125q0 80 -110 80q-27 0 -49.5 -6.5t-31.5 -12.5l-9 -6q-30 -25 -55 -25q-26 0 -43 17t-17 43q0 40 53 75t152 35
q111 0 175.5 -56t64.5 -145v-264q0 -26 -19.5 -45.5t-45.5 -19.5q-28 0 -46.5 14.5t-18.5 30.5h-5q-5 -6 -14 -15t-45.5 -24.5t-80.5 -15.5zM116 685q0 27 20 46t50 19t50.5 -19t20.5 -46t-20.5 -46t-50.5 -19t-50 19t-20 46zM326 685q0 27 20 46t50 19t50 -19t20 -46
t-20 -46t-50 -19t-50 19t-20 46z" />
    <glyph glyph-name="aring" unicode="&#xe5;" horiz-adv-x="570" 
d="M255 105q58 0 91.5 25.5t33.5 64.5v20h-125q-46 0 -68 -15.5t-22 -39.5t22 -39.5t68 -15.5zM235 -15q-91 0 -148 51t-57 124q0 76 55 120.5t170 44.5h125q0 80 -110 80q-27 0 -49.5 -6.5t-31.5 -12.5l-9 -6q-30 -25 -55 -25q-26 0 -43 17t-17 43q0 40 53 75t152 35
q111 0 175.5 -56t64.5 -145v-264q0 -26 -19.5 -45.5t-45.5 -19.5q-28 0 -46.5 14.5t-18.5 30.5h-5q-5 -6 -14 -15t-45.5 -24.5t-80.5 -15.5zM222 715q0 -26 19.5 -45.5t45.5 -19.5t45.5 19.5t19.5 45.5t-19.5 45.5t-45.5 19.5t-45.5 -19.5t-19.5 -45.5zM432 715
q0 -57 -41 -96t-104 -39t-104 39t-41 96t41 96t104 39t104 -39t41 -96z" />
    <glyph glyph-name="ae" unicode="&#xe6;" horiz-adv-x="910" 
d="M445 450h5q2 3 6 8t19 18t34 23t53 18t73 8q105 0 172.5 -61.5t67.5 -158.5v-30q0 -27 -18 -46t-47 -19h-295q0 -46 32.5 -75.5t87.5 -29.5q75 0 110 35q25 25 55 25q26 0 43 -17t17 -43q0 -40 -61.5 -80t-163.5 -40q-39 0 -72.5 9t-53.5 21t-34 24.5t-19 21.5l-6 9h-5
q-2 -3 -6.5 -9t-21.5 -20.5t-38.5 -26t-60 -20.5t-83.5 -9q-91 0 -148 51t-57 124q0 72 55.5 116t169.5 44h125q0 85 -110 85q-27 0 -49.5 -6.5t-31.5 -12.5l-9 -6q-30 -25 -55 -25q-26 0 -43 17t-17 43q0 40 53 75t152 35q38 0 70 -7.5t50.5 -19t31.5 -22.5t18 -18z
M255 105q57 0 91 27t34 63v15h-125q-45 0 -67.5 -14.5t-22.5 -35.5q0 -24 22 -39.5t68 -15.5zM515 320h230q0 38 -31 61.5t-80 23.5q-53 0 -86 -26.5t-33 -58.5z" />
    <glyph glyph-name="ccedilla" unicode="&#xe7;" horiz-adv-x="535" 
d="M430 -165q0 -59 -41 -92t-124 -33q-50 0 -70 13.5t-20 41.5q0 15 11 25t29 10q6 0 21 -2.5t29 -2.5q32 0 48.5 12t16.5 28t-16.5 28t-48.5 12h-10q-19 0 -32 13.5t-13 32.5v76q-77 23 -123.5 82.5t-46.5 135.5v80q0 95 71.5 162.5t178.5 67.5q99 0 157 -39.5t58 -80.5
q0 -26 -17 -43t-43 -17q-11 0 -25 6.5t-22 12.5l-8 6q-40 35 -100 35q-56 0 -88 -30.5t-32 -79.5v-80q0 -49 32 -79.5t88 -30.5q70 0 110 40q30 30 60 30q26 0 43 -17t17 -43q0 -39 -62.5 -83t-157.5 -47v-35q59 0 94.5 -32.5t35.5 -82.5z" />
    <glyph glyph-name="egrave" unicode="&#xe8;" horiz-adv-x="565" 
d="M465 200h-295q0 -39 33 -67t87 -28q75 0 110 35q25 25 55 25q26 0 43 -17t17 -43q0 -40 -61.5 -80t-163.5 -40q-107 0 -178.5 67.5t-71.5 162.5v80q0 99 69.5 164.5t180.5 65.5q104 0 172 -66t68 -164v-30q0 -27 -18 -46t-47 -19zM170 310h230q0 39 -31.5 67t-79.5 28
q-54 0 -86.5 -28t-32.5 -67zM350 655q0 -19 -13 -32t-32 -13q-13 0 -24.5 5t-16.5 10l-4 5l-80 100q-20 20 -20 50q0 26 17 43t43 17q38 0 60 -40l60 -110q10 -15 10 -35z" />
    <glyph glyph-name="eacute" unicode="&#xe9;" horiz-adv-x="565" 
d="M465 200h-295q0 -39 33 -67t87 -28q75 0 110 35q25 25 55 25q26 0 43 -17t17 -43q0 -40 -61.5 -80t-163.5 -40q-107 0 -178.5 67.5t-71.5 162.5v80q0 99 69.5 164.5t180.5 65.5q104 0 172 -66t68 -164v-30q0 -27 -18 -46t-47 -19zM170 310h230q0 39 -31.5 67t-79.5 28
q-54 0 -86.5 -28t-32.5 -67zM241 645q0 9 2.5 17.5t4.5 13.5l3 4l60 110q22 40 60 40q26 0 43 -17t17 -43q0 -13 -5 -25.5t-10 -18.5l-5 -6l-80 -100q-15 -20 -45 -20q-19 0 -32 13t-13 32z" />
    <glyph glyph-name="ecircumflex" unicode="&#xea;" horiz-adv-x="565" 
d="M465 200h-295q0 -39 33 -67t87 -28q75 0 110 35q25 25 55 25q26 0 43 -17t17 -43q0 -40 -61.5 -80t-163.5 -40q-107 0 -178.5 67.5t-71.5 162.5v80q0 99 69.5 164.5t180.5 65.5q104 0 172 -66t68 -164v-30q0 -27 -18 -46t-47 -19zM170 310h230q0 39 -31.5 67t-79.5 28
q-54 0 -86.5 -28t-32.5 -67zM286 715h-6l-87 -105q-15 -20 -40 -20q-19 0 -32 13t-13 32q0 7 2.5 14.5t5.5 11.5l2 4l90 115q30 40 75 40t75 -40l90 -115q10 -15 10 -30q0 -19 -13 -32t-32 -13q-11 0 -21 5t-14 10l-5 5z" />
    <glyph glyph-name="edieresis" unicode="&#xeb;" horiz-adv-x="565" 
d="M465 200h-295q0 -39 33 -67t87 -28q75 0 110 35q25 25 55 25q26 0 43 -17t17 -43q0 -40 -61.5 -80t-163.5 -40q-107 0 -178.5 67.5t-71.5 162.5v80q0 99 69.5 164.5t180.5 65.5q104 0 172 -66t68 -164v-30q0 -27 -18 -46t-47 -19zM170 310h230q0 39 -31.5 67t-79.5 28
q-54 0 -86.5 -28t-32.5 -67zM112 685q0 27 20 46t50 19t50.5 -19t20.5 -46t-20.5 -46t-50.5 -19t-50 19t-20 46zM322 685q0 27 20 46t50 19t50 -19t20 -46t-20 -46t-50 -19t-50 19t-20 46z" />
    <glyph glyph-name="igrave" unicode="&#xec;" horiz-adv-x="263" 
d="M198 450v-390q0 -26 -19.5 -45.5t-45.5 -19.5t-45.5 19.5t-19.5 45.5v390q0 26 19.5 45.5t45.5 19.5t45.5 -19.5t19.5 -45.5zM170 665q0 -19 -13 -32t-32 -13q-13 0 -24.5 5t-16.5 10l-4 5l-80 100q-20 20 -20 50q0 26 17 43t43 17q38 0 60 -40l60 -110q10 -15 10 -35z
" />
    <glyph glyph-name="iacute" unicode="&#xed;" horiz-adv-x="261" 
d="M195 450v-390q0 -26 -19.5 -45.5t-45.5 -19.5t-45.5 19.5t-19.5 45.5v390q0 26 19.5 45.5t45.5 19.5t45.5 -19.5t19.5 -45.5zM91 645q0 9 2.5 17.5t4.5 13.5l3 4l60 110q22 40 60 40q26 0 43 -17t17 -43q0 -13 -5 -25.5t-10 -18.5l-5 -6l-80 -100q-15 -20 -45 -20
q-19 0 -32 13t-13 32z" />
    <glyph glyph-name="icircumflex" unicode="&#xee;" horiz-adv-x="290" 
d="M207 450v-390q0 -26 -19.5 -45.5t-45.5 -19.5t-45.5 19.5t-19.5 45.5v390q0 26 19.5 45.5t45.5 19.5t45.5 -19.5t19.5 -45.5zM148 715h-6l-87 -105q-15 -20 -40 -20q-19 0 -32 13t-13 32q0 7 2.5 14.5t5.5 11.5l2 4l90 115q30 40 75 40t75 -40l90 -115q10 -15 10 -30
q0 -19 -13 -32t-32 -13q-11 0 -21 5t-14 10l-5 5z" />
    <glyph glyph-name="idieresis" unicode="&#xef;" horiz-adv-x="290" 
d="M213 450v-390q0 -26 -19.5 -45.5t-45.5 -19.5t-45.5 19.5t-19.5 45.5v390q0 26 19.5 45.5t45.5 19.5t45.5 -19.5t19.5 -45.5zM-30 685q0 27 20 46t50 19t50.5 -19t20.5 -46t-20.5 -46t-50.5 -19t-50 19t-20 46zM180 685q0 27 20 46t50 19t50 -19t20 -46t-20 -46t-50 -19
t-50 19t-20 46z" />
    <glyph glyph-name="eth" unicode="&#xf0;" horiz-adv-x="570" 
d="M370 690l-15 -25l2 -1q12 -5 25 -12t42.5 -33t50.5 -59.5t38 -95t17 -136.5v-113q0 -99 -70.5 -164.5t-184.5 -65.5t-184.5 65.5t-70.5 164.5q0 97 65.5 163.5t159.5 66.5q44 0 83 -13.5t56 -27.5l16 -14h5q0 38 -11 70t-26 50.5t-30.5 31.5t-26.5 18l-11 5l-30 -50
q-15 -25 -40 -25q-19 0 -32 14t-13 36q0 12 5 20l20 35q-20 5 -40 5q-26 0 -40.5 15.5t-14.5 39.5q0 23 16.5 39t38.5 16t47 -4t39 -8l14 -3l20 40q12 25 40 25q19 0 32 -14t13 -36q0 -12 -5 -20zM150 215q0 -46 35 -78t90 -32t90 32t35 78t-35 78t-90 32t-90 -32t-35 -78z
" />
    <glyph glyph-name="ntilde" unicode="&#xf1;" horiz-adv-x="615" 
d="M195 470h5q5 6 14 15t44 24.5t77 15.5q91 0 155.5 -66.5t64.5 -163.5v-235q0 -27 -18 -46t-47 -19t-47 19t-18 46v235q0 49 -31.5 79.5t-83.5 30.5q-49 0 -82 -31t-33 -79v-235q0 -26 -19.5 -45.5t-45.5 -19.5t-45.5 19.5t-19.5 45.5v390q0 26 19.5 45.5t45.5 19.5
q28 0 46.5 -14.5t18.5 -30.5zM237 695q-15 0 -25 -11t-15 -24t-16 -24t-28 -11q-20 0 -33 14t-13 36q0 49 35.5 84.5t84.5 35.5q29 0 51.5 -11.5t33.5 -26t25.5 -26t29.5 -11.5t25 11t15 24t16 24t28 11q20 0 33 -14t13 -36q0 -49 -35.5 -84.5t-84.5 -35.5q-37 0 -62 19
t-42.5 37.5t-35.5 18.5z" />
    <glyph glyph-name="ograve" unicode="&#xf2;" horiz-adv-x="580" 
d="M290 -15q-111 0 -180.5 65.5t-69.5 164.5v80q0 99 69.5 164.5t180.5 65.5t180.5 -65.5t69.5 -164.5v-80q0 -99 -69.5 -164.5t-180.5 -65.5zM290 405q-56 0 -88 -30.5t-32 -79.5v-80q0 -49 32 -79.5t88 -30.5t88 30.5t32 79.5v80q0 49 -32 79.5t-88 30.5zM344 655
q0 -19 -13 -32t-32 -13q-13 0 -24.5 5t-16.5 10l-4 5l-80 100q-20 20 -20 50q0 26 17 43t43 17q38 0 60 -40l60 -110q10 -15 10 -35z" />
    <glyph glyph-name="oacute" unicode="&#xf3;" horiz-adv-x="580" 
d="M290 -15q-111 0 -180.5 65.5t-69.5 164.5v80q0 99 69.5 164.5t180.5 65.5t180.5 -65.5t69.5 -164.5v-80q0 -99 -69.5 -164.5t-180.5 -65.5zM290 405q-56 0 -88 -30.5t-32 -79.5v-80q0 -49 32 -79.5t88 -30.5t88 30.5t32 79.5v80q0 49 -32 79.5t-88 30.5zM239 645
q0 9 2.5 17.5t4.5 13.5l3 4l60 110q22 40 60 40q26 0 43 -17t17 -43q0 -13 -5 -25.5t-10 -18.5l-5 -6l-80 -100q-15 -20 -45 -20q-19 0 -32 13t-13 32z" />
    <glyph glyph-name="ocircumflex" unicode="&#xf4;" horiz-adv-x="580" 
d="M290 -15q-111 0 -180.5 65.5t-69.5 164.5v80q0 99 69.5 164.5t180.5 65.5t180.5 -65.5t69.5 -164.5v-80q0 -99 -69.5 -164.5t-180.5 -65.5zM290 405q-56 0 -88 -30.5t-32 -79.5v-80q0 -49 32 -79.5t88 -30.5t88 30.5t32 79.5v80q0 49 -32 79.5t-88 30.5zM293 715h-6
l-87 -105q-15 -20 -40 -20q-19 0 -32 13t-13 32q0 7 2.5 14.5t4.5 11.5l3 4l90 115q30 40 75 40t75 -40l90 -115q10 -15 10 -30q0 -19 -13 -32t-32 -13q-11 0 -21 5t-15 10l-4 5z" />
    <glyph glyph-name="otilde" unicode="&#xf5;" horiz-adv-x="580" 
d="M290 -15q-111 0 -180.5 65.5t-69.5 164.5v80q0 99 69.5 164.5t180.5 65.5t180.5 -65.5t69.5 -164.5v-80q0 -99 -69.5 -164.5t-180.5 -65.5zM290 405q-56 0 -88 -30.5t-32 -79.5v-80q0 -49 32 -79.5t88 -30.5t88 30.5t32 79.5v80q0 49 -32 79.5t-88 30.5zM225 675
q-15 0 -25 -11t-15 -24t-16 -24t-28 -11q-20 0 -33 14t-13 36q0 49 35.5 84.5t84.5 35.5q29 0 51.5 -11.5t33.5 -26t25.5 -26t29.5 -11.5t25 11t15 24t16 24t28 11q20 0 33 -14t13 -36q0 -49 -35.5 -84.5t-84.5 -35.5q-37 0 -62 19t-42.5 37.5t-35.5 18.5z" />
    <glyph glyph-name="odieresis" unicode="&#xf6;" horiz-adv-x="580" 
d="M290 -15q-111 0 -180.5 65.5t-69.5 164.5v80q0 99 69.5 164.5t180.5 65.5t180.5 -65.5t69.5 -164.5v-80q0 -99 -69.5 -164.5t-180.5 -65.5zM290 405q-56 0 -88 -30.5t-32 -79.5v-80q0 -49 32 -79.5t88 -30.5t88 30.5t32 79.5v80q0 49 -32 79.5t-88 30.5zM109 675
q0 27 20 46t50 19t50.5 -19t20.5 -46t-20.5 -46t-50.5 -19t-50 19t-20 46zM319 675q0 27 20 46t50 19t50 -19t20 -46t-20 -46t-50 -19t-50 19t-20 46z" />
    <glyph glyph-name="divide" unicode="&#xf7;" horiz-adv-x="560" 
d="M480 260h-400q-26 0 -43 17t-17 43t17 43t43 17h400q26 0 43 -17t17 -43t-17 -43t-43 -17zM195 525q0 30 23.5 52.5t56.5 22.5t56.5 -22.5t23.5 -52.5t-23.5 -52.5t-56.5 -22.5t-56.5 22.5t-23.5 52.5zM195 115q0 30 23.5 52.5t56.5 22.5t56.5 -22.5t23.5 -52.5
t-23.5 -52.5t-56.5 -22.5t-56.5 22.5t-23.5 52.5z" />
    <glyph glyph-name="oslash" unicode="&#xf8;" horiz-adv-x="580" 
d="M290 -15q-27 0 -52 3.5t-36 7.5l-12 4l-10 -15q-15 -30 -45 -30q-19 0 -32 13t-13 32q0 7 2.5 14.5t5.5 11.5l2 4l10 20q-3 2 -7.5 6.5t-16.5 20t-21.5 33t-17 46t-7.5 59.5v80q0 99 69.5 164.5t180.5 65.5q27 0 52 -3.5t36 -7.5l12 -4l10 15q15 30 45 30q19 0 32 -13
t13 -32q0 -7 -2.5 -14.5t-5.5 -11.5l-2 -4l-10 -20q3 -2 7.5 -6.5t16.5 -20t21.5 -33t17 -46t7.5 -59.5v-80q0 -99 -69.5 -164.5t-180.5 -65.5zM410 295q0 13 -2.5 25.5t-5.5 18.5l-2 6l-145 -235q15 -5 35 -5q56 0 88 30.5t32 79.5v80zM290 405q-56 0 -88 -30.5t-32 -79.5
v-80q0 -16 2.5 -28.5t5.5 -16.5l2 -5l145 235q-10 5 -35 5z" />
    <glyph glyph-name="ugrave" unicode="&#xf9;" 
d="M425 40h-5q-5 -6 -14 -15t-44 -24.5t-77 -15.5q-91 0 -155.5 66.5t-64.5 163.5v235q0 27 18 46t47 19t47 -19t18 -46v-235q0 -49 31.5 -79.5t83.5 -30.5q49 0 82 31t33 79v235q0 26 19.5 45.5t45.5 19.5t45.5 -19.5t19.5 -45.5v-390q0 -26 -19.5 -45.5t-45.5 -19.5
q-28 0 -46.5 14.5t-18.5 30.5zM352 655q0 -19 -13 -32t-32 -13q-13 0 -24.5 5t-16.5 10l-4 5l-80 100q-20 20 -20 50q0 26 17 43t43 17q38 0 60 -40l60 -110q10 -15 10 -35z" />
    <glyph glyph-name="uacute" unicode="&#xfa;" 
d="M425 40h-5q-5 -6 -14 -15t-44 -24.5t-77 -15.5q-91 0 -155.5 66.5t-64.5 163.5v235q0 27 18 46t47 19t47 -19t18 -46v-235q0 -49 31.5 -79.5t83.5 -30.5q49 0 82 31t33 79v235q0 26 19.5 45.5t45.5 19.5t45.5 -19.5t19.5 -45.5v-390q0 -26 -19.5 -45.5t-45.5 -19.5
q-28 0 -46.5 14.5t-18.5 30.5zM267 645q0 9 2.5 17.5t4.5 13.5l3 4l60 110q22 40 60 40q26 0 43 -17t17 -43q0 -13 -5 -25.5t-10 -18.5l-5 -6l-80 -100q-15 -20 -45 -20q-19 0 -32 13t-13 32z" />
    <glyph glyph-name="ucircumflex" unicode="&#xfb;" 
d="M425 40h-5q-5 -6 -14 -15t-44 -24.5t-77 -15.5q-91 0 -155.5 66.5t-64.5 163.5v235q0 27 18 46t47 19t47 -19t18 -46v-235q0 -49 31.5 -79.5t83.5 -30.5q49 0 82 31t33 79v235q0 26 19.5 45.5t45.5 19.5t45.5 -19.5t19.5 -45.5v-390q0 -26 -19.5 -45.5t-45.5 -19.5
q-28 0 -46.5 14.5t-18.5 30.5zM308 725h-6l-87 -105q-15 -20 -40 -20q-19 0 -32 13t-13 32q0 7 2.5 14.5t5.5 11.5l2 4l90 115q30 40 75 40t75 -40l90 -115q10 -15 10 -30q0 -19 -13 -32t-32 -13q-11 0 -21 5t-14 10l-5 5z" />
    <glyph glyph-name="udieresis" unicode="&#xfc;" 
d="M425 40h-5q-5 -6 -14 -15t-44 -24.5t-77 -15.5q-91 0 -155.5 66.5t-64.5 163.5v235q0 27 18 46t47 19t47 -19t18 -46v-235q0 -49 31.5 -79.5t83.5 -30.5q49 0 82 31t33 79v235q0 26 19.5 45.5t45.5 19.5t45.5 -19.5t19.5 -45.5v-390q0 -26 -19.5 -45.5t-45.5 -19.5
q-28 0 -46.5 14.5t-18.5 30.5zM124 695q0 27 20 46t50 19t50.5 -19t20.5 -46t-20.5 -46t-50.5 -19t-50 19t-20 46zM334 695q0 27 20 46t50 19t50 -19t20 -46t-20 -46t-50 -19t-50 19t-20 46z" />
    <glyph glyph-name="yacute" unicode="&#xfd;" horiz-adv-x="540" 
d="M145 -110l65 140l-190 380q-15 24 -15 45q0 23 18.5 41.5t41.5 18.5q27 0 42 -14t28 -41l135 -285h5l135 295q20 45 65 45q23 0 41.5 -18.5t18.5 -41.5q0 -9 -2.5 -20.5t-4.5 -18.5l-3 -6l-270 -585q-20 -45 -65 -45q-22 0 -41 19t-19 41q0 10 4 22.5t8 19.5zM233 635
q0 9 2.5 17.5t4.5 13.5l3 4l60 110q22 40 60 40q26 0 43 -17t17 -43q0 -13 -5 -25.5t-10 -18.5l-5 -6l-80 -100q-15 -20 -45 -20q-19 0 -32 13t-13 32z" />
    <glyph glyph-name="thorn" unicode="&#xfe;" horiz-adv-x="610" 
d="M200 655v-185h5q1 2 4 6t15 13.5t27 16.5t41.5 13t57.5 6q91 0 155.5 -67.5t64.5 -167.5v-70q0 -100 -64.5 -167.5t-155.5 -67.5q-31 0 -57 5.5t-41.5 14t-26.5 16.5t-15 13l-5 6h-5v-195q0 -26 -19.5 -45.5t-45.5 -19.5t-45.5 19.5t-19.5 45.5v810q0 26 19.5 45.5
t45.5 19.5t45.5 -19.5t19.5 -45.5zM320 405q-50 0 -84 -30t-36 -71v-94q0 -42 34.5 -73.5t85.5 -31.5q52 0 86 33t34 82v70q0 49 -34 82t-86 33z" />
    <glyph glyph-name="ydieresis" unicode="&#xff;" horiz-adv-x="550" 
d="M150 -110l65 140l-190 380q-15 24 -15 45q0 23 19 41.5t41 18.5q27 0 42 -14t28 -41l135 -285h5l135 295q20 45 65 45q22 0 41 -18.5t19 -41.5q0 -9 -2.5 -20.5t-5.5 -18.5l-2 -6l-270 -585q-20 -45 -65 -45q-23 0 -41.5 19t-18.5 41q0 10 3.5 22.5t7.5 19.5zM96 675
q0 27 20 46t50 19t50.5 -19t20.5 -46t-20.5 -46t-50.5 -19t-50 19t-20 46zM306 675q0 27 20 46t50 19t50 -19t20 -46t-20 -46t-50 -19t-50 19t-20 46z" />
    <glyph glyph-name="Amacron" unicode="&#x100;" horiz-adv-x="710" 
d="M355 720q38 0 65 -20.5t40 -49.5l230 -540q10 -25 10 -45q0 -29 -20.5 -49.5t-49.5 -20.5q-52 0 -75 60l-45 115h-310l-45 -115q-23 -60 -75 -60q-29 0 -49.5 20.5t-20.5 49.5q0 9 2.5 20t5.5 18l2 7l230 540q13 29 40 49.5t65 20.5zM352 555l-102 -255h210l-102 255h-6z
M476 820h-240q-22 0 -36 14t-14 36t14 36t36 14h240q22 0 36 -14t14 -36t-14 -36t-36 -14z" />
    <glyph glyph-name="amacron" unicode="&#x101;" horiz-adv-x="570" 
d="M255 105q58 0 91.5 25.5t33.5 64.5v20h-125q-46 0 -68 -15.5t-22 -39.5t22 -39.5t68 -15.5zM235 -15q-91 0 -148 51t-57 124q0 76 55 120.5t170 44.5h125q0 80 -110 80q-27 0 -49.5 -6.5t-31.5 -12.5l-9 -6q-30 -25 -55 -25q-26 0 -43 17t-17 43q0 40 53 75t152 35
q111 0 175.5 -56t64.5 -145v-264q0 -26 -19.5 -45.5t-45.5 -19.5q-28 0 -46.5 14.5t-18.5 30.5h-5q-5 -6 -14 -15t-45.5 -24.5t-80.5 -15.5zM415 630h-240q-23 0 -36.5 14t-13.5 36t13.5 36t36.5 14h240q23 0 36.5 -14t13.5 -36t-13.5 -36t-36.5 -14z" />
    <glyph glyph-name="Abreve" unicode="&#x102;" horiz-adv-x="710" 
d="M355 720q38 0 65 -20.5t40 -49.5l230 -540q10 -25 10 -45q0 -29 -20.5 -49.5t-49.5 -20.5q-52 0 -75 60l-45 115h-310l-45 -115q-23 -60 -75 -60q-29 0 -49.5 20.5t-20.5 49.5q0 9 2.5 20t5.5 18l2 7l230 540q13 29 40 49.5t65 20.5zM352 555l-102 -255h210l-102 255h-6z
M356 800q-75 0 -125 41t-50 89q0 22 13.5 36t36.5 14q17 0 26 -6.5t19 -23.5q16 -28 32 -39t48 -11t48 11t32 39q16 30 45 30q23 0 36.5 -14t13.5 -36q0 -48 -50 -89t-125 -41z" />
    <glyph glyph-name="abreve" unicode="&#x103;" horiz-adv-x="570" 
d="M255 105q58 0 91.5 25.5t33.5 64.5v20h-125q-46 0 -68 -15.5t-22 -39.5t22 -39.5t68 -15.5zM235 -15q-91 0 -148 51t-57 124q0 76 55 120.5t170 44.5h125q0 80 -110 80q-27 0 -49.5 -6.5t-31.5 -12.5l-9 -6q-30 -25 -55 -25q-26 0 -43 17t-17 43q0 40 53 75t152 35
q111 0 175.5 -56t64.5 -145v-264q0 -26 -19.5 -45.5t-45.5 -19.5q-28 0 -46.5 14.5t-18.5 30.5h-5q-5 -6 -14 -15t-45.5 -24.5t-80.5 -15.5zM287 600q-75 0 -125 41t-50 89q0 22 14 36t36 14q17 0 26 -6.5t19 -23.5q16 -28 32 -39t48 -11t48 11t32 39q9 16 18 23t27 7
q22 0 36 -14t14 -36q0 -48 -50 -89t-125 -41z" />
    <glyph glyph-name="Aogonek" unicode="&#x104;" horiz-adv-x="710" 
d="M591 -160q10 0 22.5 2.5t22.5 2.5q45 0 45 -45q0 -24 -21 -37t-74 -13q-70 0 -107.5 34.5t-37.5 95.5q0 42 39.5 81t87.5 67q-6 10 -13 27l-45 115h-310l-45 -115q-23 -60 -75 -60q-29 0 -49.5 20.5t-20.5 49.5q0 9 2.5 20t5.5 18l2 7l230 540q13 29 40 49.5t65 20.5
t65 -20.5t40 -49.5l230 -540q10 -25 10 -45q0 -27 -18 -46.5t-44 -22.5q-92 -54 -92 -116q0 -16 12 -28t33 -12zM352 555l-102 -255h210l-102 255h-6z" />
    <glyph glyph-name="aogonek" unicode="&#x105;" horiz-adv-x="570" 
d="M417 -160q10 0 22.5 2.5t22.5 2.5q45 0 45 -45q0 -24 -21 -37t-74 -13q-70 0 -107.5 34.5t-37.5 95.5q0 72 118 142q-5 10 -5 18h-5q-5 -6 -14 -15t-45.5 -24.5t-80.5 -15.5q-91 0 -148 51t-57 124q0 76 55 120.5t170 44.5h125q0 80 -110 80q-27 0 -49.5 -6.5
t-31.5 -12.5l-9 -6q-30 -25 -55 -25q-26 0 -43 17t-17 43q0 40 53 75t152 35q111 0 175.5 -56t64.5 -145v-264q0 -40 -39 -60h1q-4 -2 -11 -6t-24 -16t-30 -25.5t-24 -33t-11 -39.5q0 -16 12 -28t33 -12zM255 105q58 0 91.5 25.5t33.5 64.5v20h-125q-46 0 -68 -15.5
t-22 -39.5t22 -39.5t68 -15.5z" />
    <glyph glyph-name="Cacute" unicode="&#x106;" horiz-adv-x="665" 
d="M370 110q39 0 73.5 14t49.5 26.5t37 34.5q25 25 55 25q26 0 45.5 -19.5t19.5 -45.5q0 -49 -82 -107t-198 -58q-137 0 -226 84t-89 206v160q0 122 89 206t226 84q116 0 190.5 -50.5t74.5 -99.5q0 -26 -19.5 -45.5t-45.5 -19.5q-30 0 -55 25q-20 20 -33 30t-42.5 20
t-69.5 10q-78 0 -126.5 -45.5t-48.5 -114.5v-160q0 -69 48.5 -114.5t126.5 -45.5zM320 835q0 9 2.5 17.5t5.5 13.5l2 4l60 110q22 40 60 40q26 0 43 -17t17 -43q0 -13 -5 -25.5t-10 -18.5l-5 -6l-80 -100q-15 -20 -45 -20q-19 0 -32 13t-13 32z" />
    <glyph glyph-name="cacute" unicode="&#x107;" horiz-adv-x="535" 
d="M290 105q70 0 110 40q30 30 60 30q26 0 43 -17t17 -43q0 -40 -65.5 -85t-164.5 -45q-107 0 -178.5 67.5t-71.5 162.5v80q0 95 71.5 162.5t178.5 67.5q99 0 157 -39.5t58 -80.5q0 -26 -17 -43t-43 -17q-11 0 -25 6.5t-22 12.5l-8 6q-40 35 -100 35q-56 0 -88 -30.5
t-32 -79.5v-80q0 -49 32 -79.5t88 -30.5zM249 645q0 9 2.5 17.5t4.5 13.5l3 4l60 110q22 40 60 40q26 0 43 -17t17 -43q0 -13 -5 -25.5t-10 -18.5l-5 -6l-80 -100q-15 -20 -45 -20q-19 0 -32 13t-13 32z" />
    <glyph glyph-name="Ccircumflex" unicode="&#x108;" horiz-adv-x="665" 
d="M370 110q39 0 73.5 14t49.5 26.5t37 34.5q25 25 55 25q26 0 45.5 -19.5t19.5 -45.5q0 -49 -82 -107t-198 -58q-137 0 -226 84t-89 206v160q0 122 89 206t226 84q116 0 190.5 -50.5t74.5 -99.5q0 -26 -19.5 -45.5t-45.5 -19.5q-30 0 -55 25q-20 20 -33 30t-42.5 20
t-69.5 10q-78 0 -126.5 -45.5t-48.5 -114.5v-160q0 -69 48.5 -114.5t126.5 -45.5zM368 905h-6l-87 -105q-15 -20 -40 -20q-19 0 -32 13t-13 32q0 7 2.5 14.5t5.5 11.5l2 4l90 115q30 40 75 40t75 -40l90 -115q10 -15 10 -30q0 -19 -13 -32t-32 -13q-11 0 -21 5t-14 10l-5 5z
" />
    <glyph glyph-name="ccircumflex" unicode="&#x109;" horiz-adv-x="535" 
d="M290 105q70 0 110 40q30 30 60 30q26 0 43 -17t17 -43q0 -40 -65.5 -85t-164.5 -45q-107 0 -178.5 67.5t-71.5 162.5v80q0 95 71.5 162.5t178.5 67.5q99 0 157 -39.5t58 -80.5q0 -26 -17 -43t-43 -17q-11 0 -25 6.5t-22 12.5l-8 6q-40 35 -100 35q-56 0 -88 -30.5
t-32 -79.5v-80q0 -49 32 -79.5t88 -30.5zM296 715h-6l-87 -105q-15 -20 -40 -20q-19 0 -32 13t-13 32q0 7 2.5 14.5t5.5 11.5l2 4l90 115q30 40 75 40t75 -40l90 -115q10 -15 10 -30q0 -19 -13 -32t-32 -13q-11 0 -21 5t-14 10l-5 5z" />
    <glyph glyph-name="Ccaron" unicode="&#x10c;" horiz-adv-x="665" 
d="M370 110q39 0 73.5 14t49.5 26.5t37 34.5q25 25 55 25q26 0 45.5 -19.5t19.5 -45.5q0 -49 -82 -107t-198 -58q-137 0 -226 84t-89 206v160q0 122 89 206t226 84q116 0 190.5 -50.5t74.5 -99.5q0 -26 -19.5 -45.5t-45.5 -19.5q-30 0 -55 25q-20 20 -33 30t-42.5 20
t-69.5 10q-78 0 -126.5 -45.5t-48.5 -114.5v-160q0 -69 48.5 -114.5t126.5 -45.5zM362 895h6l87 105q15 20 40 20q19 0 32 -13t13 -32q0 -7 -2.5 -14.5t-5.5 -11.5l-2 -4l-90 -115q-30 -40 -75 -40t-75 40l-90 115q-10 15 -10 30q0 19 13 32t32 13q11 0 21 -5t14 -10l5 -5z
" />
    <glyph glyph-name="ccaron" unicode="&#x10d;" horiz-adv-x="535" 
d="M290 105q70 0 110 40q30 30 60 30q26 0 43 -17t17 -43q0 -40 -65.5 -85t-164.5 -45q-107 0 -178.5 67.5t-71.5 162.5v80q0 95 71.5 162.5t178.5 67.5q99 0 157 -39.5t58 -80.5q0 -26 -17 -43t-43 -17q-11 0 -25 6.5t-22 12.5l-8 6q-40 35 -100 35q-56 0 -88 -30.5
t-32 -79.5v-80q0 -49 32 -79.5t88 -30.5zM298 695h6l87 105q15 20 40 20q19 0 32 -13t13 -32q0 -7 -2.5 -14.5t-5.5 -11.5l-2 -4l-90 -115q-30 -40 -75 -40t-75 40l-90 115q-10 15 -10 30q0 19 13 32t32 13q11 0 21 -5t14 -10l5 -5z" />
    <glyph glyph-name="Dcaron" unicode="&#x10e;" horiz-adv-x="720" 
d="M150 700h201q140 0 229.5 -84t89.5 -207v-118q0 -123 -89.5 -207t-229.5 -84h-201q-30 0 -50 20t-20 50v560q0 30 20 50t50 20zM220 130h131q80 0 129.5 45.5t49.5 115.5v118q0 70 -49.5 115.5t-129.5 45.5h-131v-440zM338 885h6l87 105q15 20 40 20q19 0 32 -13t13 -32
q0 -7 -2.5 -14.5t-5.5 -11.5l-2 -4l-90 -115q-30 -40 -75 -40t-75 40l-90 115q-10 15 -10 30q0 19 13 32t32 13q11 0 21 -5t14 -10l5 -5z" />
    <glyph glyph-name="dcaron" unicode="&#x10f;" horiz-adv-x="789" 
d="M540 655v-595q0 -26 -19.5 -45.5t-45.5 -19.5q-29 0 -47 13t-18 32h-5q-5 -6 -14 -15t-45.5 -24.5t-80.5 -15.5q-94 0 -159.5 66.5t-65.5 163.5v80q0 97 65.5 163.5t159.5 66.5q44 0 79 -13.5t48 -27.5l13 -14h5v185q0 26 19.5 45.5t45.5 19.5t45.5 -19.5t19.5 -45.5z
M290 405q-56 0 -88 -30.5t-32 -79.5v-80q0 -49 32 -79.5t88 -30.5t88 30.5t32 79.5v80q0 49 -32 79.5t-88 30.5zM789 620q0 -62 -45.5 -111t-99.5 -49q-25 0 -25 25q0 9 5 15t10 8l5 2q23 8 39 25t16 35q-30 7 -47.5 27.5t-17.5 46.5q0 31 23.5 53.5t56.5 22.5
q35 0 57.5 -26.5t22.5 -73.5z" />
    <glyph glyph-name="Dcroat" unicode="&#x110;" horiz-adv-x="740" 
d="M170 700h201q140 0 229.5 -84t89.5 -207v-118q0 -123 -89.5 -207t-229.5 -84h-201q-30 0 -50 20t-20 50v220h-20q-26 0 -43 17t-17 43t17 43t43 17h20v220q0 30 20 50t50 20zM240 130h131q80 0 129.5 45.5t49.5 115.5v118q0 70 -49.5 115.5t-129.5 45.5h-131v-160h105
q26 0 43 -17t17 -43t-17 -43t-43 -17h-105v-160z" />
    <glyph glyph-name="dcroat" unicode="&#x111;" 
d="M550 510h-10v-450q0 -26 -19.5 -45.5t-45.5 -19.5q-29 0 -47 13t-18 32h-5q-5 -6 -14 -15t-45.5 -24.5t-80.5 -15.5q-94 0 -159.5 66.5t-65.5 163.5t65.5 163.5t159.5 66.5q44 0 79 -13.5t48 -27.5l13 -14h5v120h-120q-26 0 -43 17t-17 43t17 43t43 17h120v25
q0 26 19.5 45.5t45.5 19.5t45.5 -19.5t19.5 -45.5v-25h10q26 0 43 -17t17 -43t-17 -43t-43 -17zM290 325q-56 0 -88 -30.5t-32 -79.5t32 -79.5t88 -30.5t88 30.5t32 79.5t-32 79.5t-88 30.5z" />
    <glyph glyph-name="Emacron" unicode="&#x112;" horiz-adv-x="660" 
d="M575 570h-355v-160h265q26 0 43 -17t17 -43t-17 -43t-43 -17h-265v-160h365q26 0 45.5 -19.5t19.5 -45.5t-19.5 -45.5t-45.5 -19.5h-435q-30 0 -50 20t-20 50v560q0 30 20 50t50 20h425q26 0 45.5 -19.5t19.5 -45.5t-19.5 -45.5t-45.5 -19.5zM490 820h-240q-22 0 -36 14
t-14 36t14 36t36 14h240q22 0 36 -14t14 -36t-14 -36t-36 -14z" />
    <glyph glyph-name="emacron" unicode="&#x113;" horiz-adv-x="565" 
d="M465 200h-295q0 -39 33 -67t87 -28q75 0 110 35q25 25 55 25q26 0 43 -17t17 -43q0 -40 -61.5 -80t-163.5 -40q-107 0 -178.5 67.5t-71.5 162.5v80q0 99 69.5 164.5t180.5 65.5q104 0 172 -66t68 -164v-30q0 -27 -18 -46t-47 -19zM170 310h230q0 39 -31.5 67t-79.5 28
q-54 0 -86.5 -28t-32.5 -67zM413 630h-240q-23 0 -36.5 14t-13.5 36t13.5 36t36.5 14h240q23 0 36.5 -14t13.5 -36t-13.5 -36t-36.5 -14z" />
    <glyph glyph-name="Edotaccent" unicode="&#x116;" horiz-adv-x="660" 
d="M575 570h-355v-160h265q26 0 43 -17t17 -43t-17 -43t-43 -17h-265v-160h365q26 0 45.5 -19.5t19.5 -45.5t-19.5 -45.5t-45.5 -19.5h-435q-30 0 -50 20t-20 50v560q0 30 20 50t50 20h425q26 0 45.5 -19.5t19.5 -45.5t-19.5 -45.5t-45.5 -19.5zM300 875q0 27 20 46t50 19
t50 -19t20 -46t-20 -46t-50 -19t-50 19t-20 46z" />
    <glyph glyph-name="edotaccent" unicode="&#x117;" horiz-adv-x="565" 
d="M465 200h-295q0 -39 33 -67t87 -28q75 0 110 35q25 25 55 25q26 0 43 -17t17 -43q0 -40 -61.5 -80t-163.5 -40q-107 0 -178.5 67.5t-71.5 162.5v80q0 99 69.5 164.5t180.5 65.5q104 0 172 -66t68 -164v-30q0 -27 -18 -46t-47 -19zM170 310h230q0 39 -31.5 67t-79.5 28
q-54 0 -86.5 -28t-32.5 -67zM213 685q0 27 20 46t50 19t50 -19t20 -46t-20 -46t-50 -19t-50 19t-20 46z" />
    <glyph glyph-name="Eogonek" unicode="&#x118;" horiz-adv-x="660" 
d="M535 -160q10 0 22.5 2.5t22.5 2.5q45 0 45 -45q0 -24 -21 -37t-74 -13q-70 0 -107.5 34.5t-37.5 95.5q0 24 10.5 45.5t25 34.5t29 22.5t24.5 13.5l11 4h-335q-30 0 -50 20t-20 50v560q0 30 20 50t50 20h425q26 0 45.5 -19.5t19.5 -45.5t-19.5 -45.5t-45.5 -19.5h-355
v-160h265q26 0 43 -17t17 -43t-17 -43t-43 -17h-265v-160h365q26 0 45.5 -19.5t19.5 -45.5q0 -25 -18 -44t-42 -21q-4 -2 -11 -6t-24 -16t-30 -25.5t-24 -33t-11 -39.5q0 -16 12 -28t33 -12z" />
    <glyph glyph-name="eogonek" unicode="&#x119;" horiz-adv-x="565" 
d="M340 -160q10 0 22.5 2.5t22.5 2.5q45 0 45 -45q0 -24 -21 -37t-74 -13q-70 0 -107.5 34.5t-37.5 95.5q0 66 70 107q-96 10 -158 75t-62 153v80q0 99 69.5 164.5t180.5 65.5q104 0 172 -66t68 -164v-30q0 -27 -18 -46t-47 -19h-295q0 -39 33 -67t87 -28q75 0 110 35
q25 25 55 25q26 0 43 -17t17 -43q0 -28 -32.5 -59t-90.5 -47q-10 -5 -21.5 -13t-31 -24t-32 -38t-12.5 -44q0 -16 12 -28t33 -12zM170 310h230q0 39 -31.5 67t-79.5 28q-54 0 -86.5 -28t-32.5 -67z" />
    <glyph glyph-name="Ecaron" unicode="&#x11a;" horiz-adv-x="660" 
d="M575 570h-355v-160h265q26 0 43 -17t17 -43t-17 -43t-43 -17h-265v-160h365q26 0 45.5 -19.5t19.5 -45.5t-19.5 -45.5t-45.5 -19.5h-435q-30 0 -50 20t-20 50v560q0 30 20 50t50 20h425q26 0 45.5 -19.5t19.5 -45.5t-19.5 -45.5t-45.5 -19.5zM357 885h6l87 105
q15 20 40 20q19 0 32 -13t13 -32q0 -7 -2.5 -14.5t-4.5 -11.5l-3 -4l-90 -115q-30 -40 -75 -40t-75 40l-90 115q-10 15 -10 30q0 19 13 32t32 13q11 0 21 -5t15 -10l4 -5z" />
    <glyph glyph-name="ecaron" unicode="&#x11b;" horiz-adv-x="565" 
d="M465 200h-295q0 -39 33 -67t87 -28q75 0 110 35q25 25 55 25q26 0 43 -17t17 -43q0 -40 -61.5 -80t-163.5 -40q-107 0 -178.5 67.5t-71.5 162.5v80q0 99 69.5 164.5t180.5 65.5q104 0 172 -66t68 -164v-30q0 -27 -18 -46t-47 -19zM170 310h230q0 39 -31.5 67t-79.5 28
q-54 0 -86.5 -28t-32.5 -67zM290 695h6l87 105q15 20 40 20q19 0 32 -13t13 -32q0 -7 -2.5 -14.5t-5.5 -11.5l-2 -4l-90 -115q-30 -40 -75 -40t-75 40l-90 115q-10 15 -10 30q0 19 13 32t32 13q11 0 21 -5t14 -10l5 -5z" />
    <glyph glyph-name="Gbreve" unicode="&#x11e;" horiz-adv-x="705" 
d="M370 -20q-137 0 -226 84t-89 206v160q0 122 89 206t226 84q116 0 190.5 -50.5t74.5 -99.5q0 -26 -19.5 -45.5t-45.5 -19.5q-30 0 -55 25q-20 20 -33 30t-42.5 20t-69.5 10q-78 0 -126.5 -45.5t-48.5 -114.5v-160q0 -69 48.5 -114.5t126.5 -45.5q38 0 73 14t51 28l16 13
v105h-100q-26 0 -45.5 19.5t-19.5 45.5t19.5 45.5t45.5 19.5h170q33 0 51.5 -19.5t18.5 -50.5v-200q0 -22 -33 -56t-101 -64t-146 -30zM356 790q-75 0 -125 41t-50 89q0 22 13.5 36t36.5 14q17 0 26 -6.5t19 -23.5q16 -28 32 -39t48 -11t48 11t32 39q16 30 45 30
q23 0 36.5 -14t13.5 -36q0 -48 -50 -89t-125 -41z" />
    <glyph glyph-name="gbreve" unicode="&#x11f;" horiz-adv-x="605" 
d="M290 130q56 0 88 30.5t32 79.5v55q0 49 -32 79.5t-88 30.5t-88 -30.5t-32 -79.5v-55q0 -49 32 -79.5t88 -30.5zM410 65h-5q-5 -6 -14 -15t-45.5 -24.5t-80.5 -15.5q-94 0 -159.5 66.5t-65.5 163.5v55q0 97 65.5 163.5t159.5 66.5q44 0 79 -13.5t48 -27.5l13 -14h5
q0 16 18.5 30.5t46.5 14.5q26 0 45.5 -19.5t19.5 -45.5v-440q0 -95 -71.5 -162.5t-178.5 -67.5q-99 0 -164.5 45t-65.5 85q0 26 17 43t43 17q30 0 60 -30q40 -40 110 -40q56 0 88 30.5t32 79.5v55zM302 610q-75 0 -125 41t-50 89q0 22 13.5 36t36.5 14q17 0 26 -6.5
t19 -23.5q16 -28 32 -39t48 -11t48 11t32 39q16 30 45 30q23 0 36.5 -14t13.5 -36q0 -48 -50 -89t-125 -41z" />
    <glyph glyph-name="Gcommaaccent" unicode="&#x122;" horiz-adv-x="705" 
d="M370 -20q-137 0 -226 84t-89 206v160q0 122 89 206t226 84q116 0 190.5 -50.5t74.5 -99.5q0 -26 -19.5 -45.5t-45.5 -19.5q-30 0 -55 25q-20 20 -33 30t-42.5 20t-69.5 10q-78 0 -126.5 -45.5t-48.5 -114.5v-160q0 -69 48.5 -114.5t126.5 -45.5q38 0 73 14t51 28l16 13
v105h-100q-26 0 -45.5 19.5t-19.5 45.5t19.5 45.5t45.5 19.5h170q33 0 51.5 -19.5t18.5 -50.5v-200q0 -22 -33 -56t-101 -64t-146 -30zM450 -170q0 -52 -40 -98.5t-85 -46.5q-25 0 -25 25q0 7 4.5 12.5t9.5 7.5l4 2q21 6 34 20.5t13 32.5q-26 7 -40.5 24.5t-14.5 40.5
q0 27 20 46t50 19q31 0 50.5 -22.5t19.5 -62.5z" />
    <glyph glyph-name="gcommaaccent" unicode="&#x123;" horiz-adv-x="605" 
d="M290 130q56 0 88 30.5t32 79.5v55q0 49 -32 79.5t-88 30.5t-88 -30.5t-32 -79.5v-55q0 -49 32 -79.5t88 -30.5zM410 65h-5q-5 -6 -14 -15t-45.5 -24.5t-80.5 -15.5q-94 0 -159.5 66.5t-65.5 163.5v55q0 97 65.5 163.5t159.5 66.5q44 0 79 -13.5t48 -27.5l13 -14h5
q0 16 18.5 30.5t46.5 14.5q26 0 45.5 -19.5t19.5 -45.5v-440q0 -95 -71.5 -162.5t-178.5 -67.5q-99 0 -164.5 45t-65.5 85q0 26 17 43t43 17q30 0 60 -30q40 -40 110 -40q56 0 88 30.5t32 79.5v55zM217 695q0 52 40 98.5t85 46.5q25 0 25 -25q0 -7 -4.5 -12.5t-8.5 -7.5
l-5 -2q-21 -6 -34 -20.5t-13 -32.5q26 -7 40.5 -24.5t14.5 -40.5q0 -27 -20 -46t-50 -19q-31 0 -50.5 22.5t-19.5 62.5z" />
    <glyph glyph-name="Imacron" unicode="&#x12a;" horiz-adv-x="320" 
d="M228 635v-570q0 -31 -18.5 -50.5t-51.5 -19.5t-51.5 19.5t-18.5 50.5v570q0 30 20 50t50 20t50 -20t20 -50zM280 820h-240q-22 0 -36 14t-14 36t14 36t36 14h240q22 0 36 -14t14 -36t-14 -36t-36 -14z" />
    <glyph glyph-name="imacron" unicode="&#x12b;" horiz-adv-x="280" 
d="M202 450v-390q0 -26 -19.5 -45.5t-45.5 -19.5t-45.5 19.5t-19.5 45.5v390q0 26 19.5 45.5t45.5 19.5t45.5 -19.5t19.5 -45.5zM260 640h-240q-22 0 -36 14t-14 36t14 36t36 14h240q22 0 36 -14t14 -36t-14 -36t-36 -14z" />
    <glyph glyph-name="Iogonek" unicode="&#x12e;" horiz-adv-x="310" 
d="M135 -160q10 0 22.5 2.5t22.5 2.5q45 0 45 -45q0 -24 -21 -37t-74 -13q-70 0 -107.5 34.5t-37.5 95.5q0 71 116 143q-11 16 -11 42v570q0 30 20 50t50 20t50 -20t20 -50v-570q0 -50 -41 -65h1q-4 -2 -11 -6t-24 -16t-30 -25.5t-24 -33t-11 -39.5q0 -16 12 -28t33 -12z
" />
    <glyph glyph-name="iogonek" unicode="&#x12f;" horiz-adv-x="280" 
d="M95 -160q10 0 22.5 2.5t22.5 2.5q45 0 45 -45q0 -24 -21 -37t-74 -13q-70 0 -107.5 34.5t-37.5 95.5q0 86 132 163q-2 10 -2 17v390q0 26 19.5 45.5t45.5 19.5t45.5 -19.5t19.5 -45.5v-390q0 -26 -19 -45t-45 -20q-18 -10 -35 -22.5t-36.5 -39t-19.5 -53.5q0 -16 12 -28
t33 -12zM65 650q0 30 21 50t54 20t54 -20t21 -50t-21 -50t-54 -20t-54 20t-21 50z" />
    <glyph glyph-name="Idotaccent" unicode="&#x130;" horiz-adv-x="309" 
d="M229 635v-570q0 -31 -18.5 -50.5t-51.5 -19.5t-51.5 19.5t-18.5 50.5v570q0 30 20 50t50 20t50 -20t20 -50zM80 865q0 27 20 46t50 19t50 -19t20 -46t-20 -46t-50 -19t-50 19t-20 46z" />
    <glyph glyph-name="dotlessi" unicode="&#x131;" horiz-adv-x="260" 
d="M195 450v-390q0 -26 -19.5 -45.5t-45.5 -19.5t-45.5 19.5t-19.5 45.5v390q0 26 19.5 45.5t45.5 19.5t45.5 -19.5t19.5 -45.5z" />
    <glyph glyph-name="Kcommaaccent" unicode="&#x136;" horiz-adv-x="690" 
d="M630 585l-195 -180l235 -295q20 -25 20 -50q0 -27 -18 -46t-47 -19q-16 0 -29.5 6.5t-19.5 12.5l-6 6l-235 295l-115 -105v-145q0 -31 -18.5 -50.5t-51.5 -19.5t-51.5 19.5t-18.5 50.5v570q0 30 20 50t50 20t50 -20t20 -50v-250l315 295q25 25 55 25q26 0 45.5 -19.5
t19.5 -45.5q0 -13 -6.5 -27t-12.5 -21zM440 -140q0 -52 -40 -98.5t-85 -46.5q-25 0 -25 25q0 7 4.5 12.5t9.5 7.5l4 2q21 6 34 20.5t13 32.5q-26 7 -40.5 24.5t-14.5 40.5q0 27 20 46t50 19q31 0 50.5 -22.5t19.5 -62.5z" />
    <glyph glyph-name="kcommaaccent" unicode="&#x137;" horiz-adv-x="550" 
d="M505 405l-135 -115l145 -180q25 -30 25 -55q0 -26 -17 -43t-43 -17q-13 0 -25.5 6.5t-18.5 12.5l-6 6l-150 190l-80 -70v-80q0 -26 -19.5 -45.5t-45.5 -19.5t-45.5 19.5t-19.5 45.5v595q0 26 19.5 45.5t45.5 19.5t45.5 -19.5t19.5 -45.5v-355l215 190q25 25 55 25
q25 0 42.5 -18.5t17.5 -41.5q0 -13 -6 -25.5t-12 -18.5zM380 -160q0 -52 -40 -98.5t-85 -46.5q-25 0 -25 25q0 7 4.5 12.5t9.5 7.5l4 2q21 6 34 20.5t13 32.5q-26 7 -40.5 24.5t-14.5 40.5q0 27 20 46t50 19q31 0 50.5 -22.5t19.5 -62.5z" />
    <glyph glyph-name="Lacute" unicode="&#x139;" horiz-adv-x="615" 
d="M220 130h330q26 0 45.5 -19.5t19.5 -45.5t-19.5 -45.5t-45.5 -19.5h-400q-30 0 -50 20t-20 50v565q0 30 20 50t50 20t50 -20t20 -50v-505zM110 825q0 9 2.5 17.5t5.5 13.5l2 4l60 110q22 40 60 40q26 0 43 -17t17 -43q0 -13 -5 -25.5t-10 -18.5l-5 -6l-80 -100
q-15 -20 -45 -20q-19 0 -32 13t-13 32z" />
    <glyph glyph-name="lacute" unicode="&#x13a;" horiz-adv-x="285" 
d="M200 655v-595q0 -26 -19.5 -45.5t-45.5 -19.5t-45.5 19.5t-19.5 45.5v595q0 26 19.5 45.5t45.5 19.5t45.5 -19.5t19.5 -45.5zM90 833q0 9 2.5 17.5t5.5 13.5l2 4l60 110q22 40 60 40q26 0 43 -17t17 -43q0 -13 -5 -25.5t-10 -18.5l-5 -6l-80 -100q-15 -20 -45 -20
q-19 0 -32 13t-13 32z" />
    <glyph glyph-name="Lcommaaccent" unicode="&#x13b;" horiz-adv-x="615" 
d="M220 130h330q26 0 45.5 -19.5t19.5 -45.5t-19.5 -45.5t-45.5 -19.5h-400q-30 0 -50 20t-20 50v565q0 30 20 50t50 20t50 -20t20 -50v-505zM425 -160q0 -52 -40 -98.5t-85 -46.5q-25 0 -25 25q0 7 4.5 12.5t8.5 7.5l5 2q21 6 34 20.5t13 32.5q-26 7 -40.5 24.5t-14.5 40.5
q0 27 20 46t50 19q31 0 50.5 -22.5t19.5 -62.5z" />
    <glyph glyph-name="lcommaaccent" unicode="&#x13c;" horiz-adv-x="270" 
d="M199 655v-595q0 -26 -19.5 -45.5t-45.5 -19.5t-45.5 19.5t-19.5 45.5v595q0 26 19.5 45.5t45.5 19.5t45.5 -19.5t19.5 -45.5zM200 -160q0 -52 -40 -98.5t-85 -46.5q-25 0 -25 25q0 7 4.5 12.5t9.5 7.5l4 2q21 6 34 20.5t13 32.5q-26 7 -40.5 24.5t-14.5 40.5q0 27 20 46
t50 19q31 0 50.5 -22.5t19.5 -62.5z" />
    <glyph glyph-name="Lcaron" unicode="&#x13d;" horiz-adv-x="615" 
d="M220 130h330q26 0 45.5 -19.5t19.5 -45.5t-19.5 -45.5t-45.5 -19.5h-400q-30 0 -50 20t-20 50v565q0 30 20 50t50 20t50 -20t20 -50v-505zM459 606q0 -62 -45.5 -111t-99.5 -49q-25 0 -25 25q0 9 5 15t10 8l5 2q23 8 39 25t16 35q-30 7 -47.5 27.5t-17.5 46.5
q0 31 23.5 53.5t56.5 22.5q35 0 57.5 -26.5t22.5 -73.5z" />
    <glyph glyph-name="lcaron" unicode="&#x13e;" horiz-adv-x="450" 
d="M200 655v-595q0 -26 -19.5 -45.5t-45.5 -19.5t-45.5 19.5t-19.5 45.5v595q0 26 19.5 45.5t45.5 19.5t45.5 -19.5t19.5 -45.5zM450 620q0 -62 -45.5 -111t-99.5 -49q-25 0 -25 25q0 9 5 15t10 8l5 2q23 8 39 25t16 35q-30 7 -47.5 27.5t-17.5 46.5q0 31 23.5 53.5
t56.5 22.5q35 0 57.5 -26.5t22.5 -73.5z" />
    <glyph glyph-name="Lslash" unicode="&#x141;" horiz-adv-x="640" 
d="M245 130h330q26 0 45.5 -19.5t19.5 -45.5t-19.5 -45.5t-45.5 -19.5h-400q-30 0 -50 20t-20 50v189l-5 -3q-29 -16 -45 -16q-21 0 -38 16t-17 39q0 38 40 60l65 37v243q0 30 20 50t50 20t50 -20t20 -50v-164l85 48q29 16 45 16q21 0 38 -16t17 -39q0 -38 -40 -60l-145 -82
v-208z" />
    <glyph glyph-name="lslash" unicode="&#x142;" horiz-adv-x="386" 
d="M350 400l-100 -55v-285q0 -26 -19.5 -45.5t-45.5 -19.5t-45.5 19.5t-19.5 45.5v210l-25 -15q-25 -15 -45 -15q-19 0 -32 13t-13 32q0 37 30 55l85 50v265q0 26 19.5 45.5t45.5 19.5t45.5 -19.5t19.5 -45.5v-190l40 20q25 15 45 15q19 0 32.5 -13t13.5 -32q0 -37 -31 -55z
" />
    <glyph glyph-name="Nacute" unicode="&#x143;" horiz-adv-x="770" 
d="M545 250h5v385q0 31 18.5 50.5t51.5 19.5t51.5 -19.5t18.5 -50.5v-570q0 -30 -20 -50t-50 -20q-44 0 -70 35l-325 420h-5v-385q0 -31 -18.5 -50.5t-51.5 -19.5t-51.5 19.5t-18.5 50.5v570q0 30 20 50t50 20q44 0 70 -35zM340 825q0 9 2.5 17.5t5.5 13.5l2 4l60 110
q22 40 60 40q26 0 43 -17t17 -43q0 -13 -5 -25.5t-10 -18.5l-5 -6l-80 -100q-15 -20 -45 -20q-19 0 -32 13t-13 32z" />
    <glyph glyph-name="nacute" unicode="&#x144;" horiz-adv-x="615" 
d="M195 470h5q5 6 14 15t44 24.5t77 15.5q91 0 155.5 -66.5t64.5 -163.5v-235q0 -27 -18 -46t-47 -19t-47 19t-18 46v235q0 49 -31.5 79.5t-83.5 30.5q-49 0 -82 -31t-33 -79v-235q0 -26 -19.5 -45.5t-45.5 -19.5t-45.5 19.5t-19.5 45.5v390q0 26 19.5 45.5t45.5 19.5
q28 0 46.5 -14.5t18.5 -30.5zM257 645q0 9 2.5 17.5t4.5 13.5l3 4l60 110q22 40 60 40q26 0 43 -17t17 -43q0 -13 -5 -25.5t-10 -18.5l-5 -6l-80 -100q-15 -20 -45 -20q-19 0 -32 13t-13 32z" />
    <glyph glyph-name="Ncommaaccent" unicode="&#x145;" horiz-adv-x="770" 
d="M545 250h5v385q0 31 18.5 50.5t51.5 19.5t51.5 -19.5t18.5 -50.5v-570q0 -30 -20 -50t-50 -20q-44 0 -70 35l-325 420h-5v-385q0 -31 -18.5 -50.5t-51.5 -19.5t-51.5 19.5t-18.5 50.5v570q0 30 20 50t50 20q44 0 70 -35zM460 -150q0 -52 -40 -98.5t-85 -46.5
q-25 0 -25 25q0 7 4.5 12.5t9.5 7.5l4 2q21 6 34 20.5t13 32.5q-26 7 -40.5 24.5t-14.5 40.5q0 27 20 46t50 19q31 0 50.5 -22.5t19.5 -62.5z" />
    <glyph glyph-name="ncommaaccent" unicode="&#x146;" horiz-adv-x="615" 
d="M195 470h5q5 6 14 15t44 24.5t77 15.5q91 0 155.5 -66.5t64.5 -163.5v-235q0 -27 -18 -46t-47 -19t-47 19t-18 46v235q0 49 -31.5 79.5t-83.5 30.5q-49 0 -82 -31t-33 -79v-235q0 -26 -19.5 -45.5t-45.5 -19.5t-45.5 19.5t-19.5 45.5v390q0 26 19.5 45.5t45.5 19.5
q28 0 46.5 -14.5t18.5 -30.5zM387 -140q0 -52 -40 -98.5t-85 -46.5q-25 0 -25 25q0 7 4.5 12.5t8.5 7.5l5 2q21 6 34 20.5t13 32.5q-26 7 -40.5 24.5t-14.5 40.5q0 27 20 46t50 19q31 0 50.5 -22.5t19.5 -62.5z" />
    <glyph glyph-name="Ncaron" unicode="&#x147;" horiz-adv-x="770" 
d="M545 250h5v385q0 31 18.5 50.5t51.5 19.5t51.5 -19.5t18.5 -50.5v-570q0 -30 -20 -50t-50 -20q-44 0 -70 35l-325 420h-5v-385q0 -31 -18.5 -50.5t-51.5 -19.5t-51.5 19.5t-18.5 50.5v570q0 30 20 50t50 20q44 0 70 -35zM382 875h6l87 105q15 20 40 20q19 0 32 -13
t13 -32q0 -7 -2.5 -14.5t-5.5 -11.5l-2 -4l-90 -115q-30 -40 -75 -40t-75 40l-90 115q-10 15 -10 30q0 19 13 32t32 13q11 0 21 -5t14 -10l5 -5z" />
    <glyph glyph-name="ncaron" unicode="&#x148;" horiz-adv-x="615" 
d="M195 470h5q5 6 14 15t44 24.5t77 15.5q91 0 155.5 -66.5t64.5 -163.5v-235q0 -27 -18 -46t-47 -19t-47 19t-18 46v235q0 49 -31.5 79.5t-83.5 30.5q-49 0 -82 -31t-33 -79v-235q0 -26 -19.5 -45.5t-45.5 -19.5t-45.5 19.5t-19.5 45.5v390q0 26 19.5 45.5t45.5 19.5
q28 0 46.5 -14.5t18.5 -30.5zM309 705h6l87 105q15 20 40 20q19 0 32 -13t13 -32q0 -7 -2.5 -14.5t-4.5 -11.5l-3 -4l-90 -115q-30 -40 -75 -40t-75 40l-90 115q-10 15 -10 30q0 19 13 32t32 13q11 0 21 -5t15 -10l4 -5z" />
    <glyph glyph-name="Omacron" unicode="&#x14c;" horiz-adv-x="740" 
d="M685 430v-160q0 -122 -89 -206t-226 -84t-226 84t-89 206v160q0 122 89 206t226 84t226 -84t89 -206zM370 110q78 0 126.5 45.5t48.5 114.5v160q0 69 -48.5 114.5t-126.5 45.5t-126.5 -45.5t-48.5 -114.5v-160q0 -69 48.5 -114.5t126.5 -45.5zM489 820h-240
q-23 0 -36.5 14t-13.5 36t13.5 36t36.5 14h240q23 0 36.5 -14t13.5 -36t-13.5 -36t-36.5 -14z" />
    <glyph glyph-name="omacron" unicode="&#x14d;" horiz-adv-x="580" 
d="M290 -15q-111 0 -180.5 65.5t-69.5 164.5v80q0 99 69.5 164.5t180.5 65.5t180.5 -65.5t69.5 -164.5v-80q0 -99 -69.5 -164.5t-180.5 -65.5zM290 405q-56 0 -88 -30.5t-32 -79.5v-80q0 -49 32 -79.5t88 -30.5t88 30.5t32 79.5v80q0 49 -32 79.5t-88 30.5zM410 620h-240
q-22 0 -36 14t-14 36t14 36t36 14h240q22 0 36 -14t14 -36t-14 -36t-36 -14z" />
    <glyph glyph-name="Ohungarumlaut" unicode="&#x150;" horiz-adv-x="740" 
d="M685 430v-160q0 -122 -89 -206t-226 -84t-226 84t-89 206v160q0 122 89 206t226 84t226 -84t89 -206zM370 110q78 0 126.5 45.5t48.5 114.5v160q0 69 -48.5 114.5t-126.5 45.5t-126.5 -45.5t-48.5 -114.5v-160q0 -69 48.5 -114.5t126.5 -45.5zM227 835q0 9 2.5 17.5
t4.5 13.5l3 4l60 110q22 40 60 40q26 0 43 -17t17 -43q0 -13 -5 -25.5t-10 -18.5l-5 -6l-80 -100q-15 -20 -45 -20q-19 0 -32 13t-13 32zM417 835q0 9 2.5 17.5t4.5 13.5l3 4l60 110q22 40 60 40q26 0 43 -17t17 -43q0 -13 -5 -25.5t-10 -18.5l-5 -6l-80 -100
q-15 -20 -45 -20q-19 0 -32 13t-13 32z" />
    <glyph glyph-name="ohungarumlaut" unicode="&#x151;" horiz-adv-x="580" 
d="M290 -15q-111 0 -180.5 65.5t-69.5 164.5v80q0 99 69.5 164.5t180.5 65.5t180.5 -65.5t69.5 -164.5v-80q0 -99 -69.5 -164.5t-180.5 -65.5zM290 405q-56 0 -88 -30.5t-32 -79.5v-80q0 -49 32 -79.5t88 -30.5t88 30.5t32 79.5v80q0 49 -32 79.5t-88 30.5zM152 645
q0 9 2.5 17.5t5.5 13.5l2 4l60 110q22 40 60 40q26 0 43 -17t17 -43q0 -13 -5 -25.5t-10 -18.5l-5 -6l-80 -100q-15 -20 -45 -20q-19 0 -32 13t-13 32zM342 645q0 9 2.5 17.5t5.5 13.5l2 4l60 110q22 40 60 40q26 0 43 -17t17 -43q0 -13 -5 -25.5t-10 -18.5l-5 -6l-80 -100
q-15 -20 -45 -20q-19 0 -32 13t-13 32z" />
    <glyph glyph-name="OE" unicode="&#x152;" horiz-adv-x="995" 
d="M910 570h-305v-160h215q26 0 43 -17t17 -43t-17 -43t-43 -17h-215v-160h315q26 0 45.5 -19.5t19.5 -45.5t-19.5 -45.5t-45.5 -19.5h-550q-137 0 -226 84t-89 206v120q0 122 89 206t226 84h540q26 0 45.5 -19.5t19.5 -45.5t-19.5 -45.5t-45.5 -19.5zM195 290
q0 -69 48.5 -114.5t126.5 -45.5h95v440h-95q-78 0 -126.5 -45.5t-48.5 -114.5v-120z" />
    <glyph glyph-name="oe" unicode="&#x153;" horiz-adv-x="940" 
d="M480 60h-5q-2 -3 -6.5 -8t-21 -18t-36 -23t-52.5 -18t-69 -8q-111 0 -180.5 65.5t-69.5 164.5v80q0 99 69.5 164.5t180.5 65.5q35 0 67 -7.5t52.5 -19t36 -22.5t22.5 -18l7 -8h5q2 3 6.5 8t21 18t36 23t52.5 18t69 8q104 0 172 -66t68 -164v-30q0 -27 -18 -46t-47 -19
h-295q0 -39 33 -67t87 -28q75 0 110 35q25 25 55 25q26 0 43 -17t17 -43q0 -40 -61.5 -80t-163.5 -40q-35 0 -67 7.5t-52.5 18.5t-36 22.5t-22.5 18.5zM290 405q-56 0 -88 -30.5t-32 -79.5v-80q0 -49 32 -79.5t88 -30.5t88 30.5t32 79.5v80q0 49 -32 79.5t-88 30.5zM545 310
h230q0 39 -31.5 67t-79.5 28q-54 0 -86.5 -28t-32.5 -67z" />
    <glyph glyph-name="Racute" unicode="&#x154;" horiz-adv-x="710" 
d="M150 700h255q114 0 184.5 -64t70.5 -156q0 -41 -13.5 -75.5t-32.5 -54.5t-38 -34.5t-32 -19.5l-14 -6v-5l140 -175q20 -25 20 -50q0 -27 -18 -46t-47 -19q-16 0 -29.5 6.5t-19.5 12.5l-6 6l-191 240h-159v-195q0 -30 -20 -50t-50 -20t-50 20t-20 50v565q0 30 20 50t50 20
zM515 480q0 42 -29 66t-81 24h-185v-180h185q51 0 80.5 25.5t29.5 64.5zM294 835q0 9 2.5 17.5t5.5 13.5l2 4l60 110q22 40 60 40q26 0 43 -17t17 -43q0 -13 -5 -25.5t-10 -18.5l-5 -6l-80 -100q-15 -20 -45 -20q-19 0 -32 13t-13 32z" />
    <glyph glyph-name="racute" unicode="&#x155;" horiz-adv-x="455" 
d="M195 295v-235q0 -26 -19.5 -45.5t-45.5 -19.5t-45.5 19.5t-19.5 45.5v390q0 26 19.5 45.5t45.5 19.5q28 0 46.5 -14.5t18.5 -30.5h5q5 6 14 15t44 24.5t77 15.5q57 0 88.5 -23.5t31.5 -56.5q0 -26 -17 -43t-43 -17q-13 0 -35 10t-50 10q-49 0 -82 -31t-33 -79zM210 655
q0 9 2.5 17.5t5.5 13.5l2 4l60 110q22 40 60 40q26 0 43 -17t17 -43q0 -13 -5 -25.5t-10 -18.5l-5 -6l-80 -100q-15 -20 -45 -20q-19 0 -32 13t-13 32z" />
    <glyph glyph-name="Rcommaaccent" unicode="&#x156;" horiz-adv-x="710" 
d="M150 700h255q114 0 184.5 -64t70.5 -156q0 -41 -13.5 -75.5t-32.5 -54.5t-38 -34.5t-32 -19.5l-14 -6v-5l140 -175q20 -25 20 -50q0 -27 -18 -46t-47 -19q-16 0 -29.5 6.5t-19.5 12.5l-6 6l-191 240h-159v-195q0 -30 -20 -50t-50 -20t-50 20t-20 50v565q0 30 20 50t50 20
zM515 480q0 42 -29 66t-81 24h-185v-180h185q51 0 80.5 25.5t29.5 64.5zM449 -150q0 -52 -40 -98.5t-85 -46.5q-25 0 -25 25q0 7 4.5 12.5t8.5 7.5l5 2q21 6 34 20.5t13 32.5q-26 7 -40.5 24.5t-14.5 40.5q0 27 20 46t50 19q31 0 50.5 -22.5t19.5 -62.5z" />
    <glyph glyph-name="rcommaaccent" unicode="&#x157;" horiz-adv-x="469" 
d="M209 295v-235q0 -26 -19.5 -45.5t-45.5 -19.5t-45.5 19.5t-19.5 45.5v390q0 26 19.5 45.5t45.5 19.5q28 0 46.5 -14.5t18.5 -30.5h5q5 6 14 15t44 24.5t77 15.5q57 0 88.5 -23.5t31.5 -56.5q0 -26 -17 -43t-43 -17q-13 0 -35.5 10t-49.5 10q-49 0 -82 -31t-33 -79z
M215 -150q0 -52 -40 -98.5t-85 -46.5q-25 0 -25 25q0 7 4.5 12.5t8.5 7.5l5 2q21 6 34 20.5t13 32.5q-26 7 -40.5 24.5t-14.5 40.5q0 27 20 46t50 19q31 0 50.5 -22.5t19.5 -62.5z" />
    <glyph glyph-name="Rcaron" unicode="&#x158;" horiz-adv-x="710" 
d="M150 700h255q114 0 184.5 -64t70.5 -156q0 -41 -13.5 -75.5t-32.5 -54.5t-38 -34.5t-32 -19.5l-14 -6v-5l140 -175q20 -25 20 -50q0 -27 -18 -46t-47 -19q-16 0 -29.5 6.5t-19.5 12.5l-6 6l-191 240h-159v-195q0 -30 -20 -50t-50 -20t-50 20t-20 50v565q0 30 20 50t50 20
zM515 480q0 42 -29 66t-81 24h-185v-180h185q51 0 80.5 25.5t29.5 64.5zM361 885h6l87 105q15 20 40 20q19 0 32 -13t13 -32q0 -7 -2.5 -14.5t-4.5 -11.5l-3 -4l-90 -115q-30 -40 -75 -40t-75 40l-90 115q-10 15 -10 30q0 19 13 32t32 13q11 0 21 -5t15 -10l4 -5z" />
    <glyph glyph-name="rcaron" unicode="&#x159;" horiz-adv-x="455" 
d="M195 295v-235q0 -26 -19.5 -45.5t-45.5 -19.5t-45.5 19.5t-19.5 45.5v390q0 26 19.5 45.5t45.5 19.5q28 0 46.5 -14.5t18.5 -30.5h5q5 6 14 15t44 24.5t77 15.5q57 0 88.5 -23.5t31.5 -56.5q0 -26 -17 -43t-43 -17q-13 0 -35 10t-50 10q-49 0 -82 -31t-33 -79zM259 705h6
l87 105q15 20 40 20q19 0 32 -13t13 -32q0 -7 -2.5 -14.5t-4.5 -11.5l-3 -4l-90 -115q-30 -40 -75 -40t-75 40l-90 115q-10 15 -10 30q0 19 13 32t32 13q11 0 21 -5t15 -10l4 -5z" />
    <glyph glyph-name="Sacute" unicode="&#x15a;" horiz-adv-x="645" 
d="M310 110q160 0 160 95q0 24 -23 41t-60 27.5t-82 21t-90 26.5t-82 38t-60 60.5t-23 90.5q0 87 75.5 148.5t204.5 61.5q116 0 190.5 -50.5t74.5 -99.5q0 -26 -19.5 -45.5t-45.5 -19.5q-30 0 -55 25q-20 20 -33 30t-42.5 20t-69.5 10q-67 0 -101 -23.5t-34 -56.5
q0 -25 23 -42.5t60 -28.5t82 -21t90 -25.5t82 -37t60 -60t23 -90.5q0 -95 -80.5 -160t-224.5 -65q-116 0 -198 58t-82 107q0 26 19.5 45.5t45.5 19.5q30 0 55 -25q22 -22 37 -34.5t49.5 -26.5t73.5 -14zM276 835q0 9 2.5 17.5t5.5 13.5l2 4l60 110q22 40 60 40q26 0 43 -17
t17 -43q0 -13 -5 -25.5t-10 -18.5l-5 -6l-80 -100q-15 -20 -45 -20q-19 0 -32 13t-13 32z" />
    <glyph glyph-name="sacute" unicode="&#x15b;" horiz-adv-x="510" 
d="M250 105q105 0 105 55q0 19 -32 29t-77.5 17.5t-91 20.5t-77.5 46.5t-32 86.5q0 71 58.5 118t166.5 47q96 0 155.5 -40t59.5 -80q0 -26 -17 -43t-43 -17q-11 0 -25 6.5t-22 12.5l-8 6q-40 35 -100 35q-90 0 -90 -45q0 -19 32 -29t77.5 -17.5t91 -20.5t77.5 -46.5
t32 -86.5q0 -79 -60.5 -127t-179.5 -48q-99 0 -164.5 45t-65.5 85q0 26 17 43t43 17q30 0 60 -30q40 -40 110 -40zM228 635q0 9 2.5 17.5t5.5 13.5l2 4l60 110q22 40 60 40q26 0 43 -17t17 -43q0 -13 -5 -25.5t-10 -18.5l-5 -6l-80 -100q-15 -20 -45 -20q-19 0 -32 13
t-13 32z" />
    <glyph glyph-name="Scedilla" unicode="&#x15e;" horiz-adv-x="645" 
d="M310 110q160 0 160 95q0 24 -23 41t-60 27.5t-82 21t-90 26.5t-82 38t-60 60.5t-23 90.5q0 87 75.5 148.5t204.5 61.5q116 0 190.5 -50.5t74.5 -99.5q0 -26 -19.5 -45.5t-45.5 -19.5q-30 0 -55 25q-20 20 -33 30t-42.5 20t-69.5 10q-67 0 -101 -23.5t-34 -56.5
q0 -25 23 -42.5t60 -28.5t82 -21t90 -25.5t82 -37t60 -60t23 -90.5q0 -91 -73 -154.5t-204 -69.5v-31q59 0 94.5 -32.5t35.5 -82.5q0 -59 -41 -92t-124 -33q-50 0 -70 13.5t-20 41.5q0 15 11 25t29 10q6 0 21 -2.5t29 -2.5q32 0 48.5 12t16.5 28t-16.5 28t-48.5 12h-10
q-19 0 -32 13.5t-13 32.5v64q-93 15 -155.5 67t-62.5 93q0 26 19.5 45.5t45.5 19.5q30 0 55 -25q22 -22 37 -34.5t49.5 -26.5t73.5 -14z" />
    <glyph glyph-name="scedilla" unicode="&#x15f;" horiz-adv-x="510" 
d="M419 -165q0 -59 -41 -92t-124 -33q-50 0 -70 13.5t-20 41.5q0 15 11 25t29 10q6 0 21 -2.5t29 -2.5q32 0 48.5 12t16.5 28t-16.5 28t-48.5 12h-10q-19 0 -32 13.5t-13 32.5v68q-79 11 -129 51.5t-50 74.5q0 26 17 43t43 17q30 0 60 -30q40 -40 110 -40q105 0 105 55
q0 19 -32 29t-77.5 17.5t-91 20.5t-77.5 46.5t-32 86.5q0 71 58.5 118t166.5 47q96 0 155.5 -40t59.5 -80q0 -26 -17 -43t-43 -17q-11 0 -25 6.5t-22 12.5l-8 6q-40 35 -100 35q-90 0 -90 -45q0 -19 32 -29t77.5 -17.5t91 -20.5t77.5 -46.5t32 -86.5q0 -72 -50.5 -118.5
t-150.5 -54.5v-37q59 0 94.5 -32.5t35.5 -82.5z" />
    <glyph glyph-name="Scaron" unicode="&#x160;" horiz-adv-x="645" 
d="M310 110q160 0 160 95q0 24 -23 41t-60 27.5t-82 21t-90 26.5t-82 38t-60 60.5t-23 90.5q0 87 75.5 148.5t204.5 61.5q116 0 190.5 -50.5t74.5 -99.5q0 -26 -19.5 -45.5t-45.5 -19.5q-30 0 -55 25q-20 20 -33 30t-42.5 20t-69.5 10q-67 0 -101 -23.5t-34 -56.5
q0 -25 23 -42.5t60 -28.5t82 -21t90 -25.5t82 -37t60 -60t23 -90.5q0 -95 -80.5 -160t-224.5 -65q-116 0 -198 58t-82 107q0 26 19.5 45.5t45.5 19.5q30 0 55 -25q22 -22 37 -34.5t49.5 -26.5t73.5 -14zM330 895h6l87 105q15 20 40 20q19 0 32 -13t13 -32q0 -7 -2.5 -14.5
t-5.5 -11.5l-2 -4l-90 -115q-30 -40 -75 -40t-75 40l-90 115q-10 15 -10 30q0 19 13 32t32 13q11 0 21 -5t14 -10l5 -5z" />
    <glyph glyph-name="scaron" unicode="&#x161;" horiz-adv-x="510" 
d="M250 105q105 0 105 55q0 19 -32 29t-77.5 17.5t-91 20.5t-77.5 46.5t-32 86.5q0 71 58.5 118t166.5 47q96 0 155.5 -40t59.5 -80q0 -26 -17 -43t-43 -17q-11 0 -25 6.5t-22 12.5l-8 6q-40 35 -100 35q-90 0 -90 -45q0 -19 32 -29t77.5 -17.5t91 -20.5t77.5 -46.5
t32 -86.5q0 -79 -60.5 -127t-179.5 -48q-99 0 -164.5 45t-65.5 85q0 26 17 43t43 17q30 0 60 -30q40 -40 110 -40zM266 695h6l87 105q15 20 40 20q19 0 32 -13t13 -32q0 -7 -2.5 -14.5t-5.5 -11.5l-2 -4l-90 -115q-30 -40 -75 -40t-75 40l-90 115q-10 15 -10 30q0 19 13 32
t32 13q11 0 21 -5t14 -10l5 -5z" />
    <glyph glyph-name="Tcommaaccent" unicode="&#x162;" 
d="M70 700h480q30 0 50 -19t20 -46t-20 -46t-50 -19h-170v-505q0 -31 -19 -50.5t-51 -19.5q-33 0 -51.5 19.5t-18.5 50.5v505h-170q-30 0 -50 19t-20 46t20 46t50 19zM384 -160q0 -52 -40 -98.5t-85 -46.5q-25 0 -25 25q0 7 4.5 12.5t9.5 7.5l4 2q21 6 34 20.5t13 32.5
q-26 7 -40.5 24.5t-14.5 40.5q0 27 20 46t50 19q31 0 50.5 -22.5t19.5 -62.5z" />
    <glyph glyph-name="tcommaaccent" unicode="&#x163;" horiz-adv-x="460" 
d="M20 445q0 26 17 43t43 17h20v70q0 26 19.5 45.5t45.5 19.5t45.5 -19.5t19.5 -45.5v-70h110q27 0 43.5 -15.5t16.5 -44.5q0 -26 -17 -43t-43 -17h-110v-210q0 -35 23 -52.5t57 -17.5q9 0 17.5 2.5t12.5 4.5l5 3q15 10 35 10q26 0 43 -17t17 -43q0 -34 -36 -57t-109 -23
q-85 0 -140 54t-55 136v210h-20q-26 0 -43 17t-17 43zM330 -160q0 -52 -40 -98.5t-85 -46.5q-25 0 -25 25q0 7 4.5 12.5t9.5 7.5l4 2q21 6 34 20.5t13 32.5q-26 7 -40.5 24.5t-14.5 40.5q0 27 20 46t50 19q31 0 50.5 -22.5t19.5 -62.5z" />
    <glyph glyph-name="Tcaron" unicode="&#x164;" 
d="M70 700h480q30 0 50 -19t20 -46t-20 -46t-50 -19h-170v-505q0 -31 -19 -50.5t-51 -19.5q-33 0 -51.5 19.5t-18.5 50.5v505h-170q-30 0 -50 19t-20 46t20 46t50 19zM306 895h6l87 105q15 20 40 20q19 0 32 -13t13 -32q0 -7 -2.5 -14.5t-5.5 -11.5l-2 -4l-90 -115
q-30 -40 -75 -40t-75 40l-90 115q-10 15 -10 30q0 19 13 32t32 13q11 0 21 -5t14 -10l5 -5z" />
    <glyph glyph-name="tcaron" unicode="&#x165;" horiz-adv-x="578" 
d="M20 445q0 26 17 43t43 17h20v70q0 26 19.5 45.5t45.5 19.5t45.5 -19.5t19.5 -45.5v-70h110q27 0 43.5 -15.5t16.5 -44.5q0 -26 -17 -43t-43 -17h-110v-210q0 -35 23 -52.5t57 -17.5q9 0 17.5 2.5t12.5 4.5l5 3q15 10 35 10q26 0 43 -17t17 -43q0 -34 -36 -57t-109 -23
q-85 0 -140 54t-55 136v210h-20q-26 0 -43 17t-17 43zM578 620q0 -62 -45.5 -111t-99.5 -49q-25 0 -25 25q0 9 5 15t10 8l5 2q23 8 39 25t16 35q-30 7 -47.5 27.5t-17.5 46.5q0 31 23.5 53.5t56.5 22.5q35 0 57.5 -26.5t22.5 -73.5z" />
    <glyph glyph-name="Umacron" unicode="&#x16a;" horiz-adv-x="750" 
d="M145 705q30 0 50 -20t20 -50v-380q0 -65 43 -105t117 -40t117 40.5t43 105.5v379q0 30 20 50t50 20t50 -20t20 -50v-379q0 -119 -83.5 -197.5t-216.5 -78.5t-216.5 78.5t-83.5 196.5v380q0 30 20 50t50 20zM495 820h-240q-23 0 -36.5 14t-13.5 36t13.5 36t36.5 14h240
q23 0 36.5 -14t13.5 -36t-13.5 -36t-36.5 -14z" />
    <glyph glyph-name="umacron" unicode="&#x16b;" 
d="M425 40h-5q-5 -6 -14 -15t-44 -24.5t-77 -15.5q-91 0 -155.5 66.5t-64.5 163.5v235q0 27 18 46t47 19t47 -19t18 -46v-235q0 -49 31.5 -79.5t83.5 -30.5q49 0 82 31t33 79v235q0 26 19.5 45.5t45.5 19.5t45.5 -19.5t19.5 -45.5v-390q0 -26 -19.5 -45.5t-45.5 -19.5
q-28 0 -46.5 14.5t-18.5 30.5zM435 630h-240q-23 0 -36.5 14t-13.5 36t13.5 36t36.5 14h240q23 0 36.5 -14t13.5 -36t-13.5 -36t-36.5 -14z" />
    <glyph glyph-name="Uring" unicode="&#x16e;" horiz-adv-x="750" 
d="M145 705q30 0 50 -20t20 -50v-380q0 -65 43 -105t117 -40t117 40.5t43 105.5v379q0 30 20 50t50 20t50 -20t20 -50v-379q0 -119 -83.5 -197.5t-216.5 -78.5t-216.5 78.5t-83.5 196.5v380q0 30 20 50t50 20zM310 875q0 -26 19.5 -45.5t45.5 -19.5t45.5 19.5t19.5 45.5
t-19.5 45.5t-45.5 19.5t-45.5 -19.5t-19.5 -45.5zM520 875q0 -57 -41 -96t-104 -39t-104 39t-41 96t41 96t104 39t104 -39t41 -96z" />
    <glyph glyph-name="uring" unicode="&#x16f;" 
d="M425 40h-5q-5 -6 -14 -15t-44 -24.5t-77 -15.5q-91 0 -155.5 66.5t-64.5 163.5v235q0 27 18 46t47 19t47 -19t18 -46v-235q0 -49 31.5 -79.5t83.5 -30.5q49 0 82 31t33 79v235q0 26 19.5 45.5t45.5 19.5t45.5 -19.5t19.5 -45.5v-390q0 -26 -19.5 -45.5t-45.5 -19.5
q-28 0 -46.5 14.5t-18.5 30.5zM240 695q0 -26 19.5 -45.5t45.5 -19.5t45.5 19.5t19.5 45.5t-19.5 45.5t-45.5 19.5t-45.5 -19.5t-19.5 -45.5zM450 695q0 -57 -41 -96t-104 -39t-104 39t-41 96t41 96t104 39t104 -39t41 -96z" />
    <glyph glyph-name="Uhungarumlaut" unicode="&#x170;" horiz-adv-x="750" 
d="M145 705q30 0 50 -20t20 -50v-380q0 -65 43 -105t117 -40t117 40.5t43 105.5v379q0 30 20 50t50 20t50 -20t20 -50v-379q0 -119 -83.5 -197.5t-216.5 -78.5t-216.5 78.5t-83.5 196.5v380q0 30 20 50t50 20zM231 815q0 9 2.5 17.5t4.5 13.5l3 4l60 110q22 40 60 40
q26 0 43 -17t17 -43q0 -13 -5 -25.5t-10 -18.5l-5 -6l-80 -100q-15 -20 -45 -20q-19 0 -32 13t-13 32zM421 815q0 9 2.5 17.5t4.5 13.5l3 4l60 110q22 40 60 40q26 0 43 -17t17 -43q0 -13 -5 -25.5t-10 -18.5l-5 -6l-80 -100q-15 -20 -45 -20q-19 0 -32 13t-13 32z" />
    <glyph glyph-name="uhungarumlaut" unicode="&#x171;" 
d="M425 40h-5q-5 -6 -14 -15t-44 -24.5t-77 -15.5q-91 0 -155.5 66.5t-64.5 163.5v235q0 27 18 46t47 19t47 -19t18 -46v-235q0 -49 31.5 -79.5t83.5 -30.5q49 0 82 31t33 79v235q0 26 19.5 45.5t45.5 19.5t45.5 -19.5t19.5 -45.5v-390q0 -26 -19.5 -45.5t-45.5 -19.5
q-28 0 -46.5 14.5t-18.5 30.5zM157 645q0 9 2.5 17.5t4.5 13.5l3 4l60 110q22 40 60 40q26 0 43 -17t17 -43q0 -13 -5 -25.5t-10 -18.5l-5 -6l-80 -100q-15 -20 -45 -20q-19 0 -32 13t-13 32zM347 645q0 9 2.5 17.5t4.5 13.5l3 4l60 110q22 40 60 40q26 0 43 -17t17 -43
q0 -13 -5 -25.5t-10 -18.5l-5 -6l-80 -100q-15 -20 -45 -20q-19 0 -32 13t-13 32z" />
    <glyph glyph-name="Uogonek" unicode="&#x172;" horiz-adv-x="750" 
d="M439 -160q10 0 22.5 2.5t22.5 2.5q45 0 45 -45q0 -24 -21 -37t-74 -13q-70 0 -107.5 34.5t-37.5 95.5q0 62 61 101q-123 8 -199 85t-76 189v380q0 30 20 50t50 20t50 -20t20 -50v-380q0 -65 43 -105t117 -40t117 40.5t43 105.5v379q0 30 20 50t50 20t50 -20t20 -50v-379
q0 -89 -49 -158t-134 -99q-98 -54 -98 -119q0 -16 12 -28t33 -12z" />
    <glyph glyph-name="uogonek" unicode="&#x173;" 
d="M458 -160q10 0 22.5 2.5t22.5 2.5q45 0 45 -45q0 -24 -21 -37t-74 -13q-70 0 -107.5 34.5t-37.5 95.5q0 43 42 76.5t91 54.5q-16 12 -16 29h-5q-5 -6 -14 -15t-44 -24.5t-77 -15.5q-91 0 -155.5 66.5t-64.5 163.5v235q0 27 18 46t47 19t47 -19t18 -46v-235
q0 -49 31.5 -79.5t83.5 -30.5q49 0 82 31t33 79v235q0 26 19.5 45.5t45.5 19.5t45.5 -19.5t19.5 -45.5v-390q0 -21 -13 -38.5t-33 -23.5q-10 -5 -22 -13.5t-31 -24t-31 -37t-12 -43.5q0 -16 12 -28t33 -12z" />
    <glyph glyph-name="Ydieresis" unicode="&#x178;" horiz-adv-x="650" 
d="M580 705q30 0 50 -20t20 -50q0 -13 -6 -27t-12 -21l-7 -7l-230 -320v-195q0 -30 -20 -50t-50 -20q-33 0 -51.5 19.5t-18.5 50.5v195l-230 320q-25 25 -25 55t20 50t50 20q16 0 31 -8.5t22 -17.5l7 -9l192 -265h6l192 265q25 35 60 35zM144 855q0 27 20 46t50 19t50.5 -19
t20.5 -46t-20.5 -46t-50.5 -19t-50 19t-20 46zM354 855q0 27 20 46t50 19t50 -19t20 -46t-20 -46t-50 -19t-50 19t-20 46z" />
    <glyph glyph-name="Zacute" unicode="&#x179;" horiz-adv-x="625" 
d="M90 700h445q26 0 45.5 -19.5t19.5 -45.5q0 -18 -8.5 -36.5t-17.5 -28.5l-9 -10l-341 -424v-6h321q26 0 45.5 -19.5t19.5 -45.5t-19.5 -45.5t-45.5 -19.5h-465q-26 0 -45.5 19.5t-19.5 45.5q0 16 7.5 33.5t15.5 27.5l7 9l355 430v5h-305q-30 0 -50 19t-20 46
q0 26 19.5 45.5t45.5 19.5zM261 825q0 9 2.5 17.5t4.5 13.5l3 4l60 110q22 40 60 40q26 0 43 -17t17 -43q0 -13 -5 -25.5t-10 -18.5l-5 -6l-80 -100q-15 -20 -45 -20q-19 0 -32 13t-13 32z" />
    <glyph glyph-name="zacute" unicode="&#x17a;" horiz-adv-x="500" 
d="M40 125l250 260v5h-210q-26 0 -43 16.5t-17 43.5q0 26 17 43t43 17h335q26 0 45.5 -19.5t19.5 -45.5q0 -14 -4.5 -25t-8.5 -16.5t-17 -18.5l-250 -260v-5h230q26 0 43 -16.5t17 -43.5q0 -26 -17 -43t-43 -17h-355q-26 0 -45.5 19.5t-19.5 45.5q0 14 4.5 25t8.5 16.5
t17 18.5zM192 645q0 9 2.5 17.5t5.5 13.5l2 4l60 110q22 40 60 40q26 0 43 -17t17 -43q0 -13 -5 -25.5t-10 -18.5l-5 -6l-80 -100q-15 -20 -45 -20q-19 0 -32 13t-13 32z" />
    <glyph glyph-name="Zdotaccent" unicode="&#x17b;" horiz-adv-x="625" 
d="M90 700h445q26 0 45.5 -19.5t19.5 -45.5q0 -18 -8.5 -36.5t-17.5 -28.5l-9 -10l-341 -424v-6h321q26 0 45.5 -19.5t19.5 -45.5t-19.5 -45.5t-45.5 -19.5h-465q-26 0 -45.5 19.5t-19.5 45.5q0 16 7.5 33.5t15.5 27.5l7 9l355 430v5h-305q-30 0 -50 19t-20 46
q0 26 19.5 45.5t45.5 19.5zM241 865q0 27 20 46t50 19t50 -19t20 -46t-20 -46t-50 -19t-50 19t-20 46z" />
    <glyph glyph-name="zdotaccent" unicode="&#x17c;" horiz-adv-x="500" 
d="M40 125l250 260v5h-210q-26 0 -43 16.5t-17 43.5q0 26 17 43t43 17h335q26 0 45.5 -19.5t19.5 -45.5q0 -14 -4.5 -25t-8.5 -16.5t-17 -18.5l-250 -260v-5h230q26 0 43 -16.5t17 -43.5q0 -26 -17 -43t-43 -17h-355q-26 0 -45.5 19.5t-19.5 45.5q0 14 4.5 25t8.5 16.5
t17 18.5zM177 685q0 27 20 46t50 19t50 -19t20 -46t-20 -46t-50 -19t-50 19t-20 46z" />
    <glyph glyph-name="Zcaron" unicode="&#x17d;" horiz-adv-x="625" 
d="M90 700h445q26 0 45.5 -19.5t19.5 -45.5q0 -18 -8.5 -36.5t-17.5 -28.5l-9 -10l-341 -424v-6h321q26 0 45.5 -19.5t19.5 -45.5t-19.5 -45.5t-45.5 -19.5h-465q-26 0 -45.5 19.5t-19.5 45.5q0 16 7.5 33.5t15.5 27.5l7 9l355 430v5h-305q-30 0 -50 19t-20 46
q0 26 19.5 45.5t45.5 19.5zM308 895h6l87 105q15 20 40 20q19 0 32 -13t13 -32q0 -7 -2.5 -14.5t-5.5 -11.5l-2 -4l-90 -115q-30 -40 -75 -40t-75 40l-90 115q-10 15 -10 30q0 19 13 32t32 13q11 0 21 -5t14 -10l5 -5z" />
    <glyph glyph-name="zcaron" unicode="&#x17e;" horiz-adv-x="500" 
d="M40 125l250 260v5h-210q-26 0 -43 16.5t-17 43.5q0 26 17 43t43 17h335q26 0 45.5 -19.5t19.5 -45.5q0 -14 -4.5 -25t-8.5 -16.5t-17 -18.5l-250 -260v-5h230q26 0 43 -16.5t17 -43.5q0 -26 -17 -43t-43 -17h-355q-26 0 -45.5 19.5t-19.5 45.5q0 14 4.5 25t8.5 16.5
t17 18.5zM244 695h6l87 105q15 20 40 20q19 0 32 -13t13 -32q0 -7 -2.5 -14.5t-5.5 -11.5l-2 -4l-90 -115q-30 -40 -75 -40t-75 40l-90 115q-10 15 -10 30q0 19 13 32t32 13q11 0 21 -5t14 -10l5 -5z" />
    <glyph glyph-name="florin" unicode="&#x192;" horiz-adv-x="420" 
d="M30 445q0 26 17 43t43 17h20v25q0 82 55 136t140 54q73 0 109 -23t36 -57q0 -26 -17 -43t-43 -17q-9 0 -17.5 2.5t-12.5 5.5l-5 2q-15 10 -35 10q-34 0 -57 -17.5t-23 -52.5v-25h110q26 0 43 -17t17 -43q0 -29 -16.5 -44.5t-43.5 -15.5h-110v-325q0 -120 -70 -200
t-160 -80q-23 0 -41.5 18.5t-18.5 41.5q0 46 45 60q63 20 89 54t26 106v325h-20q-26 0 -43 17t-17 43z" />
    <glyph glyph-name="Scommaaccent" unicode="&#x218;" horiz-adv-x="645" 
d="M310 110q160 0 160 95q0 24 -23 41t-60 27.5t-82 21t-90 26.5t-82 38t-60 60.5t-23 90.5q0 87 75.5 148.5t204.5 61.5q116 0 190.5 -50.5t74.5 -99.5q0 -26 -19.5 -45.5t-45.5 -19.5q-30 0 -55 25q-20 20 -33 30t-42.5 20t-69.5 10q-67 0 -101 -23.5t-34 -56.5
q0 -25 23 -42.5t60 -28.5t82 -21t90 -25.5t82 -37t60 -60t23 -90.5q0 -95 -80.5 -160t-224.5 -65q-116 0 -198 58t-82 107q0 26 19.5 45.5t45.5 19.5q30 0 55 -25q22 -22 37 -34.5t49.5 -26.5t73.5 -14zM406 -170q0 -52 -40 -98.5t-85 -46.5q-25 0 -25 25q0 7 4.5 12.5
t9.5 7.5l4 2q21 6 34 20.5t13 32.5q-26 7 -40.5 24.5t-14.5 40.5q0 27 20 46t50 19q31 0 50.5 -22.5t19.5 -62.5z" />
    <glyph glyph-name="scommaaccent" unicode="&#x219;" horiz-adv-x="510" 
d="M250 105q105 0 105 55q0 19 -32 29t-77.5 17.5t-91 20.5t-77.5 46.5t-32 86.5q0 71 58.5 118t166.5 47q96 0 155.5 -40t59.5 -80q0 -26 -17 -43t-43 -17q-11 0 -25 6.5t-22 12.5l-8 6q-40 35 -100 35q-90 0 -90 -45q0 -19 32 -29t77.5 -17.5t91 -20.5t77.5 -46.5
t32 -86.5q0 -79 -60.5 -127t-179.5 -48q-99 0 -164.5 45t-65.5 85q0 26 17 43t43 17q30 0 60 -30q40 -40 110 -40zM344 -160q0 -52 -40 -98.5t-85 -46.5q-25 0 -25 25q0 7 4.5 12.5t9.5 7.5l4 2q21 6 34 20.5t13 32.5q-26 7 -40.5 24.5t-14.5 40.5q0 27 20 46t50 19
q31 0 50.5 -22.5t19.5 -62.5z" />
    <glyph glyph-name="afii57929" unicode="&#x2bc;" horiz-adv-x="230" 
d="M190 735q0 -52 -40 -98.5t-85 -46.5q-25 0 -25 25q0 7 4.5 12.5t9.5 7.5l4 2q21 6 34 20.5t13 32.5q-26 7 -40.5 24.5t-14.5 40.5q0 27 20 46t50 19q31 0 50.5 -22.5t19.5 -62.5z" />
    <glyph glyph-name="circumflex" unicode="&#x2c6;" horiz-adv-x="430" 
d="M218 715h-6l-87 -105q-15 -20 -40 -20q-19 0 -32 13t-13 32q0 7 2.5 14.5t5.5 11.5l2 4l90 115q30 40 75 40t75 -40l90 -115q10 -15 10 -30q0 -19 -13 -32t-32 -13q-11 0 -21 5t-14 10l-5 5z" />
    <glyph glyph-name="caron" unicode="&#x2c7;" horiz-adv-x="430" 
d="M212 695h6l87 105q15 20 40 20q19 0 32 -13t13 -32q0 -7 -2.5 -14.5t-5.5 -11.5l-2 -4l-90 -115q-30 -40 -75 -40t-75 40l-90 115q-10 15 -10 30q0 19 13 32t32 13q11 0 21 -5t14 -10l5 -5z" />
    <glyph glyph-name="breve" unicode="&#x2d8;" horiz-adv-x="430" 
d="M215 610q-75 0 -125 41t-50 89q0 22 14 36t36 14q17 0 26 -6.5t19 -23.5q16 -28 32 -39t48 -11t48 11t32 39q9 16 18 23t27 7q22 0 36 -14t14 -36q0 -48 -50 -89t-125 -41z" />
    <glyph glyph-name="dotaccent" unicode="&#x2d9;" horiz-adv-x="220" 
d="M40 695q0 27 20 46t50 19t50 -19t20 -46t-20 -46t-50 -19t-50 19t-20 46z" />
    <glyph glyph-name="ring" unicode="&#x2da;" horiz-adv-x="370" 
d="M120 695q0 -26 19.5 -45.5t45.5 -19.5t45.5 19.5t19.5 45.5t-19.5 45.5t-45.5 19.5t-45.5 -19.5t-19.5 -45.5zM330 695q0 -57 -41 -96t-104 -39t-104 39t-41 96t41 96t104 39t104 -39t41 -96z" />
    <glyph glyph-name="ogonek" unicode="&#x2db;" horiz-adv-x="320" 
d="M190 -160q10 0 22.5 2.5t22.5 2.5q45 0 45 -45q0 -24 -21 -37t-74 -13q-70 0 -107.5 34.5t-37.5 95.5q0 24 10.5 45.5t25 34.5t29 22.5t25.5 13.5l10 4h105q-4 -2 -11 -6t-24 -16t-30 -25.5t-24 -33t-11 -39.5q0 -16 12 -28t33 -12z" />
    <glyph glyph-name="tilde" unicode="&#x2dc;" horiz-adv-x="470" 
d="M170 685q-15 0 -25 -11t-15 -24t-16 -24t-28 -11q-20 0 -33 14t-13 36q0 49 35.5 84.5t84.5 35.5q29 0 51.5 -11.5t33.5 -26t25.5 -26t29.5 -11.5t25 11t15 24t16 24t28 11q20 0 33 -14t13 -36q0 -49 -35.5 -84.5t-84.5 -35.5q-37 0 -62 19t-42.5 37.5t-35.5 18.5z" />
    <glyph glyph-name="hungarumlaut" unicode="&#x2dd;" horiz-adv-x="460" 
d="M40 635q0 9 2.5 17.5t5.5 13.5l2 4l60 110q22 40 60 40q26 0 43 -17t17 -43q0 -13 -5 -25.5t-10 -18.5l-5 -6l-80 -100q-15 -20 -45 -20q-19 0 -32 13t-13 32zM230 635q0 9 2.5 17.5t5.5 13.5l2 4l60 110q22 40 60 40q26 0 43 -17t17 -43q0 -13 -5 -25.5t-10 -18.5l-5 -6
l-80 -100q-15 -20 -45 -20q-19 0 -32 13t-13 32z" />
    <glyph glyph-name="afii10023" unicode="&#x401;" horiz-adv-x="660" 
d="M575 570h-355v-160h265q26 0 43 -17t17 -43t-17 -43t-43 -17h-265v-160h365q26 0 45.5 -19.5t19.5 -45.5t-19.5 -45.5t-45.5 -19.5h-435q-30 0 -50 20t-20 50v560q0 30 20 50t50 20h425q26 0 45.5 -19.5t19.5 -45.5t-19.5 -45.5t-45.5 -19.5zM184 865q0 27 20 46t50 19
t50.5 -19t20.5 -46t-20.5 -46t-50.5 -19t-50 19t-20 46zM394 865q0 27 20 46t50 19t50 -19t20 -46t-20 -46t-50 -19t-50 19t-20 46z" />
    <glyph glyph-name="afii10051" unicode="&#x402;" horiz-adv-x="785" 
d="M50 700h410q30 0 50 -19t20 -46t-20 -46t-50 -19h-160v-165q85 40 185 40q116 0 188 -71t72 -184q0 -89 -68.5 -159.5t-151.5 -70.5q-26 0 -43 17t-17 43q0 43 50 60q40 13 65 41.5t25 68.5q0 58 -37.5 91.5t-107.5 33.5q-40 0 -80 -10t-60 -20l-20 -10v-210
q0 -31 -19 -50.5t-51 -19.5q-33 0 -51.5 19.5t-18.5 50.5v505h-110q-30 0 -50 19t-20 46t20 46t50 19z" />
    <glyph glyph-name="afii10052" unicode="&#x403;" horiz-adv-x="595" 
d="M530 570h-310v-505q0 -30 -20 -50t-50 -20t-50 20t-20 50v565q0 30 20 50t50 20h380q26 0 45.5 -19.5t19.5 -45.5t-19.5 -45.5t-45.5 -19.5zM291 825q0 9 2.5 17.5t4.5 13.5l3 4l60 110q22 40 60 40q26 0 43 -17t17 -43q0 -13 -5 -25.5t-10 -18.5l-5 -6l-80 -100
q-15 -20 -45 -20q-19 0 -32 13t-13 32z" />
    <glyph glyph-name="afii10053" unicode="&#x404;" horiz-adv-x="665" 
d="M370 110q39 0 73.5 14t49.5 26.5t37 34.5q25 25 55 25q26 0 45.5 -19.5t19.5 -45.5q0 -49 -82 -107t-198 -58q-137 0 -226 84t-89 206v160q0 122 89 206t226 84q116 0 190.5 -50.5t74.5 -99.5q0 -26 -19.5 -45.5t-45.5 -19.5q-30 0 -55 25q-20 20 -33 30t-42.5 20
t-69.5 10q-78 0 -126.5 -45.5t-48.5 -114.5v-20h210q26 0 43 -17t17 -43t-17 -43t-43 -17h-210v-20q0 -69 48.5 -114.5t126.5 -45.5z" />
    <glyph glyph-name="afii10054" unicode="&#x405;" horiz-adv-x="645" 
d="M310 110q160 0 160 95q0 24 -23 41t-60 27.5t-82 21t-90 26.5t-82 38t-60 60.5t-23 90.5q0 87 75.5 148.5t204.5 61.5q116 0 190.5 -50.5t74.5 -99.5q0 -26 -19.5 -45.5t-45.5 -19.5q-30 0 -55 25q-20 20 -33 30t-42.5 20t-69.5 10q-67 0 -101 -23.5t-34 -56.5
q0 -25 23 -42.5t60 -28.5t82 -21t90 -25.5t82 -37t60 -60t23 -90.5q0 -95 -80.5 -160t-224.5 -65q-116 0 -198 58t-82 107q0 26 19.5 45.5t45.5 19.5q30 0 55 -25q22 -22 37 -34.5t49.5 -26.5t73.5 -14z" />
    <glyph glyph-name="afii10055" unicode="&#x406;" horiz-adv-x="300" 
d="M220 635v-570q0 -31 -18.5 -50.5t-51.5 -19.5t-51.5 19.5t-18.5 50.5v570q0 30 20 50t50 20t50 -20t20 -50z" />
    <glyph glyph-name="afii10056" unicode="&#x407;" horiz-adv-x="310" 
d="M229 635v-570q0 -31 -18.5 -50.5t-51.5 -19.5t-51.5 19.5t-18.5 50.5v570q0 30 20 50t50 20t50 -20t20 -50zM-20 845q0 27 20 46t50 19t50.5 -19t20.5 -46t-20.5 -46t-50.5 -19t-50 19t-20 46zM190 845q0 27 20 46t50 19t50 -19t20 -46t-20 -46t-50 -19t-50 19t-20 46z
" />
    <glyph glyph-name="afii10057" unicode="&#x408;" horiz-adv-x="435" 
d="M360 635v-352q0 -137 -81.5 -220t-213.5 -83q-26 0 -45.5 19.5t-19.5 45.5t19.5 45.5t45.5 19.5q69 0 112 46.5t43 126.5v352q0 30 20 50t50 20t50 -20t20 -50z" />
    <glyph glyph-name="afii10058" unicode="&#x409;" horiz-adv-x="1075" 
d="M765 0h-195q-30 0 -50 20t-20 50v500h-210v-240q0 -151 -76 -250.5t-159 -99.5q-26 0 -45.5 19.5t-19.5 45.5q0 43 35 60q66 33 95.5 80t29.5 145v300q0 30 20 50t50 20h350q30 0 50 -20t20 -50v-150h125q124 0 202 -70t78 -170t-78 -170t-202 -70zM900 240
q0 50 -34.5 80t-100.5 30h-125v-220h125q66 0 100.5 30t34.5 80z" />
    <glyph glyph-name="afii10059" unicode="&#x40a;" horiz-adv-x="1070" 
d="M785 0h-225q-30 0 -50 20t-20 50v240h-270v-245q0 -31 -18.5 -50.5t-51.5 -19.5t-51.5 19.5t-18.5 50.5v570q0 30 20 50t50 20t50 -20t20 -50v-195h270v195q0 30 20 50t50 20t50 -20t20 -50v-195h155q114 0 184.5 -64t70.5 -156t-70.5 -156t-184.5 -64zM895 220
q0 42 -27.5 66t-82.5 24h-155v-180h155q55 0 82.5 24t27.5 66z" />
    <glyph glyph-name="afii10060" unicode="&#x40b;" horiz-adv-x="795" 
d="M675 -5q-33 0 -51.5 19.5t-18.5 50.5v115q0 68 -37 104t-108 36q-40 0 -80 -10t-60 -20l-20 -10v-215q0 -31 -19 -50.5t-51 -19.5q-33 0 -51.5 19.5t-18.5 50.5v505h-110q-30 0 -50 19t-20 46t20 46t50 19h410q30 0 50 -19t20 -46t-20 -46t-50 -19h-160v-160
q85 40 185 40q113 0 186.5 -75.5t73.5 -194.5v-115q0 -31 -18.5 -50.5t-51.5 -19.5z" />
    <glyph glyph-name="afii10061" unicode="&#x40c;" horiz-adv-x="690" 
d="M630 585l-195 -180l235 -295q20 -25 20 -50q0 -27 -18 -46t-47 -19q-16 0 -29.5 6.5t-19.5 12.5l-6 6l-235 295l-115 -105v-145q0 -31 -18.5 -50.5t-51.5 -19.5t-51.5 19.5t-18.5 50.5v570q0 30 20 50t50 20t50 -20t20 -50v-250l315 295q25 25 55 25q26 0 45.5 -19.5
t19.5 -45.5q0 -13 -6.5 -27t-12.5 -21zM302 795q0 9 2.5 17.5t5.5 13.5l2 4l60 110q22 40 60 40q26 0 43 -17t17 -43q0 -13 -5 -25.5t-10 -18.5l-5 -6l-80 -100q-15 -20 -45 -20q-19 0 -32 13t-13 32z" />
    <glyph glyph-name="afii10062" unicode="&#x40e;" horiz-adv-x="645" 
d="M265 170l-240 420q-15 25 -15 50q0 27 18 46t47 19q20 0 37.5 -12.5t25.5 -24.5l7 -13l190 -345h10l170 350q2 5 6.5 12.5t21.5 20t37 12.5q29 0 47 -19t18 -46q0 -9 -2.5 -19t-4.5 -15l-3 -6l-220 -430q-50 -97 -103.5 -143.5t-126.5 -46.5q-63 0 -101.5 28.5
t-38.5 61.5q0 26 17 43t43 17q17 0 40 -12.5t40 -12.5q47 0 80 65zM335 750q-90 0 -145 45t-55 105q0 19 15.5 34.5t34.5 15.5q33 0 50 -35q27 -55 100 -55t100 55q17 35 50 35q19 0 34.5 -15.5t15.5 -34.5q0 -60 -55 -105t-145 -45z" />
    <glyph glyph-name="afii10145" unicode="&#x40f;" horiz-adv-x="760" 
d="M220 635v-505h320v505q0 31 18.5 50.5t51.5 19.5t51.5 -19.5t18.5 -50.5v-565q0 -30 -20 -50t-50 -20h-160v-90q0 -31 -18.5 -50.5t-51.5 -19.5t-51.5 19.5t-18.5 50.5v90h-160q-30 0 -50 20t-20 50v565q0 31 18.5 50.5t51.5 19.5t51.5 -19.5t18.5 -50.5z" />
    <glyph glyph-name="afii10017" unicode="&#x410;" horiz-adv-x="710" 
d="M355 720q38 0 65 -20.5t40 -49.5l230 -540q10 -25 10 -45q0 -29 -20.5 -49.5t-49.5 -20.5q-52 0 -75 60l-45 115h-310l-45 -115q-23 -60 -75 -60q-29 0 -49.5 20.5t-20.5 49.5q0 9 2.5 20t5.5 18l2 7l230 540q13 29 40 49.5t65 20.5zM352 555l-102 -255h210l-102 255h-6z
" />
    <glyph glyph-name="afii10018" unicode="&#x411;" horiz-adv-x="700" 
d="M220 570v-130h195q114 0 184.5 -64t70.5 -156t-70.5 -156t-184.5 -64h-265q-30 0 -50 20t-20 50v560q0 30 20 50t50 20h405q26 0 45.5 -19.5t19.5 -45.5t-19.5 -45.5t-45.5 -19.5h-335zM220 130h195q54 0 82 25t28 65t-28 65t-82 25h-195v-180z" />
    <glyph glyph-name="afii10019" unicode="&#x412;" horiz-adv-x="710" 
d="M220 570v-145h180q47 0 71 20t24 55q0 32 -24 51t-71 19h-180zM220 305v-175h205q54 0 82 23t28 62q0 42 -27.5 66t-82.5 24h-205zM150 700h250q108 0 174 -54t66 -126q0 -33 -11 -60t-26 -42t-30.5 -25.5t-26.5 -14.5l-11 -3v-5q6 -1 15.5 -3t34.5 -13.5t44.5 -28.5
t35 -50t15.5 -75q0 -79 -71.5 -139.5t-183.5 -60.5h-275q-30 0 -50 20t-20 50v560q0 30 20 50t50 20z" />
    <glyph glyph-name="afii10020" unicode="&#x413;" horiz-adv-x="595" 
d="M530 570h-310v-505q0 -30 -20 -50t-50 -20t-50 20t-20 50v565q0 30 20 50t50 20h380q26 0 45.5 -19.5t19.5 -45.5t-19.5 -45.5t-45.5 -19.5z" />
    <glyph glyph-name="afii10021" unicode="&#x414;" horiz-adv-x="800" 
d="M635 0h-505v-90q0 -29 -20 -49.5t-50 -20.5t-50 20t-20 50v150q0 30 20 50t50 20h10q3 2 8.5 7t19.5 23t24.5 39t19 56.5t8.5 74.5v300q0 30 20 50t50 20h385q30 0 50 -20t20 -50v-500h30q30 0 50 -20t20 -50v-150q0 -30 -20 -50t-50 -20t-50 20t-20 50v90zM535 570h-245
v-240q0 -39 -8 -73.5t-19 -56t-22 -37t-19 -21.5l-8 -7v-5h321v440z" />
    <glyph glyph-name="afii10022" unicode="&#x415;" horiz-adv-x="660" 
d="M575 570h-355v-160h265q26 0 43 -17t17 -43t-17 -43t-43 -17h-265v-160h365q26 0 45.5 -19.5t19.5 -45.5t-19.5 -45.5t-45.5 -19.5h-435q-30 0 -50 20t-20 50v560q0 30 20 50t50 20h425q26 0 45.5 -19.5t19.5 -45.5t-19.5 -45.5t-45.5 -19.5z" />
    <glyph glyph-name="afii10024" unicode="&#x416;" horiz-adv-x="1020" 
d="M440 410v225q0 30 20 50t50 20t50 -20t20 -50v-225l285 270q25 25 55 25q26 0 45.5 -19.5t19.5 -45.5q0 -13 -6.5 -27t-12.5 -21l-6 -7l-195 -180l235 -295q20 -25 20 -50q0 -27 -18 -46t-47 -19q-16 0 -29.5 6.5t-19.5 12.5l-6 6l-235 295l-85 -80v-170
q0 -31 -18.5 -50.5t-51.5 -19.5t-51.5 19.5t-18.5 50.5v170l-85 80l-235 -295q-20 -25 -55 -25q-29 0 -47 19t-18 46q0 11 5 23.5t10 19.5l5 7l235 295l-195 180q-25 25 -25 55q0 26 19.5 45.5t45.5 19.5q13 0 27 -6.5t21 -12.5l7 -6z" />
    <glyph glyph-name="afii10025" unicode="&#x417;" horiz-adv-x="635" 
d="M290 -20q-116 0 -198 58t-82 107q0 26 19.5 45.5t45.5 19.5q30 0 55 -25q22 -22 37 -34.5t49.5 -26.5t73.5 -14q82 0 121 27.5t39 72.5q0 95 -160 95h-50q-26 0 -43 17t-17 43t17 43t43 17h60q64 0 97 24.5t33 60.5q0 33 -33.5 56.5t-96.5 23.5q-42 0 -73 -10t-44 -20
t-33 -30q-25 -25 -55 -25q-26 0 -45.5 19.5t-19.5 45.5q0 49 75 99.5t195 50.5q136 0 208 -56.5t72 -143.5q0 -34 -13.5 -62t-32.5 -44.5t-38 -28t-32 -15.5l-14 -5v-5q6 -1 15.5 -4t34.5 -15.5t44.5 -29t35 -47.5t15.5 -69q0 -95 -77 -155t-228 -60z" />
    <glyph glyph-name="afii10026" unicode="&#x418;" horiz-adv-x="770" 
d="M220 250h5l325 420q26 35 70 35q30 0 50 -20t20 -50v-570q0 -31 -18.5 -50.5t-51.5 -19.5t-51.5 19.5t-18.5 50.5v385h-5l-325 -420q-26 -35 -70 -35q-30 0 -50 20t-20 50v570q0 31 18.5 50.5t51.5 19.5t51.5 -19.5t18.5 -50.5v-385z" />
    <glyph glyph-name="afii10027" unicode="&#x419;" horiz-adv-x="770" 
d="M220 250h5l325 420q26 35 70 35q30 0 50 -20t20 -50v-570q0 -31 -18.5 -50.5t-51.5 -19.5t-51.5 19.5t-18.5 50.5v385h-5l-325 -420q-26 -35 -70 -35q-30 0 -50 20t-20 50v570q0 31 18.5 50.5t51.5 19.5t51.5 -19.5t18.5 -50.5v-385zM385 750q-90 0 -145 45t-55 105
q0 19 15.5 34.5t34.5 15.5q33 0 50 -35q27 -55 100 -55t100 55q17 35 50 35q19 0 34.5 -15.5t15.5 -34.5q0 -60 -55 -105t-145 -45z" />
    <glyph glyph-name="afii10028" unicode="&#x41a;" horiz-adv-x="690" 
d="M630 585l-195 -180l235 -295q20 -25 20 -50q0 -27 -18 -46t-47 -19q-16 0 -29.5 6.5t-19.5 12.5l-6 6l-235 295l-115 -105v-145q0 -31 -18.5 -50.5t-51.5 -19.5t-51.5 19.5t-18.5 50.5v570q0 30 20 50t50 20t50 -20t20 -50v-250l315 295q25 25 55 25q26 0 45.5 -19.5
t19.5 -45.5q0 -13 -6.5 -27t-12.5 -21z" />
    <glyph glyph-name="afii10029" unicode="&#x41b;" horiz-adv-x="765" 
d="M545 570h-255v-240q0 -151 -76 -250.5t-159 -99.5q-26 0 -45.5 19.5t-19.5 45.5q0 43 35 60q66 33 95.5 80t29.5 145v300q0 30 20 50t50 20h395q30 0 50 -20t20 -50v-565q0 -30 -20 -50t-50 -20t-50 20t-20 50v505z" />
    <glyph glyph-name="afii10030" unicode="&#x41c;" horiz-adv-x="965" 
d="M745 720q37 0 63 -22.5t32 -57.5l90 -530q5 -25 5 -50q0 -26 -19.5 -45.5t-45.5 -19.5q-29 0 -47.5 15.5t-22.5 39.5l-75 440h-5l-165 -360q-26 -55 -73 -55q-46 0 -72 55l-165 360h-5l-75 -440q-4 -24 -22.5 -39.5t-47.5 -15.5q-26 0 -45.5 19.5t-19.5 45.5l5 50l90 530
q6 35 32 57.5t63 22.5q31 0 55.5 -19t34.5 -41l170 -385h5l170 385q10 22 34.5 41t55.5 19z" />
    <glyph glyph-name="afii10031" unicode="&#x41d;" horiz-adv-x="755" 
d="M220 295v-230q0 -31 -18.5 -50.5t-51.5 -19.5t-51.5 19.5t-18.5 50.5v570q0 30 20 50t50 20t50 -20t20 -50v-220h315v220q0 30 20 50t50 20t50 -20t20 -50v-570q0 -31 -18.5 -50.5t-51.5 -19.5t-51.5 19.5t-18.5 50.5v230h-315z" />
    <glyph glyph-name="afii10032" unicode="&#x41e;" horiz-adv-x="740" 
d="M685 430v-160q0 -122 -89 -206t-226 -84t-226 84t-89 206v160q0 122 89 206t226 84t226 -84t89 -206zM370 110q78 0 126.5 45.5t48.5 114.5v160q0 69 -48.5 114.5t-126.5 45.5t-126.5 -45.5t-48.5 -114.5v-160q0 -69 48.5 -114.5t126.5 -45.5z" />
    <glyph glyph-name="afii10033" unicode="&#x41f;" horiz-adv-x="760" 
d="M220 570v-505q0 -31 -18.5 -50.5t-51.5 -19.5t-51.5 19.5t-18.5 50.5v565q0 30 20 50t50 20h460q30 0 50 -20t20 -50v-565q0 -31 -18.5 -50.5t-51.5 -19.5t-51.5 19.5t-18.5 50.5v505h-320z" />
    <glyph glyph-name="afii10034" unicode="&#x420;" horiz-adv-x="685" 
d="M515 460q0 50 -34.5 80t-100.5 30h-160v-220h160q66 0 100.5 30t34.5 80zM150 700h230q124 0 202 -70t78 -170t-78 -170t-202 -70h-160v-155q0 -30 -20 -50t-50 -20t-50 20t-20 50v565q0 30 20 50t50 20z" />
    <glyph glyph-name="afii10035" unicode="&#x421;" horiz-adv-x="665" 
d="M370 110q39 0 73.5 14t49.5 26.5t37 34.5q25 25 55 25q26 0 45.5 -19.5t19.5 -45.5q0 -49 -82 -107t-198 -58q-137 0 -226 84t-89 206v160q0 122 89 206t226 84q116 0 190.5 -50.5t74.5 -99.5q0 -26 -19.5 -45.5t-45.5 -19.5q-30 0 -55 25q-20 20 -33 30t-42.5 20
t-69.5 10q-78 0 -126.5 -45.5t-48.5 -114.5v-160q0 -69 48.5 -114.5t126.5 -45.5z" />
    <glyph glyph-name="afii10036" unicode="&#x422;" 
d="M70 700h480q30 0 50 -19t20 -46t-20 -46t-50 -19h-170v-505q0 -31 -19 -50.5t-51 -19.5q-33 0 -51.5 19.5t-18.5 50.5v505h-170q-30 0 -50 19t-20 46t20 46t50 19z" />
    <glyph glyph-name="afii10037" unicode="&#x423;" horiz-adv-x="645" 
d="M265 170l-240 420q-15 25 -15 50q0 27 18 46t47 19q20 0 37.5 -12.5t25.5 -24.5l7 -13l190 -345h10l170 350q2 5 6.5 12.5t21.5 20t37 12.5q29 0 47 -19t18 -46q0 -9 -2.5 -19t-4.5 -15l-3 -6l-220 -430q-50 -97 -103.5 -143.5t-126.5 -46.5q-63 0 -101.5 28.5
t-38.5 61.5q0 26 17 43t43 17q17 0 40 -12.5t40 -12.5q47 0 80 65z" />
    <glyph glyph-name="afii10038" unicode="&#x424;" horiz-adv-x="970" 
d="M485 770q30 0 50 -20t20 -50v-70h5q50 30 125 30q106 0 178 -76t72 -194v-80q0 -118 -72 -194t-178 -76q-33 0 -64.5 7.5t-46.5 14.5l-14 8h-5v-70q0 -31 -18.5 -50.5t-51.5 -19.5t-51.5 19.5t-18.5 50.5v70h-5q-50 -30 -125 -30q-106 0 -178 76t-72 194v80q0 118 72 194
t178 76q33 0 64.5 -7.5t46.5 -14.5l14 -8h5v70q0 30 20 50t50 20zM175 390v-80q0 -68 37 -104t108 -36q24 0 48 7.5t36 14.5l11 8v300q-40 30 -95 30q-71 0 -108 -36t-37 -104zM650 530q-24 0 -48 -7.5t-36 -14.5l-11 -8v-300q40 -30 95 -30q71 0 108 36t37 104v80
q0 68 -37 104t-108 36z" />
    <glyph glyph-name="afii10039" unicode="&#x425;" horiz-adv-x="665" 
d="M560 705q29 0 49.5 -20t20.5 -50q0 -13 -6 -27t-12 -21l-7 -7l-185 -220l200 -235q30 -30 30 -60q0 -28 -20.5 -49t-49.5 -21q-22 0 -35 7t-30 28l-180 220h-5l-180 -220q-17 -21 -30 -28t-35 -7q-29 0 -49.5 21t-20.5 49q0 13 7.5 28t15.5 23l7 9l200 235l-185 220
q-25 25 -25 55t20.5 50t49.5 20q37 0 65 -35l160 -200h5l160 200q27 35 65 35z" />
    <glyph glyph-name="afii10040" unicode="&#x426;" horiz-adv-x="790" 
d="M150 705q33 0 51.5 -19.5t18.5 -50.5v-505h305v505q0 31 18.5 50.5t51.5 19.5t51.5 -19.5t18.5 -50.5v-505h30q30 0 50 -20t20 -50v-150q0 -31 -18.5 -50.5t-51.5 -19.5t-51.5 19.5t-18.5 50.5v90h-475q-30 0 -50 20t-20 50v565q0 31 18.5 50.5t51.5 19.5z" />
    <glyph glyph-name="afii10041" unicode="&#x427;" horiz-adv-x="730" 
d="M130 705q33 0 51.5 -19.5t18.5 -50.5v-145q0 -140 150 -140q40 0 80 10t60 20l20 10v245q0 30 20 50t50 20t50 -20t20 -50v-570q0 -31 -18.5 -50.5t-51.5 -19.5t-51.5 19.5t-18.5 50.5v195q-85 -40 -185 -40q-117 0 -191 75t-74 195v145q0 31 18.5 50.5t51.5 19.5z" />
    <glyph glyph-name="afii10042" unicode="&#x428;" horiz-adv-x="1090" 
d="M220 635v-505h255v505q0 31 18.5 50.5t51.5 19.5t51.5 -19.5t18.5 -50.5v-505h255v505q0 31 18.5 50.5t51.5 19.5t51.5 -19.5t18.5 -50.5v-565q0 -30 -20 -50t-50 -20h-790q-30 0 -50 20t-20 50v565q0 31 18.5 50.5t51.5 19.5t51.5 -19.5t18.5 -50.5z" />
    <glyph glyph-name="afii10043" unicode="&#x429;" horiz-adv-x="1135" 
d="M150 0q-30 0 -50 20t-20 50v565q0 31 18.5 50.5t51.5 19.5t51.5 -19.5t18.5 -50.5v-505h255v505q0 31 18.5 50.5t51.5 19.5t51.5 -19.5t18.5 -50.5v-505h255v505q0 31 18.5 50.5t51.5 19.5t51.5 -19.5t18.5 -50.5v-505h30q30 0 50 -20t20 -50v-150q0 -31 -18.5 -50.5
t-51.5 -19.5t-51.5 19.5t-18.5 50.5v90h-820z" />
    <glyph glyph-name="afii10044" unicode="&#x42a;" horiz-adv-x="770" 
d="M595 240q0 50 -34.5 80t-100.5 30h-155v-220h155q66 0 100.5 30t34.5 80zM165 570h-120q-26 0 -45.5 19.5t-19.5 45.5t19.5 45.5t45.5 19.5h190q30 0 50 -20t20 -50v-150h155q124 0 202 -70t78 -170t-78 -170t-202 -70h-225q-30 0 -50 20t-20 50v500z" />
    <glyph glyph-name="afii10045" unicode="&#x42b;" horiz-adv-x="980" 
d="M505 240q0 50 -34.5 80t-100.5 30h-150v-220h150q66 0 100.5 30t34.5 80zM370 0h-220q-30 0 -50 20t-20 50v565q0 30 20 50t50 20t50 -20t20 -50v-155h150q124 0 202 -70t78 -170t-78 -170t-202 -70zM900 635v-570q0 -31 -18.5 -50.5t-51.5 -19.5t-51.5 19.5t-18.5 50.5
v570q0 30 20 50t50 20t50 -20t20 -50z" />
    <glyph glyph-name="afii10046" unicode="&#x42c;" horiz-adv-x="690" 
d="M515 240q0 50 -34.5 80t-100.5 30h-160v-220h160q66 0 100.5 30t34.5 80zM380 0h-230q-30 0 -50 20t-20 50v565q0 30 20 50t50 20t50 -20t20 -50v-155h160q124 0 202 -70t78 -170t-78 -170t-202 -70z" />
    <glyph glyph-name="afii10047" unicode="&#x42d;" horiz-adv-x="665" 
d="M295 110q78 0 126.5 45.5t48.5 114.5v20h-210q-26 0 -43 17t-17 43t17 43t43 17h210v20q0 69 -48.5 114.5t-126.5 45.5q-40 0 -69.5 -10t-42.5 -20t-33 -30q-25 -25 -55 -25q-26 0 -45.5 19.5t-19.5 45.5q0 49 74.5 99.5t190.5 50.5q137 0 226 -84t89 -206v-160
q0 -122 -89 -206t-226 -84q-116 0 -198 58t-82 107q0 26 19.5 45.5t45.5 19.5q30 0 55 -25q22 -22 37 -34.5t49.5 -26.5t73.5 -14z" />
    <glyph glyph-name="afii10048" unicode="&#x42e;" horiz-adv-x="1005" 
d="M220 295v-230q0 -31 -18.5 -50.5t-51.5 -19.5t-51.5 19.5t-18.5 50.5v570q0 30 20 50t50 20t50 -20t20 -50v-220h140v5q0 135 81.5 217.5t213.5 82.5t213.5 -82.5t81.5 -217.5v-140q0 -135 -81.5 -217.5t-213.5 -82.5t-213.5 82.5t-81.5 217.5v15h-140zM655 110
q72 0 113.5 44.5t41.5 125.5v140q0 81 -41.5 125.5t-113.5 44.5t-113.5 -44.5t-41.5 -125.5v-140q0 -81 41.5 -125.5t113.5 -44.5z" />
    <glyph glyph-name="afii10049" unicode="&#x42f;" horiz-adv-x="710" 
d="M325 700h235q30 0 50 -20t20 -50v-565q0 -30 -20 -50t-50 -20t-50 20t-20 50v175h-165l-180 -220q-20 -25 -55 -25q-29 0 -47 19t-18 46q0 11 5 23.5t10 19.5l5 7l135 160v5q-5 2 -13.5 6.5t-30 21.5t-38 37.5t-30 55.5t-13.5 74q0 97 74.5 163.5t195.5 66.5zM200 470
q0 -47 31.5 -73.5t93.5 -26.5h164v200h-164q-62 0 -93.5 -26.5t-31.5 -73.5z" />
    <glyph glyph-name="afii10065" unicode="&#x430;" horiz-adv-x="570" 
d="M255 105q58 0 91.5 25.5t33.5 64.5v20h-125q-46 0 -68 -15.5t-22 -39.5t22 -39.5t68 -15.5zM235 -15q-91 0 -148 51t-57 124q0 76 55 120.5t170 44.5h125q0 80 -110 80q-27 0 -49.5 -6.5t-31.5 -12.5l-9 -6q-30 -25 -55 -25q-26 0 -43 17t-17 43q0 40 53 75t152 35
q111 0 175.5 -56t64.5 -145v-264q0 -26 -19.5 -45.5t-45.5 -19.5q-28 0 -46.5 14.5t-18.5 30.5h-5q-5 -6 -14 -15t-45.5 -24.5t-80.5 -15.5z" />
    <glyph glyph-name="afii10066" unicode="&#x431;" horiz-adv-x="570" 
d="M290 -15q-111 0 -180.5 65.5t-69.5 164.5v190q0 120 65.5 195.5t174.5 94.5l140 25q28 5 55 5q23 0 39 -16.5t16 -38.5q0 -46 -65 -60l-155 -35q-84 -19 -117 -55.5t-33 -114.5h5l6.5 6.5t18.5 14.5t30 18t40 14.5t49 6.5q98 0 164.5 -66t66.5 -164v-20
q0 -99 -69.5 -164.5t-180.5 -65.5zM290 345q-56 0 -88 -30.5t-32 -79.5v-20q0 -49 32 -79.5t88 -30.5t88 30.5t32 79.5v20q0 49 -32 79.5t-88 30.5z" />
    <glyph glyph-name="afii10067" unicode="&#x432;" horiz-adv-x="580" 
d="M325 405h-130v-90h130q29 0 44.5 12.5t15.5 32.5t-15.5 32.5t-44.5 12.5zM195 105h150q33 0 51.5 16t18.5 39t-19 39t-51 16h-150v-110zM130 510h195q104 0 149.5 -33.5t45.5 -96.5q0 -36 -19 -62t-37 -34l-19 -9v-5q4 -1 11 -3t25.5 -11t32 -21.5t25 -36.5t11.5 -53
q0 -67 -50.5 -106t-154.5 -39h-215q-26 0 -45.5 19.5t-19.5 45.5v380q0 26 19.5 45.5t45.5 19.5z" />
    <glyph glyph-name="afii10068" unicode="&#x433;" horiz-adv-x="490" 
d="M65 60v385q0 26 19.5 45.5t45.5 19.5h300q26 0 43 -17t17 -43t-17 -43t-43 -17h-235v-330q0 -27 -18 -46t-47 -19t-47 19t-18 46z" />
    <glyph glyph-name="afii10069" unicode="&#x434;" horiz-adv-x="650" 
d="M630 55v-120q0 -26 -19.5 -45.5t-45.5 -19.5t-45.5 19.5t-19.5 45.5v65h-380v-65q0 -26 -19.5 -45.5t-45.5 -19.5t-45.5 19.5t-19.5 45.5v119q0 27 19.5 46.5t45.5 19.5h15q6 7 14 19t22 48.5t14 72.5v185q0 26 19.5 45.5t45.5 19.5h295q26 0 45.5 -19.5t19.5 -45.5v-325
h20q26 0 45.5 -19.5t19.5 -45.5zM250 390v-130q0 -36 -11 -69.5t-23 -49.5l-11 -16v-5h210v270h-165z" />
    <glyph glyph-name="afii10070" unicode="&#x435;" horiz-adv-x="565" 
d="M465 200h-295q0 -39 33 -67t87 -28q75 0 110 35q25 25 55 25q26 0 43 -17t17 -43q0 -40 -61.5 -80t-163.5 -40q-107 0 -178.5 67.5t-71.5 162.5v80q0 99 69.5 164.5t180.5 65.5q104 0 172 -66t68 -164v-30q0 -27 -18 -46t-47 -19zM170 310h230q0 39 -31.5 67t-79.5 28
q-54 0 -86.5 -28t-32.5 -67z" />
    <glyph glyph-name="afii10072" unicode="&#x436;" horiz-adv-x="790" 
d="M330 315v135q0 26 19.5 45.5t45.5 19.5t45.5 -19.5t19.5 -45.5v-135l195 175q25 25 55 25q25 0 42.5 -18.5t17.5 -41.5q0 -13 -6 -25.5t-12 -18.5l-7 -6l-135 -115l145 -180q25 -30 25 -55q0 -26 -17 -43t-43 -17q-13 0 -25.5 6.5t-18.5 12.5l-6 6l-150 190l-60 -55v-95
q0 -26 -19.5 -45.5t-45.5 -19.5t-45.5 19.5t-19.5 45.5v95l-60 55l-150 -190q-20 -25 -50 -25q-26 0 -43 17t-17 43q0 11 6 25t12 22l7 8l145 180l-135 115q-25 20 -25 50q0 23 17.5 41.5t42.5 18.5q13 0 27 -6.5t21 -12.5l7 -6z" />
    <glyph glyph-name="afii10073" unicode="&#x437;" horiz-adv-x="510" 
d="M240 105q105 0 105 55q0 50 -113 50h-32q-22 0 -38.5 16t-16.5 39t16.5 39t38.5 16h40q90 0 90 40q0 45 -90 45q-27 0 -52 -8.5t-36 -17.5l-12 -9q-30 -25 -55 -25q-26 0 -43 17t-17 43q0 41 58 80.5t157 39.5q113 0 169 -39.5t56 -100.5q0 -25 -9.5 -45.5t-22.5 -32
t-26 -19.5t-23 -10l-9 -3v-5q4 -1 11 -3t25.5 -11.5t32 -22.5t25 -37.5t11.5 -55.5q0 -65 -61.5 -110t-178.5 -45q-99 0 -164.5 45t-65.5 85q0 26 17 43t43 17q30 0 60 -30q40 -40 110 -40z" />
    <glyph glyph-name="afii10074" unicode="&#x438;" 
d="M420 300l-205 -250q-44 -55 -85 -55q-26 0 -45.5 19.5t-19.5 45.5v390q0 26 19.5 45.5t45.5 19.5t45.5 -19.5t19.5 -45.5v-240h5l205 250q44 55 85 55q26 0 45.5 -19.5t19.5 -45.5v-390q0 -26 -19.5 -45.5t-45.5 -19.5t-45.5 19.5t-19.5 45.5v240h-5z" />
    <glyph glyph-name="afii10075" unicode="&#x439;" 
d="M420 300l-205 -250q-44 -55 -85 -55q-26 0 -45.5 19.5t-19.5 45.5v390q0 26 19.5 45.5t45.5 19.5t45.5 -19.5t19.5 -45.5v-240h5l205 250q44 55 85 55q26 0 45.5 -19.5t19.5 -45.5v-390q0 -26 -19.5 -45.5t-45.5 -19.5t-45.5 19.5t-19.5 45.5v240h-5zM310 570
q-75 0 -125 41t-50 89q0 22 13.5 36t36.5 14q17 0 26 -6.5t19 -23.5q16 -28 32 -39t48 -11t48 11t32 39q9 16 18 23t27 7q23 0 36.5 -14t13.5 -36q0 -48 -50 -89t-125 -41z" />
    <glyph glyph-name="afii10076" unicode="&#x43a;" horiz-adv-x="545" 
d="M500 405l-135 -115l145 -180q25 -30 25 -55q0 -26 -17 -43t-43 -17q-13 0 -25.5 6.5t-18.5 12.5l-6 6l-150 190l-80 -70v-80q0 -26 -19.5 -45.5t-45.5 -19.5t-45.5 19.5t-19.5 45.5v390q0 26 19.5 45.5t45.5 19.5t45.5 -19.5t19.5 -45.5v-150l215 190q25 25 55 25
q25 0 42.5 -18.5t17.5 -41.5q0 -13 -6.5 -25.5t-12.5 -18.5z" />
    <glyph glyph-name="afii10077" unicode="&#x43b;" horiz-adv-x="610" 
d="M240 390v-130q0 -120 -60 -197.5t-130 -77.5q-26 0 -43 17t-17 43q0 37 35 55q42 21 63.5 55.5t21.5 104.5v185q0 26 19.5 45.5t45.5 19.5h305q26 0 45.5 -19.5t19.5 -45.5v-385q0 -27 -18 -46t-47 -19t-47 19t-18 46v330h-175z" />
    <glyph glyph-name="afii10078" unicode="&#x43c;" horiz-adv-x="765" 
d="M382 55q-26 0 -39.5 10t-25.5 35l-107 215h-5l-40 -245q-12 -75 -70 -75q-25 0 -45 19.5t-20 45.5l5 35l55 335q6 39 29.5 62t60.5 23q36 0 55.5 -19t44.5 -71l100 -210h5l100 210q25 52 44.5 71t55.5 19q37 0 60.5 -23t29.5 -62l55 -335q5 -25 5 -35q0 -26 -19.5 -45.5
t-45.5 -19.5q-58 0 -70 75l-40 245h-5l-107 -215q-12 -25 -25.5 -35t-40.5 -10z" />
    <glyph glyph-name="afii10079" unicode="&#x43d;" horiz-adv-x="615" 
d="M195 450v-145h225v145q0 26 19.5 45.5t45.5 19.5t45.5 -19.5t19.5 -45.5v-390q0 -26 -19.5 -45.5t-45.5 -19.5t-45.5 19.5t-19.5 45.5v135h-225v-135q0 -26 -19.5 -45.5t-45.5 -19.5t-45.5 19.5t-19.5 45.5v390q0 26 19.5 45.5t45.5 19.5t45.5 -19.5t19.5 -45.5z" />
    <glyph glyph-name="afii10080" unicode="&#x43e;" horiz-adv-x="580" 
d="M290 -15q-111 0 -180.5 65.5t-69.5 164.5v80q0 99 69.5 164.5t180.5 65.5t180.5 -65.5t69.5 -164.5v-80q0 -99 -69.5 -164.5t-180.5 -65.5zM290 405q-56 0 -88 -30.5t-32 -79.5v-80q0 -49 32 -79.5t88 -30.5t88 30.5t32 79.5v80q0 49 -32 79.5t-88 30.5z" />
    <glyph glyph-name="afii10081" unicode="&#x43f;" 
d="M130 510h360q26 0 45.5 -19.5t19.5 -45.5v-385q0 -26 -19.5 -45.5t-45.5 -19.5t-45.5 19.5t-19.5 45.5v330h-230v-330q0 -26 -19.5 -45.5t-45.5 -19.5t-45.5 19.5t-19.5 45.5v385q0 26 19.5 45.5t45.5 19.5z" />
    <glyph glyph-name="afii10082" unicode="&#x440;" horiz-adv-x="605" 
d="M65 -155v605q0 26 19.5 45.5t45.5 19.5q28 0 46.5 -14.5t18.5 -30.5h5q5 6 14 15t45.5 24.5t80.5 15.5q94 0 159.5 -66.5t65.5 -163.5v-80q0 -97 -65.5 -163.5t-159.5 -66.5q-44 0 -79 13.5t-48 27.5l-13 14h-5v-195q0 -26 -19.5 -45.5t-45.5 -19.5t-45.5 19.5
t-19.5 45.5zM315 105q56 0 88 30.5t32 79.5v80q0 49 -32 79.5t-88 30.5t-88 -30.5t-32 -79.5v-80q0 -49 32 -79.5t88 -30.5z" />
    <glyph glyph-name="afii10083" unicode="&#x441;" horiz-adv-x="535" 
d="M290 105q70 0 110 40q30 30 60 30q26 0 43 -17t17 -43q0 -40 -65.5 -85t-164.5 -45q-107 0 -178.5 67.5t-71.5 162.5v80q0 95 71.5 162.5t178.5 67.5q99 0 157 -39.5t58 -80.5q0 -26 -17 -43t-43 -17q-11 0 -25 6.5t-22 12.5l-8 6q-40 35 -100 35q-56 0 -88 -30.5
t-32 -79.5v-80q0 -49 32 -79.5t88 -30.5z" />
    <glyph glyph-name="afii10084" unicode="&#x442;" horiz-adv-x="510" 
d="M190 60v330h-130q-26 0 -43 17t-17 43t17 43t43 17h390q26 0 43 -17t17 -43t-17 -43t-43 -17h-130v-330q0 -27 -18 -46t-47 -19t-47 19t-18 46z" />
    <glyph glyph-name="afii10085" unicode="&#x443;" horiz-adv-x="540" 
d="M145 -110l65 140l-190 380q-15 24 -15 45q0 23 18.5 41.5t41.5 18.5q27 0 42 -14t28 -41l135 -285h5l135 295q20 45 65 45q23 0 41.5 -18.5t18.5 -41.5q0 -9 -2.5 -20.5t-4.5 -18.5l-3 -6l-270 -585q-20 -45 -65 -45q-22 0 -41 19t-19 41q0 10 4 22.5t8 19.5z" />
    <glyph glyph-name="afii10086" unicode="&#x444;" horiz-adv-x="840" 
d="M485 655v-160h5q35 30 110 30q84 0 142 -63t58 -162v-90q0 -99 -58 -162t-142 -63q-33 0 -60.5 7.5t-38.5 15.5l-11 7h-5v-170q0 -26 -19.5 -45.5t-45.5 -19.5t-45.5 19.5t-19.5 45.5v170h-5q-35 -30 -110 -30q-84 0 -142 63t-58 162v90q0 99 58 162t142 63
q33 0 60.5 -7.5t38.5 -15.5l11 -7h5v160q0 26 19.5 45.5t45.5 19.5t45.5 -19.5t19.5 -45.5zM170 300v-90q0 -45 29 -75t71 -30q22 0 43.5 7.5t31.5 15.5l10 7v240q-35 30 -85 30q-42 0 -71 -30t-29 -75zM670 210v90q0 45 -29 75t-71 30q-22 0 -43.5 -7.5t-31.5 -15.5l-10 -7
v-240q35 -30 85 -30q42 0 71 30t29 75z" />
    <glyph glyph-name="afii10087" unicode="&#x445;" horiz-adv-x="515" 
d="M425 515q26 0 43 -17t17 -43q0 -11 -6.5 -25t-12.5 -22l-6 -8l-119 -135l134 -155q30 -30 30 -55q0 -26 -17 -43t-43 -17q-16 0 -31 8.5t-22 16.5l-7 9l-125 146h-5l-125 -146q-25 -34 -60 -34q-26 0 -43 17t-17 43q0 11 7.5 25t14.5 22l8 8l134 155l-119 135
q-25 30 -25 55q0 26 17 43t43 17q13 0 28 -8.5t24 -17.5l8 -9l105 -120h5l105 120q30 35 60 35z" />
    <glyph glyph-name="afii10088" unicode="&#x446;" horiz-adv-x="645" 
d="M130 0q-26 0 -45.5 19.5t-19.5 45.5v385q0 26 19.5 45.5t45.5 19.5t45.5 -19.5t19.5 -45.5v-330h215v330q0 26 19.5 45.5t45.5 19.5t45.5 -19.5t19.5 -45.5v-330h20q26 0 45.5 -19.5t19.5 -45.5v-120q0 -26 -19.5 -45.5t-45.5 -19.5t-45.5 19.5t-19.5 45.5v65h-365z" />
    <glyph glyph-name="afii10089" unicode="&#x447;" horiz-adv-x="580" 
d="M110 515q26 0 45.5 -19.5t19.5 -45.5v-90q0 -38 28 -64t72 -26q29 0 56.5 6t40.5 12l13 7v155q0 26 19.5 45.5t45.5 19.5t45.5 -19.5t19.5 -45.5v-390q0 -26 -19 -45.5t-46 -19.5q-26 0 -45.5 19.5t-19.5 45.5v115q-60 -25 -130 -25q-97 0 -153.5 56t-56.5 154v90
q0 26 19.5 45.5t45.5 19.5z" />
    <glyph glyph-name="afii10090" unicode="&#x448;" horiz-adv-x="870" 
d="M740 0h-610q-26 0 -45.5 19.5t-19.5 45.5v385q0 26 19.5 45.5t45.5 19.5t45.5 -19.5t19.5 -45.5v-330h175v330q0 26 19.5 45.5t45.5 19.5t45.5 -19.5t19.5 -45.5v-330h175v330q0 26 19.5 45.5t45.5 19.5t45.5 -19.5t19.5 -45.5v-385q0 -26 -19.5 -45.5t-45.5 -19.5z" />
    <glyph glyph-name="afii10091" unicode="&#x449;" horiz-adv-x="910" 
d="M760 0h-630q-26 0 -45.5 19.5t-19.5 45.5v385q0 26 19.5 45.5t45.5 19.5t45.5 -19.5t19.5 -45.5v-330h175v330q0 26 19.5 45.5t45.5 19.5t45.5 -19.5t19.5 -45.5v-330h175v330q0 26 19.5 45.5t45.5 19.5t45.5 -19.5t19.5 -45.5v-330h20q26 0 45.5 -19.5t19.5 -45.5v-120
q0 -26 -19.5 -45.5t-45.5 -19.5t-45.5 19.5t-19.5 45.5v65z" />
    <glyph glyph-name="afii10092" unicode="&#x44a;" horiz-adv-x="605" 
d="M375 0h-175q-26 0 -45.5 19.5t-19.5 45.5v325h-85q-26 0 -43 17t-17 43t17 43t43 17h150q26 0 45.5 -19.5t19.5 -45.5v-95h110q95 0 152.5 -50.5t57.5 -124.5t-57.5 -124.5t-152.5 -50.5zM265 120h110q36 0 55.5 15.5t19.5 39.5t-19.5 39.5t-55.5 15.5h-110v-110z" />
    <glyph glyph-name="afii10093" unicode="&#x44b;" horiz-adv-x="785" 
d="M195 120h105q36 0 55.5 15.5t19.5 39.5t-19.5 39.5t-55.5 15.5h-105v-110zM300 0h-170q-26 0 -45.5 19.5t-19.5 45.5v385q0 26 19.5 45.5t45.5 19.5t45.5 -19.5t19.5 -45.5v-100h105q95 0 152.5 -50.5t57.5 -124.5t-57.5 -124.5t-152.5 -50.5zM720 450v-390
q0 -26 -19.5 -45.5t-45.5 -19.5t-45.5 19.5t-19.5 45.5v390q0 26 19.5 45.5t45.5 19.5t45.5 -19.5t19.5 -45.5z" />
    <glyph glyph-name="afii10094" unicode="&#x44c;" horiz-adv-x="545" 
d="M195 120h120q36 0 55.5 15.5t19.5 39.5t-19.5 39.5t-55.5 15.5h-120v-110zM315 0h-185q-26 0 -45.5 19.5t-19.5 45.5v385q0 26 19.5 45.5t45.5 19.5t45.5 -19.5t19.5 -45.5v-100h120q95 0 152.5 -50.5t57.5 -124.5t-57.5 -124.5t-152.5 -50.5z" />
    <glyph glyph-name="afii10095" unicode="&#x44d;" horiz-adv-x="535" 
d="M245 105q51 0 81.5 26t37.5 69h-144q-22 0 -38.5 16t-16.5 39t16.5 39t38.5 16h144q-7 43 -37.5 69t-81.5 26q-27 0 -52 -8.5t-37 -17.5l-11 -9q-30 -25 -55 -25q-26 0 -43 17t-17 43q0 41 58 80.5t157 39.5q107 0 178.5 -67.5t71.5 -162.5v-80q0 -95 -71.5 -162.5
t-178.5 -67.5q-99 0 -164.5 45t-65.5 85q0 26 17 43t43 17q30 0 60 -30q40 -40 110 -40z" />
    <glyph glyph-name="afii10096" unicode="&#x44e;" horiz-adv-x="800" 
d="M195 450v-140h85q0 92 66.5 153.5t173.5 61.5t173.5 -61.5t66.5 -153.5v-110q0 -92 -66.5 -153.5t-173.5 -61.5t-173.5 61.5t-66.5 153.5h-85v-140q0 -26 -19.5 -45.5t-45.5 -19.5t-45.5 19.5t-19.5 45.5v390q0 26 19.5 45.5t45.5 19.5t45.5 -19.5t19.5 -45.5zM520 105
q48 0 79 28t31 67v110q0 39 -31 67t-79 28t-79 -28t-31 -67v-110q0 -39 31 -67t79 -28z" />
    <glyph glyph-name="afii10097" unicode="&#x44f;" horiz-adv-x="577" 
d="M125 195v5q-3 2 -8.5 5t-19.5 15t-24.5 26.5t-19 38t-8.5 50.5q0 74 57.5 124.5t152.5 50.5h192q26 0 45.5 -19.5t19.5 -45.5v-385q0 -26 -19.5 -45.5t-45.5 -19.5t-45.5 19.5t-19.5 45.5v100h-127l-120 -140q-20 -25 -50 -25q-26 0 -43 17t-17 43q0 11 6.5 25t12.5 22
l6 8zM382 390h-127q-36 0 -55.5 -15.5t-19.5 -39.5t19.5 -39.5t55.5 -15.5h127v110z" />
    <glyph glyph-name="afii10071" unicode="&#x451;" horiz-adv-x="565" 
d="M465 200h-295q0 -39 33 -67t87 -28q75 0 110 35q25 25 55 25q26 0 43 -17t17 -43q0 -40 -61.5 -80t-163.5 -40q-107 0 -178.5 67.5t-71.5 162.5v80q0 99 69.5 164.5t180.5 65.5q104 0 172 -66t68 -164v-30q0 -27 -18 -46t-47 -19zM170 310h230q0 39 -31.5 67t-79.5 28
q-54 0 -86.5 -28t-32.5 -67zM114 665q0 27 20 46t50 19t50.5 -19t20.5 -46t-20.5 -46t-50.5 -19t-50 19t-20 46zM324 665q0 27 20 46t50 19t50 -19t20 -46t-20 -46t-50 -19t-50 19t-20 46z" />
    <glyph glyph-name="afii10099" unicode="&#x452;" horiz-adv-x="600" 
d="M80 500h-20q-26 0 -43 17t-17 43t17 43t43 17h20v45q0 26 19.5 45.5t45.5 19.5t45.5 -19.5t19.5 -45.5v-45h110q27 0 43.5 -15.5t16.5 -44.5q0 -26 -17 -43t-43 -17h-110v-95h5q5 6 14 15t44 24.5t77 15.5q91 0 155.5 -66.5t64.5 -163.5v-20q0 -110 -58.5 -180
t-136.5 -70q-23 0 -39 16t-16 39q0 35 40 55q80 40 80 140v20q0 49 -31.5 79.5t-83.5 30.5q-48 0 -81.5 -31.5t-33.5 -73.5v-175q0 -26 -19.5 -45.5t-45.5 -19.5t-45.5 19.5t-19.5 45.5v440z" />
    <glyph glyph-name="afii10100" unicode="&#x453;" horiz-adv-x="490" 
d="M65 60v385q0 26 19.5 45.5t45.5 19.5h300q26 0 43 -17t17 -43t-17 -43t-43 -17h-235v-330q0 -27 -18 -46t-47 -19t-47 19t-18 46zM240 635q0 9 2.5 17.5t5.5 13.5l2 4l60 110q22 40 60 40q26 0 43 -17t17 -43q0 -13 -5 -25.5t-10 -18.5l-5 -6l-80 -100q-15 -20 -45 -20
q-19 0 -32 13t-13 32z" />
    <glyph glyph-name="afii10101" unicode="&#x454;" horiz-adv-x="535" 
d="M290 105q70 0 110 40q30 30 60 30q26 0 43 -17t17 -43q0 -40 -65.5 -85t-164.5 -45q-107 0 -178.5 67.5t-71.5 162.5v80q0 95 71.5 162.5t178.5 67.5q99 0 157 -39.5t58 -80.5q0 -26 -17 -43t-43 -17q-11 0 -25 6.5t-22 12.5l-8 6q-40 35 -100 35q-51 0 -81.5 -26
t-37.5 -69h144q23 0 39 -16t16 -39t-16 -39t-39 -16h-144q7 -43 37.5 -69t81.5 -26z" />
    <glyph glyph-name="afii10102" unicode="&#x455;" horiz-adv-x="510" 
d="M250 105q95 0 95 55q0 19 -31 29t-75 17.5t-88 20.5t-75 46.5t-31 86.5q0 71 58.5 118t166.5 47q96 0 155.5 -40t59.5 -80q0 -26 -17 -43t-43 -17q-11 0 -25 6.5t-22 12.5l-8 6q-40 35 -100 35q-80 0 -80 -45q0 -19 31 -29t75 -17.5t88 -20.5t75 -46.5t31 -86.5
q0 -79 -60.5 -127t-179.5 -48q-99 0 -164.5 45t-65.5 85q0 26 17 43t43 17q30 0 60 -30q40 -40 110 -40z" />
    <glyph glyph-name="afii10103" unicode="&#x456;" horiz-adv-x="280" 
d="M205 450v-390q0 -26 -19.5 -45.5t-45.5 -19.5t-45.5 19.5t-19.5 45.5v390q0 26 19.5 45.5t45.5 19.5t45.5 -19.5t19.5 -45.5zM65 650q0 30 21 50t54 20t54 -20t21 -50t-21 -50t-54 -20t-54 20t-21 50z" />
    <glyph glyph-name="afii10104" unicode="&#x457;" horiz-adv-x="290" 
d="M213 450v-390q0 -26 -19.5 -45.5t-45.5 -19.5t-45.5 19.5t-19.5 45.5v390q0 26 19.5 45.5t45.5 19.5t45.5 -19.5t19.5 -45.5zM-30 695q0 27 20 46t50 19t50.5 -19t20.5 -46t-20.5 -46t-50.5 -19t-50 19t-20 46zM180 695q0 27 20 46t50 19t50 -19t20 -46t-20 -46t-50 -19
t-50 19t-20 46z" />
    <glyph glyph-name="afii10105" unicode="&#x458;" horiz-adv-x="285" 
d="M210 450v-390q0 -120 -70 -200t-160 -80q-23 0 -41.5 18.5t-18.5 41.5q0 46 45 60q63 20 89 54t26 106v390q0 26 19.5 45.5t45.5 19.5t45.5 -19.5t19.5 -45.5zM70 650q0 30 21 50t54 20t54 -20t21 -50t-21 -50t-54 -20t-54 20t-21 50z" />
    <glyph glyph-name="afii10106" unicode="&#x459;" horiz-adv-x="860" 
d="M630 0h-175q-26 0 -45.5 19.5t-19.5 45.5v325h-150v-130q0 -120 -60 -197.5t-130 -77.5q-26 0 -43 17t-17 43q0 37 35 55q42 21 63.5 55.5t21.5 104.5v185q0 26 19.5 45.5t45.5 19.5h280q26 0 45.5 -19.5t19.5 -45.5v-95h110q95 0 152.5 -50.5t57.5 -124.5t-57.5 -124.5
t-152.5 -50.5zM520 120h110q36 0 55.5 15.5t19.5 39.5t-19.5 39.5t-55.5 15.5h-110v-110z" />
    <glyph glyph-name="afii10107" unicode="&#x45a;" horiz-adv-x="870" 
d="M640 0h-180q-26 0 -45.5 19.5t-19.5 45.5v165h-200v-170q0 -26 -19.5 -45.5t-45.5 -19.5t-45.5 19.5t-19.5 45.5v390q0 26 19.5 45.5t45.5 19.5t45.5 -19.5t19.5 -45.5v-100h200v100q0 26 19.5 45.5t45.5 19.5t45.5 -19.5t19.5 -45.5v-100h115q95 0 152.5 -50.5
t57.5 -124.5t-57.5 -124.5t-152.5 -50.5zM525 120h115q36 0 55.5 15.5t19.5 39.5t-19.5 39.5t-55.5 15.5h-115v-110z" />
    <glyph glyph-name="afii10108" unicode="&#x45b;" horiz-adv-x="625" 
d="M570 210v-150q0 -26 -19.5 -45.5t-45.5 -19.5t-45.5 19.5t-19.5 45.5v150v20q0 49 -31.5 79.5t-83.5 30.5q-48 0 -81.5 -31.5t-33.5 -73.5v-175q0 -26 -19.5 -45.5t-45.5 -19.5t-45.5 19.5t-19.5 45.5v440h-20q-26 0 -43 17t-17 43t17 43t43 17h20v45q0 26 19.5 45.5
t45.5 19.5t45.5 -19.5t19.5 -45.5v-45h110q27 0 43.5 -15.5t16.5 -44.5q0 -26 -17 -43t-43 -17h-110v-95h5q5 6 14 15t44 24.5t77 15.5q91 0 155.5 -66.5t64.5 -163.5v-20z" />
    <glyph glyph-name="afii10109" unicode="&#x45c;" horiz-adv-x="545" 
d="M500 405l-135 -115l145 -180q25 -30 25 -55q0 -26 -17 -43t-43 -17q-13 0 -25.5 6.5t-18.5 12.5l-6 6l-150 190l-80 -70v-80q0 -26 -19.5 -45.5t-45.5 -19.5t-45.5 19.5t-19.5 45.5v390q0 26 19.5 45.5t45.5 19.5t45.5 -19.5t19.5 -45.5v-150l215 190q25 25 55 25
q25 0 42.5 -18.5t17.5 -41.5q0 -13 -6.5 -25.5t-12.5 -18.5zM244 605q0 9 2.5 17.5t5.5 13.5l2 4l60 110q22 40 60 40q26 0 43 -17t17 -43q0 -13 -5 -25.5t-10 -18.5l-5 -6l-80 -100q-15 -20 -45 -20q-19 0 -32 13t-13 32z" />
    <glyph glyph-name="afii10110" unicode="&#x45e;" horiz-adv-x="540" 
d="M145 -110l65 140l-190 380q-15 24 -15 45q0 23 18.5 41.5t41.5 18.5q27 0 42 -14t28 -41l135 -285h5l135 295q20 45 65 45q23 0 41.5 -18.5t18.5 -41.5q0 -9 -2.5 -20.5t-4.5 -18.5l-3 -6l-270 -585q-20 -45 -65 -45q-22 0 -41 19t-19 41q0 10 4 22.5t8 19.5zM274 580
q-75 0 -125 41t-50 89q0 22 13.5 36t36.5 14q17 0 26 -6.5t19 -23.5q16 -28 32 -39t48 -11t48 11t32 39q16 30 45 30q23 0 36.5 -14t13.5 -36q0 -48 -50 -89t-125 -41z" />
    <glyph glyph-name="afii10193" unicode="&#x45f;" 
d="M490 0h-115v-65q0 -26 -19.5 -45.5t-45.5 -19.5t-45.5 19.5t-19.5 45.5v65h-115q-26 0 -45.5 19.5t-19.5 45.5v385q0 26 19.5 45.5t45.5 19.5t45.5 -19.5t19.5 -45.5v-330h230v330q0 26 19.5 45.5t45.5 19.5t45.5 -19.5t19.5 -45.5v-385q0 -26 -19.5 -45.5t-45.5 -19.5z
" />
    <glyph glyph-name="afii10050" unicode="&#x490;" horiz-adv-x="595" 
d="M525 570h-305v-505q0 -30 -20 -50t-50 -20t-50 20t-20 50v565q0 30 20 50t50 20h305v40q0 30 20 50t50 20t50 -20t20 -50v-100q0 -30 -20 -50t-50 -20z" />
    <glyph glyph-name="afii10098" unicode="&#x491;" horiz-adv-x="490" 
d="M360 510v45q0 27 18 46t47 19t47 -19t18 -46v-100q0 -26 -19.5 -45.5t-45.5 -19.5h-230v-330q0 -27 -18 -46t-47 -19t-47 19t-18 46v385q0 26 19.5 45.5t45.5 19.5h230z" />
    <glyph glyph-name="uni1E9E" unicode="&#x1e9e;" horiz-adv-x="690" 
d="M660 200q0 -90 -70.5 -150t-204.5 -60q-23 0 -39 16t-16 39t16 39t39 16q62 0 96 29t34 76t-34 76t-96 29q-26 0 -45.5 19.5t-19.5 45.5q0 11 4 23.5t8 19.5l3 7l85 140v5h-75q-67 0 -103.5 -36t-36.5 -104v-365q0 -31 -18.5 -50.5t-51.5 -19.5t-51.5 19.5t-18.5 50.5
v365q0 121 77 195.5t204 74.5h169q26 0 45.5 -19.5t19.5 -45.5q0 -25 -4 -38t-16 -32l-100 -155v-5q79 0 139.5 -61.5t60.5 -143.5z" />
    <glyph glyph-name="endash" unicode="&#x2013;" horiz-adv-x="645" 
d="M565 260h-485q-26 0 -43 17t-17 43t17 43t43 17h485q26 0 43 -17t17 -43t-17 -43t-43 -17z" />
    <glyph glyph-name="emdash" unicode="&#x2014;" horiz-adv-x="895" 
d="M815 260h-735q-26 0 -43 17t-17 43t17 43t43 17h735q26 0 43 -17t17 -43t-17 -43t-43 -17z" />
    <glyph glyph-name="quoteleft" unicode="&#x2018;" horiz-adv-x="220" 
d="M30 550q0 62 45.5 111t99.5 49q25 0 25 -25q0 -9 -5 -15t-10 -8l-5 -2q-23 -8 -39 -25t-16 -35q30 -7 47.5 -27.5t17.5 -46.5q0 -31 -23.5 -53.5t-56.5 -22.5q-35 0 -57.5 26.5t-22.5 73.5z" />
    <glyph glyph-name="quoteright" unicode="&#x2019;" horiz-adv-x="220" 
d="M190 610q0 -62 -45.5 -111t-99.5 -49q-25 0 -25 25q0 9 5 15t10 8l5 2q23 8 39 25t16 35q-30 7 -47.5 27.5t-17.5 46.5q0 31 23.5 53.5t56.5 22.5q35 0 57.5 -26.5t22.5 -73.5z" />
    <glyph glyph-name="quotesinglbase" unicode="&#x201a;" horiz-adv-x="220" 
d="M190 40q0 -62 -45.5 -111t-99.5 -49q-25 0 -25 25q0 9 5 15t10 8l5 2q23 8 39 25t16 35q-30 7 -47.5 27.5t-17.5 46.5q0 31 23.5 53.5t56.5 22.5q35 0 57.5 -26.5t22.5 -73.5z" />
    <glyph glyph-name="quotedblleft" unicode="&#x201c;" horiz-adv-x="420" 
d="M30 550q0 62 45.5 111t99.5 49q25 0 25 -25q0 -9 -5 -15t-10 -8l-5 -2q-23 -8 -39 -25t-16 -35q30 -7 47.5 -27.5t17.5 -46.5q0 -31 -23.5 -53.5t-56.5 -22.5q-35 0 -57.5 26.5t-22.5 73.5zM230 550q0 62 45.5 111t99.5 49q25 0 25 -25q0 -9 -5 -15t-10 -8l-5 -2
q-23 -8 -39 -25t-16 -35q30 -7 47.5 -27.5t17.5 -46.5q0 -31 -23.5 -53.5t-56.5 -22.5q-35 0 -57.5 26.5t-22.5 73.5z" />
    <glyph glyph-name="quotedblright" unicode="&#x201d;" horiz-adv-x="420" 
d="M190 610q0 -62 -45.5 -111t-99.5 -49q-25 0 -25 25q0 9 5 15t10 8l5 2q23 8 39 25t16 35q-30 7 -47.5 27.5t-17.5 46.5q0 31 23.5 53.5t56.5 22.5q35 0 57.5 -26.5t22.5 -73.5zM390 610q0 -62 -45.5 -111t-99.5 -49q-25 0 -25 25q0 9 5 15t10 8l5 2q23 8 39 25t16 35
q-30 7 -47.5 27.5t-17.5 46.5q0 31 23.5 53.5t56.5 22.5q35 0 57.5 -26.5t22.5 -73.5z" />
    <glyph glyph-name="quotedblbase" unicode="&#x201e;" horiz-adv-x="420" 
d="M190 40q0 -62 -45.5 -111t-99.5 -49q-25 0 -25 25q0 9 5 15t10 8l5 2q23 8 39 25t16 35q-30 7 -47.5 27.5t-17.5 46.5q0 31 23.5 53.5t56.5 22.5q35 0 57.5 -26.5t22.5 -73.5zM390 40q0 -62 -45.5 -111t-99.5 -49q-25 0 -25 25q0 9 5 15t10 8l5 2q23 8 39 25t16 35
q-30 7 -47.5 27.5t-17.5 46.5q0 31 23.5 53.5t56.5 22.5q35 0 57.5 -26.5t22.5 -73.5z" />
    <glyph glyph-name="dagger" unicode="&#x2020;" horiz-adv-x="580" 
d="M90 520h130v165q0 30 20 50t50 20t50 -20t20 -50v-165h130q30 0 50 -19t20 -46t-20 -46t-50 -19h-130v-380q0 -31 -18.5 -50.5t-51.5 -19.5t-51.5 19.5t-18.5 50.5v380h-130q-30 0 -50 19t-20 46t20 46t50 19z" />
    <glyph glyph-name="daggerdbl" unicode="&#x2021;" horiz-adv-x="600" 
d="M100 560h130v125q0 30 20 50t50 20t50 -20t20 -50v-125h130q30 0 50 -19t20 -46t-20 -46t-50 -19h-130v-165h130q30 0 50 -19t20 -46t-20 -46t-50 -19h-130v-125q0 -31 -18.5 -50.5t-51.5 -19.5t-51.5 19.5t-18.5 50.5v125h-130q-30 0 -50 19t-20 46t20 46t50 19h130v165
h-130q-30 0 -50 19t-20 46t20 46t50 19z" />
    <glyph glyph-name="bullet" unicode="&#x2022;" horiz-adv-x="400" 
d="M90 320q0 46 32 78t78 32t78 -32t32 -78t-32 -78t-78 -32t-78 32t-32 78z" />
    <glyph glyph-name="ellipsis" unicode="&#x2026;" horiz-adv-x="775" 
d="M30 65q0 30 23.5 52.5t56.5 22.5t56.5 -22.5t23.5 -52.5t-23.5 -52.5t-56.5 -22.5t-56.5 22.5t-23.5 52.5zM310 65q0 30 23.5 52.5t56.5 22.5t56.5 -22.5t23.5 -52.5t-23.5 -52.5t-56.5 -22.5t-56.5 22.5t-23.5 52.5zM585 65q0 30 23.5 52.5t56.5 22.5t56.5 -22.5
t23.5 -52.5t-23.5 -52.5t-56.5 -22.5t-56.5 22.5t-23.5 52.5z" />
    <glyph glyph-name="perthousand" unicode="&#x2030;" horiz-adv-x="1260" 
d="M700 600l-405 -560q-30 -45 -65 -45q-26 0 -43 17t-17 43q0 11 4 22.5t8 16.5l3 6l405 560q30 45 65 45q26 0 43 -17t17 -43q0 -11 -3.5 -22.5t-7.5 -16.5zM200 360q-75 0 -122.5 46.5t-47.5 118.5v20q0 72 47.5 118.5t122.5 46.5t122.5 -46.5t47.5 -118.5v-20
q0 -72 -47.5 -118.5t-122.5 -46.5zM130 545v-20q0 -34 19.5 -54.5t50.5 -20.5t50.5 20.5t19.5 54.5v20q0 34 -19.5 54.5t-50.5 20.5t-50.5 -20.5t-19.5 -54.5zM675 -10q-75 0 -122.5 46.5t-47.5 118.5v20q0 72 47.5 118.5t122.5 46.5t122.5 -46.5t47.5 -118.5v-20
q0 -72 -47.5 -118.5t-122.5 -46.5zM605 175v-20q0 -34 19.5 -54.5t50.5 -20.5t50.5 20.5t19.5 54.5v20q0 34 -19.5 54.5t-50.5 20.5t-50.5 -20.5t-19.5 -54.5zM1060 -10q-75 0 -122.5 46.5t-47.5 118.5v20q0 72 47.5 118.5t122.5 46.5t122.5 -46.5t47.5 -118.5v-20
q0 -72 -47.5 -118.5t-122.5 -46.5zM990 175v-20q0 -34 19.5 -54.5t50.5 -20.5t50.5 20.5t19.5 54.5v20q0 34 -19.5 54.5t-50.5 20.5t-50.5 -20.5t-19.5 -54.5z" />
    <glyph glyph-name="guilsinglleft" unicode="&#x2039;" horiz-adv-x="395" 
d="M165 260v-10l170 -130q30 -25 30 -55q0 -26 -17 -43t-43 -17q-11 0 -22.5 3.5t-16.5 7.5l-6 4l-190 155q-21 18 -30.5 35t-9.5 45t9.5 45.5t30.5 34.5l190 155q20 15 45 15q26 0 43 -17t17 -43q0 -13 -7.5 -27t-15.5 -21l-7 -7z" />
    <glyph glyph-name="guilsinglright" unicode="&#x203a;" horiz-adv-x="395" 
d="M230 250v10l-170 130q-30 25 -30 55q0 26 17 43t43 17q11 0 22.5 -3.5t17.5 -7.5l5 -4l190 -155q21 -17 30.5 -34.5t9.5 -45.5t-9.5 -45t-30.5 -35l-190 -155q-20 -15 -45 -15q-26 0 -43 17t-17 43q0 13 7.5 27t14.5 21l8 7z" />
    <glyph glyph-name="fraction" unicode="&#x2044;" horiz-adv-x="590" 
d="M40 90l410 575q25 40 60 40q26 0 43 -17t17 -43q0 -11 -5 -23.5t-10 -19.5l-5 -7l-410 -575q-25 -40 -60 -40q-26 0 -43 17t-17 43q0 11 5 23.5t10 19.5z" />
    <glyph glyph-name="foursuperior" unicode="&#x2074;" horiz-adv-x="390" 
d="M264 360q-18 0 -31 13t-13 32v25h-165q-40 0 -40 40q0 23 20 45l185 175q15 15 42 15q19 0 33.5 -13.5t14.5 -31.5v-150h25q40 0 40 -40t-40 -40h-25v-25q0 -19 -13.5 -32t-32.5 -13zM220 585h-5l-75 -70v-5h80v75z" />
    <glyph glyph-name="Euro" unicode="&#x20ac;" horiz-adv-x="695" 
d="M241 475h189q22 0 36 -13.5t14 -36.5t-14 -36.5t-36 -13.5h-195v-50h195q22 0 36 -13.5t14 -36.5t-14 -36.5t-36 -13.5h-189q25 -115 169 -115q39 0 70.5 11.5t45 22t34.5 31.5q25 25 55 25q26 0 45.5 -19.5t19.5 -45.5q0 -49 -77 -102t-193 -53q-134 0 -212.5 65.5
t-99.5 179.5h-38q-22 0 -36 13.5t-14 36.5t14 36.5t36 13.5h35v50h-35q-22 0 -36 13.5t-14 36.5t14 36.5t36 13.5h38q21 114 99.5 179.5t212.5 65.5q116 0 188 -48t72 -97q0 -26 -19.5 -45.5t-45.5 -19.5q-30 0 -55 25q-19 19 -31.5 28.5t-40.5 18t-68 8.5q-144 0 -169 -115
z" />
    <glyph glyph-name="uni20B4" unicode="&#x20b4;" horiz-adv-x="690" 
d="M605 360h-520q-23 0 -39 16t-16 39t16 39t39 16h355q20 10 20 40q0 32 -31.5 56t-88.5 24q-40 0 -66.5 -7t-38 -15.5t-30.5 -27.5q-25 -25 -55 -25q-26 0 -45.5 19.5t-19.5 45.5q0 48 69 94t186 46q119 0 192 -62t73 -148l-5 -40h5q23 0 39 -16t16 -39t-16 -39t-39 -16z
M85 340h520q23 0 39 -16t16 -39t-16 -39t-39 -16h-355q-20 -10 -20 -40q0 -32 31.5 -56t88.5 -24q40 0 66.5 7t38 15.5t30.5 27.5q25 25 55 25q26 0 45.5 -19.5t19.5 -45.5q0 -48 -69 -94t-186 -46q-119 0 -192 62t-73 148l5 40h-5q-23 0 -39 16t-16 39t16 39t39 16z" />
    <glyph glyph-name="uni20BD" unicode="&#x20bd;" horiz-adv-x="675" 
d="M165 700h245q110 0 177.5 -60.5t67.5 -149.5t-67.5 -149.5t-177.5 -60.5h-175v-40h275q26 0 45.5 -19.5t19.5 -45.5t-19.5 -45.5t-45.5 -19.5h-275v-45q0 -30 -20 -50t-50 -20t-50 20t-20 50v45h-10q-26 0 -45.5 19.5t-19.5 45.5t19.5 45.5t45.5 19.5h10v40h-10
q-26 0 -45.5 19.5t-19.5 45.5t19.5 45.5t45.5 19.5h10v220q0 30 20 50t50 20zM510 490q0 35 -26.5 57.5t-73.5 22.5h-175v-160h175q47 0 73.5 22.5t26.5 57.5z" />
    <glyph glyph-name="afii61352" unicode="&#x2116;" horiz-adv-x="1155" 
d="M545 250h5v385q0 31 18.5 50.5t51.5 19.5t51.5 -19.5t18.5 -50.5v-570q0 -30 -20 -50t-50 -20q-44 0 -70 35l-325 420h-5v-385q0 -31 -18.5 -50.5t-51.5 -19.5t-51.5 19.5t-18.5 50.5v570q0 30 20 50t50 20q44 0 70 -35zM945 360q-75 0 -122.5 46.5t-47.5 118.5v20
q0 72 47.5 118.5t122.5 46.5t122.5 -46.5t47.5 -118.5v-20q0 -72 -47.5 -118.5t-122.5 -46.5zM875 545v-20q0 -34 19.5 -54.5t50.5 -20.5t50.5 20.5t19.5 54.5v20q0 34 -19.5 54.5t-50.5 20.5t-50.5 -20.5t-19.5 -54.5zM1055 175h-220q-55 0 -55 55t55 55h220q55 0 55 -55
t-55 -55z" />
    <glyph glyph-name="trademark" unicode="&#x2122;" horiz-adv-x="890" 
d="M613 385q-34 0 -53 40l-60 125h-5l-30 -150q-7 -33 -19.5 -46.5t-35.5 -13.5q-19 0 -32 14t-13 36l5 40l50 230q5 24 18 34.5t42 10.5q41 0 60 -45l70 -155h5l70 155q19 45 60 45q29 0 42 -10.5t18 -34.5l50 -230q5 -25 5 -40q0 -22 -13 -36t-32 -14q-23 0 -35.5 13.5
t-19.5 46.5l-30 150h-5l-60 -125q-19 -40 -52 -40zM135 610h-90q-19 0 -32 13t-13 32t13.5 32t32.5 13h279q19 0 32 -13t13 -32t-13 -32t-32 -13h-90v-220q0 -22 -13.5 -36t-36.5 -14t-36.5 14t-13.5 36v220z" />
    <glyph glyph-name="minus" unicode="&#x2212;" horiz-adv-x="560" 
d="M480 275h-400q-26 0 -43 17t-17 43t17 43t43 17h400q26 0 43 -17t17 -43t-17 -43t-43 -17z" />
    <glyph glyph-name="commaaccent" unicode="&#xf6c3;" horiz-adv-x="230" 
d="M190 -130q0 -52 -40 -98.5t-85 -46.5q-25 0 -25 25q0 7 4.5 12.5t9.5 7.5l4 2q21 6 34 20.5t13 32.5q-26 7 -40.5 24.5t-14.5 40.5q0 27 20 46t50 19q31 0 50.5 -22.5t19.5 -62.5z" />
    <glyph glyph-name="cyrBreve" unicode="&#xf6d1;" horiz-adv-x="480" 
d="M240 750q-90 0 -145 45t-55 105q0 19 15.5 34.5t34.5 15.5q32 0 50 -35q28 -55 100 -55t100 55q18 35 50 35q19 0 34.5 -15.5t15.5 -34.5q0 -60 -55 -105t-145 -45z" />
    <glyph glyph-name="cyrbreve" unicode="&#xf6d4;" horiz-adv-x="430" 
d="M215 570q-75 0 -125 41t-50 89q0 22 14 36t36 14q17 0 26 -6.5t19 -23.5q16 -28 32 -39t48 -11t48 11t32 39q9 16 18 23t27 7q22 0 36 -14t14 -36q0 -48 -50 -89t-125 -41z" />
    <glyph glyph-name="foundryicon" horiz-adv-x="1230" 
d="M100 -110v920h1030v-920h-1030zM1110 -90v880h-990v-880h990zM635 610h110q36 0 58 -19t22 -46t-22 -46t-58 -19h-55v-80h-55v210zM635 300h110q36 0 58 -19t22 -46t-22 -46t-58 -19h-55v-80h-55v210zM495 170l-75 130h60l40 -75h5l40 75h65l-80 -130v-80h-55v80z
M495 480l-75 130h60l40 -75h5l40 75h65l-80 -130v-80h-55v80zM300 255h-65v45h165l25 -45h-70v-165h-55v165zM300 565h-65v45h165l25 -45h-70v-165h-55v165zM790 400v65q20 4 38 21t22 39h80v-45h-85v-35h120v-45h-175zM790 90v65q20 4 38 21t22 39h80v-45h-85v-35h120v-45
h-175zM810 300h155v-45h-115q-9 37 -40 45zM810 610h155v-45h-115q-9 37 -40 45zM765 545q0 7 -6.5 13.5t-13.5 6.5h-55v-40h55q8 0 14 6t6 14zM765 235q0 7 -6.5 13.5t-13.5 6.5h-55v-40h55q8 0 14 6t6 14z" />
    <glyph glyph-name="Germandbls" horiz-adv-x="690" 
d="M660 200q0 -90 -70.5 -150t-204.5 -60q-23 0 -39 16t-16 39t16 39t39 16q62 0 96 29t34 76t-34 76t-96 29q-26 0 -45.5 19.5t-19.5 45.5q0 11 4 23.5t8 19.5l3 7l85 140v5h-75q-67 0 -103.5 -36t-36.5 -104v-365q0 -31 -18.5 -50.5t-51.5 -19.5t-51.5 19.5t-18.5 50.5
v365q0 121 77 195.5t204 74.5h169q26 0 45.5 -19.5t19.5 -45.5q0 -25 -4 -38t-16 -32l-100 -155v-5q79 0 139.5 -61.5t60.5 -143.5z" />
    </font>
</defs>
</svg>
